G04 #@! TF.GenerationSoftware,KiCad,Pcbnew,5.1.5+dfsg1-2build2*
G04 #@! TF.CreationDate,2021-05-06T12:51:34-03:00*
G04 #@! TF.ProjectId,driver-rgb-pwm,64726976-6572-42d7-9267-622d70776d2e,rev?*
G04 #@! TF.SameCoordinates,Original*
G04 #@! TF.FileFunction,Copper,L2,Bot*
G04 #@! TF.FilePolarity,Positive*
%FSLAX46Y46*%
G04 Gerber Fmt 4.6, Leading zero omitted, Abs format (unit mm)*
G04 Created by KiCad (PCBNEW 5.1.5+dfsg1-2build2) date 2021-05-06 12:51:34*
%MOMM*%
%LPD*%
G04 APERTURE LIST*
%ADD10C,1.800000*%
%ADD11C,1.600000*%
%ADD12O,1.600000X1.600000*%
%ADD13R,1.600000X1.600000*%
%ADD14O,1.740000X2.200000*%
%ADD15C,0.100000*%
%ADD16O,2.200000X1.740000*%
%ADD17R,1.905000X2.000000*%
%ADD18O,1.905000X2.000000*%
%ADD19O,2.400000X1.600000*%
%ADD20R,2.400000X1.600000*%
%ADD21C,1.000000*%
%ADD22C,0.254000*%
G04 APERTURE END LIST*
D10*
X114935000Y-112395000D03*
X117435000Y-112395000D03*
X119935000Y-112395000D03*
X90805000Y-112395000D03*
X93305000Y-112395000D03*
X95805000Y-112395000D03*
X66675000Y-112395000D03*
X69175000Y-112395000D03*
X71675000Y-112395000D03*
D11*
X77470000Y-104140000D03*
X77470000Y-106640000D03*
X101600000Y-104140000D03*
X101600000Y-106640000D03*
X60960000Y-95925000D03*
X60960000Y-98425000D03*
X85090000Y-95925000D03*
X85090000Y-98425000D03*
X125730000Y-104140000D03*
X125730000Y-106640000D03*
X109220000Y-95925000D03*
X109220000Y-98425000D03*
D12*
X57150000Y-111125000D03*
D13*
X57150000Y-103505000D03*
X81280000Y-103505000D03*
D12*
X81280000Y-111125000D03*
X57150000Y-98425000D03*
D13*
X57150000Y-90805000D03*
X81280000Y-91440000D03*
D12*
X81280000Y-99060000D03*
D13*
X105410000Y-103505000D03*
D12*
X105410000Y-111125000D03*
X105410000Y-98425000D03*
D13*
X105410000Y-90805000D03*
D14*
X74295000Y-84455000D03*
G04 #@! TA.AperFunction,ComponentPad*
D15*
G36*
X77479505Y-83356204D02*
G01*
X77503773Y-83359804D01*
X77527572Y-83365765D01*
X77550671Y-83374030D01*
X77572850Y-83384520D01*
X77593893Y-83397132D01*
X77613599Y-83411747D01*
X77631777Y-83428223D01*
X77648253Y-83446401D01*
X77662868Y-83466107D01*
X77675480Y-83487150D01*
X77685970Y-83509329D01*
X77694235Y-83532428D01*
X77700196Y-83556227D01*
X77703796Y-83580495D01*
X77705000Y-83604999D01*
X77705000Y-85305001D01*
X77703796Y-85329505D01*
X77700196Y-85353773D01*
X77694235Y-85377572D01*
X77685970Y-85400671D01*
X77675480Y-85422850D01*
X77662868Y-85443893D01*
X77648253Y-85463599D01*
X77631777Y-85481777D01*
X77613599Y-85498253D01*
X77593893Y-85512868D01*
X77572850Y-85525480D01*
X77550671Y-85535970D01*
X77527572Y-85544235D01*
X77503773Y-85550196D01*
X77479505Y-85553796D01*
X77455001Y-85555000D01*
X76214999Y-85555000D01*
X76190495Y-85553796D01*
X76166227Y-85550196D01*
X76142428Y-85544235D01*
X76119329Y-85535970D01*
X76097150Y-85525480D01*
X76076107Y-85512868D01*
X76056401Y-85498253D01*
X76038223Y-85481777D01*
X76021747Y-85463599D01*
X76007132Y-85443893D01*
X75994520Y-85422850D01*
X75984030Y-85400671D01*
X75975765Y-85377572D01*
X75969804Y-85353773D01*
X75966204Y-85329505D01*
X75965000Y-85305001D01*
X75965000Y-83604999D01*
X75966204Y-83580495D01*
X75969804Y-83556227D01*
X75975765Y-83532428D01*
X75984030Y-83509329D01*
X75994520Y-83487150D01*
X76007132Y-83466107D01*
X76021747Y-83446401D01*
X76038223Y-83428223D01*
X76056401Y-83411747D01*
X76076107Y-83397132D01*
X76097150Y-83384520D01*
X76119329Y-83374030D01*
X76142428Y-83365765D01*
X76166227Y-83359804D01*
X76190495Y-83356204D01*
X76214999Y-83355000D01*
X77455001Y-83355000D01*
X77479505Y-83356204D01*
G37*
G04 #@! TD.AperFunction*
D14*
X98425000Y-84455000D03*
G04 #@! TA.AperFunction,ComponentPad*
D15*
G36*
X101609505Y-83356204D02*
G01*
X101633773Y-83359804D01*
X101657572Y-83365765D01*
X101680671Y-83374030D01*
X101702850Y-83384520D01*
X101723893Y-83397132D01*
X101743599Y-83411747D01*
X101761777Y-83428223D01*
X101778253Y-83446401D01*
X101792868Y-83466107D01*
X101805480Y-83487150D01*
X101815970Y-83509329D01*
X101824235Y-83532428D01*
X101830196Y-83556227D01*
X101833796Y-83580495D01*
X101835000Y-83604999D01*
X101835000Y-85305001D01*
X101833796Y-85329505D01*
X101830196Y-85353773D01*
X101824235Y-85377572D01*
X101815970Y-85400671D01*
X101805480Y-85422850D01*
X101792868Y-85443893D01*
X101778253Y-85463599D01*
X101761777Y-85481777D01*
X101743599Y-85498253D01*
X101723893Y-85512868D01*
X101702850Y-85525480D01*
X101680671Y-85535970D01*
X101657572Y-85544235D01*
X101633773Y-85550196D01*
X101609505Y-85553796D01*
X101585001Y-85555000D01*
X100344999Y-85555000D01*
X100320495Y-85553796D01*
X100296227Y-85550196D01*
X100272428Y-85544235D01*
X100249329Y-85535970D01*
X100227150Y-85525480D01*
X100206107Y-85512868D01*
X100186401Y-85498253D01*
X100168223Y-85481777D01*
X100151747Y-85463599D01*
X100137132Y-85443893D01*
X100124520Y-85422850D01*
X100114030Y-85400671D01*
X100105765Y-85377572D01*
X100099804Y-85353773D01*
X100096204Y-85329505D01*
X100095000Y-85305001D01*
X100095000Y-83604999D01*
X100096204Y-83580495D01*
X100099804Y-83556227D01*
X100105765Y-83532428D01*
X100114030Y-83509329D01*
X100124520Y-83487150D01*
X100137132Y-83466107D01*
X100151747Y-83446401D01*
X100168223Y-83428223D01*
X100186401Y-83411747D01*
X100206107Y-83397132D01*
X100227150Y-83384520D01*
X100249329Y-83374030D01*
X100272428Y-83365765D01*
X100296227Y-83359804D01*
X100320495Y-83356204D01*
X100344999Y-83355000D01*
X101585001Y-83355000D01*
X101609505Y-83356204D01*
G37*
G04 #@! TD.AperFunction*
G04 #@! TA.AperFunction,ComponentPad*
G36*
X59294505Y-83586204D02*
G01*
X59318773Y-83589804D01*
X59342572Y-83595765D01*
X59365671Y-83604030D01*
X59387850Y-83614520D01*
X59408893Y-83627132D01*
X59428599Y-83641747D01*
X59446777Y-83658223D01*
X59463253Y-83676401D01*
X59477868Y-83696107D01*
X59490480Y-83717150D01*
X59500970Y-83739329D01*
X59509235Y-83762428D01*
X59515196Y-83786227D01*
X59518796Y-83810495D01*
X59520000Y-83834999D01*
X59520000Y-85075001D01*
X59518796Y-85099505D01*
X59515196Y-85123773D01*
X59509235Y-85147572D01*
X59500970Y-85170671D01*
X59490480Y-85192850D01*
X59477868Y-85213893D01*
X59463253Y-85233599D01*
X59446777Y-85251777D01*
X59428599Y-85268253D01*
X59408893Y-85282868D01*
X59387850Y-85295480D01*
X59365671Y-85305970D01*
X59342572Y-85314235D01*
X59318773Y-85320196D01*
X59294505Y-85323796D01*
X59270001Y-85325000D01*
X57569999Y-85325000D01*
X57545495Y-85323796D01*
X57521227Y-85320196D01*
X57497428Y-85314235D01*
X57474329Y-85305970D01*
X57452150Y-85295480D01*
X57431107Y-85282868D01*
X57411401Y-85268253D01*
X57393223Y-85251777D01*
X57376747Y-85233599D01*
X57362132Y-85213893D01*
X57349520Y-85192850D01*
X57339030Y-85170671D01*
X57330765Y-85147572D01*
X57324804Y-85123773D01*
X57321204Y-85099505D01*
X57320000Y-85075001D01*
X57320000Y-83834999D01*
X57321204Y-83810495D01*
X57324804Y-83786227D01*
X57330765Y-83762428D01*
X57339030Y-83739329D01*
X57349520Y-83717150D01*
X57362132Y-83696107D01*
X57376747Y-83676401D01*
X57393223Y-83658223D01*
X57411401Y-83641747D01*
X57431107Y-83627132D01*
X57452150Y-83614520D01*
X57474329Y-83604030D01*
X57497428Y-83595765D01*
X57521227Y-83589804D01*
X57545495Y-83586204D01*
X57569999Y-83585000D01*
X59270001Y-83585000D01*
X59294505Y-83586204D01*
G37*
G04 #@! TD.AperFunction*
D16*
X58420000Y-86995000D03*
G04 #@! TA.AperFunction,ComponentPad*
D15*
G36*
X125739505Y-83356204D02*
G01*
X125763773Y-83359804D01*
X125787572Y-83365765D01*
X125810671Y-83374030D01*
X125832850Y-83384520D01*
X125853893Y-83397132D01*
X125873599Y-83411747D01*
X125891777Y-83428223D01*
X125908253Y-83446401D01*
X125922868Y-83466107D01*
X125935480Y-83487150D01*
X125945970Y-83509329D01*
X125954235Y-83532428D01*
X125960196Y-83556227D01*
X125963796Y-83580495D01*
X125965000Y-83604999D01*
X125965000Y-85305001D01*
X125963796Y-85329505D01*
X125960196Y-85353773D01*
X125954235Y-85377572D01*
X125945970Y-85400671D01*
X125935480Y-85422850D01*
X125922868Y-85443893D01*
X125908253Y-85463599D01*
X125891777Y-85481777D01*
X125873599Y-85498253D01*
X125853893Y-85512868D01*
X125832850Y-85525480D01*
X125810671Y-85535970D01*
X125787572Y-85544235D01*
X125763773Y-85550196D01*
X125739505Y-85553796D01*
X125715001Y-85555000D01*
X124474999Y-85555000D01*
X124450495Y-85553796D01*
X124426227Y-85550196D01*
X124402428Y-85544235D01*
X124379329Y-85535970D01*
X124357150Y-85525480D01*
X124336107Y-85512868D01*
X124316401Y-85498253D01*
X124298223Y-85481777D01*
X124281747Y-85463599D01*
X124267132Y-85443893D01*
X124254520Y-85422850D01*
X124244030Y-85400671D01*
X124235765Y-85377572D01*
X124229804Y-85353773D01*
X124226204Y-85329505D01*
X124225000Y-85305001D01*
X124225000Y-83604999D01*
X124226204Y-83580495D01*
X124229804Y-83556227D01*
X124235765Y-83532428D01*
X124244030Y-83509329D01*
X124254520Y-83487150D01*
X124267132Y-83466107D01*
X124281747Y-83446401D01*
X124298223Y-83428223D01*
X124316401Y-83411747D01*
X124336107Y-83397132D01*
X124357150Y-83384520D01*
X124379329Y-83374030D01*
X124402428Y-83365765D01*
X124426227Y-83359804D01*
X124450495Y-83356204D01*
X124474999Y-83355000D01*
X125715001Y-83355000D01*
X125739505Y-83356204D01*
G37*
G04 #@! TD.AperFunction*
D14*
X122555000Y-84455000D03*
D17*
X71755000Y-90805000D03*
D18*
X69215000Y-90805000D03*
X66675000Y-90805000D03*
X90805000Y-90805000D03*
X93345000Y-90805000D03*
D17*
X95885000Y-90805000D03*
X120015000Y-90805000D03*
D18*
X117475000Y-90805000D03*
X114935000Y-90805000D03*
D12*
X60960000Y-103505000D03*
D11*
X60960000Y-108585000D03*
X85090000Y-108585000D03*
D12*
X85090000Y-103505000D03*
D11*
X77470000Y-90805000D03*
D12*
X77470000Y-100965000D03*
X101600000Y-100965000D03*
D11*
X101600000Y-90805000D03*
D12*
X64135000Y-84455000D03*
D11*
X69215000Y-84455000D03*
X93345000Y-84455000D03*
D12*
X88265000Y-84455000D03*
X109220000Y-103505000D03*
D11*
X109220000Y-108585000D03*
D12*
X125730000Y-100965000D03*
D11*
X125730000Y-90805000D03*
X117475000Y-84455000D03*
D12*
X112395000Y-84455000D03*
D19*
X65405000Y-106045000D03*
X73025000Y-98425000D03*
X65405000Y-103505000D03*
X73025000Y-100965000D03*
X65405000Y-100965000D03*
X73025000Y-103505000D03*
X65405000Y-98425000D03*
D20*
X73025000Y-106045000D03*
X97155000Y-106045000D03*
D19*
X89535000Y-98425000D03*
X97155000Y-103505000D03*
X89535000Y-100965000D03*
X97155000Y-100965000D03*
X89535000Y-103505000D03*
X97155000Y-98425000D03*
X89535000Y-106045000D03*
D20*
X121285000Y-106045000D03*
D19*
X113665000Y-98425000D03*
X121285000Y-103505000D03*
X113665000Y-100965000D03*
X121285000Y-100965000D03*
X113665000Y-103505000D03*
X121285000Y-98425000D03*
X113665000Y-106045000D03*
D21*
X73025000Y-103505000D02*
X75565000Y-103505000D01*
X75565000Y-103505000D02*
X76200000Y-104140000D01*
X76200000Y-104140000D02*
X77470000Y-104140000D01*
X67605000Y-100965000D02*
X70145000Y-103505000D01*
X65405000Y-100965000D02*
X67605000Y-100965000D01*
X70145000Y-103505000D02*
X73025000Y-103505000D01*
X69215000Y-104435000D02*
X70145000Y-103505000D01*
X69215000Y-112395000D02*
X69215000Y-104435000D01*
X94615000Y-103505000D02*
X97155000Y-103505000D01*
X92075000Y-100965000D02*
X94615000Y-103505000D01*
X89535000Y-100965000D02*
X92075000Y-100965000D01*
X93345000Y-112395000D02*
X93345000Y-104775000D01*
X93345000Y-104775000D02*
X94615000Y-103505000D01*
X97155000Y-103505000D02*
X99695000Y-103505000D01*
X99695000Y-103505000D02*
X100330000Y-104140000D01*
X100330000Y-104140000D02*
X101600000Y-104140000D01*
X65405000Y-98425000D02*
X60960000Y-98425000D01*
X89535000Y-98425000D02*
X85090000Y-98425000D01*
X113665000Y-100965000D02*
X116205000Y-100965000D01*
X118745000Y-103505000D02*
X121285000Y-103505000D01*
X117475000Y-104140000D02*
X118110000Y-103505000D01*
X117475000Y-112395000D02*
X117475000Y-104140000D01*
X118110000Y-103505000D02*
X118745000Y-103505000D01*
X116205000Y-100965000D02*
X118110000Y-103505000D01*
X124460000Y-104140000D02*
X125730000Y-104140000D01*
X123825000Y-103505000D02*
X124460000Y-104140000D01*
X121285000Y-103505000D02*
X123825000Y-103505000D01*
X109220000Y-98425000D02*
X113665000Y-98425000D01*
X65405000Y-103505000D02*
X60960000Y-103505000D01*
X60960000Y-103505000D02*
X57150000Y-103505000D01*
X57150000Y-103505000D02*
X57150000Y-98425000D01*
X81280000Y-103505000D02*
X85090000Y-103505000D01*
X85090000Y-103505000D02*
X89535000Y-103505000D01*
X81280000Y-99060000D02*
X81280000Y-103505000D01*
X55880000Y-113030000D02*
X66040000Y-113030000D01*
X55245000Y-112395000D02*
X55880000Y-113030000D01*
X66040000Y-113030000D02*
X66675000Y-112395000D01*
X57150000Y-91440000D02*
X55245000Y-93345000D01*
X55245000Y-93345000D02*
X55245000Y-112395000D01*
X57150000Y-90805000D02*
X57150000Y-91440000D01*
X80010000Y-113030000D02*
X90170000Y-113030000D01*
X79375000Y-112395000D02*
X80010000Y-113030000D01*
X90170000Y-113030000D02*
X90805000Y-112395000D01*
X79375000Y-94615000D02*
X79375000Y-112395000D01*
X81280000Y-92710000D02*
X79375000Y-94615000D01*
X81280000Y-91440000D02*
X81280000Y-92710000D01*
X113665000Y-103505000D02*
X109220000Y-103505000D01*
X105410000Y-103505000D02*
X109220000Y-103505000D01*
X105410000Y-98425000D02*
X105410000Y-103505000D01*
X114300000Y-113030000D02*
X114935000Y-112395000D01*
X104140000Y-113030000D02*
X114300000Y-113030000D01*
X103505000Y-93980000D02*
X103505000Y-112395000D01*
X105410000Y-92075000D02*
X103505000Y-93980000D01*
X103505000Y-112395000D02*
X104140000Y-113030000D01*
X105410000Y-90805000D02*
X105410000Y-92075000D01*
X73025000Y-84455000D02*
X74295000Y-84455000D01*
X69215000Y-88265000D02*
X73025000Y-84455000D01*
X69215000Y-90805000D02*
X69215000Y-88265000D01*
X97155000Y-84455000D02*
X98425000Y-84455000D01*
X93345000Y-88265000D02*
X97155000Y-84455000D01*
X93345000Y-90805000D02*
X93345000Y-88265000D01*
X121285000Y-84455000D02*
X122555000Y-84455000D01*
X117475000Y-88265000D02*
X121285000Y-84455000D01*
X117475000Y-90805000D02*
X117475000Y-88265000D01*
X71755000Y-90805000D02*
X77470000Y-90805000D01*
X66675000Y-86995000D02*
X69215000Y-84455000D01*
X66675000Y-90805000D02*
X66675000Y-86995000D01*
X90805000Y-90805000D02*
X90805000Y-86995000D01*
X90805000Y-86995000D02*
X93345000Y-84455000D01*
X95885000Y-90805000D02*
X101600000Y-90805000D01*
X125730000Y-90805000D02*
X120015000Y-90805000D01*
X114935000Y-86995000D02*
X117475000Y-84455000D01*
X114935000Y-90805000D02*
X114935000Y-86995000D01*
X73025000Y-100965000D02*
X77470000Y-100965000D01*
X97155000Y-100965000D02*
X101600000Y-100965000D01*
X125730000Y-100965000D02*
X121285000Y-100965000D01*
D22*
G36*
X128143000Y-82613500D02*
G01*
X128143000Y-112966500D01*
X125687667Y-114808000D01*
X56567606Y-114808000D01*
X55925605Y-114165999D01*
X55935752Y-114165000D01*
X65984249Y-114165000D01*
X66040000Y-114170491D01*
X66095751Y-114165000D01*
X66095752Y-114165000D01*
X66262499Y-114148577D01*
X66476447Y-114083676D01*
X66673623Y-113978284D01*
X66732457Y-113930000D01*
X66826184Y-113930000D01*
X67122743Y-113871011D01*
X67402095Y-113755299D01*
X67653505Y-113587312D01*
X67867312Y-113373505D01*
X67925000Y-113287169D01*
X67982688Y-113373505D01*
X68196495Y-113587312D01*
X68447905Y-113755299D01*
X68727257Y-113871011D01*
X69023816Y-113930000D01*
X69326184Y-113930000D01*
X69622743Y-113871011D01*
X69902095Y-113755299D01*
X70153505Y-113587312D01*
X70367312Y-113373505D01*
X70425000Y-113287169D01*
X70482688Y-113373505D01*
X70696495Y-113587312D01*
X70947905Y-113755299D01*
X71227257Y-113871011D01*
X71523816Y-113930000D01*
X71826184Y-113930000D01*
X72122743Y-113871011D01*
X72402095Y-113755299D01*
X72653505Y-113587312D01*
X72867312Y-113373505D01*
X73035299Y-113122095D01*
X73151011Y-112842743D01*
X73210000Y-112546184D01*
X73210000Y-112243816D01*
X73151011Y-111947257D01*
X73035299Y-111667905D01*
X72867312Y-111416495D01*
X72653505Y-111202688D01*
X72402095Y-111034701D01*
X72122743Y-110918989D01*
X71826184Y-110860000D01*
X71523816Y-110860000D01*
X71227257Y-110918989D01*
X70947905Y-111034701D01*
X70696495Y-111202688D01*
X70482688Y-111416495D01*
X70425000Y-111502831D01*
X70367312Y-111416495D01*
X70350000Y-111399183D01*
X70350000Y-106845000D01*
X71186928Y-106845000D01*
X71199188Y-106969482D01*
X71235498Y-107089180D01*
X71294463Y-107199494D01*
X71373815Y-107296185D01*
X71470506Y-107375537D01*
X71580820Y-107434502D01*
X71700518Y-107470812D01*
X71825000Y-107483072D01*
X72739250Y-107480000D01*
X72898000Y-107321250D01*
X72898000Y-106172000D01*
X73152000Y-106172000D01*
X73152000Y-107321250D01*
X73310750Y-107480000D01*
X74225000Y-107483072D01*
X74349482Y-107470812D01*
X74469180Y-107434502D01*
X74579494Y-107375537D01*
X74676185Y-107296185D01*
X74755537Y-107199494D01*
X74814502Y-107089180D01*
X74850812Y-106969482D01*
X74863072Y-106845000D01*
X74862269Y-106710512D01*
X76029783Y-106710512D01*
X76071213Y-106990130D01*
X76166397Y-107256292D01*
X76233329Y-107381514D01*
X76477298Y-107453097D01*
X77290395Y-106640000D01*
X76477298Y-105826903D01*
X76233329Y-105898486D01*
X76112429Y-106153996D01*
X76043700Y-106428184D01*
X76029783Y-106710512D01*
X74862269Y-106710512D01*
X74860000Y-106330750D01*
X74701250Y-106172000D01*
X73152000Y-106172000D01*
X72898000Y-106172000D01*
X71348750Y-106172000D01*
X71190000Y-106330750D01*
X71186928Y-106845000D01*
X70350000Y-106845000D01*
X70350000Y-104905132D01*
X70615132Y-104640000D01*
X71631910Y-104640000D01*
X71580820Y-104655498D01*
X71470506Y-104714463D01*
X71373815Y-104793815D01*
X71294463Y-104890506D01*
X71235498Y-105000820D01*
X71199188Y-105120518D01*
X71186928Y-105245000D01*
X71190000Y-105759250D01*
X71348750Y-105918000D01*
X72898000Y-105918000D01*
X72898000Y-105898000D01*
X73152000Y-105898000D01*
X73152000Y-105918000D01*
X74701250Y-105918000D01*
X74860000Y-105759250D01*
X74863072Y-105245000D01*
X74850812Y-105120518D01*
X74814502Y-105000820D01*
X74755537Y-104890506D01*
X74676185Y-104793815D01*
X74579494Y-104714463D01*
X74469180Y-104655498D01*
X74418090Y-104640000D01*
X75094868Y-104640000D01*
X75358008Y-104903140D01*
X75393551Y-104946449D01*
X75459802Y-105000820D01*
X75566377Y-105088284D01*
X75763553Y-105193676D01*
X75977501Y-105258577D01*
X76200000Y-105280491D01*
X76255752Y-105275000D01*
X76585716Y-105275000D01*
X76755869Y-105388692D01*
X76728486Y-105403329D01*
X76656903Y-105647298D01*
X77470000Y-106460395D01*
X77484143Y-106446253D01*
X77663748Y-106625858D01*
X77649605Y-106640000D01*
X77663748Y-106654143D01*
X77484143Y-106833748D01*
X77470000Y-106819605D01*
X76656903Y-107632702D01*
X76728486Y-107876671D01*
X76983996Y-107997571D01*
X77258184Y-108066300D01*
X77540512Y-108080217D01*
X77820130Y-108038787D01*
X78086292Y-107943603D01*
X78211514Y-107876671D01*
X78240001Y-107779583D01*
X78240001Y-112339238D01*
X78234509Y-112395000D01*
X78256423Y-112617498D01*
X78321324Y-112831446D01*
X78338697Y-112863948D01*
X78426717Y-113028623D01*
X78568552Y-113201449D01*
X78611860Y-113236991D01*
X79168008Y-113793140D01*
X79203551Y-113836449D01*
X79246857Y-113871989D01*
X79376377Y-113978284D01*
X79573553Y-114083676D01*
X79787501Y-114148577D01*
X80010000Y-114170491D01*
X80065752Y-114165000D01*
X90114249Y-114165000D01*
X90170000Y-114170491D01*
X90225751Y-114165000D01*
X90225752Y-114165000D01*
X90392499Y-114148577D01*
X90606447Y-114083676D01*
X90803623Y-113978284D01*
X90862457Y-113930000D01*
X90956184Y-113930000D01*
X91252743Y-113871011D01*
X91532095Y-113755299D01*
X91783505Y-113587312D01*
X91997312Y-113373505D01*
X92055000Y-113287169D01*
X92112688Y-113373505D01*
X92326495Y-113587312D01*
X92577905Y-113755299D01*
X92857257Y-113871011D01*
X93153816Y-113930000D01*
X93456184Y-113930000D01*
X93752743Y-113871011D01*
X94032095Y-113755299D01*
X94283505Y-113587312D01*
X94497312Y-113373505D01*
X94555000Y-113287169D01*
X94612688Y-113373505D01*
X94826495Y-113587312D01*
X95077905Y-113755299D01*
X95357257Y-113871011D01*
X95653816Y-113930000D01*
X95956184Y-113930000D01*
X96252743Y-113871011D01*
X96532095Y-113755299D01*
X96783505Y-113587312D01*
X96997312Y-113373505D01*
X97165299Y-113122095D01*
X97281011Y-112842743D01*
X97340000Y-112546184D01*
X97340000Y-112243816D01*
X97281011Y-111947257D01*
X97165299Y-111667905D01*
X96997312Y-111416495D01*
X96783505Y-111202688D01*
X96532095Y-111034701D01*
X96252743Y-110918989D01*
X95956184Y-110860000D01*
X95653816Y-110860000D01*
X95357257Y-110918989D01*
X95077905Y-111034701D01*
X94826495Y-111202688D01*
X94612688Y-111416495D01*
X94555000Y-111502831D01*
X94497312Y-111416495D01*
X94480000Y-111399183D01*
X94480000Y-106845000D01*
X95316928Y-106845000D01*
X95329188Y-106969482D01*
X95365498Y-107089180D01*
X95424463Y-107199494D01*
X95503815Y-107296185D01*
X95600506Y-107375537D01*
X95710820Y-107434502D01*
X95830518Y-107470812D01*
X95955000Y-107483072D01*
X96869250Y-107480000D01*
X97028000Y-107321250D01*
X97028000Y-106172000D01*
X97282000Y-106172000D01*
X97282000Y-107321250D01*
X97440750Y-107480000D01*
X98355000Y-107483072D01*
X98479482Y-107470812D01*
X98599180Y-107434502D01*
X98709494Y-107375537D01*
X98806185Y-107296185D01*
X98885537Y-107199494D01*
X98944502Y-107089180D01*
X98980812Y-106969482D01*
X98993072Y-106845000D01*
X98992269Y-106710512D01*
X100159783Y-106710512D01*
X100201213Y-106990130D01*
X100296397Y-107256292D01*
X100363329Y-107381514D01*
X100607298Y-107453097D01*
X101420395Y-106640000D01*
X100607298Y-105826903D01*
X100363329Y-105898486D01*
X100242429Y-106153996D01*
X100173700Y-106428184D01*
X100159783Y-106710512D01*
X98992269Y-106710512D01*
X98990000Y-106330750D01*
X98831250Y-106172000D01*
X97282000Y-106172000D01*
X97028000Y-106172000D01*
X95478750Y-106172000D01*
X95320000Y-106330750D01*
X95316928Y-106845000D01*
X94480000Y-106845000D01*
X94480000Y-105245131D01*
X95085132Y-104640000D01*
X95761910Y-104640000D01*
X95710820Y-104655498D01*
X95600506Y-104714463D01*
X95503815Y-104793815D01*
X95424463Y-104890506D01*
X95365498Y-105000820D01*
X95329188Y-105120518D01*
X95316928Y-105245000D01*
X95320000Y-105759250D01*
X95478750Y-105918000D01*
X97028000Y-105918000D01*
X97028000Y-105898000D01*
X97282000Y-105898000D01*
X97282000Y-105918000D01*
X98831250Y-105918000D01*
X98990000Y-105759250D01*
X98993072Y-105245000D01*
X98980812Y-105120518D01*
X98944502Y-105000820D01*
X98885537Y-104890506D01*
X98806185Y-104793815D01*
X98709494Y-104714463D01*
X98599180Y-104655498D01*
X98548090Y-104640000D01*
X99224868Y-104640000D01*
X99488008Y-104903140D01*
X99523551Y-104946449D01*
X99589802Y-105000820D01*
X99696377Y-105088284D01*
X99893553Y-105193676D01*
X100107501Y-105258577D01*
X100330000Y-105280491D01*
X100385752Y-105275000D01*
X100715716Y-105275000D01*
X100885869Y-105388692D01*
X100858486Y-105403329D01*
X100786903Y-105647298D01*
X101600000Y-106460395D01*
X101614143Y-106446253D01*
X101793748Y-106625858D01*
X101779605Y-106640000D01*
X101793748Y-106654143D01*
X101614143Y-106833748D01*
X101600000Y-106819605D01*
X100786903Y-107632702D01*
X100858486Y-107876671D01*
X101113996Y-107997571D01*
X101388184Y-108066300D01*
X101670512Y-108080217D01*
X101950130Y-108038787D01*
X102216292Y-107943603D01*
X102341514Y-107876671D01*
X102370001Y-107779583D01*
X102370001Y-112339238D01*
X102364509Y-112395000D01*
X102386423Y-112617498D01*
X102451324Y-112831446D01*
X102468697Y-112863948D01*
X102556717Y-113028623D01*
X102698552Y-113201449D01*
X102741860Y-113236991D01*
X103298008Y-113793140D01*
X103333551Y-113836449D01*
X103376857Y-113871989D01*
X103506377Y-113978284D01*
X103703553Y-114083676D01*
X103917501Y-114148577D01*
X104140000Y-114170491D01*
X104195752Y-114165000D01*
X114244249Y-114165000D01*
X114300000Y-114170491D01*
X114355751Y-114165000D01*
X114355752Y-114165000D01*
X114522499Y-114148577D01*
X114736447Y-114083676D01*
X114933623Y-113978284D01*
X114992457Y-113930000D01*
X115086184Y-113930000D01*
X115382743Y-113871011D01*
X115662095Y-113755299D01*
X115913505Y-113587312D01*
X116127312Y-113373505D01*
X116185000Y-113287169D01*
X116242688Y-113373505D01*
X116456495Y-113587312D01*
X116707905Y-113755299D01*
X116987257Y-113871011D01*
X117283816Y-113930000D01*
X117586184Y-113930000D01*
X117882743Y-113871011D01*
X118162095Y-113755299D01*
X118413505Y-113587312D01*
X118627312Y-113373505D01*
X118685000Y-113287169D01*
X118742688Y-113373505D01*
X118956495Y-113587312D01*
X119207905Y-113755299D01*
X119487257Y-113871011D01*
X119783816Y-113930000D01*
X120086184Y-113930000D01*
X120382743Y-113871011D01*
X120662095Y-113755299D01*
X120913505Y-113587312D01*
X121127312Y-113373505D01*
X121295299Y-113122095D01*
X121411011Y-112842743D01*
X121470000Y-112546184D01*
X121470000Y-112243816D01*
X121411011Y-111947257D01*
X121295299Y-111667905D01*
X121127312Y-111416495D01*
X120913505Y-111202688D01*
X120662095Y-111034701D01*
X120382743Y-110918989D01*
X120086184Y-110860000D01*
X119783816Y-110860000D01*
X119487257Y-110918989D01*
X119207905Y-111034701D01*
X118956495Y-111202688D01*
X118742688Y-111416495D01*
X118685000Y-111502831D01*
X118627312Y-111416495D01*
X118610000Y-111399183D01*
X118610000Y-107632702D01*
X124916903Y-107632702D01*
X124988486Y-107876671D01*
X125243996Y-107997571D01*
X125518184Y-108066300D01*
X125800512Y-108080217D01*
X126080130Y-108038787D01*
X126346292Y-107943603D01*
X126471514Y-107876671D01*
X126543097Y-107632702D01*
X125730000Y-106819605D01*
X124916903Y-107632702D01*
X118610000Y-107632702D01*
X118610000Y-106845000D01*
X119446928Y-106845000D01*
X119459188Y-106969482D01*
X119495498Y-107089180D01*
X119554463Y-107199494D01*
X119633815Y-107296185D01*
X119730506Y-107375537D01*
X119840820Y-107434502D01*
X119960518Y-107470812D01*
X120085000Y-107483072D01*
X120999250Y-107480000D01*
X121158000Y-107321250D01*
X121158000Y-106172000D01*
X121412000Y-106172000D01*
X121412000Y-107321250D01*
X121570750Y-107480000D01*
X122485000Y-107483072D01*
X122609482Y-107470812D01*
X122729180Y-107434502D01*
X122839494Y-107375537D01*
X122936185Y-107296185D01*
X123015537Y-107199494D01*
X123074502Y-107089180D01*
X123110812Y-106969482D01*
X123123072Y-106845000D01*
X123122269Y-106710512D01*
X124289783Y-106710512D01*
X124331213Y-106990130D01*
X124426397Y-107256292D01*
X124493329Y-107381514D01*
X124737298Y-107453097D01*
X125550395Y-106640000D01*
X125909605Y-106640000D01*
X126722702Y-107453097D01*
X126966671Y-107381514D01*
X127087571Y-107126004D01*
X127156300Y-106851816D01*
X127170217Y-106569488D01*
X127128787Y-106289870D01*
X127033603Y-106023708D01*
X126966671Y-105898486D01*
X126722702Y-105826903D01*
X125909605Y-106640000D01*
X125550395Y-106640000D01*
X124737298Y-105826903D01*
X124493329Y-105898486D01*
X124372429Y-106153996D01*
X124303700Y-106428184D01*
X124289783Y-106710512D01*
X123122269Y-106710512D01*
X123120000Y-106330750D01*
X122961250Y-106172000D01*
X121412000Y-106172000D01*
X121158000Y-106172000D01*
X119608750Y-106172000D01*
X119450000Y-106330750D01*
X119446928Y-106845000D01*
X118610000Y-106845000D01*
X118610000Y-104640000D01*
X119891910Y-104640000D01*
X119840820Y-104655498D01*
X119730506Y-104714463D01*
X119633815Y-104793815D01*
X119554463Y-104890506D01*
X119495498Y-105000820D01*
X119459188Y-105120518D01*
X119446928Y-105245000D01*
X119450000Y-105759250D01*
X119608750Y-105918000D01*
X121158000Y-105918000D01*
X121158000Y-105898000D01*
X121412000Y-105898000D01*
X121412000Y-105918000D01*
X122961250Y-105918000D01*
X123120000Y-105759250D01*
X123123072Y-105245000D01*
X123110812Y-105120518D01*
X123074502Y-105000820D01*
X123015537Y-104890506D01*
X122936185Y-104793815D01*
X122839494Y-104714463D01*
X122729180Y-104655498D01*
X122678090Y-104640000D01*
X123354868Y-104640000D01*
X123618008Y-104903140D01*
X123653551Y-104946449D01*
X123719802Y-105000820D01*
X123826377Y-105088284D01*
X124023553Y-105193676D01*
X124237501Y-105258577D01*
X124460000Y-105280491D01*
X124515752Y-105275000D01*
X124845716Y-105275000D01*
X125015869Y-105388692D01*
X124988486Y-105403329D01*
X124916903Y-105647298D01*
X125730000Y-106460395D01*
X126543097Y-105647298D01*
X126471514Y-105403329D01*
X126442659Y-105389676D01*
X126644759Y-105254637D01*
X126844637Y-105054759D01*
X127001680Y-104819727D01*
X127109853Y-104558574D01*
X127165000Y-104281335D01*
X127165000Y-103998665D01*
X127109853Y-103721426D01*
X127001680Y-103460273D01*
X126844637Y-103225241D01*
X126644759Y-103025363D01*
X126409727Y-102868320D01*
X126148574Y-102760147D01*
X125871335Y-102705000D01*
X125588665Y-102705000D01*
X125311426Y-102760147D01*
X125050273Y-102868320D01*
X124896320Y-102971188D01*
X124666995Y-102741864D01*
X124631449Y-102698551D01*
X124458623Y-102556716D01*
X124261447Y-102451324D01*
X124047499Y-102386423D01*
X123880752Y-102370000D01*
X123880751Y-102370000D01*
X123825000Y-102364509D01*
X123769249Y-102370000D01*
X122564002Y-102370000D01*
X122486101Y-102306068D01*
X122353142Y-102235000D01*
X122486101Y-102163932D01*
X122564002Y-102100000D01*
X124845716Y-102100000D01*
X125050273Y-102236680D01*
X125311426Y-102344853D01*
X125588665Y-102400000D01*
X125871335Y-102400000D01*
X126148574Y-102344853D01*
X126409727Y-102236680D01*
X126644759Y-102079637D01*
X126844637Y-101879759D01*
X127001680Y-101644727D01*
X127109853Y-101383574D01*
X127165000Y-101106335D01*
X127165000Y-100823665D01*
X127109853Y-100546426D01*
X127001680Y-100285273D01*
X126844637Y-100050241D01*
X126644759Y-99850363D01*
X126409727Y-99693320D01*
X126148574Y-99585147D01*
X125871335Y-99530000D01*
X125588665Y-99530000D01*
X125311426Y-99585147D01*
X125050273Y-99693320D01*
X124845716Y-99830000D01*
X122564002Y-99830000D01*
X122486101Y-99766068D01*
X122353142Y-99695000D01*
X122486101Y-99623932D01*
X122704608Y-99444608D01*
X122883932Y-99226101D01*
X123017182Y-98976808D01*
X123099236Y-98706309D01*
X123126943Y-98425000D01*
X123099236Y-98143691D01*
X123017182Y-97873192D01*
X122883932Y-97623899D01*
X122704608Y-97405392D01*
X122486101Y-97226068D01*
X122236808Y-97092818D01*
X121966309Y-97010764D01*
X121755492Y-96990000D01*
X120814508Y-96990000D01*
X120603691Y-97010764D01*
X120333192Y-97092818D01*
X120083899Y-97226068D01*
X119865392Y-97405392D01*
X119686068Y-97623899D01*
X119552818Y-97873192D01*
X119470764Y-98143691D01*
X119443057Y-98425000D01*
X119470764Y-98706309D01*
X119552818Y-98976808D01*
X119686068Y-99226101D01*
X119865392Y-99444608D01*
X120083899Y-99623932D01*
X120216858Y-99695000D01*
X120083899Y-99766068D01*
X119865392Y-99945392D01*
X119686068Y-100163899D01*
X119552818Y-100413192D01*
X119470764Y-100683691D01*
X119443057Y-100965000D01*
X119470764Y-101246309D01*
X119552818Y-101516808D01*
X119686068Y-101766101D01*
X119865392Y-101984608D01*
X120083899Y-102163932D01*
X120216858Y-102235000D01*
X120083899Y-102306068D01*
X120005998Y-102370000D01*
X118677500Y-102370000D01*
X117165072Y-100353431D01*
X117153284Y-100331377D01*
X117098103Y-100264138D01*
X117079548Y-100239399D01*
X117062769Y-100221085D01*
X117011449Y-100158551D01*
X116987386Y-100138803D01*
X116966362Y-100115855D01*
X116901153Y-100068033D01*
X116838623Y-100016716D01*
X116811166Y-100002040D01*
X116786072Y-99983637D01*
X116712785Y-99949455D01*
X116641447Y-99911324D01*
X116611659Y-99902288D01*
X116583453Y-99889132D01*
X116504905Y-99869904D01*
X116427499Y-99846423D01*
X116396517Y-99843372D01*
X116366289Y-99835972D01*
X116285494Y-99832437D01*
X116260752Y-99830000D01*
X116229799Y-99830000D01*
X116142928Y-99826199D01*
X116118218Y-99830000D01*
X114944002Y-99830000D01*
X114866101Y-99766068D01*
X114733142Y-99695000D01*
X114866101Y-99623932D01*
X115084608Y-99444608D01*
X115263932Y-99226101D01*
X115397182Y-98976808D01*
X115479236Y-98706309D01*
X115506943Y-98425000D01*
X115479236Y-98143691D01*
X115397182Y-97873192D01*
X115263932Y-97623899D01*
X115084608Y-97405392D01*
X114866101Y-97226068D01*
X114616808Y-97092818D01*
X114346309Y-97010764D01*
X114135492Y-96990000D01*
X113194508Y-96990000D01*
X112983691Y-97010764D01*
X112713192Y-97092818D01*
X112463899Y-97226068D01*
X112385998Y-97290000D01*
X110104284Y-97290000D01*
X109934131Y-97176308D01*
X109961514Y-97161671D01*
X110033097Y-96917702D01*
X109220000Y-96104605D01*
X108406903Y-96917702D01*
X108478486Y-97161671D01*
X108507341Y-97175324D01*
X108305241Y-97310363D01*
X108105363Y-97510241D01*
X107948320Y-97745273D01*
X107840147Y-98006426D01*
X107785000Y-98283665D01*
X107785000Y-98566335D01*
X107840147Y-98843574D01*
X107948320Y-99104727D01*
X108105363Y-99339759D01*
X108305241Y-99539637D01*
X108540273Y-99696680D01*
X108801426Y-99804853D01*
X109078665Y-99860000D01*
X109361335Y-99860000D01*
X109638574Y-99804853D01*
X109899727Y-99696680D01*
X110104284Y-99560000D01*
X112385998Y-99560000D01*
X112463899Y-99623932D01*
X112596858Y-99695000D01*
X112463899Y-99766068D01*
X112245392Y-99945392D01*
X112066068Y-100163899D01*
X111932818Y-100413192D01*
X111850764Y-100683691D01*
X111823057Y-100965000D01*
X111850764Y-101246309D01*
X111932818Y-101516808D01*
X112066068Y-101766101D01*
X112245392Y-101984608D01*
X112463899Y-102163932D01*
X112596858Y-102235000D01*
X112463899Y-102306068D01*
X112385998Y-102370000D01*
X110104284Y-102370000D01*
X109899727Y-102233320D01*
X109638574Y-102125147D01*
X109361335Y-102070000D01*
X109078665Y-102070000D01*
X108801426Y-102125147D01*
X108540273Y-102233320D01*
X108335716Y-102370000D01*
X106750957Y-102370000D01*
X106740537Y-102350506D01*
X106661185Y-102253815D01*
X106564494Y-102174463D01*
X106545000Y-102164043D01*
X106545000Y-99309284D01*
X106681680Y-99104727D01*
X106789853Y-98843574D01*
X106845000Y-98566335D01*
X106845000Y-98283665D01*
X106789853Y-98006426D01*
X106681680Y-97745273D01*
X106524637Y-97510241D01*
X106324759Y-97310363D01*
X106089727Y-97153320D01*
X105828574Y-97045147D01*
X105551335Y-96990000D01*
X105268665Y-96990000D01*
X104991426Y-97045147D01*
X104730273Y-97153320D01*
X104640000Y-97213638D01*
X104640000Y-95995512D01*
X107779783Y-95995512D01*
X107821213Y-96275130D01*
X107916397Y-96541292D01*
X107983329Y-96666514D01*
X108227298Y-96738097D01*
X109040395Y-95925000D01*
X109399605Y-95925000D01*
X110212702Y-96738097D01*
X110456671Y-96666514D01*
X110577571Y-96411004D01*
X110646300Y-96136816D01*
X110660217Y-95854488D01*
X110618787Y-95574870D01*
X110523603Y-95308708D01*
X110456671Y-95183486D01*
X110212702Y-95111903D01*
X109399605Y-95925000D01*
X109040395Y-95925000D01*
X108227298Y-95111903D01*
X107983329Y-95183486D01*
X107862429Y-95438996D01*
X107793700Y-95713184D01*
X107779783Y-95995512D01*
X104640000Y-95995512D01*
X104640000Y-94932298D01*
X108406903Y-94932298D01*
X109220000Y-95745395D01*
X110033097Y-94932298D01*
X109961514Y-94688329D01*
X109706004Y-94567429D01*
X109431816Y-94498700D01*
X109149488Y-94484783D01*
X108869870Y-94526213D01*
X108603708Y-94621397D01*
X108478486Y-94688329D01*
X108406903Y-94932298D01*
X104640000Y-94932298D01*
X104640000Y-94450131D01*
X106173141Y-92916991D01*
X106216449Y-92881449D01*
X106358284Y-92708623D01*
X106463676Y-92511447D01*
X106528577Y-92297499D01*
X106543419Y-92146802D01*
X106564494Y-92135537D01*
X106661185Y-92056185D01*
X106740537Y-91959494D01*
X106799502Y-91849180D01*
X106835812Y-91729482D01*
X106848072Y-91605000D01*
X106848072Y-90679514D01*
X113347500Y-90679514D01*
X113347500Y-90930485D01*
X113370470Y-91163703D01*
X113461245Y-91462948D01*
X113608655Y-91738734D01*
X113807037Y-91980463D01*
X114048765Y-92178845D01*
X114324551Y-92326255D01*
X114623796Y-92417030D01*
X114935000Y-92447681D01*
X115246203Y-92417030D01*
X115545448Y-92326255D01*
X115821234Y-92178845D01*
X116062963Y-91980463D01*
X116205000Y-91807391D01*
X116347037Y-91980463D01*
X116588765Y-92178845D01*
X116864551Y-92326255D01*
X117163796Y-92417030D01*
X117475000Y-92447681D01*
X117786203Y-92417030D01*
X118085448Y-92326255D01*
X118361234Y-92178845D01*
X118487095Y-92075553D01*
X118531963Y-92159494D01*
X118611315Y-92256185D01*
X118708006Y-92335537D01*
X118818320Y-92394502D01*
X118938018Y-92430812D01*
X119062500Y-92443072D01*
X120967500Y-92443072D01*
X121091982Y-92430812D01*
X121211680Y-92394502D01*
X121321994Y-92335537D01*
X121418685Y-92256185D01*
X121498037Y-92159494D01*
X121557002Y-92049180D01*
X121590121Y-91940000D01*
X124845716Y-91940000D01*
X125050273Y-92076680D01*
X125311426Y-92184853D01*
X125588665Y-92240000D01*
X125871335Y-92240000D01*
X126148574Y-92184853D01*
X126409727Y-92076680D01*
X126644759Y-91919637D01*
X126844637Y-91719759D01*
X127001680Y-91484727D01*
X127109853Y-91223574D01*
X127165000Y-90946335D01*
X127165000Y-90663665D01*
X127109853Y-90386426D01*
X127001680Y-90125273D01*
X126844637Y-89890241D01*
X126644759Y-89690363D01*
X126409727Y-89533320D01*
X126148574Y-89425147D01*
X125871335Y-89370000D01*
X125588665Y-89370000D01*
X125311426Y-89425147D01*
X125050273Y-89533320D01*
X124845716Y-89670000D01*
X121590121Y-89670000D01*
X121557002Y-89560820D01*
X121498037Y-89450506D01*
X121418685Y-89353815D01*
X121321994Y-89274463D01*
X121211680Y-89215498D01*
X121091982Y-89179188D01*
X120967500Y-89166928D01*
X119062500Y-89166928D01*
X118938018Y-89179188D01*
X118818320Y-89215498D01*
X118708006Y-89274463D01*
X118611315Y-89353815D01*
X118610000Y-89355417D01*
X118610000Y-88735131D01*
X121543399Y-85801734D01*
X121714821Y-85942417D01*
X121976275Y-86082166D01*
X122259968Y-86168224D01*
X122555000Y-86197282D01*
X122850031Y-86168224D01*
X123133724Y-86082166D01*
X123395178Y-85942417D01*
X123624345Y-85754345D01*
X123678066Y-85688886D01*
X123736595Y-85798387D01*
X123847038Y-85932962D01*
X123981613Y-86043405D01*
X124135149Y-86125472D01*
X124301745Y-86176008D01*
X124474999Y-86193072D01*
X125715001Y-86193072D01*
X125888255Y-86176008D01*
X126054851Y-86125472D01*
X126208387Y-86043405D01*
X126342962Y-85932962D01*
X126453405Y-85798387D01*
X126535472Y-85644851D01*
X126586008Y-85478255D01*
X126603072Y-85305001D01*
X126603072Y-83604999D01*
X126586008Y-83431745D01*
X126535472Y-83265149D01*
X126453405Y-83111613D01*
X126342962Y-82977038D01*
X126208387Y-82866595D01*
X126054851Y-82784528D01*
X125888255Y-82733992D01*
X125715001Y-82716928D01*
X124474999Y-82716928D01*
X124301745Y-82733992D01*
X124135149Y-82784528D01*
X123981613Y-82866595D01*
X123847038Y-82977038D01*
X123736595Y-83111613D01*
X123678066Y-83221114D01*
X123624345Y-83155655D01*
X123395179Y-82967583D01*
X123133725Y-82827834D01*
X122850032Y-82741776D01*
X122555000Y-82712718D01*
X122259969Y-82741776D01*
X121976276Y-82827834D01*
X121714822Y-82967583D01*
X121485655Y-83155655D01*
X121350780Y-83320000D01*
X121340752Y-83320000D01*
X121285000Y-83314509D01*
X121062501Y-83336423D01*
X120848553Y-83401324D01*
X120651377Y-83506716D01*
X120521856Y-83613011D01*
X120521855Y-83613012D01*
X120478551Y-83648551D01*
X120443013Y-83691854D01*
X116711860Y-87423009D01*
X116668552Y-87458551D01*
X116526717Y-87631377D01*
X116487028Y-87705631D01*
X116421324Y-87828554D01*
X116356423Y-88042502D01*
X116334509Y-88265000D01*
X116340001Y-88320761D01*
X116340000Y-89638111D01*
X116205000Y-89802609D01*
X116070000Y-89638112D01*
X116070000Y-87465131D01*
X117652282Y-85882850D01*
X117893574Y-85834853D01*
X118154727Y-85726680D01*
X118389759Y-85569637D01*
X118589637Y-85369759D01*
X118746680Y-85134727D01*
X118854853Y-84873574D01*
X118910000Y-84596335D01*
X118910000Y-84313665D01*
X118854853Y-84036426D01*
X118746680Y-83775273D01*
X118589637Y-83540241D01*
X118389759Y-83340363D01*
X118154727Y-83183320D01*
X117893574Y-83075147D01*
X117616335Y-83020000D01*
X117333665Y-83020000D01*
X117056426Y-83075147D01*
X116795273Y-83183320D01*
X116560241Y-83340363D01*
X116360363Y-83540241D01*
X116203320Y-83775273D01*
X116095147Y-84036426D01*
X116047150Y-84277718D01*
X114171860Y-86153009D01*
X114128552Y-86188551D01*
X113986717Y-86361377D01*
X113930384Y-86466770D01*
X113881324Y-86558554D01*
X113816423Y-86772502D01*
X113794509Y-86995000D01*
X113800001Y-87050761D01*
X113800000Y-89638111D01*
X113608655Y-89871265D01*
X113461245Y-90147051D01*
X113370470Y-90446296D01*
X113347500Y-90679514D01*
X106848072Y-90679514D01*
X106848072Y-90005000D01*
X106835812Y-89880518D01*
X106799502Y-89760820D01*
X106740537Y-89650506D01*
X106661185Y-89553815D01*
X106564494Y-89474463D01*
X106454180Y-89415498D01*
X106334482Y-89379188D01*
X106210000Y-89366928D01*
X104610000Y-89366928D01*
X104485518Y-89379188D01*
X104365820Y-89415498D01*
X104255506Y-89474463D01*
X104158815Y-89553815D01*
X104079463Y-89650506D01*
X104020498Y-89760820D01*
X103984188Y-89880518D01*
X103971928Y-90005000D01*
X103971928Y-91605000D01*
X103984188Y-91729482D01*
X104020498Y-91849180D01*
X104024048Y-91855821D01*
X102741865Y-93138004D01*
X102698551Y-93173551D01*
X102556716Y-93346377D01*
X102488229Y-93474509D01*
X102451324Y-93543554D01*
X102386423Y-93757502D01*
X102364509Y-93980000D01*
X102370000Y-94035751D01*
X102370000Y-99753639D01*
X102279727Y-99693320D01*
X102018574Y-99585147D01*
X101741335Y-99530000D01*
X101458665Y-99530000D01*
X101181426Y-99585147D01*
X100920273Y-99693320D01*
X100715716Y-99830000D01*
X98434002Y-99830000D01*
X98356101Y-99766068D01*
X98223142Y-99695000D01*
X98356101Y-99623932D01*
X98574608Y-99444608D01*
X98753932Y-99226101D01*
X98887182Y-98976808D01*
X98969236Y-98706309D01*
X98996943Y-98425000D01*
X98969236Y-98143691D01*
X98887182Y-97873192D01*
X98753932Y-97623899D01*
X98574608Y-97405392D01*
X98356101Y-97226068D01*
X98106808Y-97092818D01*
X97836309Y-97010764D01*
X97625492Y-96990000D01*
X96684508Y-96990000D01*
X96473691Y-97010764D01*
X96203192Y-97092818D01*
X95953899Y-97226068D01*
X95735392Y-97405392D01*
X95556068Y-97623899D01*
X95422818Y-97873192D01*
X95340764Y-98143691D01*
X95313057Y-98425000D01*
X95340764Y-98706309D01*
X95422818Y-98976808D01*
X95556068Y-99226101D01*
X95735392Y-99444608D01*
X95953899Y-99623932D01*
X96086858Y-99695000D01*
X95953899Y-99766068D01*
X95735392Y-99945392D01*
X95556068Y-100163899D01*
X95422818Y-100413192D01*
X95340764Y-100683691D01*
X95313057Y-100965000D01*
X95340764Y-101246309D01*
X95422818Y-101516808D01*
X95556068Y-101766101D01*
X95735392Y-101984608D01*
X95953899Y-102163932D01*
X96086858Y-102235000D01*
X95953899Y-102306068D01*
X95875998Y-102370000D01*
X95085132Y-102370000D01*
X92916996Y-100201865D01*
X92881449Y-100158551D01*
X92708623Y-100016716D01*
X92511447Y-99911324D01*
X92297499Y-99846423D01*
X92130752Y-99830000D01*
X92130751Y-99830000D01*
X92075000Y-99824509D01*
X92019249Y-99830000D01*
X90814002Y-99830000D01*
X90736101Y-99766068D01*
X90603142Y-99695000D01*
X90736101Y-99623932D01*
X90954608Y-99444608D01*
X91133932Y-99226101D01*
X91267182Y-98976808D01*
X91349236Y-98706309D01*
X91376943Y-98425000D01*
X91349236Y-98143691D01*
X91267182Y-97873192D01*
X91133932Y-97623899D01*
X90954608Y-97405392D01*
X90736101Y-97226068D01*
X90486808Y-97092818D01*
X90216309Y-97010764D01*
X90005492Y-96990000D01*
X89064508Y-96990000D01*
X88853691Y-97010764D01*
X88583192Y-97092818D01*
X88333899Y-97226068D01*
X88255998Y-97290000D01*
X85974284Y-97290000D01*
X85804131Y-97176308D01*
X85831514Y-97161671D01*
X85903097Y-96917702D01*
X85090000Y-96104605D01*
X84276903Y-96917702D01*
X84348486Y-97161671D01*
X84377341Y-97175324D01*
X84175241Y-97310363D01*
X83975363Y-97510241D01*
X83818320Y-97745273D01*
X83710147Y-98006426D01*
X83655000Y-98283665D01*
X83655000Y-98566335D01*
X83710147Y-98843574D01*
X83818320Y-99104727D01*
X83975363Y-99339759D01*
X84175241Y-99539637D01*
X84410273Y-99696680D01*
X84671426Y-99804853D01*
X84948665Y-99860000D01*
X85231335Y-99860000D01*
X85508574Y-99804853D01*
X85769727Y-99696680D01*
X85974284Y-99560000D01*
X88255998Y-99560000D01*
X88333899Y-99623932D01*
X88466858Y-99695000D01*
X88333899Y-99766068D01*
X88115392Y-99945392D01*
X87936068Y-100163899D01*
X87802818Y-100413192D01*
X87720764Y-100683691D01*
X87693057Y-100965000D01*
X87720764Y-101246309D01*
X87802818Y-101516808D01*
X87936068Y-101766101D01*
X88115392Y-101984608D01*
X88333899Y-102163932D01*
X88466858Y-102235000D01*
X88333899Y-102306068D01*
X88255998Y-102370000D01*
X85974284Y-102370000D01*
X85769727Y-102233320D01*
X85508574Y-102125147D01*
X85231335Y-102070000D01*
X84948665Y-102070000D01*
X84671426Y-102125147D01*
X84410273Y-102233320D01*
X84205716Y-102370000D01*
X82620957Y-102370000D01*
X82610537Y-102350506D01*
X82531185Y-102253815D01*
X82434494Y-102174463D01*
X82415000Y-102164043D01*
X82415000Y-99944284D01*
X82551680Y-99739727D01*
X82659853Y-99478574D01*
X82715000Y-99201335D01*
X82715000Y-98918665D01*
X82659853Y-98641426D01*
X82551680Y-98380273D01*
X82394637Y-98145241D01*
X82194759Y-97945363D01*
X81959727Y-97788320D01*
X81698574Y-97680147D01*
X81421335Y-97625000D01*
X81138665Y-97625000D01*
X80861426Y-97680147D01*
X80600273Y-97788320D01*
X80510000Y-97848638D01*
X80510000Y-95995512D01*
X83649783Y-95995512D01*
X83691213Y-96275130D01*
X83786397Y-96541292D01*
X83853329Y-96666514D01*
X84097298Y-96738097D01*
X84910395Y-95925000D01*
X85269605Y-95925000D01*
X86082702Y-96738097D01*
X86326671Y-96666514D01*
X86447571Y-96411004D01*
X86516300Y-96136816D01*
X86530217Y-95854488D01*
X86488787Y-95574870D01*
X86393603Y-95308708D01*
X86326671Y-95183486D01*
X86082702Y-95111903D01*
X85269605Y-95925000D01*
X84910395Y-95925000D01*
X84097298Y-95111903D01*
X83853329Y-95183486D01*
X83732429Y-95438996D01*
X83663700Y-95713184D01*
X83649783Y-95995512D01*
X80510000Y-95995512D01*
X80510000Y-95085131D01*
X80662833Y-94932298D01*
X84276903Y-94932298D01*
X85090000Y-95745395D01*
X85903097Y-94932298D01*
X85831514Y-94688329D01*
X85576004Y-94567429D01*
X85301816Y-94498700D01*
X85019488Y-94484783D01*
X84739870Y-94526213D01*
X84473708Y-94621397D01*
X84348486Y-94688329D01*
X84276903Y-94932298D01*
X80662833Y-94932298D01*
X82043141Y-93551991D01*
X82086449Y-93516449D01*
X82228284Y-93343623D01*
X82333676Y-93146447D01*
X82398577Y-92932499D01*
X82413419Y-92781802D01*
X82434494Y-92770537D01*
X82531185Y-92691185D01*
X82610537Y-92594494D01*
X82669502Y-92484180D01*
X82705812Y-92364482D01*
X82718072Y-92240000D01*
X82718072Y-90679514D01*
X89217500Y-90679514D01*
X89217500Y-90930485D01*
X89240470Y-91163703D01*
X89331245Y-91462948D01*
X89478655Y-91738734D01*
X89677037Y-91980463D01*
X89918765Y-92178845D01*
X90194551Y-92326255D01*
X90493796Y-92417030D01*
X90805000Y-92447681D01*
X91116203Y-92417030D01*
X91415448Y-92326255D01*
X91691234Y-92178845D01*
X91932963Y-91980463D01*
X92075000Y-91807391D01*
X92217037Y-91980463D01*
X92458765Y-92178845D01*
X92734551Y-92326255D01*
X93033796Y-92417030D01*
X93345000Y-92447681D01*
X93656203Y-92417030D01*
X93955448Y-92326255D01*
X94231234Y-92178845D01*
X94357095Y-92075553D01*
X94401963Y-92159494D01*
X94481315Y-92256185D01*
X94578006Y-92335537D01*
X94688320Y-92394502D01*
X94808018Y-92430812D01*
X94932500Y-92443072D01*
X96837500Y-92443072D01*
X96961982Y-92430812D01*
X97081680Y-92394502D01*
X97191994Y-92335537D01*
X97288685Y-92256185D01*
X97368037Y-92159494D01*
X97427002Y-92049180D01*
X97460121Y-91940000D01*
X100715716Y-91940000D01*
X100920273Y-92076680D01*
X101181426Y-92184853D01*
X101458665Y-92240000D01*
X101741335Y-92240000D01*
X102018574Y-92184853D01*
X102279727Y-92076680D01*
X102514759Y-91919637D01*
X102714637Y-91719759D01*
X102871680Y-91484727D01*
X102979853Y-91223574D01*
X103035000Y-90946335D01*
X103035000Y-90663665D01*
X102979853Y-90386426D01*
X102871680Y-90125273D01*
X102714637Y-89890241D01*
X102514759Y-89690363D01*
X102279727Y-89533320D01*
X102018574Y-89425147D01*
X101741335Y-89370000D01*
X101458665Y-89370000D01*
X101181426Y-89425147D01*
X100920273Y-89533320D01*
X100715716Y-89670000D01*
X97460121Y-89670000D01*
X97427002Y-89560820D01*
X97368037Y-89450506D01*
X97288685Y-89353815D01*
X97191994Y-89274463D01*
X97081680Y-89215498D01*
X96961982Y-89179188D01*
X96837500Y-89166928D01*
X94932500Y-89166928D01*
X94808018Y-89179188D01*
X94688320Y-89215498D01*
X94578006Y-89274463D01*
X94481315Y-89353815D01*
X94480000Y-89355417D01*
X94480000Y-88735131D01*
X97413399Y-85801734D01*
X97584821Y-85942417D01*
X97846275Y-86082166D01*
X98129968Y-86168224D01*
X98425000Y-86197282D01*
X98720031Y-86168224D01*
X99003724Y-86082166D01*
X99265178Y-85942417D01*
X99494345Y-85754345D01*
X99548066Y-85688886D01*
X99606595Y-85798387D01*
X99717038Y-85932962D01*
X99851613Y-86043405D01*
X100005149Y-86125472D01*
X100171745Y-86176008D01*
X100344999Y-86193072D01*
X101585001Y-86193072D01*
X101758255Y-86176008D01*
X101924851Y-86125472D01*
X102078387Y-86043405D01*
X102212962Y-85932962D01*
X102323405Y-85798387D01*
X102405472Y-85644851D01*
X102447933Y-85504872D01*
X105080000Y-85504872D01*
X105080000Y-85945128D01*
X105165890Y-86376925D01*
X105334369Y-86783669D01*
X105578962Y-87149729D01*
X105890271Y-87461038D01*
X106256331Y-87705631D01*
X106663075Y-87874110D01*
X107094872Y-87960000D01*
X107535128Y-87960000D01*
X107966925Y-87874110D01*
X108373669Y-87705631D01*
X108739729Y-87461038D01*
X109051038Y-87149729D01*
X109295631Y-86783669D01*
X109464110Y-86376925D01*
X109550000Y-85945128D01*
X109550000Y-85504872D01*
X109464110Y-85073075D01*
X109352672Y-84804039D01*
X111003096Y-84804039D01*
X111043754Y-84938087D01*
X111163963Y-85192420D01*
X111331481Y-85418414D01*
X111539869Y-85607385D01*
X111781119Y-85752070D01*
X112045960Y-85846909D01*
X112268000Y-85725624D01*
X112268000Y-84582000D01*
X112522000Y-84582000D01*
X112522000Y-85725624D01*
X112744040Y-85846909D01*
X113008881Y-85752070D01*
X113250131Y-85607385D01*
X113458519Y-85418414D01*
X113626037Y-85192420D01*
X113746246Y-84938087D01*
X113786904Y-84804039D01*
X113664915Y-84582000D01*
X112522000Y-84582000D01*
X112268000Y-84582000D01*
X111125085Y-84582000D01*
X111003096Y-84804039D01*
X109352672Y-84804039D01*
X109295631Y-84666331D01*
X109051038Y-84300271D01*
X108856728Y-84105961D01*
X111003096Y-84105961D01*
X111125085Y-84328000D01*
X112268000Y-84328000D01*
X112268000Y-83184376D01*
X112522000Y-83184376D01*
X112522000Y-84328000D01*
X113664915Y-84328000D01*
X113786904Y-84105961D01*
X113746246Y-83971913D01*
X113626037Y-83717580D01*
X113458519Y-83491586D01*
X113250131Y-83302615D01*
X113008881Y-83157930D01*
X112744040Y-83063091D01*
X112522000Y-83184376D01*
X112268000Y-83184376D01*
X112045960Y-83063091D01*
X111781119Y-83157930D01*
X111539869Y-83302615D01*
X111331481Y-83491586D01*
X111163963Y-83717580D01*
X111043754Y-83971913D01*
X111003096Y-84105961D01*
X108856728Y-84105961D01*
X108739729Y-83988962D01*
X108373669Y-83744369D01*
X107966925Y-83575890D01*
X107535128Y-83490000D01*
X107094872Y-83490000D01*
X106663075Y-83575890D01*
X106256331Y-83744369D01*
X105890271Y-83988962D01*
X105578962Y-84300271D01*
X105334369Y-84666331D01*
X105165890Y-85073075D01*
X105080000Y-85504872D01*
X102447933Y-85504872D01*
X102456008Y-85478255D01*
X102473072Y-85305001D01*
X102473072Y-83604999D01*
X102456008Y-83431745D01*
X102405472Y-83265149D01*
X102323405Y-83111613D01*
X102212962Y-82977038D01*
X102078387Y-82866595D01*
X101924851Y-82784528D01*
X101758255Y-82733992D01*
X101585001Y-82716928D01*
X100344999Y-82716928D01*
X100171745Y-82733992D01*
X100005149Y-82784528D01*
X99851613Y-82866595D01*
X99717038Y-82977038D01*
X99606595Y-83111613D01*
X99548066Y-83221114D01*
X99494345Y-83155655D01*
X99265179Y-82967583D01*
X99003725Y-82827834D01*
X98720032Y-82741776D01*
X98425000Y-82712718D01*
X98129969Y-82741776D01*
X97846276Y-82827834D01*
X97584822Y-82967583D01*
X97355655Y-83155655D01*
X97220780Y-83320000D01*
X97210752Y-83320000D01*
X97155000Y-83314509D01*
X96932501Y-83336423D01*
X96718553Y-83401324D01*
X96521377Y-83506716D01*
X96391856Y-83613011D01*
X96391855Y-83613012D01*
X96348551Y-83648551D01*
X96313013Y-83691854D01*
X92581860Y-87423009D01*
X92538552Y-87458551D01*
X92396717Y-87631377D01*
X92357028Y-87705631D01*
X92291324Y-87828554D01*
X92226423Y-88042502D01*
X92204509Y-88265000D01*
X92210001Y-88320761D01*
X92210000Y-89638111D01*
X92075000Y-89802609D01*
X91940000Y-89638112D01*
X91940000Y-87465131D01*
X93522282Y-85882850D01*
X93763574Y-85834853D01*
X94024727Y-85726680D01*
X94259759Y-85569637D01*
X94459637Y-85369759D01*
X94616680Y-85134727D01*
X94724853Y-84873574D01*
X94780000Y-84596335D01*
X94780000Y-84313665D01*
X94724853Y-84036426D01*
X94616680Y-83775273D01*
X94459637Y-83540241D01*
X94259759Y-83340363D01*
X94024727Y-83183320D01*
X93763574Y-83075147D01*
X93486335Y-83020000D01*
X93203665Y-83020000D01*
X92926426Y-83075147D01*
X92665273Y-83183320D01*
X92430241Y-83340363D01*
X92230363Y-83540241D01*
X92073320Y-83775273D01*
X91965147Y-84036426D01*
X91917150Y-84277718D01*
X90041860Y-86153009D01*
X89998552Y-86188551D01*
X89856717Y-86361377D01*
X89800384Y-86466770D01*
X89751324Y-86558554D01*
X89686423Y-86772502D01*
X89664509Y-86995000D01*
X89670001Y-87050761D01*
X89670000Y-89638111D01*
X89478655Y-89871265D01*
X89331245Y-90147051D01*
X89240470Y-90446296D01*
X89217500Y-90679514D01*
X82718072Y-90679514D01*
X82718072Y-90640000D01*
X82705812Y-90515518D01*
X82669502Y-90395820D01*
X82610537Y-90285506D01*
X82531185Y-90188815D01*
X82434494Y-90109463D01*
X82324180Y-90050498D01*
X82204482Y-90014188D01*
X82080000Y-90001928D01*
X80480000Y-90001928D01*
X80355518Y-90014188D01*
X80235820Y-90050498D01*
X80125506Y-90109463D01*
X80028815Y-90188815D01*
X79949463Y-90285506D01*
X79890498Y-90395820D01*
X79854188Y-90515518D01*
X79841928Y-90640000D01*
X79841928Y-92240000D01*
X79854188Y-92364482D01*
X79890498Y-92484180D01*
X79894048Y-92490821D01*
X78611865Y-93773004D01*
X78568551Y-93808551D01*
X78426716Y-93981377D01*
X78335812Y-94151448D01*
X78321324Y-94178554D01*
X78256423Y-94392502D01*
X78234509Y-94615000D01*
X78240000Y-94670751D01*
X78240000Y-99753639D01*
X78149727Y-99693320D01*
X77888574Y-99585147D01*
X77611335Y-99530000D01*
X77328665Y-99530000D01*
X77051426Y-99585147D01*
X76790273Y-99693320D01*
X76585716Y-99830000D01*
X74304002Y-99830000D01*
X74226101Y-99766068D01*
X74093142Y-99695000D01*
X74226101Y-99623932D01*
X74444608Y-99444608D01*
X74623932Y-99226101D01*
X74757182Y-98976808D01*
X74839236Y-98706309D01*
X74866943Y-98425000D01*
X74839236Y-98143691D01*
X74757182Y-97873192D01*
X74623932Y-97623899D01*
X74444608Y-97405392D01*
X74226101Y-97226068D01*
X73976808Y-97092818D01*
X73706309Y-97010764D01*
X73495492Y-96990000D01*
X72554508Y-96990000D01*
X72343691Y-97010764D01*
X72073192Y-97092818D01*
X71823899Y-97226068D01*
X71605392Y-97405392D01*
X71426068Y-97623899D01*
X71292818Y-97873192D01*
X71210764Y-98143691D01*
X71183057Y-98425000D01*
X71210764Y-98706309D01*
X71292818Y-98976808D01*
X71426068Y-99226101D01*
X71605392Y-99444608D01*
X71823899Y-99623932D01*
X71956858Y-99695000D01*
X71823899Y-99766068D01*
X71605392Y-99945392D01*
X71426068Y-100163899D01*
X71292818Y-100413192D01*
X71210764Y-100683691D01*
X71183057Y-100965000D01*
X71210764Y-101246309D01*
X71292818Y-101516808D01*
X71426068Y-101766101D01*
X71605392Y-101984608D01*
X71823899Y-102163932D01*
X71956858Y-102235000D01*
X71823899Y-102306068D01*
X71745998Y-102370000D01*
X70615132Y-102370000D01*
X68446996Y-100201865D01*
X68411449Y-100158551D01*
X68238623Y-100016716D01*
X68041447Y-99911324D01*
X67827499Y-99846423D01*
X67660752Y-99830000D01*
X67660751Y-99830000D01*
X67605000Y-99824509D01*
X67549249Y-99830000D01*
X66684002Y-99830000D01*
X66606101Y-99766068D01*
X66473142Y-99695000D01*
X66606101Y-99623932D01*
X66824608Y-99444608D01*
X67003932Y-99226101D01*
X67137182Y-98976808D01*
X67219236Y-98706309D01*
X67246943Y-98425000D01*
X67219236Y-98143691D01*
X67137182Y-97873192D01*
X67003932Y-97623899D01*
X66824608Y-97405392D01*
X66606101Y-97226068D01*
X66356808Y-97092818D01*
X66086309Y-97010764D01*
X65875492Y-96990000D01*
X64934508Y-96990000D01*
X64723691Y-97010764D01*
X64453192Y-97092818D01*
X64203899Y-97226068D01*
X64125998Y-97290000D01*
X61844284Y-97290000D01*
X61674131Y-97176308D01*
X61701514Y-97161671D01*
X61773097Y-96917702D01*
X60960000Y-96104605D01*
X60146903Y-96917702D01*
X60218486Y-97161671D01*
X60247341Y-97175324D01*
X60045241Y-97310363D01*
X59845363Y-97510241D01*
X59688320Y-97745273D01*
X59580147Y-98006426D01*
X59525000Y-98283665D01*
X59525000Y-98566335D01*
X59580147Y-98843574D01*
X59688320Y-99104727D01*
X59845363Y-99339759D01*
X60045241Y-99539637D01*
X60280273Y-99696680D01*
X60541426Y-99804853D01*
X60818665Y-99860000D01*
X61101335Y-99860000D01*
X61378574Y-99804853D01*
X61639727Y-99696680D01*
X61844284Y-99560000D01*
X64125998Y-99560000D01*
X64203899Y-99623932D01*
X64336858Y-99695000D01*
X64203899Y-99766068D01*
X63985392Y-99945392D01*
X63806068Y-100163899D01*
X63672818Y-100413192D01*
X63590764Y-100683691D01*
X63563057Y-100965000D01*
X63590764Y-101246309D01*
X63672818Y-101516808D01*
X63806068Y-101766101D01*
X63985392Y-101984608D01*
X64203899Y-102163932D01*
X64336858Y-102235000D01*
X64203899Y-102306068D01*
X64125998Y-102370000D01*
X61844284Y-102370000D01*
X61639727Y-102233320D01*
X61378574Y-102125147D01*
X61101335Y-102070000D01*
X60818665Y-102070000D01*
X60541426Y-102125147D01*
X60280273Y-102233320D01*
X60075716Y-102370000D01*
X58490957Y-102370000D01*
X58480537Y-102350506D01*
X58401185Y-102253815D01*
X58304494Y-102174463D01*
X58285000Y-102164043D01*
X58285000Y-99309284D01*
X58421680Y-99104727D01*
X58529853Y-98843574D01*
X58585000Y-98566335D01*
X58585000Y-98283665D01*
X58529853Y-98006426D01*
X58421680Y-97745273D01*
X58264637Y-97510241D01*
X58064759Y-97310363D01*
X57829727Y-97153320D01*
X57568574Y-97045147D01*
X57291335Y-96990000D01*
X57008665Y-96990000D01*
X56731426Y-97045147D01*
X56470273Y-97153320D01*
X56380000Y-97213638D01*
X56380000Y-95995512D01*
X59519783Y-95995512D01*
X59561213Y-96275130D01*
X59656397Y-96541292D01*
X59723329Y-96666514D01*
X59967298Y-96738097D01*
X60780395Y-95925000D01*
X61139605Y-95925000D01*
X61952702Y-96738097D01*
X62196671Y-96666514D01*
X62317571Y-96411004D01*
X62386300Y-96136816D01*
X62400217Y-95854488D01*
X62358787Y-95574870D01*
X62263603Y-95308708D01*
X62196671Y-95183486D01*
X61952702Y-95111903D01*
X61139605Y-95925000D01*
X60780395Y-95925000D01*
X59967298Y-95111903D01*
X59723329Y-95183486D01*
X59602429Y-95438996D01*
X59533700Y-95713184D01*
X59519783Y-95995512D01*
X56380000Y-95995512D01*
X56380000Y-94932298D01*
X60146903Y-94932298D01*
X60960000Y-95745395D01*
X61773097Y-94932298D01*
X61701514Y-94688329D01*
X61446004Y-94567429D01*
X61171816Y-94498700D01*
X60889488Y-94484783D01*
X60609870Y-94526213D01*
X60343708Y-94621397D01*
X60218486Y-94688329D01*
X60146903Y-94932298D01*
X56380000Y-94932298D01*
X56380000Y-93815131D01*
X57913141Y-92281991D01*
X57956449Y-92246449D01*
X57960031Y-92242084D01*
X58074482Y-92230812D01*
X58194180Y-92194502D01*
X58304494Y-92135537D01*
X58401185Y-92056185D01*
X58480537Y-91959494D01*
X58539502Y-91849180D01*
X58575812Y-91729482D01*
X58588072Y-91605000D01*
X58588072Y-90679514D01*
X65087500Y-90679514D01*
X65087500Y-90930485D01*
X65110470Y-91163703D01*
X65201245Y-91462948D01*
X65348655Y-91738734D01*
X65547037Y-91980463D01*
X65788765Y-92178845D01*
X66064551Y-92326255D01*
X66363796Y-92417030D01*
X66675000Y-92447681D01*
X66986203Y-92417030D01*
X67285448Y-92326255D01*
X67561234Y-92178845D01*
X67802963Y-91980463D01*
X67945000Y-91807391D01*
X68087037Y-91980463D01*
X68328765Y-92178845D01*
X68604551Y-92326255D01*
X68903796Y-92417030D01*
X69215000Y-92447681D01*
X69526203Y-92417030D01*
X69825448Y-92326255D01*
X70101234Y-92178845D01*
X70227095Y-92075553D01*
X70271963Y-92159494D01*
X70351315Y-92256185D01*
X70448006Y-92335537D01*
X70558320Y-92394502D01*
X70678018Y-92430812D01*
X70802500Y-92443072D01*
X72707500Y-92443072D01*
X72831982Y-92430812D01*
X72951680Y-92394502D01*
X73061994Y-92335537D01*
X73158685Y-92256185D01*
X73238037Y-92159494D01*
X73297002Y-92049180D01*
X73330121Y-91940000D01*
X76585716Y-91940000D01*
X76790273Y-92076680D01*
X77051426Y-92184853D01*
X77328665Y-92240000D01*
X77611335Y-92240000D01*
X77888574Y-92184853D01*
X78149727Y-92076680D01*
X78384759Y-91919637D01*
X78584637Y-91719759D01*
X78741680Y-91484727D01*
X78849853Y-91223574D01*
X78905000Y-90946335D01*
X78905000Y-90663665D01*
X78849853Y-90386426D01*
X78741680Y-90125273D01*
X78584637Y-89890241D01*
X78384759Y-89690363D01*
X78149727Y-89533320D01*
X77888574Y-89425147D01*
X77611335Y-89370000D01*
X77328665Y-89370000D01*
X77051426Y-89425147D01*
X76790273Y-89533320D01*
X76585716Y-89670000D01*
X73330121Y-89670000D01*
X73297002Y-89560820D01*
X73238037Y-89450506D01*
X73158685Y-89353815D01*
X73061994Y-89274463D01*
X72951680Y-89215498D01*
X72831982Y-89179188D01*
X72707500Y-89166928D01*
X70802500Y-89166928D01*
X70678018Y-89179188D01*
X70558320Y-89215498D01*
X70448006Y-89274463D01*
X70351315Y-89353815D01*
X70350000Y-89355417D01*
X70350000Y-88735131D01*
X73283399Y-85801734D01*
X73454821Y-85942417D01*
X73716275Y-86082166D01*
X73999968Y-86168224D01*
X74295000Y-86197282D01*
X74590031Y-86168224D01*
X74873724Y-86082166D01*
X75135178Y-85942417D01*
X75364345Y-85754345D01*
X75418066Y-85688886D01*
X75476595Y-85798387D01*
X75587038Y-85932962D01*
X75721613Y-86043405D01*
X75875149Y-86125472D01*
X76041745Y-86176008D01*
X76214999Y-86193072D01*
X77455001Y-86193072D01*
X77628255Y-86176008D01*
X77794851Y-86125472D01*
X77948387Y-86043405D01*
X78082962Y-85932962D01*
X78193405Y-85798387D01*
X78275472Y-85644851D01*
X78317933Y-85504872D01*
X80950000Y-85504872D01*
X80950000Y-85945128D01*
X81035890Y-86376925D01*
X81204369Y-86783669D01*
X81448962Y-87149729D01*
X81760271Y-87461038D01*
X82126331Y-87705631D01*
X82533075Y-87874110D01*
X82964872Y-87960000D01*
X83405128Y-87960000D01*
X83836925Y-87874110D01*
X84243669Y-87705631D01*
X84609729Y-87461038D01*
X84921038Y-87149729D01*
X85165631Y-86783669D01*
X85334110Y-86376925D01*
X85420000Y-85945128D01*
X85420000Y-85504872D01*
X85334110Y-85073075D01*
X85222672Y-84804039D01*
X86873096Y-84804039D01*
X86913754Y-84938087D01*
X87033963Y-85192420D01*
X87201481Y-85418414D01*
X87409869Y-85607385D01*
X87651119Y-85752070D01*
X87915960Y-85846909D01*
X88138000Y-85725624D01*
X88138000Y-84582000D01*
X88392000Y-84582000D01*
X88392000Y-85725624D01*
X88614040Y-85846909D01*
X88878881Y-85752070D01*
X89120131Y-85607385D01*
X89328519Y-85418414D01*
X89496037Y-85192420D01*
X89616246Y-84938087D01*
X89656904Y-84804039D01*
X89534915Y-84582000D01*
X88392000Y-84582000D01*
X88138000Y-84582000D01*
X86995085Y-84582000D01*
X86873096Y-84804039D01*
X85222672Y-84804039D01*
X85165631Y-84666331D01*
X84921038Y-84300271D01*
X84726728Y-84105961D01*
X86873096Y-84105961D01*
X86995085Y-84328000D01*
X88138000Y-84328000D01*
X88138000Y-83184376D01*
X88392000Y-83184376D01*
X88392000Y-84328000D01*
X89534915Y-84328000D01*
X89656904Y-84105961D01*
X89616246Y-83971913D01*
X89496037Y-83717580D01*
X89328519Y-83491586D01*
X89120131Y-83302615D01*
X88878881Y-83157930D01*
X88614040Y-83063091D01*
X88392000Y-83184376D01*
X88138000Y-83184376D01*
X87915960Y-83063091D01*
X87651119Y-83157930D01*
X87409869Y-83302615D01*
X87201481Y-83491586D01*
X87033963Y-83717580D01*
X86913754Y-83971913D01*
X86873096Y-84105961D01*
X84726728Y-84105961D01*
X84609729Y-83988962D01*
X84243669Y-83744369D01*
X83836925Y-83575890D01*
X83405128Y-83490000D01*
X82964872Y-83490000D01*
X82533075Y-83575890D01*
X82126331Y-83744369D01*
X81760271Y-83988962D01*
X81448962Y-84300271D01*
X81204369Y-84666331D01*
X81035890Y-85073075D01*
X80950000Y-85504872D01*
X78317933Y-85504872D01*
X78326008Y-85478255D01*
X78343072Y-85305001D01*
X78343072Y-83604999D01*
X78326008Y-83431745D01*
X78275472Y-83265149D01*
X78193405Y-83111613D01*
X78082962Y-82977038D01*
X77948387Y-82866595D01*
X77794851Y-82784528D01*
X77628255Y-82733992D01*
X77455001Y-82716928D01*
X76214999Y-82716928D01*
X76041745Y-82733992D01*
X75875149Y-82784528D01*
X75721613Y-82866595D01*
X75587038Y-82977038D01*
X75476595Y-83111613D01*
X75418066Y-83221114D01*
X75364345Y-83155655D01*
X75135179Y-82967583D01*
X74873725Y-82827834D01*
X74590032Y-82741776D01*
X74295000Y-82712718D01*
X73999969Y-82741776D01*
X73716276Y-82827834D01*
X73454822Y-82967583D01*
X73225655Y-83155655D01*
X73090780Y-83320000D01*
X73080752Y-83320000D01*
X73025000Y-83314509D01*
X72802501Y-83336423D01*
X72588553Y-83401324D01*
X72391377Y-83506716D01*
X72261856Y-83613011D01*
X72261855Y-83613012D01*
X72218551Y-83648551D01*
X72183013Y-83691854D01*
X68451860Y-87423009D01*
X68408552Y-87458551D01*
X68266717Y-87631377D01*
X68227028Y-87705631D01*
X68161324Y-87828554D01*
X68096423Y-88042502D01*
X68074509Y-88265000D01*
X68080001Y-88320761D01*
X68080000Y-89638111D01*
X67945000Y-89802609D01*
X67810000Y-89638112D01*
X67810000Y-87465131D01*
X69392282Y-85882850D01*
X69633574Y-85834853D01*
X69894727Y-85726680D01*
X70129759Y-85569637D01*
X70329637Y-85369759D01*
X70486680Y-85134727D01*
X70594853Y-84873574D01*
X70650000Y-84596335D01*
X70650000Y-84313665D01*
X70594853Y-84036426D01*
X70486680Y-83775273D01*
X70329637Y-83540241D01*
X70129759Y-83340363D01*
X69894727Y-83183320D01*
X69633574Y-83075147D01*
X69356335Y-83020000D01*
X69073665Y-83020000D01*
X68796426Y-83075147D01*
X68535273Y-83183320D01*
X68300241Y-83340363D01*
X68100363Y-83540241D01*
X67943320Y-83775273D01*
X67835147Y-84036426D01*
X67787150Y-84277718D01*
X65911860Y-86153009D01*
X65868552Y-86188551D01*
X65726717Y-86361377D01*
X65670384Y-86466770D01*
X65621324Y-86558554D01*
X65556423Y-86772502D01*
X65534509Y-86995000D01*
X65540001Y-87050761D01*
X65540000Y-89638111D01*
X65348655Y-89871265D01*
X65201245Y-90147051D01*
X65110470Y-90446296D01*
X65087500Y-90679514D01*
X58588072Y-90679514D01*
X58588072Y-90005000D01*
X58575812Y-89880518D01*
X58539502Y-89760820D01*
X58480537Y-89650506D01*
X58401185Y-89553815D01*
X58304494Y-89474463D01*
X58194180Y-89415498D01*
X58074482Y-89379188D01*
X57950000Y-89366928D01*
X56350000Y-89366928D01*
X56225518Y-89379188D01*
X56105820Y-89415498D01*
X55995506Y-89474463D01*
X55898815Y-89553815D01*
X55819463Y-89650506D01*
X55760498Y-89760820D01*
X55724188Y-89880518D01*
X55711928Y-90005000D01*
X55711928Y-91272940D01*
X54737000Y-92247869D01*
X54737000Y-87355031D01*
X56728698Y-87355031D01*
X56746412Y-87447502D01*
X56862429Y-87720437D01*
X57029464Y-87965494D01*
X57241097Y-88173256D01*
X57489196Y-88335738D01*
X57764227Y-88446696D01*
X58055620Y-88501866D01*
X58293000Y-88345586D01*
X58293000Y-87122000D01*
X58547000Y-87122000D01*
X58547000Y-88345586D01*
X58784380Y-88501866D01*
X59075773Y-88446696D01*
X59350804Y-88335738D01*
X59598903Y-88173256D01*
X59810536Y-87965494D01*
X59977571Y-87720437D01*
X60093588Y-87447502D01*
X60111302Y-87355031D01*
X59990246Y-87122000D01*
X58547000Y-87122000D01*
X58293000Y-87122000D01*
X56849754Y-87122000D01*
X56728698Y-87355031D01*
X54737000Y-87355031D01*
X54737000Y-83834999D01*
X56681928Y-83834999D01*
X56681928Y-85075001D01*
X56698992Y-85248255D01*
X56749528Y-85414851D01*
X56831595Y-85568387D01*
X56942038Y-85702962D01*
X57076613Y-85813405D01*
X57185314Y-85871507D01*
X57029464Y-86024506D01*
X56862429Y-86269563D01*
X56746412Y-86542498D01*
X56728698Y-86634969D01*
X56849754Y-86868000D01*
X58293000Y-86868000D01*
X58293000Y-86848000D01*
X58547000Y-86848000D01*
X58547000Y-86868000D01*
X59990246Y-86868000D01*
X60111302Y-86634969D01*
X60093588Y-86542498D01*
X59977571Y-86269563D01*
X59810536Y-86024506D01*
X59654686Y-85871507D01*
X59763387Y-85813405D01*
X59897962Y-85702962D01*
X60008405Y-85568387D01*
X60090472Y-85414851D01*
X60141008Y-85248255D01*
X60158072Y-85075001D01*
X60158072Y-84804039D01*
X62743096Y-84804039D01*
X62783754Y-84938087D01*
X62903963Y-85192420D01*
X63071481Y-85418414D01*
X63279869Y-85607385D01*
X63521119Y-85752070D01*
X63785960Y-85846909D01*
X64008000Y-85725624D01*
X64008000Y-84582000D01*
X64262000Y-84582000D01*
X64262000Y-85725624D01*
X64484040Y-85846909D01*
X64748881Y-85752070D01*
X64990131Y-85607385D01*
X65198519Y-85418414D01*
X65366037Y-85192420D01*
X65486246Y-84938087D01*
X65526904Y-84804039D01*
X65404915Y-84582000D01*
X64262000Y-84582000D01*
X64008000Y-84582000D01*
X62865085Y-84582000D01*
X62743096Y-84804039D01*
X60158072Y-84804039D01*
X60158072Y-84105961D01*
X62743096Y-84105961D01*
X62865085Y-84328000D01*
X64008000Y-84328000D01*
X64008000Y-83184376D01*
X64262000Y-83184376D01*
X64262000Y-84328000D01*
X65404915Y-84328000D01*
X65526904Y-84105961D01*
X65486246Y-83971913D01*
X65366037Y-83717580D01*
X65198519Y-83491586D01*
X64990131Y-83302615D01*
X64748881Y-83157930D01*
X64484040Y-83063091D01*
X64262000Y-83184376D01*
X64008000Y-83184376D01*
X63785960Y-83063091D01*
X63521119Y-83157930D01*
X63279869Y-83302615D01*
X63071481Y-83491586D01*
X62903963Y-83717580D01*
X62783754Y-83971913D01*
X62743096Y-84105961D01*
X60158072Y-84105961D01*
X60158072Y-83834999D01*
X60141008Y-83661745D01*
X60090472Y-83495149D01*
X60008405Y-83341613D01*
X59897962Y-83207038D01*
X59763387Y-83096595D01*
X59609851Y-83014528D01*
X59443255Y-82963992D01*
X59270001Y-82946928D01*
X57569999Y-82946928D01*
X57396745Y-82963992D01*
X57230149Y-83014528D01*
X57076613Y-83096595D01*
X56942038Y-83207038D01*
X56831595Y-83341613D01*
X56749528Y-83495149D01*
X56698992Y-83661745D01*
X56681928Y-83834999D01*
X54737000Y-83834999D01*
X54737000Y-82602606D01*
X56567606Y-80772000D01*
X125687667Y-80772000D01*
X128143000Y-82613500D01*
G37*
X128143000Y-82613500D02*
X128143000Y-112966500D01*
X125687667Y-114808000D01*
X56567606Y-114808000D01*
X55925605Y-114165999D01*
X55935752Y-114165000D01*
X65984249Y-114165000D01*
X66040000Y-114170491D01*
X66095751Y-114165000D01*
X66095752Y-114165000D01*
X66262499Y-114148577D01*
X66476447Y-114083676D01*
X66673623Y-113978284D01*
X66732457Y-113930000D01*
X66826184Y-113930000D01*
X67122743Y-113871011D01*
X67402095Y-113755299D01*
X67653505Y-113587312D01*
X67867312Y-113373505D01*
X67925000Y-113287169D01*
X67982688Y-113373505D01*
X68196495Y-113587312D01*
X68447905Y-113755299D01*
X68727257Y-113871011D01*
X69023816Y-113930000D01*
X69326184Y-113930000D01*
X69622743Y-113871011D01*
X69902095Y-113755299D01*
X70153505Y-113587312D01*
X70367312Y-113373505D01*
X70425000Y-113287169D01*
X70482688Y-113373505D01*
X70696495Y-113587312D01*
X70947905Y-113755299D01*
X71227257Y-113871011D01*
X71523816Y-113930000D01*
X71826184Y-113930000D01*
X72122743Y-113871011D01*
X72402095Y-113755299D01*
X72653505Y-113587312D01*
X72867312Y-113373505D01*
X73035299Y-113122095D01*
X73151011Y-112842743D01*
X73210000Y-112546184D01*
X73210000Y-112243816D01*
X73151011Y-111947257D01*
X73035299Y-111667905D01*
X72867312Y-111416495D01*
X72653505Y-111202688D01*
X72402095Y-111034701D01*
X72122743Y-110918989D01*
X71826184Y-110860000D01*
X71523816Y-110860000D01*
X71227257Y-110918989D01*
X70947905Y-111034701D01*
X70696495Y-111202688D01*
X70482688Y-111416495D01*
X70425000Y-111502831D01*
X70367312Y-111416495D01*
X70350000Y-111399183D01*
X70350000Y-106845000D01*
X71186928Y-106845000D01*
X71199188Y-106969482D01*
X71235498Y-107089180D01*
X71294463Y-107199494D01*
X71373815Y-107296185D01*
X71470506Y-107375537D01*
X71580820Y-107434502D01*
X71700518Y-107470812D01*
X71825000Y-107483072D01*
X72739250Y-107480000D01*
X72898000Y-107321250D01*
X72898000Y-106172000D01*
X73152000Y-106172000D01*
X73152000Y-107321250D01*
X73310750Y-107480000D01*
X74225000Y-107483072D01*
X74349482Y-107470812D01*
X74469180Y-107434502D01*
X74579494Y-107375537D01*
X74676185Y-107296185D01*
X74755537Y-107199494D01*
X74814502Y-107089180D01*
X74850812Y-106969482D01*
X74863072Y-106845000D01*
X74862269Y-106710512D01*
X76029783Y-106710512D01*
X76071213Y-106990130D01*
X76166397Y-107256292D01*
X76233329Y-107381514D01*
X76477298Y-107453097D01*
X77290395Y-106640000D01*
X76477298Y-105826903D01*
X76233329Y-105898486D01*
X76112429Y-106153996D01*
X76043700Y-106428184D01*
X76029783Y-106710512D01*
X74862269Y-106710512D01*
X74860000Y-106330750D01*
X74701250Y-106172000D01*
X73152000Y-106172000D01*
X72898000Y-106172000D01*
X71348750Y-106172000D01*
X71190000Y-106330750D01*
X71186928Y-106845000D01*
X70350000Y-106845000D01*
X70350000Y-104905132D01*
X70615132Y-104640000D01*
X71631910Y-104640000D01*
X71580820Y-104655498D01*
X71470506Y-104714463D01*
X71373815Y-104793815D01*
X71294463Y-104890506D01*
X71235498Y-105000820D01*
X71199188Y-105120518D01*
X71186928Y-105245000D01*
X71190000Y-105759250D01*
X71348750Y-105918000D01*
X72898000Y-105918000D01*
X72898000Y-105898000D01*
X73152000Y-105898000D01*
X73152000Y-105918000D01*
X74701250Y-105918000D01*
X74860000Y-105759250D01*
X74863072Y-105245000D01*
X74850812Y-105120518D01*
X74814502Y-105000820D01*
X74755537Y-104890506D01*
X74676185Y-104793815D01*
X74579494Y-104714463D01*
X74469180Y-104655498D01*
X74418090Y-104640000D01*
X75094868Y-104640000D01*
X75358008Y-104903140D01*
X75393551Y-104946449D01*
X75459802Y-105000820D01*
X75566377Y-105088284D01*
X75763553Y-105193676D01*
X75977501Y-105258577D01*
X76200000Y-105280491D01*
X76255752Y-105275000D01*
X76585716Y-105275000D01*
X76755869Y-105388692D01*
X76728486Y-105403329D01*
X76656903Y-105647298D01*
X77470000Y-106460395D01*
X77484143Y-106446253D01*
X77663748Y-106625858D01*
X77649605Y-106640000D01*
X77663748Y-106654143D01*
X77484143Y-106833748D01*
X77470000Y-106819605D01*
X76656903Y-107632702D01*
X76728486Y-107876671D01*
X76983996Y-107997571D01*
X77258184Y-108066300D01*
X77540512Y-108080217D01*
X77820130Y-108038787D01*
X78086292Y-107943603D01*
X78211514Y-107876671D01*
X78240001Y-107779583D01*
X78240001Y-112339238D01*
X78234509Y-112395000D01*
X78256423Y-112617498D01*
X78321324Y-112831446D01*
X78338697Y-112863948D01*
X78426717Y-113028623D01*
X78568552Y-113201449D01*
X78611860Y-113236991D01*
X79168008Y-113793140D01*
X79203551Y-113836449D01*
X79246857Y-113871989D01*
X79376377Y-113978284D01*
X79573553Y-114083676D01*
X79787501Y-114148577D01*
X80010000Y-114170491D01*
X80065752Y-114165000D01*
X90114249Y-114165000D01*
X90170000Y-114170491D01*
X90225751Y-114165000D01*
X90225752Y-114165000D01*
X90392499Y-114148577D01*
X90606447Y-114083676D01*
X90803623Y-113978284D01*
X90862457Y-113930000D01*
X90956184Y-113930000D01*
X91252743Y-113871011D01*
X91532095Y-113755299D01*
X91783505Y-113587312D01*
X91997312Y-113373505D01*
X92055000Y-113287169D01*
X92112688Y-113373505D01*
X92326495Y-113587312D01*
X92577905Y-113755299D01*
X92857257Y-113871011D01*
X93153816Y-113930000D01*
X93456184Y-113930000D01*
X93752743Y-113871011D01*
X94032095Y-113755299D01*
X94283505Y-113587312D01*
X94497312Y-113373505D01*
X94555000Y-113287169D01*
X94612688Y-113373505D01*
X94826495Y-113587312D01*
X95077905Y-113755299D01*
X95357257Y-113871011D01*
X95653816Y-113930000D01*
X95956184Y-113930000D01*
X96252743Y-113871011D01*
X96532095Y-113755299D01*
X96783505Y-113587312D01*
X96997312Y-113373505D01*
X97165299Y-113122095D01*
X97281011Y-112842743D01*
X97340000Y-112546184D01*
X97340000Y-112243816D01*
X97281011Y-111947257D01*
X97165299Y-111667905D01*
X96997312Y-111416495D01*
X96783505Y-111202688D01*
X96532095Y-111034701D01*
X96252743Y-110918989D01*
X95956184Y-110860000D01*
X95653816Y-110860000D01*
X95357257Y-110918989D01*
X95077905Y-111034701D01*
X94826495Y-111202688D01*
X94612688Y-111416495D01*
X94555000Y-111502831D01*
X94497312Y-111416495D01*
X94480000Y-111399183D01*
X94480000Y-106845000D01*
X95316928Y-106845000D01*
X95329188Y-106969482D01*
X95365498Y-107089180D01*
X95424463Y-107199494D01*
X95503815Y-107296185D01*
X95600506Y-107375537D01*
X95710820Y-107434502D01*
X95830518Y-107470812D01*
X95955000Y-107483072D01*
X96869250Y-107480000D01*
X97028000Y-107321250D01*
X97028000Y-106172000D01*
X97282000Y-106172000D01*
X97282000Y-107321250D01*
X97440750Y-107480000D01*
X98355000Y-107483072D01*
X98479482Y-107470812D01*
X98599180Y-107434502D01*
X98709494Y-107375537D01*
X98806185Y-107296185D01*
X98885537Y-107199494D01*
X98944502Y-107089180D01*
X98980812Y-106969482D01*
X98993072Y-106845000D01*
X98992269Y-106710512D01*
X100159783Y-106710512D01*
X100201213Y-106990130D01*
X100296397Y-107256292D01*
X100363329Y-107381514D01*
X100607298Y-107453097D01*
X101420395Y-106640000D01*
X100607298Y-105826903D01*
X100363329Y-105898486D01*
X100242429Y-106153996D01*
X100173700Y-106428184D01*
X100159783Y-106710512D01*
X98992269Y-106710512D01*
X98990000Y-106330750D01*
X98831250Y-106172000D01*
X97282000Y-106172000D01*
X97028000Y-106172000D01*
X95478750Y-106172000D01*
X95320000Y-106330750D01*
X95316928Y-106845000D01*
X94480000Y-106845000D01*
X94480000Y-105245131D01*
X95085132Y-104640000D01*
X95761910Y-104640000D01*
X95710820Y-104655498D01*
X95600506Y-104714463D01*
X95503815Y-104793815D01*
X95424463Y-104890506D01*
X95365498Y-105000820D01*
X95329188Y-105120518D01*
X95316928Y-105245000D01*
X95320000Y-105759250D01*
X95478750Y-105918000D01*
X97028000Y-105918000D01*
X97028000Y-105898000D01*
X97282000Y-105898000D01*
X97282000Y-105918000D01*
X98831250Y-105918000D01*
X98990000Y-105759250D01*
X98993072Y-105245000D01*
X98980812Y-105120518D01*
X98944502Y-105000820D01*
X98885537Y-104890506D01*
X98806185Y-104793815D01*
X98709494Y-104714463D01*
X98599180Y-104655498D01*
X98548090Y-104640000D01*
X99224868Y-104640000D01*
X99488008Y-104903140D01*
X99523551Y-104946449D01*
X99589802Y-105000820D01*
X99696377Y-105088284D01*
X99893553Y-105193676D01*
X100107501Y-105258577D01*
X100330000Y-105280491D01*
X100385752Y-105275000D01*
X100715716Y-105275000D01*
X100885869Y-105388692D01*
X100858486Y-105403329D01*
X100786903Y-105647298D01*
X101600000Y-106460395D01*
X101614143Y-106446253D01*
X101793748Y-106625858D01*
X101779605Y-106640000D01*
X101793748Y-106654143D01*
X101614143Y-106833748D01*
X101600000Y-106819605D01*
X100786903Y-107632702D01*
X100858486Y-107876671D01*
X101113996Y-107997571D01*
X101388184Y-108066300D01*
X101670512Y-108080217D01*
X101950130Y-108038787D01*
X102216292Y-107943603D01*
X102341514Y-107876671D01*
X102370001Y-107779583D01*
X102370001Y-112339238D01*
X102364509Y-112395000D01*
X102386423Y-112617498D01*
X102451324Y-112831446D01*
X102468697Y-112863948D01*
X102556717Y-113028623D01*
X102698552Y-113201449D01*
X102741860Y-113236991D01*
X103298008Y-113793140D01*
X103333551Y-113836449D01*
X103376857Y-113871989D01*
X103506377Y-113978284D01*
X103703553Y-114083676D01*
X103917501Y-114148577D01*
X104140000Y-114170491D01*
X104195752Y-114165000D01*
X114244249Y-114165000D01*
X114300000Y-114170491D01*
X114355751Y-114165000D01*
X114355752Y-114165000D01*
X114522499Y-114148577D01*
X114736447Y-114083676D01*
X114933623Y-113978284D01*
X114992457Y-113930000D01*
X115086184Y-113930000D01*
X115382743Y-113871011D01*
X115662095Y-113755299D01*
X115913505Y-113587312D01*
X116127312Y-113373505D01*
X116185000Y-113287169D01*
X116242688Y-113373505D01*
X116456495Y-113587312D01*
X116707905Y-113755299D01*
X116987257Y-113871011D01*
X117283816Y-113930000D01*
X117586184Y-113930000D01*
X117882743Y-113871011D01*
X118162095Y-113755299D01*
X118413505Y-113587312D01*
X118627312Y-113373505D01*
X118685000Y-113287169D01*
X118742688Y-113373505D01*
X118956495Y-113587312D01*
X119207905Y-113755299D01*
X119487257Y-113871011D01*
X119783816Y-113930000D01*
X120086184Y-113930000D01*
X120382743Y-113871011D01*
X120662095Y-113755299D01*
X120913505Y-113587312D01*
X121127312Y-113373505D01*
X121295299Y-113122095D01*
X121411011Y-112842743D01*
X121470000Y-112546184D01*
X121470000Y-112243816D01*
X121411011Y-111947257D01*
X121295299Y-111667905D01*
X121127312Y-111416495D01*
X120913505Y-111202688D01*
X120662095Y-111034701D01*
X120382743Y-110918989D01*
X120086184Y-110860000D01*
X119783816Y-110860000D01*
X119487257Y-110918989D01*
X119207905Y-111034701D01*
X118956495Y-111202688D01*
X118742688Y-111416495D01*
X118685000Y-111502831D01*
X118627312Y-111416495D01*
X118610000Y-111399183D01*
X118610000Y-107632702D01*
X124916903Y-107632702D01*
X124988486Y-107876671D01*
X125243996Y-107997571D01*
X125518184Y-108066300D01*
X125800512Y-108080217D01*
X126080130Y-108038787D01*
X126346292Y-107943603D01*
X126471514Y-107876671D01*
X126543097Y-107632702D01*
X125730000Y-106819605D01*
X124916903Y-107632702D01*
X118610000Y-107632702D01*
X118610000Y-106845000D01*
X119446928Y-106845000D01*
X119459188Y-106969482D01*
X119495498Y-107089180D01*
X119554463Y-107199494D01*
X119633815Y-107296185D01*
X119730506Y-107375537D01*
X119840820Y-107434502D01*
X119960518Y-107470812D01*
X120085000Y-107483072D01*
X120999250Y-107480000D01*
X121158000Y-107321250D01*
X121158000Y-106172000D01*
X121412000Y-106172000D01*
X121412000Y-107321250D01*
X121570750Y-107480000D01*
X122485000Y-107483072D01*
X122609482Y-107470812D01*
X122729180Y-107434502D01*
X122839494Y-107375537D01*
X122936185Y-107296185D01*
X123015537Y-107199494D01*
X123074502Y-107089180D01*
X123110812Y-106969482D01*
X123123072Y-106845000D01*
X123122269Y-106710512D01*
X124289783Y-106710512D01*
X124331213Y-106990130D01*
X124426397Y-107256292D01*
X124493329Y-107381514D01*
X124737298Y-107453097D01*
X125550395Y-106640000D01*
X125909605Y-106640000D01*
X126722702Y-107453097D01*
X126966671Y-107381514D01*
X127087571Y-107126004D01*
X127156300Y-106851816D01*
X127170217Y-106569488D01*
X127128787Y-106289870D01*
X127033603Y-106023708D01*
X126966671Y-105898486D01*
X126722702Y-105826903D01*
X125909605Y-106640000D01*
X125550395Y-106640000D01*
X124737298Y-105826903D01*
X124493329Y-105898486D01*
X124372429Y-106153996D01*
X124303700Y-106428184D01*
X124289783Y-106710512D01*
X123122269Y-106710512D01*
X123120000Y-106330750D01*
X122961250Y-106172000D01*
X121412000Y-106172000D01*
X121158000Y-106172000D01*
X119608750Y-106172000D01*
X119450000Y-106330750D01*
X119446928Y-106845000D01*
X118610000Y-106845000D01*
X118610000Y-104640000D01*
X119891910Y-104640000D01*
X119840820Y-104655498D01*
X119730506Y-104714463D01*
X119633815Y-104793815D01*
X119554463Y-104890506D01*
X119495498Y-105000820D01*
X119459188Y-105120518D01*
X119446928Y-105245000D01*
X119450000Y-105759250D01*
X119608750Y-105918000D01*
X121158000Y-105918000D01*
X121158000Y-105898000D01*
X121412000Y-105898000D01*
X121412000Y-105918000D01*
X122961250Y-105918000D01*
X123120000Y-105759250D01*
X123123072Y-105245000D01*
X123110812Y-105120518D01*
X123074502Y-105000820D01*
X123015537Y-104890506D01*
X122936185Y-104793815D01*
X122839494Y-104714463D01*
X122729180Y-104655498D01*
X122678090Y-104640000D01*
X123354868Y-104640000D01*
X123618008Y-104903140D01*
X123653551Y-104946449D01*
X123719802Y-105000820D01*
X123826377Y-105088284D01*
X124023553Y-105193676D01*
X124237501Y-105258577D01*
X124460000Y-105280491D01*
X124515752Y-105275000D01*
X124845716Y-105275000D01*
X125015869Y-105388692D01*
X124988486Y-105403329D01*
X124916903Y-105647298D01*
X125730000Y-106460395D01*
X126543097Y-105647298D01*
X126471514Y-105403329D01*
X126442659Y-105389676D01*
X126644759Y-105254637D01*
X126844637Y-105054759D01*
X127001680Y-104819727D01*
X127109853Y-104558574D01*
X127165000Y-104281335D01*
X127165000Y-103998665D01*
X127109853Y-103721426D01*
X127001680Y-103460273D01*
X126844637Y-103225241D01*
X126644759Y-103025363D01*
X126409727Y-102868320D01*
X126148574Y-102760147D01*
X125871335Y-102705000D01*
X125588665Y-102705000D01*
X125311426Y-102760147D01*
X125050273Y-102868320D01*
X124896320Y-102971188D01*
X124666995Y-102741864D01*
X124631449Y-102698551D01*
X124458623Y-102556716D01*
X124261447Y-102451324D01*
X124047499Y-102386423D01*
X123880752Y-102370000D01*
X123880751Y-102370000D01*
X123825000Y-102364509D01*
X123769249Y-102370000D01*
X122564002Y-102370000D01*
X122486101Y-102306068D01*
X122353142Y-102235000D01*
X122486101Y-102163932D01*
X122564002Y-102100000D01*
X124845716Y-102100000D01*
X125050273Y-102236680D01*
X125311426Y-102344853D01*
X125588665Y-102400000D01*
X125871335Y-102400000D01*
X126148574Y-102344853D01*
X126409727Y-102236680D01*
X126644759Y-102079637D01*
X126844637Y-101879759D01*
X127001680Y-101644727D01*
X127109853Y-101383574D01*
X127165000Y-101106335D01*
X127165000Y-100823665D01*
X127109853Y-100546426D01*
X127001680Y-100285273D01*
X126844637Y-100050241D01*
X126644759Y-99850363D01*
X126409727Y-99693320D01*
X126148574Y-99585147D01*
X125871335Y-99530000D01*
X125588665Y-99530000D01*
X125311426Y-99585147D01*
X125050273Y-99693320D01*
X124845716Y-99830000D01*
X122564002Y-99830000D01*
X122486101Y-99766068D01*
X122353142Y-99695000D01*
X122486101Y-99623932D01*
X122704608Y-99444608D01*
X122883932Y-99226101D01*
X123017182Y-98976808D01*
X123099236Y-98706309D01*
X123126943Y-98425000D01*
X123099236Y-98143691D01*
X123017182Y-97873192D01*
X122883932Y-97623899D01*
X122704608Y-97405392D01*
X122486101Y-97226068D01*
X122236808Y-97092818D01*
X121966309Y-97010764D01*
X121755492Y-96990000D01*
X120814508Y-96990000D01*
X120603691Y-97010764D01*
X120333192Y-97092818D01*
X120083899Y-97226068D01*
X119865392Y-97405392D01*
X119686068Y-97623899D01*
X119552818Y-97873192D01*
X119470764Y-98143691D01*
X119443057Y-98425000D01*
X119470764Y-98706309D01*
X119552818Y-98976808D01*
X119686068Y-99226101D01*
X119865392Y-99444608D01*
X120083899Y-99623932D01*
X120216858Y-99695000D01*
X120083899Y-99766068D01*
X119865392Y-99945392D01*
X119686068Y-100163899D01*
X119552818Y-100413192D01*
X119470764Y-100683691D01*
X119443057Y-100965000D01*
X119470764Y-101246309D01*
X119552818Y-101516808D01*
X119686068Y-101766101D01*
X119865392Y-101984608D01*
X120083899Y-102163932D01*
X120216858Y-102235000D01*
X120083899Y-102306068D01*
X120005998Y-102370000D01*
X118677500Y-102370000D01*
X117165072Y-100353431D01*
X117153284Y-100331377D01*
X117098103Y-100264138D01*
X117079548Y-100239399D01*
X117062769Y-100221085D01*
X117011449Y-100158551D01*
X116987386Y-100138803D01*
X116966362Y-100115855D01*
X116901153Y-100068033D01*
X116838623Y-100016716D01*
X116811166Y-100002040D01*
X116786072Y-99983637D01*
X116712785Y-99949455D01*
X116641447Y-99911324D01*
X116611659Y-99902288D01*
X116583453Y-99889132D01*
X116504905Y-99869904D01*
X116427499Y-99846423D01*
X116396517Y-99843372D01*
X116366289Y-99835972D01*
X116285494Y-99832437D01*
X116260752Y-99830000D01*
X116229799Y-99830000D01*
X116142928Y-99826199D01*
X116118218Y-99830000D01*
X114944002Y-99830000D01*
X114866101Y-99766068D01*
X114733142Y-99695000D01*
X114866101Y-99623932D01*
X115084608Y-99444608D01*
X115263932Y-99226101D01*
X115397182Y-98976808D01*
X115479236Y-98706309D01*
X115506943Y-98425000D01*
X115479236Y-98143691D01*
X115397182Y-97873192D01*
X115263932Y-97623899D01*
X115084608Y-97405392D01*
X114866101Y-97226068D01*
X114616808Y-97092818D01*
X114346309Y-97010764D01*
X114135492Y-96990000D01*
X113194508Y-96990000D01*
X112983691Y-97010764D01*
X112713192Y-97092818D01*
X112463899Y-97226068D01*
X112385998Y-97290000D01*
X110104284Y-97290000D01*
X109934131Y-97176308D01*
X109961514Y-97161671D01*
X110033097Y-96917702D01*
X109220000Y-96104605D01*
X108406903Y-96917702D01*
X108478486Y-97161671D01*
X108507341Y-97175324D01*
X108305241Y-97310363D01*
X108105363Y-97510241D01*
X107948320Y-97745273D01*
X107840147Y-98006426D01*
X107785000Y-98283665D01*
X107785000Y-98566335D01*
X107840147Y-98843574D01*
X107948320Y-99104727D01*
X108105363Y-99339759D01*
X108305241Y-99539637D01*
X108540273Y-99696680D01*
X108801426Y-99804853D01*
X109078665Y-99860000D01*
X109361335Y-99860000D01*
X109638574Y-99804853D01*
X109899727Y-99696680D01*
X110104284Y-99560000D01*
X112385998Y-99560000D01*
X112463899Y-99623932D01*
X112596858Y-99695000D01*
X112463899Y-99766068D01*
X112245392Y-99945392D01*
X112066068Y-100163899D01*
X111932818Y-100413192D01*
X111850764Y-100683691D01*
X111823057Y-100965000D01*
X111850764Y-101246309D01*
X111932818Y-101516808D01*
X112066068Y-101766101D01*
X112245392Y-101984608D01*
X112463899Y-102163932D01*
X112596858Y-102235000D01*
X112463899Y-102306068D01*
X112385998Y-102370000D01*
X110104284Y-102370000D01*
X109899727Y-102233320D01*
X109638574Y-102125147D01*
X109361335Y-102070000D01*
X109078665Y-102070000D01*
X108801426Y-102125147D01*
X108540273Y-102233320D01*
X108335716Y-102370000D01*
X106750957Y-102370000D01*
X106740537Y-102350506D01*
X106661185Y-102253815D01*
X106564494Y-102174463D01*
X106545000Y-102164043D01*
X106545000Y-99309284D01*
X106681680Y-99104727D01*
X106789853Y-98843574D01*
X106845000Y-98566335D01*
X106845000Y-98283665D01*
X106789853Y-98006426D01*
X106681680Y-97745273D01*
X106524637Y-97510241D01*
X106324759Y-97310363D01*
X106089727Y-97153320D01*
X105828574Y-97045147D01*
X105551335Y-96990000D01*
X105268665Y-96990000D01*
X104991426Y-97045147D01*
X104730273Y-97153320D01*
X104640000Y-97213638D01*
X104640000Y-95995512D01*
X107779783Y-95995512D01*
X107821213Y-96275130D01*
X107916397Y-96541292D01*
X107983329Y-96666514D01*
X108227298Y-96738097D01*
X109040395Y-95925000D01*
X109399605Y-95925000D01*
X110212702Y-96738097D01*
X110456671Y-96666514D01*
X110577571Y-96411004D01*
X110646300Y-96136816D01*
X110660217Y-95854488D01*
X110618787Y-95574870D01*
X110523603Y-95308708D01*
X110456671Y-95183486D01*
X110212702Y-95111903D01*
X109399605Y-95925000D01*
X109040395Y-95925000D01*
X108227298Y-95111903D01*
X107983329Y-95183486D01*
X107862429Y-95438996D01*
X107793700Y-95713184D01*
X107779783Y-95995512D01*
X104640000Y-95995512D01*
X104640000Y-94932298D01*
X108406903Y-94932298D01*
X109220000Y-95745395D01*
X110033097Y-94932298D01*
X109961514Y-94688329D01*
X109706004Y-94567429D01*
X109431816Y-94498700D01*
X109149488Y-94484783D01*
X108869870Y-94526213D01*
X108603708Y-94621397D01*
X108478486Y-94688329D01*
X108406903Y-94932298D01*
X104640000Y-94932298D01*
X104640000Y-94450131D01*
X106173141Y-92916991D01*
X106216449Y-92881449D01*
X106358284Y-92708623D01*
X106463676Y-92511447D01*
X106528577Y-92297499D01*
X106543419Y-92146802D01*
X106564494Y-92135537D01*
X106661185Y-92056185D01*
X106740537Y-91959494D01*
X106799502Y-91849180D01*
X106835812Y-91729482D01*
X106848072Y-91605000D01*
X106848072Y-90679514D01*
X113347500Y-90679514D01*
X113347500Y-90930485D01*
X113370470Y-91163703D01*
X113461245Y-91462948D01*
X113608655Y-91738734D01*
X113807037Y-91980463D01*
X114048765Y-92178845D01*
X114324551Y-92326255D01*
X114623796Y-92417030D01*
X114935000Y-92447681D01*
X115246203Y-92417030D01*
X115545448Y-92326255D01*
X115821234Y-92178845D01*
X116062963Y-91980463D01*
X116205000Y-91807391D01*
X116347037Y-91980463D01*
X116588765Y-92178845D01*
X116864551Y-92326255D01*
X117163796Y-92417030D01*
X117475000Y-92447681D01*
X117786203Y-92417030D01*
X118085448Y-92326255D01*
X118361234Y-92178845D01*
X118487095Y-92075553D01*
X118531963Y-92159494D01*
X118611315Y-92256185D01*
X118708006Y-92335537D01*
X118818320Y-92394502D01*
X118938018Y-92430812D01*
X119062500Y-92443072D01*
X120967500Y-92443072D01*
X121091982Y-92430812D01*
X121211680Y-92394502D01*
X121321994Y-92335537D01*
X121418685Y-92256185D01*
X121498037Y-92159494D01*
X121557002Y-92049180D01*
X121590121Y-91940000D01*
X124845716Y-91940000D01*
X125050273Y-92076680D01*
X125311426Y-92184853D01*
X125588665Y-92240000D01*
X125871335Y-92240000D01*
X126148574Y-92184853D01*
X126409727Y-92076680D01*
X126644759Y-91919637D01*
X126844637Y-91719759D01*
X127001680Y-91484727D01*
X127109853Y-91223574D01*
X127165000Y-90946335D01*
X127165000Y-90663665D01*
X127109853Y-90386426D01*
X127001680Y-90125273D01*
X126844637Y-89890241D01*
X126644759Y-89690363D01*
X126409727Y-89533320D01*
X126148574Y-89425147D01*
X125871335Y-89370000D01*
X125588665Y-89370000D01*
X125311426Y-89425147D01*
X125050273Y-89533320D01*
X124845716Y-89670000D01*
X121590121Y-89670000D01*
X121557002Y-89560820D01*
X121498037Y-89450506D01*
X121418685Y-89353815D01*
X121321994Y-89274463D01*
X121211680Y-89215498D01*
X121091982Y-89179188D01*
X120967500Y-89166928D01*
X119062500Y-89166928D01*
X118938018Y-89179188D01*
X118818320Y-89215498D01*
X118708006Y-89274463D01*
X118611315Y-89353815D01*
X118610000Y-89355417D01*
X118610000Y-88735131D01*
X121543399Y-85801734D01*
X121714821Y-85942417D01*
X121976275Y-86082166D01*
X122259968Y-86168224D01*
X122555000Y-86197282D01*
X122850031Y-86168224D01*
X123133724Y-86082166D01*
X123395178Y-85942417D01*
X123624345Y-85754345D01*
X123678066Y-85688886D01*
X123736595Y-85798387D01*
X123847038Y-85932962D01*
X123981613Y-86043405D01*
X124135149Y-86125472D01*
X124301745Y-86176008D01*
X124474999Y-86193072D01*
X125715001Y-86193072D01*
X125888255Y-86176008D01*
X126054851Y-86125472D01*
X126208387Y-86043405D01*
X126342962Y-85932962D01*
X126453405Y-85798387D01*
X126535472Y-85644851D01*
X126586008Y-85478255D01*
X126603072Y-85305001D01*
X126603072Y-83604999D01*
X126586008Y-83431745D01*
X126535472Y-83265149D01*
X126453405Y-83111613D01*
X126342962Y-82977038D01*
X126208387Y-82866595D01*
X126054851Y-82784528D01*
X125888255Y-82733992D01*
X125715001Y-82716928D01*
X124474999Y-82716928D01*
X124301745Y-82733992D01*
X124135149Y-82784528D01*
X123981613Y-82866595D01*
X123847038Y-82977038D01*
X123736595Y-83111613D01*
X123678066Y-83221114D01*
X123624345Y-83155655D01*
X123395179Y-82967583D01*
X123133725Y-82827834D01*
X122850032Y-82741776D01*
X122555000Y-82712718D01*
X122259969Y-82741776D01*
X121976276Y-82827834D01*
X121714822Y-82967583D01*
X121485655Y-83155655D01*
X121350780Y-83320000D01*
X121340752Y-83320000D01*
X121285000Y-83314509D01*
X121062501Y-83336423D01*
X120848553Y-83401324D01*
X120651377Y-83506716D01*
X120521856Y-83613011D01*
X120521855Y-83613012D01*
X120478551Y-83648551D01*
X120443013Y-83691854D01*
X116711860Y-87423009D01*
X116668552Y-87458551D01*
X116526717Y-87631377D01*
X116487028Y-87705631D01*
X116421324Y-87828554D01*
X116356423Y-88042502D01*
X116334509Y-88265000D01*
X116340001Y-88320761D01*
X116340000Y-89638111D01*
X116205000Y-89802609D01*
X116070000Y-89638112D01*
X116070000Y-87465131D01*
X117652282Y-85882850D01*
X117893574Y-85834853D01*
X118154727Y-85726680D01*
X118389759Y-85569637D01*
X118589637Y-85369759D01*
X118746680Y-85134727D01*
X118854853Y-84873574D01*
X118910000Y-84596335D01*
X118910000Y-84313665D01*
X118854853Y-84036426D01*
X118746680Y-83775273D01*
X118589637Y-83540241D01*
X118389759Y-83340363D01*
X118154727Y-83183320D01*
X117893574Y-83075147D01*
X117616335Y-83020000D01*
X117333665Y-83020000D01*
X117056426Y-83075147D01*
X116795273Y-83183320D01*
X116560241Y-83340363D01*
X116360363Y-83540241D01*
X116203320Y-83775273D01*
X116095147Y-84036426D01*
X116047150Y-84277718D01*
X114171860Y-86153009D01*
X114128552Y-86188551D01*
X113986717Y-86361377D01*
X113930384Y-86466770D01*
X113881324Y-86558554D01*
X113816423Y-86772502D01*
X113794509Y-86995000D01*
X113800001Y-87050761D01*
X113800000Y-89638111D01*
X113608655Y-89871265D01*
X113461245Y-90147051D01*
X113370470Y-90446296D01*
X113347500Y-90679514D01*
X106848072Y-90679514D01*
X106848072Y-90005000D01*
X106835812Y-89880518D01*
X106799502Y-89760820D01*
X106740537Y-89650506D01*
X106661185Y-89553815D01*
X106564494Y-89474463D01*
X106454180Y-89415498D01*
X106334482Y-89379188D01*
X106210000Y-89366928D01*
X104610000Y-89366928D01*
X104485518Y-89379188D01*
X104365820Y-89415498D01*
X104255506Y-89474463D01*
X104158815Y-89553815D01*
X104079463Y-89650506D01*
X104020498Y-89760820D01*
X103984188Y-89880518D01*
X103971928Y-90005000D01*
X103971928Y-91605000D01*
X103984188Y-91729482D01*
X104020498Y-91849180D01*
X104024048Y-91855821D01*
X102741865Y-93138004D01*
X102698551Y-93173551D01*
X102556716Y-93346377D01*
X102488229Y-93474509D01*
X102451324Y-93543554D01*
X102386423Y-93757502D01*
X102364509Y-93980000D01*
X102370000Y-94035751D01*
X102370000Y-99753639D01*
X102279727Y-99693320D01*
X102018574Y-99585147D01*
X101741335Y-99530000D01*
X101458665Y-99530000D01*
X101181426Y-99585147D01*
X100920273Y-99693320D01*
X100715716Y-99830000D01*
X98434002Y-99830000D01*
X98356101Y-99766068D01*
X98223142Y-99695000D01*
X98356101Y-99623932D01*
X98574608Y-99444608D01*
X98753932Y-99226101D01*
X98887182Y-98976808D01*
X98969236Y-98706309D01*
X98996943Y-98425000D01*
X98969236Y-98143691D01*
X98887182Y-97873192D01*
X98753932Y-97623899D01*
X98574608Y-97405392D01*
X98356101Y-97226068D01*
X98106808Y-97092818D01*
X97836309Y-97010764D01*
X97625492Y-96990000D01*
X96684508Y-96990000D01*
X96473691Y-97010764D01*
X96203192Y-97092818D01*
X95953899Y-97226068D01*
X95735392Y-97405392D01*
X95556068Y-97623899D01*
X95422818Y-97873192D01*
X95340764Y-98143691D01*
X95313057Y-98425000D01*
X95340764Y-98706309D01*
X95422818Y-98976808D01*
X95556068Y-99226101D01*
X95735392Y-99444608D01*
X95953899Y-99623932D01*
X96086858Y-99695000D01*
X95953899Y-99766068D01*
X95735392Y-99945392D01*
X95556068Y-100163899D01*
X95422818Y-100413192D01*
X95340764Y-100683691D01*
X95313057Y-100965000D01*
X95340764Y-101246309D01*
X95422818Y-101516808D01*
X95556068Y-101766101D01*
X95735392Y-101984608D01*
X95953899Y-102163932D01*
X96086858Y-102235000D01*
X95953899Y-102306068D01*
X95875998Y-102370000D01*
X95085132Y-102370000D01*
X92916996Y-100201865D01*
X92881449Y-100158551D01*
X92708623Y-100016716D01*
X92511447Y-99911324D01*
X92297499Y-99846423D01*
X92130752Y-99830000D01*
X92130751Y-99830000D01*
X92075000Y-99824509D01*
X92019249Y-99830000D01*
X90814002Y-99830000D01*
X90736101Y-99766068D01*
X90603142Y-99695000D01*
X90736101Y-99623932D01*
X90954608Y-99444608D01*
X91133932Y-99226101D01*
X91267182Y-98976808D01*
X91349236Y-98706309D01*
X91376943Y-98425000D01*
X91349236Y-98143691D01*
X91267182Y-97873192D01*
X91133932Y-97623899D01*
X90954608Y-97405392D01*
X90736101Y-97226068D01*
X90486808Y-97092818D01*
X90216309Y-97010764D01*
X90005492Y-96990000D01*
X89064508Y-96990000D01*
X88853691Y-97010764D01*
X88583192Y-97092818D01*
X88333899Y-97226068D01*
X88255998Y-97290000D01*
X85974284Y-97290000D01*
X85804131Y-97176308D01*
X85831514Y-97161671D01*
X85903097Y-96917702D01*
X85090000Y-96104605D01*
X84276903Y-96917702D01*
X84348486Y-97161671D01*
X84377341Y-97175324D01*
X84175241Y-97310363D01*
X83975363Y-97510241D01*
X83818320Y-97745273D01*
X83710147Y-98006426D01*
X83655000Y-98283665D01*
X83655000Y-98566335D01*
X83710147Y-98843574D01*
X83818320Y-99104727D01*
X83975363Y-99339759D01*
X84175241Y-99539637D01*
X84410273Y-99696680D01*
X84671426Y-99804853D01*
X84948665Y-99860000D01*
X85231335Y-99860000D01*
X85508574Y-99804853D01*
X85769727Y-99696680D01*
X85974284Y-99560000D01*
X88255998Y-99560000D01*
X88333899Y-99623932D01*
X88466858Y-99695000D01*
X88333899Y-99766068D01*
X88115392Y-99945392D01*
X87936068Y-100163899D01*
X87802818Y-100413192D01*
X87720764Y-100683691D01*
X87693057Y-100965000D01*
X87720764Y-101246309D01*
X87802818Y-101516808D01*
X87936068Y-101766101D01*
X88115392Y-101984608D01*
X88333899Y-102163932D01*
X88466858Y-102235000D01*
X88333899Y-102306068D01*
X88255998Y-102370000D01*
X85974284Y-102370000D01*
X85769727Y-102233320D01*
X85508574Y-102125147D01*
X85231335Y-102070000D01*
X84948665Y-102070000D01*
X84671426Y-102125147D01*
X84410273Y-102233320D01*
X84205716Y-102370000D01*
X82620957Y-102370000D01*
X82610537Y-102350506D01*
X82531185Y-102253815D01*
X82434494Y-102174463D01*
X82415000Y-102164043D01*
X82415000Y-99944284D01*
X82551680Y-99739727D01*
X82659853Y-99478574D01*
X82715000Y-99201335D01*
X82715000Y-98918665D01*
X82659853Y-98641426D01*
X82551680Y-98380273D01*
X82394637Y-98145241D01*
X82194759Y-97945363D01*
X81959727Y-97788320D01*
X81698574Y-97680147D01*
X81421335Y-97625000D01*
X81138665Y-97625000D01*
X80861426Y-97680147D01*
X80600273Y-97788320D01*
X80510000Y-97848638D01*
X80510000Y-95995512D01*
X83649783Y-95995512D01*
X83691213Y-96275130D01*
X83786397Y-96541292D01*
X83853329Y-96666514D01*
X84097298Y-96738097D01*
X84910395Y-95925000D01*
X85269605Y-95925000D01*
X86082702Y-96738097D01*
X86326671Y-96666514D01*
X86447571Y-96411004D01*
X86516300Y-96136816D01*
X86530217Y-95854488D01*
X86488787Y-95574870D01*
X86393603Y-95308708D01*
X86326671Y-95183486D01*
X86082702Y-95111903D01*
X85269605Y-95925000D01*
X84910395Y-95925000D01*
X84097298Y-95111903D01*
X83853329Y-95183486D01*
X83732429Y-95438996D01*
X83663700Y-95713184D01*
X83649783Y-95995512D01*
X80510000Y-95995512D01*
X80510000Y-95085131D01*
X80662833Y-94932298D01*
X84276903Y-94932298D01*
X85090000Y-95745395D01*
X85903097Y-94932298D01*
X85831514Y-94688329D01*
X85576004Y-94567429D01*
X85301816Y-94498700D01*
X85019488Y-94484783D01*
X84739870Y-94526213D01*
X84473708Y-94621397D01*
X84348486Y-94688329D01*
X84276903Y-94932298D01*
X80662833Y-94932298D01*
X82043141Y-93551991D01*
X82086449Y-93516449D01*
X82228284Y-93343623D01*
X82333676Y-93146447D01*
X82398577Y-92932499D01*
X82413419Y-92781802D01*
X82434494Y-92770537D01*
X82531185Y-92691185D01*
X82610537Y-92594494D01*
X82669502Y-92484180D01*
X82705812Y-92364482D01*
X82718072Y-92240000D01*
X82718072Y-90679514D01*
X89217500Y-90679514D01*
X89217500Y-90930485D01*
X89240470Y-91163703D01*
X89331245Y-91462948D01*
X89478655Y-91738734D01*
X89677037Y-91980463D01*
X89918765Y-92178845D01*
X90194551Y-92326255D01*
X90493796Y-92417030D01*
X90805000Y-92447681D01*
X91116203Y-92417030D01*
X91415448Y-92326255D01*
X91691234Y-92178845D01*
X91932963Y-91980463D01*
X92075000Y-91807391D01*
X92217037Y-91980463D01*
X92458765Y-92178845D01*
X92734551Y-92326255D01*
X93033796Y-92417030D01*
X93345000Y-92447681D01*
X93656203Y-92417030D01*
X93955448Y-92326255D01*
X94231234Y-92178845D01*
X94357095Y-92075553D01*
X94401963Y-92159494D01*
X94481315Y-92256185D01*
X94578006Y-92335537D01*
X94688320Y-92394502D01*
X94808018Y-92430812D01*
X94932500Y-92443072D01*
X96837500Y-92443072D01*
X96961982Y-92430812D01*
X97081680Y-92394502D01*
X97191994Y-92335537D01*
X97288685Y-92256185D01*
X97368037Y-92159494D01*
X97427002Y-92049180D01*
X97460121Y-91940000D01*
X100715716Y-91940000D01*
X100920273Y-92076680D01*
X101181426Y-92184853D01*
X101458665Y-92240000D01*
X101741335Y-92240000D01*
X102018574Y-92184853D01*
X102279727Y-92076680D01*
X102514759Y-91919637D01*
X102714637Y-91719759D01*
X102871680Y-91484727D01*
X102979853Y-91223574D01*
X103035000Y-90946335D01*
X103035000Y-90663665D01*
X102979853Y-90386426D01*
X102871680Y-90125273D01*
X102714637Y-89890241D01*
X102514759Y-89690363D01*
X102279727Y-89533320D01*
X102018574Y-89425147D01*
X101741335Y-89370000D01*
X101458665Y-89370000D01*
X101181426Y-89425147D01*
X100920273Y-89533320D01*
X100715716Y-89670000D01*
X97460121Y-89670000D01*
X97427002Y-89560820D01*
X97368037Y-89450506D01*
X97288685Y-89353815D01*
X97191994Y-89274463D01*
X97081680Y-89215498D01*
X96961982Y-89179188D01*
X96837500Y-89166928D01*
X94932500Y-89166928D01*
X94808018Y-89179188D01*
X94688320Y-89215498D01*
X94578006Y-89274463D01*
X94481315Y-89353815D01*
X94480000Y-89355417D01*
X94480000Y-88735131D01*
X97413399Y-85801734D01*
X97584821Y-85942417D01*
X97846275Y-86082166D01*
X98129968Y-86168224D01*
X98425000Y-86197282D01*
X98720031Y-86168224D01*
X99003724Y-86082166D01*
X99265178Y-85942417D01*
X99494345Y-85754345D01*
X99548066Y-85688886D01*
X99606595Y-85798387D01*
X99717038Y-85932962D01*
X99851613Y-86043405D01*
X100005149Y-86125472D01*
X100171745Y-86176008D01*
X100344999Y-86193072D01*
X101585001Y-86193072D01*
X101758255Y-86176008D01*
X101924851Y-86125472D01*
X102078387Y-86043405D01*
X102212962Y-85932962D01*
X102323405Y-85798387D01*
X102405472Y-85644851D01*
X102447933Y-85504872D01*
X105080000Y-85504872D01*
X105080000Y-85945128D01*
X105165890Y-86376925D01*
X105334369Y-86783669D01*
X105578962Y-87149729D01*
X105890271Y-87461038D01*
X106256331Y-87705631D01*
X106663075Y-87874110D01*
X107094872Y-87960000D01*
X107535128Y-87960000D01*
X107966925Y-87874110D01*
X108373669Y-87705631D01*
X108739729Y-87461038D01*
X109051038Y-87149729D01*
X109295631Y-86783669D01*
X109464110Y-86376925D01*
X109550000Y-85945128D01*
X109550000Y-85504872D01*
X109464110Y-85073075D01*
X109352672Y-84804039D01*
X111003096Y-84804039D01*
X111043754Y-84938087D01*
X111163963Y-85192420D01*
X111331481Y-85418414D01*
X111539869Y-85607385D01*
X111781119Y-85752070D01*
X112045960Y-85846909D01*
X112268000Y-85725624D01*
X112268000Y-84582000D01*
X112522000Y-84582000D01*
X112522000Y-85725624D01*
X112744040Y-85846909D01*
X113008881Y-85752070D01*
X113250131Y-85607385D01*
X113458519Y-85418414D01*
X113626037Y-85192420D01*
X113746246Y-84938087D01*
X113786904Y-84804039D01*
X113664915Y-84582000D01*
X112522000Y-84582000D01*
X112268000Y-84582000D01*
X111125085Y-84582000D01*
X111003096Y-84804039D01*
X109352672Y-84804039D01*
X109295631Y-84666331D01*
X109051038Y-84300271D01*
X108856728Y-84105961D01*
X111003096Y-84105961D01*
X111125085Y-84328000D01*
X112268000Y-84328000D01*
X112268000Y-83184376D01*
X112522000Y-83184376D01*
X112522000Y-84328000D01*
X113664915Y-84328000D01*
X113786904Y-84105961D01*
X113746246Y-83971913D01*
X113626037Y-83717580D01*
X113458519Y-83491586D01*
X113250131Y-83302615D01*
X113008881Y-83157930D01*
X112744040Y-83063091D01*
X112522000Y-83184376D01*
X112268000Y-83184376D01*
X112045960Y-83063091D01*
X111781119Y-83157930D01*
X111539869Y-83302615D01*
X111331481Y-83491586D01*
X111163963Y-83717580D01*
X111043754Y-83971913D01*
X111003096Y-84105961D01*
X108856728Y-84105961D01*
X108739729Y-83988962D01*
X108373669Y-83744369D01*
X107966925Y-83575890D01*
X107535128Y-83490000D01*
X107094872Y-83490000D01*
X106663075Y-83575890D01*
X106256331Y-83744369D01*
X105890271Y-83988962D01*
X105578962Y-84300271D01*
X105334369Y-84666331D01*
X105165890Y-85073075D01*
X105080000Y-85504872D01*
X102447933Y-85504872D01*
X102456008Y-85478255D01*
X102473072Y-85305001D01*
X102473072Y-83604999D01*
X102456008Y-83431745D01*
X102405472Y-83265149D01*
X102323405Y-83111613D01*
X102212962Y-82977038D01*
X102078387Y-82866595D01*
X101924851Y-82784528D01*
X101758255Y-82733992D01*
X101585001Y-82716928D01*
X100344999Y-82716928D01*
X100171745Y-82733992D01*
X100005149Y-82784528D01*
X99851613Y-82866595D01*
X99717038Y-82977038D01*
X99606595Y-83111613D01*
X99548066Y-83221114D01*
X99494345Y-83155655D01*
X99265179Y-82967583D01*
X99003725Y-82827834D01*
X98720032Y-82741776D01*
X98425000Y-82712718D01*
X98129969Y-82741776D01*
X97846276Y-82827834D01*
X97584822Y-82967583D01*
X97355655Y-83155655D01*
X97220780Y-83320000D01*
X97210752Y-83320000D01*
X97155000Y-83314509D01*
X96932501Y-83336423D01*
X96718553Y-83401324D01*
X96521377Y-83506716D01*
X96391856Y-83613011D01*
X96391855Y-83613012D01*
X96348551Y-83648551D01*
X96313013Y-83691854D01*
X92581860Y-87423009D01*
X92538552Y-87458551D01*
X92396717Y-87631377D01*
X92357028Y-87705631D01*
X92291324Y-87828554D01*
X92226423Y-88042502D01*
X92204509Y-88265000D01*
X92210001Y-88320761D01*
X92210000Y-89638111D01*
X92075000Y-89802609D01*
X91940000Y-89638112D01*
X91940000Y-87465131D01*
X93522282Y-85882850D01*
X93763574Y-85834853D01*
X94024727Y-85726680D01*
X94259759Y-85569637D01*
X94459637Y-85369759D01*
X94616680Y-85134727D01*
X94724853Y-84873574D01*
X94780000Y-84596335D01*
X94780000Y-84313665D01*
X94724853Y-84036426D01*
X94616680Y-83775273D01*
X94459637Y-83540241D01*
X94259759Y-83340363D01*
X94024727Y-83183320D01*
X93763574Y-83075147D01*
X93486335Y-83020000D01*
X93203665Y-83020000D01*
X92926426Y-83075147D01*
X92665273Y-83183320D01*
X92430241Y-83340363D01*
X92230363Y-83540241D01*
X92073320Y-83775273D01*
X91965147Y-84036426D01*
X91917150Y-84277718D01*
X90041860Y-86153009D01*
X89998552Y-86188551D01*
X89856717Y-86361377D01*
X89800384Y-86466770D01*
X89751324Y-86558554D01*
X89686423Y-86772502D01*
X89664509Y-86995000D01*
X89670001Y-87050761D01*
X89670000Y-89638111D01*
X89478655Y-89871265D01*
X89331245Y-90147051D01*
X89240470Y-90446296D01*
X89217500Y-90679514D01*
X82718072Y-90679514D01*
X82718072Y-90640000D01*
X82705812Y-90515518D01*
X82669502Y-90395820D01*
X82610537Y-90285506D01*
X82531185Y-90188815D01*
X82434494Y-90109463D01*
X82324180Y-90050498D01*
X82204482Y-90014188D01*
X82080000Y-90001928D01*
X80480000Y-90001928D01*
X80355518Y-90014188D01*
X80235820Y-90050498D01*
X80125506Y-90109463D01*
X80028815Y-90188815D01*
X79949463Y-90285506D01*
X79890498Y-90395820D01*
X79854188Y-90515518D01*
X79841928Y-90640000D01*
X79841928Y-92240000D01*
X79854188Y-92364482D01*
X79890498Y-92484180D01*
X79894048Y-92490821D01*
X78611865Y-93773004D01*
X78568551Y-93808551D01*
X78426716Y-93981377D01*
X78335812Y-94151448D01*
X78321324Y-94178554D01*
X78256423Y-94392502D01*
X78234509Y-94615000D01*
X78240000Y-94670751D01*
X78240000Y-99753639D01*
X78149727Y-99693320D01*
X77888574Y-99585147D01*
X77611335Y-99530000D01*
X77328665Y-99530000D01*
X77051426Y-99585147D01*
X76790273Y-99693320D01*
X76585716Y-99830000D01*
X74304002Y-99830000D01*
X74226101Y-99766068D01*
X74093142Y-99695000D01*
X74226101Y-99623932D01*
X74444608Y-99444608D01*
X74623932Y-99226101D01*
X74757182Y-98976808D01*
X74839236Y-98706309D01*
X74866943Y-98425000D01*
X74839236Y-98143691D01*
X74757182Y-97873192D01*
X74623932Y-97623899D01*
X74444608Y-97405392D01*
X74226101Y-97226068D01*
X73976808Y-97092818D01*
X73706309Y-97010764D01*
X73495492Y-96990000D01*
X72554508Y-96990000D01*
X72343691Y-97010764D01*
X72073192Y-97092818D01*
X71823899Y-97226068D01*
X71605392Y-97405392D01*
X71426068Y-97623899D01*
X71292818Y-97873192D01*
X71210764Y-98143691D01*
X71183057Y-98425000D01*
X71210764Y-98706309D01*
X71292818Y-98976808D01*
X71426068Y-99226101D01*
X71605392Y-99444608D01*
X71823899Y-99623932D01*
X71956858Y-99695000D01*
X71823899Y-99766068D01*
X71605392Y-99945392D01*
X71426068Y-100163899D01*
X71292818Y-100413192D01*
X71210764Y-100683691D01*
X71183057Y-100965000D01*
X71210764Y-101246309D01*
X71292818Y-101516808D01*
X71426068Y-101766101D01*
X71605392Y-101984608D01*
X71823899Y-102163932D01*
X71956858Y-102235000D01*
X71823899Y-102306068D01*
X71745998Y-102370000D01*
X70615132Y-102370000D01*
X68446996Y-100201865D01*
X68411449Y-100158551D01*
X68238623Y-100016716D01*
X68041447Y-99911324D01*
X67827499Y-99846423D01*
X67660752Y-99830000D01*
X67660751Y-99830000D01*
X67605000Y-99824509D01*
X67549249Y-99830000D01*
X66684002Y-99830000D01*
X66606101Y-99766068D01*
X66473142Y-99695000D01*
X66606101Y-99623932D01*
X66824608Y-99444608D01*
X67003932Y-99226101D01*
X67137182Y-98976808D01*
X67219236Y-98706309D01*
X67246943Y-98425000D01*
X67219236Y-98143691D01*
X67137182Y-97873192D01*
X67003932Y-97623899D01*
X66824608Y-97405392D01*
X66606101Y-97226068D01*
X66356808Y-97092818D01*
X66086309Y-97010764D01*
X65875492Y-96990000D01*
X64934508Y-96990000D01*
X64723691Y-97010764D01*
X64453192Y-97092818D01*
X64203899Y-97226068D01*
X64125998Y-97290000D01*
X61844284Y-97290000D01*
X61674131Y-97176308D01*
X61701514Y-97161671D01*
X61773097Y-96917702D01*
X60960000Y-96104605D01*
X60146903Y-96917702D01*
X60218486Y-97161671D01*
X60247341Y-97175324D01*
X60045241Y-97310363D01*
X59845363Y-97510241D01*
X59688320Y-97745273D01*
X59580147Y-98006426D01*
X59525000Y-98283665D01*
X59525000Y-98566335D01*
X59580147Y-98843574D01*
X59688320Y-99104727D01*
X59845363Y-99339759D01*
X60045241Y-99539637D01*
X60280273Y-99696680D01*
X60541426Y-99804853D01*
X60818665Y-99860000D01*
X61101335Y-99860000D01*
X61378574Y-99804853D01*
X61639727Y-99696680D01*
X61844284Y-99560000D01*
X64125998Y-99560000D01*
X64203899Y-99623932D01*
X64336858Y-99695000D01*
X64203899Y-99766068D01*
X63985392Y-99945392D01*
X63806068Y-100163899D01*
X63672818Y-100413192D01*
X63590764Y-100683691D01*
X63563057Y-100965000D01*
X63590764Y-101246309D01*
X63672818Y-101516808D01*
X63806068Y-101766101D01*
X63985392Y-101984608D01*
X64203899Y-102163932D01*
X64336858Y-102235000D01*
X64203899Y-102306068D01*
X64125998Y-102370000D01*
X61844284Y-102370000D01*
X61639727Y-102233320D01*
X61378574Y-102125147D01*
X61101335Y-102070000D01*
X60818665Y-102070000D01*
X60541426Y-102125147D01*
X60280273Y-102233320D01*
X60075716Y-102370000D01*
X58490957Y-102370000D01*
X58480537Y-102350506D01*
X58401185Y-102253815D01*
X58304494Y-102174463D01*
X58285000Y-102164043D01*
X58285000Y-99309284D01*
X58421680Y-99104727D01*
X58529853Y-98843574D01*
X58585000Y-98566335D01*
X58585000Y-98283665D01*
X58529853Y-98006426D01*
X58421680Y-97745273D01*
X58264637Y-97510241D01*
X58064759Y-97310363D01*
X57829727Y-97153320D01*
X57568574Y-97045147D01*
X57291335Y-96990000D01*
X57008665Y-96990000D01*
X56731426Y-97045147D01*
X56470273Y-97153320D01*
X56380000Y-97213638D01*
X56380000Y-95995512D01*
X59519783Y-95995512D01*
X59561213Y-96275130D01*
X59656397Y-96541292D01*
X59723329Y-96666514D01*
X59967298Y-96738097D01*
X60780395Y-95925000D01*
X61139605Y-95925000D01*
X61952702Y-96738097D01*
X62196671Y-96666514D01*
X62317571Y-96411004D01*
X62386300Y-96136816D01*
X62400217Y-95854488D01*
X62358787Y-95574870D01*
X62263603Y-95308708D01*
X62196671Y-95183486D01*
X61952702Y-95111903D01*
X61139605Y-95925000D01*
X60780395Y-95925000D01*
X59967298Y-95111903D01*
X59723329Y-95183486D01*
X59602429Y-95438996D01*
X59533700Y-95713184D01*
X59519783Y-95995512D01*
X56380000Y-95995512D01*
X56380000Y-94932298D01*
X60146903Y-94932298D01*
X60960000Y-95745395D01*
X61773097Y-94932298D01*
X61701514Y-94688329D01*
X61446004Y-94567429D01*
X61171816Y-94498700D01*
X60889488Y-94484783D01*
X60609870Y-94526213D01*
X60343708Y-94621397D01*
X60218486Y-94688329D01*
X60146903Y-94932298D01*
X56380000Y-94932298D01*
X56380000Y-93815131D01*
X57913141Y-92281991D01*
X57956449Y-92246449D01*
X57960031Y-92242084D01*
X58074482Y-92230812D01*
X58194180Y-92194502D01*
X58304494Y-92135537D01*
X58401185Y-92056185D01*
X58480537Y-91959494D01*
X58539502Y-91849180D01*
X58575812Y-91729482D01*
X58588072Y-91605000D01*
X58588072Y-90679514D01*
X65087500Y-90679514D01*
X65087500Y-90930485D01*
X65110470Y-91163703D01*
X65201245Y-91462948D01*
X65348655Y-91738734D01*
X65547037Y-91980463D01*
X65788765Y-92178845D01*
X66064551Y-92326255D01*
X66363796Y-92417030D01*
X66675000Y-92447681D01*
X66986203Y-92417030D01*
X67285448Y-92326255D01*
X67561234Y-92178845D01*
X67802963Y-91980463D01*
X67945000Y-91807391D01*
X68087037Y-91980463D01*
X68328765Y-92178845D01*
X68604551Y-92326255D01*
X68903796Y-92417030D01*
X69215000Y-92447681D01*
X69526203Y-92417030D01*
X69825448Y-92326255D01*
X70101234Y-92178845D01*
X70227095Y-92075553D01*
X70271963Y-92159494D01*
X70351315Y-92256185D01*
X70448006Y-92335537D01*
X70558320Y-92394502D01*
X70678018Y-92430812D01*
X70802500Y-92443072D01*
X72707500Y-92443072D01*
X72831982Y-92430812D01*
X72951680Y-92394502D01*
X73061994Y-92335537D01*
X73158685Y-92256185D01*
X73238037Y-92159494D01*
X73297002Y-92049180D01*
X73330121Y-91940000D01*
X76585716Y-91940000D01*
X76790273Y-92076680D01*
X77051426Y-92184853D01*
X77328665Y-92240000D01*
X77611335Y-92240000D01*
X77888574Y-92184853D01*
X78149727Y-92076680D01*
X78384759Y-91919637D01*
X78584637Y-91719759D01*
X78741680Y-91484727D01*
X78849853Y-91223574D01*
X78905000Y-90946335D01*
X78905000Y-90663665D01*
X78849853Y-90386426D01*
X78741680Y-90125273D01*
X78584637Y-89890241D01*
X78384759Y-89690363D01*
X78149727Y-89533320D01*
X77888574Y-89425147D01*
X77611335Y-89370000D01*
X77328665Y-89370000D01*
X77051426Y-89425147D01*
X76790273Y-89533320D01*
X76585716Y-89670000D01*
X73330121Y-89670000D01*
X73297002Y-89560820D01*
X73238037Y-89450506D01*
X73158685Y-89353815D01*
X73061994Y-89274463D01*
X72951680Y-89215498D01*
X72831982Y-89179188D01*
X72707500Y-89166928D01*
X70802500Y-89166928D01*
X70678018Y-89179188D01*
X70558320Y-89215498D01*
X70448006Y-89274463D01*
X70351315Y-89353815D01*
X70350000Y-89355417D01*
X70350000Y-88735131D01*
X73283399Y-85801734D01*
X73454821Y-85942417D01*
X73716275Y-86082166D01*
X73999968Y-86168224D01*
X74295000Y-86197282D01*
X74590031Y-86168224D01*
X74873724Y-86082166D01*
X75135178Y-85942417D01*
X75364345Y-85754345D01*
X75418066Y-85688886D01*
X75476595Y-85798387D01*
X75587038Y-85932962D01*
X75721613Y-86043405D01*
X75875149Y-86125472D01*
X76041745Y-86176008D01*
X76214999Y-86193072D01*
X77455001Y-86193072D01*
X77628255Y-86176008D01*
X77794851Y-86125472D01*
X77948387Y-86043405D01*
X78082962Y-85932962D01*
X78193405Y-85798387D01*
X78275472Y-85644851D01*
X78317933Y-85504872D01*
X80950000Y-85504872D01*
X80950000Y-85945128D01*
X81035890Y-86376925D01*
X81204369Y-86783669D01*
X81448962Y-87149729D01*
X81760271Y-87461038D01*
X82126331Y-87705631D01*
X82533075Y-87874110D01*
X82964872Y-87960000D01*
X83405128Y-87960000D01*
X83836925Y-87874110D01*
X84243669Y-87705631D01*
X84609729Y-87461038D01*
X84921038Y-87149729D01*
X85165631Y-86783669D01*
X85334110Y-86376925D01*
X85420000Y-85945128D01*
X85420000Y-85504872D01*
X85334110Y-85073075D01*
X85222672Y-84804039D01*
X86873096Y-84804039D01*
X86913754Y-84938087D01*
X87033963Y-85192420D01*
X87201481Y-85418414D01*
X87409869Y-85607385D01*
X87651119Y-85752070D01*
X87915960Y-85846909D01*
X88138000Y-85725624D01*
X88138000Y-84582000D01*
X88392000Y-84582000D01*
X88392000Y-85725624D01*
X88614040Y-85846909D01*
X88878881Y-85752070D01*
X89120131Y-85607385D01*
X89328519Y-85418414D01*
X89496037Y-85192420D01*
X89616246Y-84938087D01*
X89656904Y-84804039D01*
X89534915Y-84582000D01*
X88392000Y-84582000D01*
X88138000Y-84582000D01*
X86995085Y-84582000D01*
X86873096Y-84804039D01*
X85222672Y-84804039D01*
X85165631Y-84666331D01*
X84921038Y-84300271D01*
X84726728Y-84105961D01*
X86873096Y-84105961D01*
X86995085Y-84328000D01*
X88138000Y-84328000D01*
X88138000Y-83184376D01*
X88392000Y-83184376D01*
X88392000Y-84328000D01*
X89534915Y-84328000D01*
X89656904Y-84105961D01*
X89616246Y-83971913D01*
X89496037Y-83717580D01*
X89328519Y-83491586D01*
X89120131Y-83302615D01*
X88878881Y-83157930D01*
X88614040Y-83063091D01*
X88392000Y-83184376D01*
X88138000Y-83184376D01*
X87915960Y-83063091D01*
X87651119Y-83157930D01*
X87409869Y-83302615D01*
X87201481Y-83491586D01*
X87033963Y-83717580D01*
X86913754Y-83971913D01*
X86873096Y-84105961D01*
X84726728Y-84105961D01*
X84609729Y-83988962D01*
X84243669Y-83744369D01*
X83836925Y-83575890D01*
X83405128Y-83490000D01*
X82964872Y-83490000D01*
X82533075Y-83575890D01*
X82126331Y-83744369D01*
X81760271Y-83988962D01*
X81448962Y-84300271D01*
X81204369Y-84666331D01*
X81035890Y-85073075D01*
X80950000Y-85504872D01*
X78317933Y-85504872D01*
X78326008Y-85478255D01*
X78343072Y-85305001D01*
X78343072Y-83604999D01*
X78326008Y-83431745D01*
X78275472Y-83265149D01*
X78193405Y-83111613D01*
X78082962Y-82977038D01*
X77948387Y-82866595D01*
X77794851Y-82784528D01*
X77628255Y-82733992D01*
X77455001Y-82716928D01*
X76214999Y-82716928D01*
X76041745Y-82733992D01*
X75875149Y-82784528D01*
X75721613Y-82866595D01*
X75587038Y-82977038D01*
X75476595Y-83111613D01*
X75418066Y-83221114D01*
X75364345Y-83155655D01*
X75135179Y-82967583D01*
X74873725Y-82827834D01*
X74590032Y-82741776D01*
X74295000Y-82712718D01*
X73999969Y-82741776D01*
X73716276Y-82827834D01*
X73454822Y-82967583D01*
X73225655Y-83155655D01*
X73090780Y-83320000D01*
X73080752Y-83320000D01*
X73025000Y-83314509D01*
X72802501Y-83336423D01*
X72588553Y-83401324D01*
X72391377Y-83506716D01*
X72261856Y-83613011D01*
X72261855Y-83613012D01*
X72218551Y-83648551D01*
X72183013Y-83691854D01*
X68451860Y-87423009D01*
X68408552Y-87458551D01*
X68266717Y-87631377D01*
X68227028Y-87705631D01*
X68161324Y-87828554D01*
X68096423Y-88042502D01*
X68074509Y-88265000D01*
X68080001Y-88320761D01*
X68080000Y-89638111D01*
X67945000Y-89802609D01*
X67810000Y-89638112D01*
X67810000Y-87465131D01*
X69392282Y-85882850D01*
X69633574Y-85834853D01*
X69894727Y-85726680D01*
X70129759Y-85569637D01*
X70329637Y-85369759D01*
X70486680Y-85134727D01*
X70594853Y-84873574D01*
X70650000Y-84596335D01*
X70650000Y-84313665D01*
X70594853Y-84036426D01*
X70486680Y-83775273D01*
X70329637Y-83540241D01*
X70129759Y-83340363D01*
X69894727Y-83183320D01*
X69633574Y-83075147D01*
X69356335Y-83020000D01*
X69073665Y-83020000D01*
X68796426Y-83075147D01*
X68535273Y-83183320D01*
X68300241Y-83340363D01*
X68100363Y-83540241D01*
X67943320Y-83775273D01*
X67835147Y-84036426D01*
X67787150Y-84277718D01*
X65911860Y-86153009D01*
X65868552Y-86188551D01*
X65726717Y-86361377D01*
X65670384Y-86466770D01*
X65621324Y-86558554D01*
X65556423Y-86772502D01*
X65534509Y-86995000D01*
X65540001Y-87050761D01*
X65540000Y-89638111D01*
X65348655Y-89871265D01*
X65201245Y-90147051D01*
X65110470Y-90446296D01*
X65087500Y-90679514D01*
X58588072Y-90679514D01*
X58588072Y-90005000D01*
X58575812Y-89880518D01*
X58539502Y-89760820D01*
X58480537Y-89650506D01*
X58401185Y-89553815D01*
X58304494Y-89474463D01*
X58194180Y-89415498D01*
X58074482Y-89379188D01*
X57950000Y-89366928D01*
X56350000Y-89366928D01*
X56225518Y-89379188D01*
X56105820Y-89415498D01*
X55995506Y-89474463D01*
X55898815Y-89553815D01*
X55819463Y-89650506D01*
X55760498Y-89760820D01*
X55724188Y-89880518D01*
X55711928Y-90005000D01*
X55711928Y-91272940D01*
X54737000Y-92247869D01*
X54737000Y-87355031D01*
X56728698Y-87355031D01*
X56746412Y-87447502D01*
X56862429Y-87720437D01*
X57029464Y-87965494D01*
X57241097Y-88173256D01*
X57489196Y-88335738D01*
X57764227Y-88446696D01*
X58055620Y-88501866D01*
X58293000Y-88345586D01*
X58293000Y-87122000D01*
X58547000Y-87122000D01*
X58547000Y-88345586D01*
X58784380Y-88501866D01*
X59075773Y-88446696D01*
X59350804Y-88335738D01*
X59598903Y-88173256D01*
X59810536Y-87965494D01*
X59977571Y-87720437D01*
X60093588Y-87447502D01*
X60111302Y-87355031D01*
X59990246Y-87122000D01*
X58547000Y-87122000D01*
X58293000Y-87122000D01*
X56849754Y-87122000D01*
X56728698Y-87355031D01*
X54737000Y-87355031D01*
X54737000Y-83834999D01*
X56681928Y-83834999D01*
X56681928Y-85075001D01*
X56698992Y-85248255D01*
X56749528Y-85414851D01*
X56831595Y-85568387D01*
X56942038Y-85702962D01*
X57076613Y-85813405D01*
X57185314Y-85871507D01*
X57029464Y-86024506D01*
X56862429Y-86269563D01*
X56746412Y-86542498D01*
X56728698Y-86634969D01*
X56849754Y-86868000D01*
X58293000Y-86868000D01*
X58293000Y-86848000D01*
X58547000Y-86848000D01*
X58547000Y-86868000D01*
X59990246Y-86868000D01*
X60111302Y-86634969D01*
X60093588Y-86542498D01*
X59977571Y-86269563D01*
X59810536Y-86024506D01*
X59654686Y-85871507D01*
X59763387Y-85813405D01*
X59897962Y-85702962D01*
X60008405Y-85568387D01*
X60090472Y-85414851D01*
X60141008Y-85248255D01*
X60158072Y-85075001D01*
X60158072Y-84804039D01*
X62743096Y-84804039D01*
X62783754Y-84938087D01*
X62903963Y-85192420D01*
X63071481Y-85418414D01*
X63279869Y-85607385D01*
X63521119Y-85752070D01*
X63785960Y-85846909D01*
X64008000Y-85725624D01*
X64008000Y-84582000D01*
X64262000Y-84582000D01*
X64262000Y-85725624D01*
X64484040Y-85846909D01*
X64748881Y-85752070D01*
X64990131Y-85607385D01*
X65198519Y-85418414D01*
X65366037Y-85192420D01*
X65486246Y-84938087D01*
X65526904Y-84804039D01*
X65404915Y-84582000D01*
X64262000Y-84582000D01*
X64008000Y-84582000D01*
X62865085Y-84582000D01*
X62743096Y-84804039D01*
X60158072Y-84804039D01*
X60158072Y-84105961D01*
X62743096Y-84105961D01*
X62865085Y-84328000D01*
X64008000Y-84328000D01*
X64008000Y-83184376D01*
X64262000Y-83184376D01*
X64262000Y-84328000D01*
X65404915Y-84328000D01*
X65526904Y-84105961D01*
X65486246Y-83971913D01*
X65366037Y-83717580D01*
X65198519Y-83491586D01*
X64990131Y-83302615D01*
X64748881Y-83157930D01*
X64484040Y-83063091D01*
X64262000Y-83184376D01*
X64008000Y-83184376D01*
X63785960Y-83063091D01*
X63521119Y-83157930D01*
X63279869Y-83302615D01*
X63071481Y-83491586D01*
X62903963Y-83717580D01*
X62783754Y-83971913D01*
X62743096Y-84105961D01*
X60158072Y-84105961D01*
X60158072Y-83834999D01*
X60141008Y-83661745D01*
X60090472Y-83495149D01*
X60008405Y-83341613D01*
X59897962Y-83207038D01*
X59763387Y-83096595D01*
X59609851Y-83014528D01*
X59443255Y-82963992D01*
X59270001Y-82946928D01*
X57569999Y-82946928D01*
X57396745Y-82963992D01*
X57230149Y-83014528D01*
X57076613Y-83096595D01*
X56942038Y-83207038D01*
X56831595Y-83341613D01*
X56749528Y-83495149D01*
X56698992Y-83661745D01*
X56681928Y-83834999D01*
X54737000Y-83834999D01*
X54737000Y-82602606D01*
X56567606Y-80772000D01*
X125687667Y-80772000D01*
X128143000Y-82613500D01*
M02*
