G04 #@! TF.GenerationSoftware,KiCad,Pcbnew,5.1.5+dfsg1-2build2*
G04 #@! TF.CreationDate,2021-05-06T12:51:34-03:00*
G04 #@! TF.ProjectId,driver-rgb-pwm,64726976-6572-42d7-9267-622d70776d2e,rev?*
G04 #@! TF.SameCoordinates,Original*
G04 #@! TF.FileFunction,Soldermask,Top*
G04 #@! TF.FilePolarity,Negative*
%FSLAX46Y46*%
G04 Gerber Fmt 4.6, Leading zero omitted, Abs format (unit mm)*
G04 Created by KiCad (PCBNEW 5.1.5+dfsg1-2build2) date 2021-05-06 12:51:34*
%MOMM*%
%LPD*%
G04 APERTURE LIST*
%ADD10C,0.100000*%
G04 APERTURE END LIST*
D10*
G36*
X71952395Y-111480546D02*
G01*
X72125466Y-111552234D01*
X72125467Y-111552235D01*
X72281227Y-111656310D01*
X72413690Y-111788773D01*
X72413691Y-111788775D01*
X72517766Y-111944534D01*
X72589454Y-112117605D01*
X72626000Y-112301333D01*
X72626000Y-112488667D01*
X72589454Y-112672395D01*
X72517766Y-112845466D01*
X72517765Y-112845467D01*
X72413690Y-113001227D01*
X72281227Y-113133690D01*
X72202818Y-113186081D01*
X72125466Y-113237766D01*
X71952395Y-113309454D01*
X71768667Y-113346000D01*
X71581333Y-113346000D01*
X71397605Y-113309454D01*
X71224534Y-113237766D01*
X71147182Y-113186081D01*
X71068773Y-113133690D01*
X70936310Y-113001227D01*
X70832235Y-112845467D01*
X70832234Y-112845466D01*
X70760546Y-112672395D01*
X70724000Y-112488667D01*
X70724000Y-112301333D01*
X70760546Y-112117605D01*
X70832234Y-111944534D01*
X70936309Y-111788775D01*
X70936310Y-111788773D01*
X71068773Y-111656310D01*
X71224533Y-111552235D01*
X71224534Y-111552234D01*
X71397605Y-111480546D01*
X71581333Y-111444000D01*
X71768667Y-111444000D01*
X71952395Y-111480546D01*
G37*
G36*
X69452395Y-111480546D02*
G01*
X69625466Y-111552234D01*
X69625467Y-111552235D01*
X69781227Y-111656310D01*
X69913690Y-111788773D01*
X69913691Y-111788775D01*
X70017766Y-111944534D01*
X70089454Y-112117605D01*
X70126000Y-112301333D01*
X70126000Y-112488667D01*
X70089454Y-112672395D01*
X70017766Y-112845466D01*
X70017765Y-112845467D01*
X69913690Y-113001227D01*
X69781227Y-113133690D01*
X69702818Y-113186081D01*
X69625466Y-113237766D01*
X69452395Y-113309454D01*
X69268667Y-113346000D01*
X69081333Y-113346000D01*
X68897605Y-113309454D01*
X68724534Y-113237766D01*
X68647182Y-113186081D01*
X68568773Y-113133690D01*
X68436310Y-113001227D01*
X68332235Y-112845467D01*
X68332234Y-112845466D01*
X68260546Y-112672395D01*
X68224000Y-112488667D01*
X68224000Y-112301333D01*
X68260546Y-112117605D01*
X68332234Y-111944534D01*
X68436309Y-111788775D01*
X68436310Y-111788773D01*
X68568773Y-111656310D01*
X68724533Y-111552235D01*
X68724534Y-111552234D01*
X68897605Y-111480546D01*
X69081333Y-111444000D01*
X69268667Y-111444000D01*
X69452395Y-111480546D01*
G37*
G36*
X66952395Y-111480546D02*
G01*
X67125466Y-111552234D01*
X67125467Y-111552235D01*
X67281227Y-111656310D01*
X67413690Y-111788773D01*
X67413691Y-111788775D01*
X67517766Y-111944534D01*
X67589454Y-112117605D01*
X67626000Y-112301333D01*
X67626000Y-112488667D01*
X67589454Y-112672395D01*
X67517766Y-112845466D01*
X67517765Y-112845467D01*
X67413690Y-113001227D01*
X67281227Y-113133690D01*
X67202818Y-113186081D01*
X67125466Y-113237766D01*
X66952395Y-113309454D01*
X66768667Y-113346000D01*
X66581333Y-113346000D01*
X66397605Y-113309454D01*
X66224534Y-113237766D01*
X66147182Y-113186081D01*
X66068773Y-113133690D01*
X65936310Y-113001227D01*
X65832235Y-112845467D01*
X65832234Y-112845466D01*
X65760546Y-112672395D01*
X65724000Y-112488667D01*
X65724000Y-112301333D01*
X65760546Y-112117605D01*
X65832234Y-111944534D01*
X65936309Y-111788775D01*
X65936310Y-111788773D01*
X66068773Y-111656310D01*
X66224533Y-111552235D01*
X66224534Y-111552234D01*
X66397605Y-111480546D01*
X66581333Y-111444000D01*
X66768667Y-111444000D01*
X66952395Y-111480546D01*
G37*
G36*
X96082395Y-111480546D02*
G01*
X96255466Y-111552234D01*
X96255467Y-111552235D01*
X96411227Y-111656310D01*
X96543690Y-111788773D01*
X96543691Y-111788775D01*
X96647766Y-111944534D01*
X96719454Y-112117605D01*
X96756000Y-112301333D01*
X96756000Y-112488667D01*
X96719454Y-112672395D01*
X96647766Y-112845466D01*
X96647765Y-112845467D01*
X96543690Y-113001227D01*
X96411227Y-113133690D01*
X96332818Y-113186081D01*
X96255466Y-113237766D01*
X96082395Y-113309454D01*
X95898667Y-113346000D01*
X95711333Y-113346000D01*
X95527605Y-113309454D01*
X95354534Y-113237766D01*
X95277182Y-113186081D01*
X95198773Y-113133690D01*
X95066310Y-113001227D01*
X94962235Y-112845467D01*
X94962234Y-112845466D01*
X94890546Y-112672395D01*
X94854000Y-112488667D01*
X94854000Y-112301333D01*
X94890546Y-112117605D01*
X94962234Y-111944534D01*
X95066309Y-111788775D01*
X95066310Y-111788773D01*
X95198773Y-111656310D01*
X95354533Y-111552235D01*
X95354534Y-111552234D01*
X95527605Y-111480546D01*
X95711333Y-111444000D01*
X95898667Y-111444000D01*
X96082395Y-111480546D01*
G37*
G36*
X93582395Y-111480546D02*
G01*
X93755466Y-111552234D01*
X93755467Y-111552235D01*
X93911227Y-111656310D01*
X94043690Y-111788773D01*
X94043691Y-111788775D01*
X94147766Y-111944534D01*
X94219454Y-112117605D01*
X94256000Y-112301333D01*
X94256000Y-112488667D01*
X94219454Y-112672395D01*
X94147766Y-112845466D01*
X94147765Y-112845467D01*
X94043690Y-113001227D01*
X93911227Y-113133690D01*
X93832818Y-113186081D01*
X93755466Y-113237766D01*
X93582395Y-113309454D01*
X93398667Y-113346000D01*
X93211333Y-113346000D01*
X93027605Y-113309454D01*
X92854534Y-113237766D01*
X92777182Y-113186081D01*
X92698773Y-113133690D01*
X92566310Y-113001227D01*
X92462235Y-112845467D01*
X92462234Y-112845466D01*
X92390546Y-112672395D01*
X92354000Y-112488667D01*
X92354000Y-112301333D01*
X92390546Y-112117605D01*
X92462234Y-111944534D01*
X92566309Y-111788775D01*
X92566310Y-111788773D01*
X92698773Y-111656310D01*
X92854533Y-111552235D01*
X92854534Y-111552234D01*
X93027605Y-111480546D01*
X93211333Y-111444000D01*
X93398667Y-111444000D01*
X93582395Y-111480546D01*
G37*
G36*
X91082395Y-111480546D02*
G01*
X91255466Y-111552234D01*
X91255467Y-111552235D01*
X91411227Y-111656310D01*
X91543690Y-111788773D01*
X91543691Y-111788775D01*
X91647766Y-111944534D01*
X91719454Y-112117605D01*
X91756000Y-112301333D01*
X91756000Y-112488667D01*
X91719454Y-112672395D01*
X91647766Y-112845466D01*
X91647765Y-112845467D01*
X91543690Y-113001227D01*
X91411227Y-113133690D01*
X91332818Y-113186081D01*
X91255466Y-113237766D01*
X91082395Y-113309454D01*
X90898667Y-113346000D01*
X90711333Y-113346000D01*
X90527605Y-113309454D01*
X90354534Y-113237766D01*
X90277182Y-113186081D01*
X90198773Y-113133690D01*
X90066310Y-113001227D01*
X89962235Y-112845467D01*
X89962234Y-112845466D01*
X89890546Y-112672395D01*
X89854000Y-112488667D01*
X89854000Y-112301333D01*
X89890546Y-112117605D01*
X89962234Y-111944534D01*
X90066309Y-111788775D01*
X90066310Y-111788773D01*
X90198773Y-111656310D01*
X90354533Y-111552235D01*
X90354534Y-111552234D01*
X90527605Y-111480546D01*
X90711333Y-111444000D01*
X90898667Y-111444000D01*
X91082395Y-111480546D01*
G37*
G36*
X120212395Y-111480546D02*
G01*
X120385466Y-111552234D01*
X120385467Y-111552235D01*
X120541227Y-111656310D01*
X120673690Y-111788773D01*
X120673691Y-111788775D01*
X120777766Y-111944534D01*
X120849454Y-112117605D01*
X120886000Y-112301333D01*
X120886000Y-112488667D01*
X120849454Y-112672395D01*
X120777766Y-112845466D01*
X120777765Y-112845467D01*
X120673690Y-113001227D01*
X120541227Y-113133690D01*
X120462818Y-113186081D01*
X120385466Y-113237766D01*
X120212395Y-113309454D01*
X120028667Y-113346000D01*
X119841333Y-113346000D01*
X119657605Y-113309454D01*
X119484534Y-113237766D01*
X119407182Y-113186081D01*
X119328773Y-113133690D01*
X119196310Y-113001227D01*
X119092235Y-112845467D01*
X119092234Y-112845466D01*
X119020546Y-112672395D01*
X118984000Y-112488667D01*
X118984000Y-112301333D01*
X119020546Y-112117605D01*
X119092234Y-111944534D01*
X119196309Y-111788775D01*
X119196310Y-111788773D01*
X119328773Y-111656310D01*
X119484533Y-111552235D01*
X119484534Y-111552234D01*
X119657605Y-111480546D01*
X119841333Y-111444000D01*
X120028667Y-111444000D01*
X120212395Y-111480546D01*
G37*
G36*
X115212395Y-111480546D02*
G01*
X115385466Y-111552234D01*
X115385467Y-111552235D01*
X115541227Y-111656310D01*
X115673690Y-111788773D01*
X115673691Y-111788775D01*
X115777766Y-111944534D01*
X115849454Y-112117605D01*
X115886000Y-112301333D01*
X115886000Y-112488667D01*
X115849454Y-112672395D01*
X115777766Y-112845466D01*
X115777765Y-112845467D01*
X115673690Y-113001227D01*
X115541227Y-113133690D01*
X115462818Y-113186081D01*
X115385466Y-113237766D01*
X115212395Y-113309454D01*
X115028667Y-113346000D01*
X114841333Y-113346000D01*
X114657605Y-113309454D01*
X114484534Y-113237766D01*
X114407182Y-113186081D01*
X114328773Y-113133690D01*
X114196310Y-113001227D01*
X114092235Y-112845467D01*
X114092234Y-112845466D01*
X114020546Y-112672395D01*
X113984000Y-112488667D01*
X113984000Y-112301333D01*
X114020546Y-112117605D01*
X114092234Y-111944534D01*
X114196309Y-111788775D01*
X114196310Y-111788773D01*
X114328773Y-111656310D01*
X114484533Y-111552235D01*
X114484534Y-111552234D01*
X114657605Y-111480546D01*
X114841333Y-111444000D01*
X115028667Y-111444000D01*
X115212395Y-111480546D01*
G37*
G36*
X117712395Y-111480546D02*
G01*
X117885466Y-111552234D01*
X117885467Y-111552235D01*
X118041227Y-111656310D01*
X118173690Y-111788773D01*
X118173691Y-111788775D01*
X118277766Y-111944534D01*
X118349454Y-112117605D01*
X118386000Y-112301333D01*
X118386000Y-112488667D01*
X118349454Y-112672395D01*
X118277766Y-112845466D01*
X118277765Y-112845467D01*
X118173690Y-113001227D01*
X118041227Y-113133690D01*
X117962818Y-113186081D01*
X117885466Y-113237766D01*
X117712395Y-113309454D01*
X117528667Y-113346000D01*
X117341333Y-113346000D01*
X117157605Y-113309454D01*
X116984534Y-113237766D01*
X116907182Y-113186081D01*
X116828773Y-113133690D01*
X116696310Y-113001227D01*
X116592235Y-112845467D01*
X116592234Y-112845466D01*
X116520546Y-112672395D01*
X116484000Y-112488667D01*
X116484000Y-112301333D01*
X116520546Y-112117605D01*
X116592234Y-111944534D01*
X116696309Y-111788775D01*
X116696310Y-111788773D01*
X116828773Y-111656310D01*
X116984533Y-111552235D01*
X116984534Y-111552234D01*
X117157605Y-111480546D01*
X117341333Y-111444000D01*
X117528667Y-111444000D01*
X117712395Y-111480546D01*
G37*
G36*
X105658228Y-110306703D02*
G01*
X105813100Y-110370853D01*
X105952481Y-110463985D01*
X106071015Y-110582519D01*
X106164147Y-110721900D01*
X106228297Y-110876772D01*
X106261000Y-111041184D01*
X106261000Y-111208816D01*
X106228297Y-111373228D01*
X106164147Y-111528100D01*
X106071015Y-111667481D01*
X105952481Y-111786015D01*
X105813100Y-111879147D01*
X105658228Y-111943297D01*
X105493816Y-111976000D01*
X105326184Y-111976000D01*
X105161772Y-111943297D01*
X105006900Y-111879147D01*
X104867519Y-111786015D01*
X104748985Y-111667481D01*
X104655853Y-111528100D01*
X104591703Y-111373228D01*
X104559000Y-111208816D01*
X104559000Y-111041184D01*
X104591703Y-110876772D01*
X104655853Y-110721900D01*
X104748985Y-110582519D01*
X104867519Y-110463985D01*
X105006900Y-110370853D01*
X105161772Y-110306703D01*
X105326184Y-110274000D01*
X105493816Y-110274000D01*
X105658228Y-110306703D01*
G37*
G36*
X81528228Y-110306703D02*
G01*
X81683100Y-110370853D01*
X81822481Y-110463985D01*
X81941015Y-110582519D01*
X82034147Y-110721900D01*
X82098297Y-110876772D01*
X82131000Y-111041184D01*
X82131000Y-111208816D01*
X82098297Y-111373228D01*
X82034147Y-111528100D01*
X81941015Y-111667481D01*
X81822481Y-111786015D01*
X81683100Y-111879147D01*
X81528228Y-111943297D01*
X81363816Y-111976000D01*
X81196184Y-111976000D01*
X81031772Y-111943297D01*
X80876900Y-111879147D01*
X80737519Y-111786015D01*
X80618985Y-111667481D01*
X80525853Y-111528100D01*
X80461703Y-111373228D01*
X80429000Y-111208816D01*
X80429000Y-111041184D01*
X80461703Y-110876772D01*
X80525853Y-110721900D01*
X80618985Y-110582519D01*
X80737519Y-110463985D01*
X80876900Y-110370853D01*
X81031772Y-110306703D01*
X81196184Y-110274000D01*
X81363816Y-110274000D01*
X81528228Y-110306703D01*
G37*
G36*
X57398228Y-110306703D02*
G01*
X57553100Y-110370853D01*
X57692481Y-110463985D01*
X57811015Y-110582519D01*
X57904147Y-110721900D01*
X57968297Y-110876772D01*
X58001000Y-111041184D01*
X58001000Y-111208816D01*
X57968297Y-111373228D01*
X57904147Y-111528100D01*
X57811015Y-111667481D01*
X57692481Y-111786015D01*
X57553100Y-111879147D01*
X57398228Y-111943297D01*
X57233816Y-111976000D01*
X57066184Y-111976000D01*
X56901772Y-111943297D01*
X56746900Y-111879147D01*
X56607519Y-111786015D01*
X56488985Y-111667481D01*
X56395853Y-111528100D01*
X56331703Y-111373228D01*
X56299000Y-111208816D01*
X56299000Y-111041184D01*
X56331703Y-110876772D01*
X56395853Y-110721900D01*
X56488985Y-110582519D01*
X56607519Y-110463985D01*
X56746900Y-110370853D01*
X56901772Y-110306703D01*
X57066184Y-110274000D01*
X57233816Y-110274000D01*
X57398228Y-110306703D01*
G37*
G36*
X61208228Y-107766703D02*
G01*
X61363100Y-107830853D01*
X61502481Y-107923985D01*
X61621015Y-108042519D01*
X61714147Y-108181900D01*
X61778297Y-108336772D01*
X61811000Y-108501184D01*
X61811000Y-108668816D01*
X61778297Y-108833228D01*
X61714147Y-108988100D01*
X61621015Y-109127481D01*
X61502481Y-109246015D01*
X61363100Y-109339147D01*
X61208228Y-109403297D01*
X61043816Y-109436000D01*
X60876184Y-109436000D01*
X60711772Y-109403297D01*
X60556900Y-109339147D01*
X60417519Y-109246015D01*
X60298985Y-109127481D01*
X60205853Y-108988100D01*
X60141703Y-108833228D01*
X60109000Y-108668816D01*
X60109000Y-108501184D01*
X60141703Y-108336772D01*
X60205853Y-108181900D01*
X60298985Y-108042519D01*
X60417519Y-107923985D01*
X60556900Y-107830853D01*
X60711772Y-107766703D01*
X60876184Y-107734000D01*
X61043816Y-107734000D01*
X61208228Y-107766703D01*
G37*
G36*
X85338228Y-107766703D02*
G01*
X85493100Y-107830853D01*
X85632481Y-107923985D01*
X85751015Y-108042519D01*
X85844147Y-108181900D01*
X85908297Y-108336772D01*
X85941000Y-108501184D01*
X85941000Y-108668816D01*
X85908297Y-108833228D01*
X85844147Y-108988100D01*
X85751015Y-109127481D01*
X85632481Y-109246015D01*
X85493100Y-109339147D01*
X85338228Y-109403297D01*
X85173816Y-109436000D01*
X85006184Y-109436000D01*
X84841772Y-109403297D01*
X84686900Y-109339147D01*
X84547519Y-109246015D01*
X84428985Y-109127481D01*
X84335853Y-108988100D01*
X84271703Y-108833228D01*
X84239000Y-108668816D01*
X84239000Y-108501184D01*
X84271703Y-108336772D01*
X84335853Y-108181900D01*
X84428985Y-108042519D01*
X84547519Y-107923985D01*
X84686900Y-107830853D01*
X84841772Y-107766703D01*
X85006184Y-107734000D01*
X85173816Y-107734000D01*
X85338228Y-107766703D01*
G37*
G36*
X109468228Y-107766703D02*
G01*
X109623100Y-107830853D01*
X109762481Y-107923985D01*
X109881015Y-108042519D01*
X109974147Y-108181900D01*
X110038297Y-108336772D01*
X110071000Y-108501184D01*
X110071000Y-108668816D01*
X110038297Y-108833228D01*
X109974147Y-108988100D01*
X109881015Y-109127481D01*
X109762481Y-109246015D01*
X109623100Y-109339147D01*
X109468228Y-109403297D01*
X109303816Y-109436000D01*
X109136184Y-109436000D01*
X108971772Y-109403297D01*
X108816900Y-109339147D01*
X108677519Y-109246015D01*
X108558985Y-109127481D01*
X108465853Y-108988100D01*
X108401703Y-108833228D01*
X108369000Y-108668816D01*
X108369000Y-108501184D01*
X108401703Y-108336772D01*
X108465853Y-108181900D01*
X108558985Y-108042519D01*
X108677519Y-107923985D01*
X108816900Y-107830853D01*
X108971772Y-107766703D01*
X109136184Y-107734000D01*
X109303816Y-107734000D01*
X109468228Y-107766703D01*
G37*
G36*
X77718228Y-105821703D02*
G01*
X77873100Y-105885853D01*
X78012481Y-105978985D01*
X78131015Y-106097519D01*
X78224147Y-106236900D01*
X78288297Y-106391772D01*
X78321000Y-106556184D01*
X78321000Y-106723816D01*
X78288297Y-106888228D01*
X78224147Y-107043100D01*
X78131015Y-107182481D01*
X78012481Y-107301015D01*
X77873100Y-107394147D01*
X77718228Y-107458297D01*
X77553816Y-107491000D01*
X77386184Y-107491000D01*
X77221772Y-107458297D01*
X77066900Y-107394147D01*
X76927519Y-107301015D01*
X76808985Y-107182481D01*
X76715853Y-107043100D01*
X76651703Y-106888228D01*
X76619000Y-106723816D01*
X76619000Y-106556184D01*
X76651703Y-106391772D01*
X76715853Y-106236900D01*
X76808985Y-106097519D01*
X76927519Y-105978985D01*
X77066900Y-105885853D01*
X77221772Y-105821703D01*
X77386184Y-105789000D01*
X77553816Y-105789000D01*
X77718228Y-105821703D01*
G37*
G36*
X125978228Y-105821703D02*
G01*
X126133100Y-105885853D01*
X126272481Y-105978985D01*
X126391015Y-106097519D01*
X126484147Y-106236900D01*
X126548297Y-106391772D01*
X126581000Y-106556184D01*
X126581000Y-106723816D01*
X126548297Y-106888228D01*
X126484147Y-107043100D01*
X126391015Y-107182481D01*
X126272481Y-107301015D01*
X126133100Y-107394147D01*
X125978228Y-107458297D01*
X125813816Y-107491000D01*
X125646184Y-107491000D01*
X125481772Y-107458297D01*
X125326900Y-107394147D01*
X125187519Y-107301015D01*
X125068985Y-107182481D01*
X124975853Y-107043100D01*
X124911703Y-106888228D01*
X124879000Y-106723816D01*
X124879000Y-106556184D01*
X124911703Y-106391772D01*
X124975853Y-106236900D01*
X125068985Y-106097519D01*
X125187519Y-105978985D01*
X125326900Y-105885853D01*
X125481772Y-105821703D01*
X125646184Y-105789000D01*
X125813816Y-105789000D01*
X125978228Y-105821703D01*
G37*
G36*
X101848228Y-105821703D02*
G01*
X102003100Y-105885853D01*
X102142481Y-105978985D01*
X102261015Y-106097519D01*
X102354147Y-106236900D01*
X102418297Y-106391772D01*
X102451000Y-106556184D01*
X102451000Y-106723816D01*
X102418297Y-106888228D01*
X102354147Y-107043100D01*
X102261015Y-107182481D01*
X102142481Y-107301015D01*
X102003100Y-107394147D01*
X101848228Y-107458297D01*
X101683816Y-107491000D01*
X101516184Y-107491000D01*
X101351772Y-107458297D01*
X101196900Y-107394147D01*
X101057519Y-107301015D01*
X100938985Y-107182481D01*
X100845853Y-107043100D01*
X100781703Y-106888228D01*
X100749000Y-106723816D01*
X100749000Y-106556184D01*
X100781703Y-106391772D01*
X100845853Y-106236900D01*
X100938985Y-106097519D01*
X101057519Y-105978985D01*
X101196900Y-105885853D01*
X101351772Y-105821703D01*
X101516184Y-105789000D01*
X101683816Y-105789000D01*
X101848228Y-105821703D01*
G37*
G36*
X90101823Y-105206313D02*
G01*
X90262242Y-105254976D01*
X90394906Y-105325886D01*
X90410078Y-105333996D01*
X90539659Y-105440341D01*
X90646004Y-105569922D01*
X90646005Y-105569924D01*
X90725024Y-105717758D01*
X90773687Y-105878177D01*
X90790117Y-106045000D01*
X90773687Y-106211823D01*
X90725024Y-106372242D01*
X90654114Y-106504906D01*
X90646004Y-106520078D01*
X90539659Y-106649659D01*
X90410078Y-106756004D01*
X90410076Y-106756005D01*
X90262242Y-106835024D01*
X90101823Y-106883687D01*
X89976804Y-106896000D01*
X89093196Y-106896000D01*
X88968177Y-106883687D01*
X88807758Y-106835024D01*
X88659924Y-106756005D01*
X88659922Y-106756004D01*
X88530341Y-106649659D01*
X88423996Y-106520078D01*
X88415886Y-106504906D01*
X88344976Y-106372242D01*
X88296313Y-106211823D01*
X88279883Y-106045000D01*
X88296313Y-105878177D01*
X88344976Y-105717758D01*
X88423995Y-105569924D01*
X88423996Y-105569922D01*
X88530341Y-105440341D01*
X88659922Y-105333996D01*
X88675094Y-105325886D01*
X88807758Y-105254976D01*
X88968177Y-105206313D01*
X89093196Y-105194000D01*
X89976804Y-105194000D01*
X90101823Y-105206313D01*
G37*
G36*
X65971823Y-105206313D02*
G01*
X66132242Y-105254976D01*
X66264906Y-105325886D01*
X66280078Y-105333996D01*
X66409659Y-105440341D01*
X66516004Y-105569922D01*
X66516005Y-105569924D01*
X66595024Y-105717758D01*
X66643687Y-105878177D01*
X66660117Y-106045000D01*
X66643687Y-106211823D01*
X66595024Y-106372242D01*
X66524114Y-106504906D01*
X66516004Y-106520078D01*
X66409659Y-106649659D01*
X66280078Y-106756004D01*
X66280076Y-106756005D01*
X66132242Y-106835024D01*
X65971823Y-106883687D01*
X65846804Y-106896000D01*
X64963196Y-106896000D01*
X64838177Y-106883687D01*
X64677758Y-106835024D01*
X64529924Y-106756005D01*
X64529922Y-106756004D01*
X64400341Y-106649659D01*
X64293996Y-106520078D01*
X64285886Y-106504906D01*
X64214976Y-106372242D01*
X64166313Y-106211823D01*
X64149883Y-106045000D01*
X64166313Y-105878177D01*
X64214976Y-105717758D01*
X64293995Y-105569924D01*
X64293996Y-105569922D01*
X64400341Y-105440341D01*
X64529922Y-105333996D01*
X64545094Y-105325886D01*
X64677758Y-105254976D01*
X64838177Y-105206313D01*
X64963196Y-105194000D01*
X65846804Y-105194000D01*
X65971823Y-105206313D01*
G37*
G36*
X74276000Y-106896000D02*
G01*
X71774000Y-106896000D01*
X71774000Y-105194000D01*
X74276000Y-105194000D01*
X74276000Y-106896000D01*
G37*
G36*
X98406000Y-106896000D02*
G01*
X95904000Y-106896000D01*
X95904000Y-105194000D01*
X98406000Y-105194000D01*
X98406000Y-106896000D01*
G37*
G36*
X114231823Y-105206313D02*
G01*
X114392242Y-105254976D01*
X114524906Y-105325886D01*
X114540078Y-105333996D01*
X114669659Y-105440341D01*
X114776004Y-105569922D01*
X114776005Y-105569924D01*
X114855024Y-105717758D01*
X114903687Y-105878177D01*
X114920117Y-106045000D01*
X114903687Y-106211823D01*
X114855024Y-106372242D01*
X114784114Y-106504906D01*
X114776004Y-106520078D01*
X114669659Y-106649659D01*
X114540078Y-106756004D01*
X114540076Y-106756005D01*
X114392242Y-106835024D01*
X114231823Y-106883687D01*
X114106804Y-106896000D01*
X113223196Y-106896000D01*
X113098177Y-106883687D01*
X112937758Y-106835024D01*
X112789924Y-106756005D01*
X112789922Y-106756004D01*
X112660341Y-106649659D01*
X112553996Y-106520078D01*
X112545886Y-106504906D01*
X112474976Y-106372242D01*
X112426313Y-106211823D01*
X112409883Y-106045000D01*
X112426313Y-105878177D01*
X112474976Y-105717758D01*
X112553995Y-105569924D01*
X112553996Y-105569922D01*
X112660341Y-105440341D01*
X112789922Y-105333996D01*
X112805094Y-105325886D01*
X112937758Y-105254976D01*
X113098177Y-105206313D01*
X113223196Y-105194000D01*
X114106804Y-105194000D01*
X114231823Y-105206313D01*
G37*
G36*
X122536000Y-106896000D02*
G01*
X120034000Y-106896000D01*
X120034000Y-105194000D01*
X122536000Y-105194000D01*
X122536000Y-106896000D01*
G37*
G36*
X101848228Y-103321703D02*
G01*
X102003100Y-103385853D01*
X102142481Y-103478985D01*
X102261015Y-103597519D01*
X102354147Y-103736900D01*
X102418297Y-103891772D01*
X102451000Y-104056184D01*
X102451000Y-104223816D01*
X102418297Y-104388228D01*
X102354147Y-104543100D01*
X102261015Y-104682481D01*
X102142481Y-104801015D01*
X102003100Y-104894147D01*
X101848228Y-104958297D01*
X101683816Y-104991000D01*
X101516184Y-104991000D01*
X101351772Y-104958297D01*
X101196900Y-104894147D01*
X101057519Y-104801015D01*
X100938985Y-104682481D01*
X100845853Y-104543100D01*
X100781703Y-104388228D01*
X100749000Y-104223816D01*
X100749000Y-104056184D01*
X100781703Y-103891772D01*
X100845853Y-103736900D01*
X100938985Y-103597519D01*
X101057519Y-103478985D01*
X101196900Y-103385853D01*
X101351772Y-103321703D01*
X101516184Y-103289000D01*
X101683816Y-103289000D01*
X101848228Y-103321703D01*
G37*
G36*
X125978228Y-103321703D02*
G01*
X126133100Y-103385853D01*
X126272481Y-103478985D01*
X126391015Y-103597519D01*
X126484147Y-103736900D01*
X126548297Y-103891772D01*
X126581000Y-104056184D01*
X126581000Y-104223816D01*
X126548297Y-104388228D01*
X126484147Y-104543100D01*
X126391015Y-104682481D01*
X126272481Y-104801015D01*
X126133100Y-104894147D01*
X125978228Y-104958297D01*
X125813816Y-104991000D01*
X125646184Y-104991000D01*
X125481772Y-104958297D01*
X125326900Y-104894147D01*
X125187519Y-104801015D01*
X125068985Y-104682481D01*
X124975853Y-104543100D01*
X124911703Y-104388228D01*
X124879000Y-104223816D01*
X124879000Y-104056184D01*
X124911703Y-103891772D01*
X124975853Y-103736900D01*
X125068985Y-103597519D01*
X125187519Y-103478985D01*
X125326900Y-103385853D01*
X125481772Y-103321703D01*
X125646184Y-103289000D01*
X125813816Y-103289000D01*
X125978228Y-103321703D01*
G37*
G36*
X77718228Y-103321703D02*
G01*
X77873100Y-103385853D01*
X78012481Y-103478985D01*
X78131015Y-103597519D01*
X78224147Y-103736900D01*
X78288297Y-103891772D01*
X78321000Y-104056184D01*
X78321000Y-104223816D01*
X78288297Y-104388228D01*
X78224147Y-104543100D01*
X78131015Y-104682481D01*
X78012481Y-104801015D01*
X77873100Y-104894147D01*
X77718228Y-104958297D01*
X77553816Y-104991000D01*
X77386184Y-104991000D01*
X77221772Y-104958297D01*
X77066900Y-104894147D01*
X76927519Y-104801015D01*
X76808985Y-104682481D01*
X76715853Y-104543100D01*
X76651703Y-104388228D01*
X76619000Y-104223816D01*
X76619000Y-104056184D01*
X76651703Y-103891772D01*
X76715853Y-103736900D01*
X76808985Y-103597519D01*
X76927519Y-103478985D01*
X77066900Y-103385853D01*
X77221772Y-103321703D01*
X77386184Y-103289000D01*
X77553816Y-103289000D01*
X77718228Y-103321703D01*
G37*
G36*
X106261000Y-104356000D02*
G01*
X104559000Y-104356000D01*
X104559000Y-102654000D01*
X106261000Y-102654000D01*
X106261000Y-104356000D01*
G37*
G36*
X121851823Y-102666313D02*
G01*
X122012242Y-102714976D01*
X122079361Y-102750852D01*
X122160078Y-102793996D01*
X122289659Y-102900341D01*
X122396004Y-103029922D01*
X122396005Y-103029924D01*
X122475024Y-103177758D01*
X122523687Y-103338177D01*
X122540117Y-103505000D01*
X122523687Y-103671823D01*
X122475024Y-103832242D01*
X122434477Y-103908100D01*
X122396004Y-103980078D01*
X122289659Y-104109659D01*
X122160078Y-104216004D01*
X122160076Y-104216005D01*
X122012242Y-104295024D01*
X121851823Y-104343687D01*
X121726804Y-104356000D01*
X120843196Y-104356000D01*
X120718177Y-104343687D01*
X120557758Y-104295024D01*
X120409924Y-104216005D01*
X120409922Y-104216004D01*
X120280341Y-104109659D01*
X120173996Y-103980078D01*
X120135523Y-103908100D01*
X120094976Y-103832242D01*
X120046313Y-103671823D01*
X120029883Y-103505000D01*
X120046313Y-103338177D01*
X120094976Y-103177758D01*
X120173995Y-103029924D01*
X120173996Y-103029922D01*
X120280341Y-102900341D01*
X120409922Y-102793996D01*
X120490639Y-102750852D01*
X120557758Y-102714976D01*
X120718177Y-102666313D01*
X120843196Y-102654000D01*
X121726804Y-102654000D01*
X121851823Y-102666313D01*
G37*
G36*
X114231823Y-102666313D02*
G01*
X114392242Y-102714976D01*
X114459361Y-102750852D01*
X114540078Y-102793996D01*
X114669659Y-102900341D01*
X114776004Y-103029922D01*
X114776005Y-103029924D01*
X114855024Y-103177758D01*
X114903687Y-103338177D01*
X114920117Y-103505000D01*
X114903687Y-103671823D01*
X114855024Y-103832242D01*
X114814477Y-103908100D01*
X114776004Y-103980078D01*
X114669659Y-104109659D01*
X114540078Y-104216004D01*
X114540076Y-104216005D01*
X114392242Y-104295024D01*
X114231823Y-104343687D01*
X114106804Y-104356000D01*
X113223196Y-104356000D01*
X113098177Y-104343687D01*
X112937758Y-104295024D01*
X112789924Y-104216005D01*
X112789922Y-104216004D01*
X112660341Y-104109659D01*
X112553996Y-103980078D01*
X112515523Y-103908100D01*
X112474976Y-103832242D01*
X112426313Y-103671823D01*
X112409883Y-103505000D01*
X112426313Y-103338177D01*
X112474976Y-103177758D01*
X112553995Y-103029924D01*
X112553996Y-103029922D01*
X112660341Y-102900341D01*
X112789922Y-102793996D01*
X112870639Y-102750852D01*
X112937758Y-102714976D01*
X113098177Y-102666313D01*
X113223196Y-102654000D01*
X114106804Y-102654000D01*
X114231823Y-102666313D01*
G37*
G36*
X109468228Y-102686703D02*
G01*
X109623100Y-102750853D01*
X109762481Y-102843985D01*
X109881015Y-102962519D01*
X109974147Y-103101900D01*
X110038297Y-103256772D01*
X110071000Y-103421184D01*
X110071000Y-103588816D01*
X110038297Y-103753228D01*
X109974147Y-103908100D01*
X109881015Y-104047481D01*
X109762481Y-104166015D01*
X109623100Y-104259147D01*
X109468228Y-104323297D01*
X109303816Y-104356000D01*
X109136184Y-104356000D01*
X108971772Y-104323297D01*
X108816900Y-104259147D01*
X108677519Y-104166015D01*
X108558985Y-104047481D01*
X108465853Y-103908100D01*
X108401703Y-103753228D01*
X108369000Y-103588816D01*
X108369000Y-103421184D01*
X108401703Y-103256772D01*
X108465853Y-103101900D01*
X108558985Y-102962519D01*
X108677519Y-102843985D01*
X108816900Y-102750853D01*
X108971772Y-102686703D01*
X109136184Y-102654000D01*
X109303816Y-102654000D01*
X109468228Y-102686703D01*
G37*
G36*
X97721823Y-102666313D02*
G01*
X97882242Y-102714976D01*
X97949361Y-102750852D01*
X98030078Y-102793996D01*
X98159659Y-102900341D01*
X98266004Y-103029922D01*
X98266005Y-103029924D01*
X98345024Y-103177758D01*
X98393687Y-103338177D01*
X98410117Y-103505000D01*
X98393687Y-103671823D01*
X98345024Y-103832242D01*
X98304477Y-103908100D01*
X98266004Y-103980078D01*
X98159659Y-104109659D01*
X98030078Y-104216004D01*
X98030076Y-104216005D01*
X97882242Y-104295024D01*
X97721823Y-104343687D01*
X97596804Y-104356000D01*
X96713196Y-104356000D01*
X96588177Y-104343687D01*
X96427758Y-104295024D01*
X96279924Y-104216005D01*
X96279922Y-104216004D01*
X96150341Y-104109659D01*
X96043996Y-103980078D01*
X96005523Y-103908100D01*
X95964976Y-103832242D01*
X95916313Y-103671823D01*
X95899883Y-103505000D01*
X95916313Y-103338177D01*
X95964976Y-103177758D01*
X96043995Y-103029924D01*
X96043996Y-103029922D01*
X96150341Y-102900341D01*
X96279922Y-102793996D01*
X96360639Y-102750852D01*
X96427758Y-102714976D01*
X96588177Y-102666313D01*
X96713196Y-102654000D01*
X97596804Y-102654000D01*
X97721823Y-102666313D01*
G37*
G36*
X90101823Y-102666313D02*
G01*
X90262242Y-102714976D01*
X90329361Y-102750852D01*
X90410078Y-102793996D01*
X90539659Y-102900341D01*
X90646004Y-103029922D01*
X90646005Y-103029924D01*
X90725024Y-103177758D01*
X90773687Y-103338177D01*
X90790117Y-103505000D01*
X90773687Y-103671823D01*
X90725024Y-103832242D01*
X90684477Y-103908100D01*
X90646004Y-103980078D01*
X90539659Y-104109659D01*
X90410078Y-104216004D01*
X90410076Y-104216005D01*
X90262242Y-104295024D01*
X90101823Y-104343687D01*
X89976804Y-104356000D01*
X89093196Y-104356000D01*
X88968177Y-104343687D01*
X88807758Y-104295024D01*
X88659924Y-104216005D01*
X88659922Y-104216004D01*
X88530341Y-104109659D01*
X88423996Y-103980078D01*
X88385523Y-103908100D01*
X88344976Y-103832242D01*
X88296313Y-103671823D01*
X88279883Y-103505000D01*
X88296313Y-103338177D01*
X88344976Y-103177758D01*
X88423995Y-103029924D01*
X88423996Y-103029922D01*
X88530341Y-102900341D01*
X88659922Y-102793996D01*
X88740639Y-102750852D01*
X88807758Y-102714976D01*
X88968177Y-102666313D01*
X89093196Y-102654000D01*
X89976804Y-102654000D01*
X90101823Y-102666313D01*
G37*
G36*
X85338228Y-102686703D02*
G01*
X85493100Y-102750853D01*
X85632481Y-102843985D01*
X85751015Y-102962519D01*
X85844147Y-103101900D01*
X85908297Y-103256772D01*
X85941000Y-103421184D01*
X85941000Y-103588816D01*
X85908297Y-103753228D01*
X85844147Y-103908100D01*
X85751015Y-104047481D01*
X85632481Y-104166015D01*
X85493100Y-104259147D01*
X85338228Y-104323297D01*
X85173816Y-104356000D01*
X85006184Y-104356000D01*
X84841772Y-104323297D01*
X84686900Y-104259147D01*
X84547519Y-104166015D01*
X84428985Y-104047481D01*
X84335853Y-103908100D01*
X84271703Y-103753228D01*
X84239000Y-103588816D01*
X84239000Y-103421184D01*
X84271703Y-103256772D01*
X84335853Y-103101900D01*
X84428985Y-102962519D01*
X84547519Y-102843985D01*
X84686900Y-102750853D01*
X84841772Y-102686703D01*
X85006184Y-102654000D01*
X85173816Y-102654000D01*
X85338228Y-102686703D01*
G37*
G36*
X73591823Y-102666313D02*
G01*
X73752242Y-102714976D01*
X73819361Y-102750852D01*
X73900078Y-102793996D01*
X74029659Y-102900341D01*
X74136004Y-103029922D01*
X74136005Y-103029924D01*
X74215024Y-103177758D01*
X74263687Y-103338177D01*
X74280117Y-103505000D01*
X74263687Y-103671823D01*
X74215024Y-103832242D01*
X74174477Y-103908100D01*
X74136004Y-103980078D01*
X74029659Y-104109659D01*
X73900078Y-104216004D01*
X73900076Y-104216005D01*
X73752242Y-104295024D01*
X73591823Y-104343687D01*
X73466804Y-104356000D01*
X72583196Y-104356000D01*
X72458177Y-104343687D01*
X72297758Y-104295024D01*
X72149924Y-104216005D01*
X72149922Y-104216004D01*
X72020341Y-104109659D01*
X71913996Y-103980078D01*
X71875523Y-103908100D01*
X71834976Y-103832242D01*
X71786313Y-103671823D01*
X71769883Y-103505000D01*
X71786313Y-103338177D01*
X71834976Y-103177758D01*
X71913995Y-103029924D01*
X71913996Y-103029922D01*
X72020341Y-102900341D01*
X72149922Y-102793996D01*
X72230639Y-102750852D01*
X72297758Y-102714976D01*
X72458177Y-102666313D01*
X72583196Y-102654000D01*
X73466804Y-102654000D01*
X73591823Y-102666313D01*
G37*
G36*
X65971823Y-102666313D02*
G01*
X66132242Y-102714976D01*
X66199361Y-102750852D01*
X66280078Y-102793996D01*
X66409659Y-102900341D01*
X66516004Y-103029922D01*
X66516005Y-103029924D01*
X66595024Y-103177758D01*
X66643687Y-103338177D01*
X66660117Y-103505000D01*
X66643687Y-103671823D01*
X66595024Y-103832242D01*
X66554477Y-103908100D01*
X66516004Y-103980078D01*
X66409659Y-104109659D01*
X66280078Y-104216004D01*
X66280076Y-104216005D01*
X66132242Y-104295024D01*
X65971823Y-104343687D01*
X65846804Y-104356000D01*
X64963196Y-104356000D01*
X64838177Y-104343687D01*
X64677758Y-104295024D01*
X64529924Y-104216005D01*
X64529922Y-104216004D01*
X64400341Y-104109659D01*
X64293996Y-103980078D01*
X64255523Y-103908100D01*
X64214976Y-103832242D01*
X64166313Y-103671823D01*
X64149883Y-103505000D01*
X64166313Y-103338177D01*
X64214976Y-103177758D01*
X64293995Y-103029924D01*
X64293996Y-103029922D01*
X64400341Y-102900341D01*
X64529922Y-102793996D01*
X64610639Y-102750852D01*
X64677758Y-102714976D01*
X64838177Y-102666313D01*
X64963196Y-102654000D01*
X65846804Y-102654000D01*
X65971823Y-102666313D01*
G37*
G36*
X61208228Y-102686703D02*
G01*
X61363100Y-102750853D01*
X61502481Y-102843985D01*
X61621015Y-102962519D01*
X61714147Y-103101900D01*
X61778297Y-103256772D01*
X61811000Y-103421184D01*
X61811000Y-103588816D01*
X61778297Y-103753228D01*
X61714147Y-103908100D01*
X61621015Y-104047481D01*
X61502481Y-104166015D01*
X61363100Y-104259147D01*
X61208228Y-104323297D01*
X61043816Y-104356000D01*
X60876184Y-104356000D01*
X60711772Y-104323297D01*
X60556900Y-104259147D01*
X60417519Y-104166015D01*
X60298985Y-104047481D01*
X60205853Y-103908100D01*
X60141703Y-103753228D01*
X60109000Y-103588816D01*
X60109000Y-103421184D01*
X60141703Y-103256772D01*
X60205853Y-103101900D01*
X60298985Y-102962519D01*
X60417519Y-102843985D01*
X60556900Y-102750853D01*
X60711772Y-102686703D01*
X60876184Y-102654000D01*
X61043816Y-102654000D01*
X61208228Y-102686703D01*
G37*
G36*
X82131000Y-104356000D02*
G01*
X80429000Y-104356000D01*
X80429000Y-102654000D01*
X82131000Y-102654000D01*
X82131000Y-104356000D01*
G37*
G36*
X58001000Y-104356000D02*
G01*
X56299000Y-104356000D01*
X56299000Y-102654000D01*
X58001000Y-102654000D01*
X58001000Y-104356000D01*
G37*
G36*
X65971823Y-100126313D02*
G01*
X66132242Y-100174976D01*
X66199361Y-100210852D01*
X66280078Y-100253996D01*
X66409659Y-100360341D01*
X66516004Y-100489922D01*
X66516005Y-100489924D01*
X66595024Y-100637758D01*
X66643687Y-100798177D01*
X66660117Y-100965000D01*
X66643687Y-101131823D01*
X66595024Y-101292242D01*
X66554477Y-101368100D01*
X66516004Y-101440078D01*
X66409659Y-101569659D01*
X66280078Y-101676004D01*
X66280076Y-101676005D01*
X66132242Y-101755024D01*
X65971823Y-101803687D01*
X65846804Y-101816000D01*
X64963196Y-101816000D01*
X64838177Y-101803687D01*
X64677758Y-101755024D01*
X64529924Y-101676005D01*
X64529922Y-101676004D01*
X64400341Y-101569659D01*
X64293996Y-101440078D01*
X64255523Y-101368100D01*
X64214976Y-101292242D01*
X64166313Y-101131823D01*
X64149883Y-100965000D01*
X64166313Y-100798177D01*
X64214976Y-100637758D01*
X64293995Y-100489924D01*
X64293996Y-100489922D01*
X64400341Y-100360341D01*
X64529922Y-100253996D01*
X64610639Y-100210852D01*
X64677758Y-100174976D01*
X64838177Y-100126313D01*
X64963196Y-100114000D01*
X65846804Y-100114000D01*
X65971823Y-100126313D01*
G37*
G36*
X73591823Y-100126313D02*
G01*
X73752242Y-100174976D01*
X73819361Y-100210852D01*
X73900078Y-100253996D01*
X74029659Y-100360341D01*
X74136004Y-100489922D01*
X74136005Y-100489924D01*
X74215024Y-100637758D01*
X74263687Y-100798177D01*
X74280117Y-100965000D01*
X74263687Y-101131823D01*
X74215024Y-101292242D01*
X74174477Y-101368100D01*
X74136004Y-101440078D01*
X74029659Y-101569659D01*
X73900078Y-101676004D01*
X73900076Y-101676005D01*
X73752242Y-101755024D01*
X73591823Y-101803687D01*
X73466804Y-101816000D01*
X72583196Y-101816000D01*
X72458177Y-101803687D01*
X72297758Y-101755024D01*
X72149924Y-101676005D01*
X72149922Y-101676004D01*
X72020341Y-101569659D01*
X71913996Y-101440078D01*
X71875523Y-101368100D01*
X71834976Y-101292242D01*
X71786313Y-101131823D01*
X71769883Y-100965000D01*
X71786313Y-100798177D01*
X71834976Y-100637758D01*
X71913995Y-100489924D01*
X71913996Y-100489922D01*
X72020341Y-100360341D01*
X72149922Y-100253996D01*
X72230639Y-100210852D01*
X72297758Y-100174976D01*
X72458177Y-100126313D01*
X72583196Y-100114000D01*
X73466804Y-100114000D01*
X73591823Y-100126313D01*
G37*
G36*
X77718228Y-100146703D02*
G01*
X77873100Y-100210853D01*
X78012481Y-100303985D01*
X78131015Y-100422519D01*
X78224147Y-100561900D01*
X78288297Y-100716772D01*
X78321000Y-100881184D01*
X78321000Y-101048816D01*
X78288297Y-101213228D01*
X78224147Y-101368100D01*
X78131015Y-101507481D01*
X78012481Y-101626015D01*
X77873100Y-101719147D01*
X77718228Y-101783297D01*
X77553816Y-101816000D01*
X77386184Y-101816000D01*
X77221772Y-101783297D01*
X77066900Y-101719147D01*
X76927519Y-101626015D01*
X76808985Y-101507481D01*
X76715853Y-101368100D01*
X76651703Y-101213228D01*
X76619000Y-101048816D01*
X76619000Y-100881184D01*
X76651703Y-100716772D01*
X76715853Y-100561900D01*
X76808985Y-100422519D01*
X76927519Y-100303985D01*
X77066900Y-100210853D01*
X77221772Y-100146703D01*
X77386184Y-100114000D01*
X77553816Y-100114000D01*
X77718228Y-100146703D01*
G37*
G36*
X97721823Y-100126313D02*
G01*
X97882242Y-100174976D01*
X97949361Y-100210852D01*
X98030078Y-100253996D01*
X98159659Y-100360341D01*
X98266004Y-100489922D01*
X98266005Y-100489924D01*
X98345024Y-100637758D01*
X98393687Y-100798177D01*
X98410117Y-100965000D01*
X98393687Y-101131823D01*
X98345024Y-101292242D01*
X98304477Y-101368100D01*
X98266004Y-101440078D01*
X98159659Y-101569659D01*
X98030078Y-101676004D01*
X98030076Y-101676005D01*
X97882242Y-101755024D01*
X97721823Y-101803687D01*
X97596804Y-101816000D01*
X96713196Y-101816000D01*
X96588177Y-101803687D01*
X96427758Y-101755024D01*
X96279924Y-101676005D01*
X96279922Y-101676004D01*
X96150341Y-101569659D01*
X96043996Y-101440078D01*
X96005523Y-101368100D01*
X95964976Y-101292242D01*
X95916313Y-101131823D01*
X95899883Y-100965000D01*
X95916313Y-100798177D01*
X95964976Y-100637758D01*
X96043995Y-100489924D01*
X96043996Y-100489922D01*
X96150341Y-100360341D01*
X96279922Y-100253996D01*
X96360639Y-100210852D01*
X96427758Y-100174976D01*
X96588177Y-100126313D01*
X96713196Y-100114000D01*
X97596804Y-100114000D01*
X97721823Y-100126313D01*
G37*
G36*
X125978228Y-100146703D02*
G01*
X126133100Y-100210853D01*
X126272481Y-100303985D01*
X126391015Y-100422519D01*
X126484147Y-100561900D01*
X126548297Y-100716772D01*
X126581000Y-100881184D01*
X126581000Y-101048816D01*
X126548297Y-101213228D01*
X126484147Y-101368100D01*
X126391015Y-101507481D01*
X126272481Y-101626015D01*
X126133100Y-101719147D01*
X125978228Y-101783297D01*
X125813816Y-101816000D01*
X125646184Y-101816000D01*
X125481772Y-101783297D01*
X125326900Y-101719147D01*
X125187519Y-101626015D01*
X125068985Y-101507481D01*
X124975853Y-101368100D01*
X124911703Y-101213228D01*
X124879000Y-101048816D01*
X124879000Y-100881184D01*
X124911703Y-100716772D01*
X124975853Y-100561900D01*
X125068985Y-100422519D01*
X125187519Y-100303985D01*
X125326900Y-100210853D01*
X125481772Y-100146703D01*
X125646184Y-100114000D01*
X125813816Y-100114000D01*
X125978228Y-100146703D01*
G37*
G36*
X114231823Y-100126313D02*
G01*
X114392242Y-100174976D01*
X114459361Y-100210852D01*
X114540078Y-100253996D01*
X114669659Y-100360341D01*
X114776004Y-100489922D01*
X114776005Y-100489924D01*
X114855024Y-100637758D01*
X114903687Y-100798177D01*
X114920117Y-100965000D01*
X114903687Y-101131823D01*
X114855024Y-101292242D01*
X114814477Y-101368100D01*
X114776004Y-101440078D01*
X114669659Y-101569659D01*
X114540078Y-101676004D01*
X114540076Y-101676005D01*
X114392242Y-101755024D01*
X114231823Y-101803687D01*
X114106804Y-101816000D01*
X113223196Y-101816000D01*
X113098177Y-101803687D01*
X112937758Y-101755024D01*
X112789924Y-101676005D01*
X112789922Y-101676004D01*
X112660341Y-101569659D01*
X112553996Y-101440078D01*
X112515523Y-101368100D01*
X112474976Y-101292242D01*
X112426313Y-101131823D01*
X112409883Y-100965000D01*
X112426313Y-100798177D01*
X112474976Y-100637758D01*
X112553995Y-100489924D01*
X112553996Y-100489922D01*
X112660341Y-100360341D01*
X112789922Y-100253996D01*
X112870639Y-100210852D01*
X112937758Y-100174976D01*
X113098177Y-100126313D01*
X113223196Y-100114000D01*
X114106804Y-100114000D01*
X114231823Y-100126313D01*
G37*
G36*
X121851823Y-100126313D02*
G01*
X122012242Y-100174976D01*
X122079361Y-100210852D01*
X122160078Y-100253996D01*
X122289659Y-100360341D01*
X122396004Y-100489922D01*
X122396005Y-100489924D01*
X122475024Y-100637758D01*
X122523687Y-100798177D01*
X122540117Y-100965000D01*
X122523687Y-101131823D01*
X122475024Y-101292242D01*
X122434477Y-101368100D01*
X122396004Y-101440078D01*
X122289659Y-101569659D01*
X122160078Y-101676004D01*
X122160076Y-101676005D01*
X122012242Y-101755024D01*
X121851823Y-101803687D01*
X121726804Y-101816000D01*
X120843196Y-101816000D01*
X120718177Y-101803687D01*
X120557758Y-101755024D01*
X120409924Y-101676005D01*
X120409922Y-101676004D01*
X120280341Y-101569659D01*
X120173996Y-101440078D01*
X120135523Y-101368100D01*
X120094976Y-101292242D01*
X120046313Y-101131823D01*
X120029883Y-100965000D01*
X120046313Y-100798177D01*
X120094976Y-100637758D01*
X120173995Y-100489924D01*
X120173996Y-100489922D01*
X120280341Y-100360341D01*
X120409922Y-100253996D01*
X120490639Y-100210852D01*
X120557758Y-100174976D01*
X120718177Y-100126313D01*
X120843196Y-100114000D01*
X121726804Y-100114000D01*
X121851823Y-100126313D01*
G37*
G36*
X90101823Y-100126313D02*
G01*
X90262242Y-100174976D01*
X90329361Y-100210852D01*
X90410078Y-100253996D01*
X90539659Y-100360341D01*
X90646004Y-100489922D01*
X90646005Y-100489924D01*
X90725024Y-100637758D01*
X90773687Y-100798177D01*
X90790117Y-100965000D01*
X90773687Y-101131823D01*
X90725024Y-101292242D01*
X90684477Y-101368100D01*
X90646004Y-101440078D01*
X90539659Y-101569659D01*
X90410078Y-101676004D01*
X90410076Y-101676005D01*
X90262242Y-101755024D01*
X90101823Y-101803687D01*
X89976804Y-101816000D01*
X89093196Y-101816000D01*
X88968177Y-101803687D01*
X88807758Y-101755024D01*
X88659924Y-101676005D01*
X88659922Y-101676004D01*
X88530341Y-101569659D01*
X88423996Y-101440078D01*
X88385523Y-101368100D01*
X88344976Y-101292242D01*
X88296313Y-101131823D01*
X88279883Y-100965000D01*
X88296313Y-100798177D01*
X88344976Y-100637758D01*
X88423995Y-100489924D01*
X88423996Y-100489922D01*
X88530341Y-100360341D01*
X88659922Y-100253996D01*
X88740639Y-100210852D01*
X88807758Y-100174976D01*
X88968177Y-100126313D01*
X89093196Y-100114000D01*
X89976804Y-100114000D01*
X90101823Y-100126313D01*
G37*
G36*
X101848228Y-100146703D02*
G01*
X102003100Y-100210853D01*
X102142481Y-100303985D01*
X102261015Y-100422519D01*
X102354147Y-100561900D01*
X102418297Y-100716772D01*
X102451000Y-100881184D01*
X102451000Y-101048816D01*
X102418297Y-101213228D01*
X102354147Y-101368100D01*
X102261015Y-101507481D01*
X102142481Y-101626015D01*
X102003100Y-101719147D01*
X101848228Y-101783297D01*
X101683816Y-101816000D01*
X101516184Y-101816000D01*
X101351772Y-101783297D01*
X101196900Y-101719147D01*
X101057519Y-101626015D01*
X100938985Y-101507481D01*
X100845853Y-101368100D01*
X100781703Y-101213228D01*
X100749000Y-101048816D01*
X100749000Y-100881184D01*
X100781703Y-100716772D01*
X100845853Y-100561900D01*
X100938985Y-100422519D01*
X101057519Y-100303985D01*
X101196900Y-100210853D01*
X101351772Y-100146703D01*
X101516184Y-100114000D01*
X101683816Y-100114000D01*
X101848228Y-100146703D01*
G37*
G36*
X81528228Y-98241703D02*
G01*
X81683100Y-98305853D01*
X81822481Y-98398985D01*
X81941015Y-98517519D01*
X82034147Y-98656900D01*
X82098297Y-98811772D01*
X82131000Y-98976184D01*
X82131000Y-99143816D01*
X82098297Y-99308228D01*
X82034147Y-99463100D01*
X81941015Y-99602481D01*
X81822481Y-99721015D01*
X81683100Y-99814147D01*
X81528228Y-99878297D01*
X81363816Y-99911000D01*
X81196184Y-99911000D01*
X81031772Y-99878297D01*
X80876900Y-99814147D01*
X80737519Y-99721015D01*
X80618985Y-99602481D01*
X80525853Y-99463100D01*
X80461703Y-99308228D01*
X80429000Y-99143816D01*
X80429000Y-98976184D01*
X80461703Y-98811772D01*
X80525853Y-98656900D01*
X80618985Y-98517519D01*
X80737519Y-98398985D01*
X80876900Y-98305853D01*
X81031772Y-98241703D01*
X81196184Y-98209000D01*
X81363816Y-98209000D01*
X81528228Y-98241703D01*
G37*
G36*
X85338228Y-97606703D02*
G01*
X85493100Y-97670853D01*
X85632481Y-97763985D01*
X85751015Y-97882519D01*
X85844147Y-98021900D01*
X85908297Y-98176772D01*
X85941000Y-98341184D01*
X85941000Y-98508816D01*
X85908297Y-98673228D01*
X85844147Y-98828100D01*
X85751015Y-98967481D01*
X85632481Y-99086015D01*
X85493100Y-99179147D01*
X85338228Y-99243297D01*
X85173816Y-99276000D01*
X85006184Y-99276000D01*
X84841772Y-99243297D01*
X84686900Y-99179147D01*
X84547519Y-99086015D01*
X84428985Y-98967481D01*
X84335853Y-98828100D01*
X84271703Y-98673228D01*
X84239000Y-98508816D01*
X84239000Y-98341184D01*
X84271703Y-98176772D01*
X84335853Y-98021900D01*
X84428985Y-97882519D01*
X84547519Y-97763985D01*
X84686900Y-97670853D01*
X84841772Y-97606703D01*
X85006184Y-97574000D01*
X85173816Y-97574000D01*
X85338228Y-97606703D01*
G37*
G36*
X114231823Y-97586313D02*
G01*
X114392242Y-97634976D01*
X114459361Y-97670852D01*
X114540078Y-97713996D01*
X114669659Y-97820341D01*
X114776004Y-97949922D01*
X114776005Y-97949924D01*
X114855024Y-98097758D01*
X114903687Y-98258177D01*
X114920117Y-98425000D01*
X114903687Y-98591823D01*
X114855024Y-98752242D01*
X114814477Y-98828100D01*
X114776004Y-98900078D01*
X114669659Y-99029659D01*
X114540078Y-99136004D01*
X114540076Y-99136005D01*
X114392242Y-99215024D01*
X114231823Y-99263687D01*
X114106804Y-99276000D01*
X113223196Y-99276000D01*
X113098177Y-99263687D01*
X112937758Y-99215024D01*
X112789924Y-99136005D01*
X112789922Y-99136004D01*
X112660341Y-99029659D01*
X112553996Y-98900078D01*
X112515523Y-98828100D01*
X112474976Y-98752242D01*
X112426313Y-98591823D01*
X112409883Y-98425000D01*
X112426313Y-98258177D01*
X112474976Y-98097758D01*
X112553995Y-97949924D01*
X112553996Y-97949922D01*
X112660341Y-97820341D01*
X112789922Y-97713996D01*
X112870639Y-97670852D01*
X112937758Y-97634976D01*
X113098177Y-97586313D01*
X113223196Y-97574000D01*
X114106804Y-97574000D01*
X114231823Y-97586313D01*
G37*
G36*
X97721823Y-97586313D02*
G01*
X97882242Y-97634976D01*
X97949361Y-97670852D01*
X98030078Y-97713996D01*
X98159659Y-97820341D01*
X98266004Y-97949922D01*
X98266005Y-97949924D01*
X98345024Y-98097758D01*
X98393687Y-98258177D01*
X98410117Y-98425000D01*
X98393687Y-98591823D01*
X98345024Y-98752242D01*
X98304477Y-98828100D01*
X98266004Y-98900078D01*
X98159659Y-99029659D01*
X98030078Y-99136004D01*
X98030076Y-99136005D01*
X97882242Y-99215024D01*
X97721823Y-99263687D01*
X97596804Y-99276000D01*
X96713196Y-99276000D01*
X96588177Y-99263687D01*
X96427758Y-99215024D01*
X96279924Y-99136005D01*
X96279922Y-99136004D01*
X96150341Y-99029659D01*
X96043996Y-98900078D01*
X96005523Y-98828100D01*
X95964976Y-98752242D01*
X95916313Y-98591823D01*
X95899883Y-98425000D01*
X95916313Y-98258177D01*
X95964976Y-98097758D01*
X96043995Y-97949924D01*
X96043996Y-97949922D01*
X96150341Y-97820341D01*
X96279922Y-97713996D01*
X96360639Y-97670852D01*
X96427758Y-97634976D01*
X96588177Y-97586313D01*
X96713196Y-97574000D01*
X97596804Y-97574000D01*
X97721823Y-97586313D01*
G37*
G36*
X121851823Y-97586313D02*
G01*
X122012242Y-97634976D01*
X122079361Y-97670852D01*
X122160078Y-97713996D01*
X122289659Y-97820341D01*
X122396004Y-97949922D01*
X122396005Y-97949924D01*
X122475024Y-98097758D01*
X122523687Y-98258177D01*
X122540117Y-98425000D01*
X122523687Y-98591823D01*
X122475024Y-98752242D01*
X122434477Y-98828100D01*
X122396004Y-98900078D01*
X122289659Y-99029659D01*
X122160078Y-99136004D01*
X122160076Y-99136005D01*
X122012242Y-99215024D01*
X121851823Y-99263687D01*
X121726804Y-99276000D01*
X120843196Y-99276000D01*
X120718177Y-99263687D01*
X120557758Y-99215024D01*
X120409924Y-99136005D01*
X120409922Y-99136004D01*
X120280341Y-99029659D01*
X120173996Y-98900078D01*
X120135523Y-98828100D01*
X120094976Y-98752242D01*
X120046313Y-98591823D01*
X120029883Y-98425000D01*
X120046313Y-98258177D01*
X120094976Y-98097758D01*
X120173995Y-97949924D01*
X120173996Y-97949922D01*
X120280341Y-97820341D01*
X120409922Y-97713996D01*
X120490639Y-97670852D01*
X120557758Y-97634976D01*
X120718177Y-97586313D01*
X120843196Y-97574000D01*
X121726804Y-97574000D01*
X121851823Y-97586313D01*
G37*
G36*
X90101823Y-97586313D02*
G01*
X90262242Y-97634976D01*
X90329361Y-97670852D01*
X90410078Y-97713996D01*
X90539659Y-97820341D01*
X90646004Y-97949922D01*
X90646005Y-97949924D01*
X90725024Y-98097758D01*
X90773687Y-98258177D01*
X90790117Y-98425000D01*
X90773687Y-98591823D01*
X90725024Y-98752242D01*
X90684477Y-98828100D01*
X90646004Y-98900078D01*
X90539659Y-99029659D01*
X90410078Y-99136004D01*
X90410076Y-99136005D01*
X90262242Y-99215024D01*
X90101823Y-99263687D01*
X89976804Y-99276000D01*
X89093196Y-99276000D01*
X88968177Y-99263687D01*
X88807758Y-99215024D01*
X88659924Y-99136005D01*
X88659922Y-99136004D01*
X88530341Y-99029659D01*
X88423996Y-98900078D01*
X88385523Y-98828100D01*
X88344976Y-98752242D01*
X88296313Y-98591823D01*
X88279883Y-98425000D01*
X88296313Y-98258177D01*
X88344976Y-98097758D01*
X88423995Y-97949924D01*
X88423996Y-97949922D01*
X88530341Y-97820341D01*
X88659922Y-97713996D01*
X88740639Y-97670852D01*
X88807758Y-97634976D01*
X88968177Y-97586313D01*
X89093196Y-97574000D01*
X89976804Y-97574000D01*
X90101823Y-97586313D01*
G37*
G36*
X61208228Y-97606703D02*
G01*
X61363100Y-97670853D01*
X61502481Y-97763985D01*
X61621015Y-97882519D01*
X61714147Y-98021900D01*
X61778297Y-98176772D01*
X61811000Y-98341184D01*
X61811000Y-98508816D01*
X61778297Y-98673228D01*
X61714147Y-98828100D01*
X61621015Y-98967481D01*
X61502481Y-99086015D01*
X61363100Y-99179147D01*
X61208228Y-99243297D01*
X61043816Y-99276000D01*
X60876184Y-99276000D01*
X60711772Y-99243297D01*
X60556900Y-99179147D01*
X60417519Y-99086015D01*
X60298985Y-98967481D01*
X60205853Y-98828100D01*
X60141703Y-98673228D01*
X60109000Y-98508816D01*
X60109000Y-98341184D01*
X60141703Y-98176772D01*
X60205853Y-98021900D01*
X60298985Y-97882519D01*
X60417519Y-97763985D01*
X60556900Y-97670853D01*
X60711772Y-97606703D01*
X60876184Y-97574000D01*
X61043816Y-97574000D01*
X61208228Y-97606703D01*
G37*
G36*
X57398228Y-97606703D02*
G01*
X57553100Y-97670853D01*
X57692481Y-97763985D01*
X57811015Y-97882519D01*
X57904147Y-98021900D01*
X57968297Y-98176772D01*
X58001000Y-98341184D01*
X58001000Y-98508816D01*
X57968297Y-98673228D01*
X57904147Y-98828100D01*
X57811015Y-98967481D01*
X57692481Y-99086015D01*
X57553100Y-99179147D01*
X57398228Y-99243297D01*
X57233816Y-99276000D01*
X57066184Y-99276000D01*
X56901772Y-99243297D01*
X56746900Y-99179147D01*
X56607519Y-99086015D01*
X56488985Y-98967481D01*
X56395853Y-98828100D01*
X56331703Y-98673228D01*
X56299000Y-98508816D01*
X56299000Y-98341184D01*
X56331703Y-98176772D01*
X56395853Y-98021900D01*
X56488985Y-97882519D01*
X56607519Y-97763985D01*
X56746900Y-97670853D01*
X56901772Y-97606703D01*
X57066184Y-97574000D01*
X57233816Y-97574000D01*
X57398228Y-97606703D01*
G37*
G36*
X73591823Y-97586313D02*
G01*
X73752242Y-97634976D01*
X73819361Y-97670852D01*
X73900078Y-97713996D01*
X74029659Y-97820341D01*
X74136004Y-97949922D01*
X74136005Y-97949924D01*
X74215024Y-98097758D01*
X74263687Y-98258177D01*
X74280117Y-98425000D01*
X74263687Y-98591823D01*
X74215024Y-98752242D01*
X74174477Y-98828100D01*
X74136004Y-98900078D01*
X74029659Y-99029659D01*
X73900078Y-99136004D01*
X73900076Y-99136005D01*
X73752242Y-99215024D01*
X73591823Y-99263687D01*
X73466804Y-99276000D01*
X72583196Y-99276000D01*
X72458177Y-99263687D01*
X72297758Y-99215024D01*
X72149924Y-99136005D01*
X72149922Y-99136004D01*
X72020341Y-99029659D01*
X71913996Y-98900078D01*
X71875523Y-98828100D01*
X71834976Y-98752242D01*
X71786313Y-98591823D01*
X71769883Y-98425000D01*
X71786313Y-98258177D01*
X71834976Y-98097758D01*
X71913995Y-97949924D01*
X71913996Y-97949922D01*
X72020341Y-97820341D01*
X72149922Y-97713996D01*
X72230639Y-97670852D01*
X72297758Y-97634976D01*
X72458177Y-97586313D01*
X72583196Y-97574000D01*
X73466804Y-97574000D01*
X73591823Y-97586313D01*
G37*
G36*
X105658228Y-97606703D02*
G01*
X105813100Y-97670853D01*
X105952481Y-97763985D01*
X106071015Y-97882519D01*
X106164147Y-98021900D01*
X106228297Y-98176772D01*
X106261000Y-98341184D01*
X106261000Y-98508816D01*
X106228297Y-98673228D01*
X106164147Y-98828100D01*
X106071015Y-98967481D01*
X105952481Y-99086015D01*
X105813100Y-99179147D01*
X105658228Y-99243297D01*
X105493816Y-99276000D01*
X105326184Y-99276000D01*
X105161772Y-99243297D01*
X105006900Y-99179147D01*
X104867519Y-99086015D01*
X104748985Y-98967481D01*
X104655853Y-98828100D01*
X104591703Y-98673228D01*
X104559000Y-98508816D01*
X104559000Y-98341184D01*
X104591703Y-98176772D01*
X104655853Y-98021900D01*
X104748985Y-97882519D01*
X104867519Y-97763985D01*
X105006900Y-97670853D01*
X105161772Y-97606703D01*
X105326184Y-97574000D01*
X105493816Y-97574000D01*
X105658228Y-97606703D01*
G37*
G36*
X109468228Y-97606703D02*
G01*
X109623100Y-97670853D01*
X109762481Y-97763985D01*
X109881015Y-97882519D01*
X109974147Y-98021900D01*
X110038297Y-98176772D01*
X110071000Y-98341184D01*
X110071000Y-98508816D01*
X110038297Y-98673228D01*
X109974147Y-98828100D01*
X109881015Y-98967481D01*
X109762481Y-99086015D01*
X109623100Y-99179147D01*
X109468228Y-99243297D01*
X109303816Y-99276000D01*
X109136184Y-99276000D01*
X108971772Y-99243297D01*
X108816900Y-99179147D01*
X108677519Y-99086015D01*
X108558985Y-98967481D01*
X108465853Y-98828100D01*
X108401703Y-98673228D01*
X108369000Y-98508816D01*
X108369000Y-98341184D01*
X108401703Y-98176772D01*
X108465853Y-98021900D01*
X108558985Y-97882519D01*
X108677519Y-97763985D01*
X108816900Y-97670853D01*
X108971772Y-97606703D01*
X109136184Y-97574000D01*
X109303816Y-97574000D01*
X109468228Y-97606703D01*
G37*
G36*
X65971823Y-97586313D02*
G01*
X66132242Y-97634976D01*
X66199361Y-97670852D01*
X66280078Y-97713996D01*
X66409659Y-97820341D01*
X66516004Y-97949922D01*
X66516005Y-97949924D01*
X66595024Y-98097758D01*
X66643687Y-98258177D01*
X66660117Y-98425000D01*
X66643687Y-98591823D01*
X66595024Y-98752242D01*
X66554477Y-98828100D01*
X66516004Y-98900078D01*
X66409659Y-99029659D01*
X66280078Y-99136004D01*
X66280076Y-99136005D01*
X66132242Y-99215024D01*
X65971823Y-99263687D01*
X65846804Y-99276000D01*
X64963196Y-99276000D01*
X64838177Y-99263687D01*
X64677758Y-99215024D01*
X64529924Y-99136005D01*
X64529922Y-99136004D01*
X64400341Y-99029659D01*
X64293996Y-98900078D01*
X64255523Y-98828100D01*
X64214976Y-98752242D01*
X64166313Y-98591823D01*
X64149883Y-98425000D01*
X64166313Y-98258177D01*
X64214976Y-98097758D01*
X64293995Y-97949924D01*
X64293996Y-97949922D01*
X64400341Y-97820341D01*
X64529922Y-97713996D01*
X64610639Y-97670852D01*
X64677758Y-97634976D01*
X64838177Y-97586313D01*
X64963196Y-97574000D01*
X65846804Y-97574000D01*
X65971823Y-97586313D01*
G37*
G36*
X109468228Y-95106703D02*
G01*
X109623100Y-95170853D01*
X109762481Y-95263985D01*
X109881015Y-95382519D01*
X109974147Y-95521900D01*
X110038297Y-95676772D01*
X110071000Y-95841184D01*
X110071000Y-96008816D01*
X110038297Y-96173228D01*
X109974147Y-96328100D01*
X109881015Y-96467481D01*
X109762481Y-96586015D01*
X109623100Y-96679147D01*
X109468228Y-96743297D01*
X109303816Y-96776000D01*
X109136184Y-96776000D01*
X108971772Y-96743297D01*
X108816900Y-96679147D01*
X108677519Y-96586015D01*
X108558985Y-96467481D01*
X108465853Y-96328100D01*
X108401703Y-96173228D01*
X108369000Y-96008816D01*
X108369000Y-95841184D01*
X108401703Y-95676772D01*
X108465853Y-95521900D01*
X108558985Y-95382519D01*
X108677519Y-95263985D01*
X108816900Y-95170853D01*
X108971772Y-95106703D01*
X109136184Y-95074000D01*
X109303816Y-95074000D01*
X109468228Y-95106703D01*
G37*
G36*
X61208228Y-95106703D02*
G01*
X61363100Y-95170853D01*
X61502481Y-95263985D01*
X61621015Y-95382519D01*
X61714147Y-95521900D01*
X61778297Y-95676772D01*
X61811000Y-95841184D01*
X61811000Y-96008816D01*
X61778297Y-96173228D01*
X61714147Y-96328100D01*
X61621015Y-96467481D01*
X61502481Y-96586015D01*
X61363100Y-96679147D01*
X61208228Y-96743297D01*
X61043816Y-96776000D01*
X60876184Y-96776000D01*
X60711772Y-96743297D01*
X60556900Y-96679147D01*
X60417519Y-96586015D01*
X60298985Y-96467481D01*
X60205853Y-96328100D01*
X60141703Y-96173228D01*
X60109000Y-96008816D01*
X60109000Y-95841184D01*
X60141703Y-95676772D01*
X60205853Y-95521900D01*
X60298985Y-95382519D01*
X60417519Y-95263985D01*
X60556900Y-95170853D01*
X60711772Y-95106703D01*
X60876184Y-95074000D01*
X61043816Y-95074000D01*
X61208228Y-95106703D01*
G37*
G36*
X85338228Y-95106703D02*
G01*
X85493100Y-95170853D01*
X85632481Y-95263985D01*
X85751015Y-95382519D01*
X85844147Y-95521900D01*
X85908297Y-95676772D01*
X85941000Y-95841184D01*
X85941000Y-96008816D01*
X85908297Y-96173228D01*
X85844147Y-96328100D01*
X85751015Y-96467481D01*
X85632481Y-96586015D01*
X85493100Y-96679147D01*
X85338228Y-96743297D01*
X85173816Y-96776000D01*
X85006184Y-96776000D01*
X84841772Y-96743297D01*
X84686900Y-96679147D01*
X84547519Y-96586015D01*
X84428985Y-96467481D01*
X84335853Y-96328100D01*
X84271703Y-96173228D01*
X84239000Y-96008816D01*
X84239000Y-95841184D01*
X84271703Y-95676772D01*
X84335853Y-95521900D01*
X84428985Y-95382519D01*
X84547519Y-95263985D01*
X84686900Y-95170853D01*
X84841772Y-95106703D01*
X85006184Y-95074000D01*
X85173816Y-95074000D01*
X85338228Y-95106703D01*
G37*
G36*
X82131000Y-92291000D02*
G01*
X80429000Y-92291000D01*
X80429000Y-90589000D01*
X82131000Y-90589000D01*
X82131000Y-92291000D01*
G37*
G36*
X115131720Y-89768520D02*
G01*
X115320881Y-89825901D01*
X115495212Y-89919083D01*
X115648015Y-90044485D01*
X115773417Y-90197288D01*
X115808284Y-90262520D01*
X115866598Y-90371617D01*
X115866599Y-90371620D01*
X115923980Y-90560781D01*
X115938500Y-90708207D01*
X115938500Y-90901794D01*
X115923980Y-91049220D01*
X115866599Y-91238381D01*
X115773417Y-91412712D01*
X115648015Y-91565515D01*
X115495212Y-91690917D01*
X115413333Y-91734682D01*
X115320883Y-91784098D01*
X115320880Y-91784099D01*
X115131719Y-91841480D01*
X114935000Y-91860855D01*
X114738280Y-91841480D01*
X114549119Y-91784099D01*
X114374788Y-91690917D01*
X114221985Y-91565515D01*
X114096583Y-91412712D01*
X114052818Y-91330833D01*
X114003402Y-91238383D01*
X113994215Y-91208097D01*
X113946020Y-91049219D01*
X113931500Y-90901793D01*
X113931500Y-90708206D01*
X113946020Y-90560780D01*
X114003401Y-90371619D01*
X114096583Y-90197288D01*
X114221985Y-90044485D01*
X114374788Y-89919083D01*
X114549120Y-89825901D01*
X114738281Y-89768520D01*
X114935000Y-89749145D01*
X115131720Y-89768520D01*
G37*
G36*
X69411720Y-89768520D02*
G01*
X69600881Y-89825901D01*
X69775212Y-89919083D01*
X69928015Y-90044485D01*
X70053417Y-90197288D01*
X70088284Y-90262520D01*
X70146598Y-90371617D01*
X70146599Y-90371620D01*
X70203980Y-90560781D01*
X70218500Y-90708207D01*
X70218500Y-90901794D01*
X70203980Y-91049220D01*
X70146599Y-91238381D01*
X70053417Y-91412712D01*
X69928015Y-91565515D01*
X69775212Y-91690917D01*
X69693333Y-91734682D01*
X69600883Y-91784098D01*
X69600880Y-91784099D01*
X69411719Y-91841480D01*
X69215000Y-91860855D01*
X69018280Y-91841480D01*
X68829119Y-91784099D01*
X68654788Y-91690917D01*
X68501985Y-91565515D01*
X68376583Y-91412712D01*
X68332818Y-91330833D01*
X68283402Y-91238383D01*
X68274215Y-91208097D01*
X68226020Y-91049219D01*
X68211500Y-90901793D01*
X68211500Y-90708206D01*
X68226020Y-90560780D01*
X68283401Y-90371619D01*
X68376583Y-90197288D01*
X68501985Y-90044485D01*
X68654788Y-89919083D01*
X68829120Y-89825901D01*
X69018281Y-89768520D01*
X69215000Y-89749145D01*
X69411720Y-89768520D01*
G37*
G36*
X117671720Y-89768520D02*
G01*
X117860881Y-89825901D01*
X118035212Y-89919083D01*
X118188015Y-90044485D01*
X118313417Y-90197288D01*
X118348284Y-90262520D01*
X118406598Y-90371617D01*
X118406599Y-90371620D01*
X118463980Y-90560781D01*
X118478500Y-90708207D01*
X118478500Y-90901794D01*
X118463980Y-91049220D01*
X118406599Y-91238381D01*
X118313417Y-91412712D01*
X118188015Y-91565515D01*
X118035212Y-91690917D01*
X117953333Y-91734682D01*
X117860883Y-91784098D01*
X117860880Y-91784099D01*
X117671719Y-91841480D01*
X117475000Y-91860855D01*
X117278280Y-91841480D01*
X117089119Y-91784099D01*
X116914788Y-91690917D01*
X116761985Y-91565515D01*
X116636583Y-91412712D01*
X116592818Y-91330833D01*
X116543402Y-91238383D01*
X116534215Y-91208097D01*
X116486020Y-91049219D01*
X116471500Y-90901793D01*
X116471500Y-90708206D01*
X116486020Y-90560780D01*
X116543401Y-90371619D01*
X116636583Y-90197288D01*
X116761985Y-90044485D01*
X116914788Y-89919083D01*
X117089120Y-89825901D01*
X117278281Y-89768520D01*
X117475000Y-89749145D01*
X117671720Y-89768520D01*
G37*
G36*
X93541720Y-89768520D02*
G01*
X93730881Y-89825901D01*
X93905212Y-89919083D01*
X94058015Y-90044485D01*
X94183417Y-90197288D01*
X94218284Y-90262520D01*
X94276598Y-90371617D01*
X94276599Y-90371620D01*
X94333980Y-90560781D01*
X94348500Y-90708207D01*
X94348500Y-90901794D01*
X94333980Y-91049220D01*
X94276599Y-91238381D01*
X94183417Y-91412712D01*
X94058015Y-91565515D01*
X93905212Y-91690917D01*
X93823333Y-91734682D01*
X93730883Y-91784098D01*
X93730880Y-91784099D01*
X93541719Y-91841480D01*
X93345000Y-91860855D01*
X93148280Y-91841480D01*
X92959119Y-91784099D01*
X92784788Y-91690917D01*
X92631985Y-91565515D01*
X92506583Y-91412712D01*
X92462818Y-91330833D01*
X92413402Y-91238383D01*
X92404215Y-91208097D01*
X92356020Y-91049219D01*
X92341500Y-90901793D01*
X92341500Y-90708206D01*
X92356020Y-90560780D01*
X92413401Y-90371619D01*
X92506583Y-90197288D01*
X92631985Y-90044485D01*
X92784788Y-89919083D01*
X92959120Y-89825901D01*
X93148281Y-89768520D01*
X93345000Y-89749145D01*
X93541720Y-89768520D01*
G37*
G36*
X91001720Y-89768520D02*
G01*
X91190881Y-89825901D01*
X91365212Y-89919083D01*
X91518015Y-90044485D01*
X91643417Y-90197288D01*
X91678284Y-90262520D01*
X91736598Y-90371617D01*
X91736599Y-90371620D01*
X91793980Y-90560781D01*
X91808500Y-90708207D01*
X91808500Y-90901794D01*
X91793980Y-91049220D01*
X91736599Y-91238381D01*
X91643417Y-91412712D01*
X91518015Y-91565515D01*
X91365212Y-91690917D01*
X91283333Y-91734682D01*
X91190883Y-91784098D01*
X91190880Y-91784099D01*
X91001719Y-91841480D01*
X90805000Y-91860855D01*
X90608280Y-91841480D01*
X90419119Y-91784099D01*
X90244788Y-91690917D01*
X90091985Y-91565515D01*
X89966583Y-91412712D01*
X89922818Y-91330833D01*
X89873402Y-91238383D01*
X89864215Y-91208097D01*
X89816020Y-91049219D01*
X89801500Y-90901793D01*
X89801500Y-90708206D01*
X89816020Y-90560780D01*
X89873401Y-90371619D01*
X89966583Y-90197288D01*
X90091985Y-90044485D01*
X90244788Y-89919083D01*
X90419120Y-89825901D01*
X90608281Y-89768520D01*
X90805000Y-89749145D01*
X91001720Y-89768520D01*
G37*
G36*
X66871720Y-89768520D02*
G01*
X67060881Y-89825901D01*
X67235212Y-89919083D01*
X67388015Y-90044485D01*
X67513417Y-90197288D01*
X67548284Y-90262520D01*
X67606598Y-90371617D01*
X67606599Y-90371620D01*
X67663980Y-90560781D01*
X67678500Y-90708207D01*
X67678500Y-90901794D01*
X67663980Y-91049220D01*
X67606599Y-91238381D01*
X67513417Y-91412712D01*
X67388015Y-91565515D01*
X67235212Y-91690917D01*
X67153333Y-91734682D01*
X67060883Y-91784098D01*
X67060880Y-91784099D01*
X66871719Y-91841480D01*
X66675000Y-91860855D01*
X66478280Y-91841480D01*
X66289119Y-91784099D01*
X66114788Y-91690917D01*
X65961985Y-91565515D01*
X65836583Y-91412712D01*
X65792818Y-91330833D01*
X65743402Y-91238383D01*
X65734215Y-91208097D01*
X65686020Y-91049219D01*
X65671500Y-90901793D01*
X65671500Y-90708206D01*
X65686020Y-90560780D01*
X65743401Y-90371619D01*
X65836583Y-90197288D01*
X65961985Y-90044485D01*
X66114788Y-89919083D01*
X66289120Y-89825901D01*
X66478281Y-89768520D01*
X66675000Y-89749145D01*
X66871720Y-89768520D01*
G37*
G36*
X72758500Y-91856000D02*
G01*
X70751500Y-91856000D01*
X70751500Y-89754000D01*
X72758500Y-89754000D01*
X72758500Y-91856000D01*
G37*
G36*
X121018500Y-91856000D02*
G01*
X119011500Y-91856000D01*
X119011500Y-89754000D01*
X121018500Y-89754000D01*
X121018500Y-91856000D01*
G37*
G36*
X96888500Y-91856000D02*
G01*
X94881500Y-91856000D01*
X94881500Y-89754000D01*
X96888500Y-89754000D01*
X96888500Y-91856000D01*
G37*
G36*
X77718228Y-89986703D02*
G01*
X77873100Y-90050853D01*
X78012481Y-90143985D01*
X78131015Y-90262519D01*
X78224147Y-90401900D01*
X78288297Y-90556772D01*
X78321000Y-90721184D01*
X78321000Y-90888816D01*
X78288297Y-91053228D01*
X78224147Y-91208100D01*
X78131015Y-91347481D01*
X78012481Y-91466015D01*
X77873100Y-91559147D01*
X77718228Y-91623297D01*
X77553816Y-91656000D01*
X77386184Y-91656000D01*
X77221772Y-91623297D01*
X77066900Y-91559147D01*
X76927519Y-91466015D01*
X76808985Y-91347481D01*
X76715853Y-91208100D01*
X76651703Y-91053228D01*
X76619000Y-90888816D01*
X76619000Y-90721184D01*
X76651703Y-90556772D01*
X76715853Y-90401900D01*
X76808985Y-90262519D01*
X76927519Y-90143985D01*
X77066900Y-90050853D01*
X77221772Y-89986703D01*
X77386184Y-89954000D01*
X77553816Y-89954000D01*
X77718228Y-89986703D01*
G37*
G36*
X101848228Y-89986703D02*
G01*
X102003100Y-90050853D01*
X102142481Y-90143985D01*
X102261015Y-90262519D01*
X102354147Y-90401900D01*
X102418297Y-90556772D01*
X102451000Y-90721184D01*
X102451000Y-90888816D01*
X102418297Y-91053228D01*
X102354147Y-91208100D01*
X102261015Y-91347481D01*
X102142481Y-91466015D01*
X102003100Y-91559147D01*
X101848228Y-91623297D01*
X101683816Y-91656000D01*
X101516184Y-91656000D01*
X101351772Y-91623297D01*
X101196900Y-91559147D01*
X101057519Y-91466015D01*
X100938985Y-91347481D01*
X100845853Y-91208100D01*
X100781703Y-91053228D01*
X100749000Y-90888816D01*
X100749000Y-90721184D01*
X100781703Y-90556772D01*
X100845853Y-90401900D01*
X100938985Y-90262519D01*
X101057519Y-90143985D01*
X101196900Y-90050853D01*
X101351772Y-89986703D01*
X101516184Y-89954000D01*
X101683816Y-89954000D01*
X101848228Y-89986703D01*
G37*
G36*
X125978228Y-89986703D02*
G01*
X126133100Y-90050853D01*
X126272481Y-90143985D01*
X126391015Y-90262519D01*
X126484147Y-90401900D01*
X126548297Y-90556772D01*
X126581000Y-90721184D01*
X126581000Y-90888816D01*
X126548297Y-91053228D01*
X126484147Y-91208100D01*
X126391015Y-91347481D01*
X126272481Y-91466015D01*
X126133100Y-91559147D01*
X125978228Y-91623297D01*
X125813816Y-91656000D01*
X125646184Y-91656000D01*
X125481772Y-91623297D01*
X125326900Y-91559147D01*
X125187519Y-91466015D01*
X125068985Y-91347481D01*
X124975853Y-91208100D01*
X124911703Y-91053228D01*
X124879000Y-90888816D01*
X124879000Y-90721184D01*
X124911703Y-90556772D01*
X124975853Y-90401900D01*
X125068985Y-90262519D01*
X125187519Y-90143985D01*
X125326900Y-90050853D01*
X125481772Y-89986703D01*
X125646184Y-89954000D01*
X125813816Y-89954000D01*
X125978228Y-89986703D01*
G37*
G36*
X106261000Y-91656000D02*
G01*
X104559000Y-91656000D01*
X104559000Y-89954000D01*
X106261000Y-89954000D01*
X106261000Y-91656000D01*
G37*
G36*
X58001000Y-91656000D02*
G01*
X56299000Y-91656000D01*
X56299000Y-89954000D01*
X58001000Y-89954000D01*
X58001000Y-91656000D01*
G37*
G36*
X58740345Y-86078442D02*
G01*
X58830548Y-86087326D01*
X59004157Y-86139990D01*
X59164156Y-86225511D01*
X59207729Y-86261271D01*
X59304397Y-86340603D01*
X59383729Y-86437271D01*
X59419489Y-86480844D01*
X59505010Y-86640843D01*
X59557674Y-86814452D01*
X59575456Y-86995000D01*
X59557674Y-87175548D01*
X59505010Y-87349157D01*
X59419489Y-87509156D01*
X59383729Y-87552729D01*
X59304397Y-87649397D01*
X59207729Y-87728729D01*
X59164156Y-87764489D01*
X59004157Y-87850010D01*
X58830548Y-87902674D01*
X58740345Y-87911558D01*
X58695245Y-87916000D01*
X58144755Y-87916000D01*
X58099655Y-87911558D01*
X58009452Y-87902674D01*
X57835843Y-87850010D01*
X57675844Y-87764489D01*
X57632271Y-87728729D01*
X57535603Y-87649397D01*
X57456271Y-87552729D01*
X57420511Y-87509156D01*
X57334990Y-87349157D01*
X57282326Y-87175548D01*
X57264544Y-86995000D01*
X57282326Y-86814452D01*
X57334990Y-86640843D01*
X57420511Y-86480844D01*
X57456271Y-86437271D01*
X57535603Y-86340603D01*
X57632271Y-86261271D01*
X57675844Y-86225511D01*
X57835843Y-86139990D01*
X58009452Y-86087326D01*
X58099655Y-86078442D01*
X58144755Y-86074000D01*
X58695245Y-86074000D01*
X58740345Y-86078442D01*
G37*
G36*
X83560256Y-84116298D02*
G01*
X83666579Y-84137447D01*
X83967042Y-84261903D01*
X84237451Y-84442585D01*
X84467415Y-84672549D01*
X84648097Y-84942958D01*
X84772553Y-85243421D01*
X84777319Y-85267383D01*
X84835803Y-85561398D01*
X84836000Y-85562391D01*
X84836000Y-85887609D01*
X84772553Y-86206579D01*
X84648097Y-86507042D01*
X84467415Y-86777451D01*
X84237451Y-87007415D01*
X83967042Y-87188097D01*
X83666579Y-87312553D01*
X83560256Y-87333702D01*
X83347611Y-87376000D01*
X83022389Y-87376000D01*
X82809744Y-87333702D01*
X82703421Y-87312553D01*
X82402958Y-87188097D01*
X82132549Y-87007415D01*
X81902585Y-86777451D01*
X81721903Y-86507042D01*
X81597447Y-86206579D01*
X81534000Y-85887609D01*
X81534000Y-85562391D01*
X81534198Y-85561398D01*
X81592681Y-85267383D01*
X81597447Y-85243421D01*
X81721903Y-84942958D01*
X81902585Y-84672549D01*
X82132549Y-84442585D01*
X82402958Y-84261903D01*
X82703421Y-84137447D01*
X82809744Y-84116298D01*
X83022389Y-84074000D01*
X83347611Y-84074000D01*
X83560256Y-84116298D01*
G37*
G36*
X107690256Y-84116298D02*
G01*
X107796579Y-84137447D01*
X108097042Y-84261903D01*
X108367451Y-84442585D01*
X108597415Y-84672549D01*
X108778097Y-84942958D01*
X108902553Y-85243421D01*
X108907319Y-85267383D01*
X108965803Y-85561398D01*
X108966000Y-85562391D01*
X108966000Y-85887609D01*
X108902553Y-86206579D01*
X108778097Y-86507042D01*
X108597415Y-86777451D01*
X108367451Y-87007415D01*
X108097042Y-87188097D01*
X107796579Y-87312553D01*
X107690256Y-87333702D01*
X107477611Y-87376000D01*
X107152389Y-87376000D01*
X106939744Y-87333702D01*
X106833421Y-87312553D01*
X106532958Y-87188097D01*
X106262549Y-87007415D01*
X106032585Y-86777451D01*
X105851903Y-86507042D01*
X105727447Y-86206579D01*
X105664000Y-85887609D01*
X105664000Y-85562391D01*
X105664198Y-85561398D01*
X105722681Y-85267383D01*
X105727447Y-85243421D01*
X105851903Y-84942958D01*
X106032585Y-84672549D01*
X106262549Y-84442585D01*
X106532958Y-84261903D01*
X106833421Y-84137447D01*
X106939744Y-84116298D01*
X107152389Y-84074000D01*
X107477611Y-84074000D01*
X107690256Y-84116298D01*
G37*
G36*
X74475548Y-83317326D02*
G01*
X74649157Y-83369990D01*
X74809156Y-83455511D01*
X74823612Y-83467375D01*
X74949397Y-83570603D01*
X75015885Y-83651620D01*
X75064489Y-83710844D01*
X75150010Y-83870843D01*
X75202674Y-84044452D01*
X75216000Y-84179757D01*
X75216000Y-84730244D01*
X75202674Y-84865548D01*
X75150010Y-85039157D01*
X75064489Y-85199156D01*
X75028729Y-85242729D01*
X74949397Y-85339397D01*
X74809155Y-85454489D01*
X74649156Y-85540010D01*
X74475547Y-85592674D01*
X74295000Y-85610456D01*
X74114452Y-85592674D01*
X73940843Y-85540010D01*
X73780844Y-85454489D01*
X73737271Y-85418729D01*
X73640603Y-85339397D01*
X73525511Y-85199155D01*
X73439991Y-85039158D01*
X73427348Y-84997480D01*
X73387326Y-84865547D01*
X73374000Y-84730243D01*
X73374000Y-84179756D01*
X73387326Y-84044452D01*
X73439990Y-83870843D01*
X73525512Y-83710844D01*
X73574116Y-83651620D01*
X73640604Y-83570603D01*
X73766389Y-83467375D01*
X73780845Y-83455511D01*
X73940844Y-83369990D01*
X74114453Y-83317326D01*
X74295000Y-83299544D01*
X74475548Y-83317326D01*
G37*
G36*
X122735548Y-83317326D02*
G01*
X122909157Y-83369990D01*
X123069156Y-83455511D01*
X123083612Y-83467375D01*
X123209397Y-83570603D01*
X123275885Y-83651620D01*
X123324489Y-83710844D01*
X123410010Y-83870843D01*
X123462674Y-84044452D01*
X123476000Y-84179757D01*
X123476000Y-84730244D01*
X123462674Y-84865548D01*
X123410010Y-85039157D01*
X123324489Y-85199156D01*
X123288729Y-85242729D01*
X123209397Y-85339397D01*
X123069155Y-85454489D01*
X122909156Y-85540010D01*
X122735547Y-85592674D01*
X122555000Y-85610456D01*
X122374452Y-85592674D01*
X122200843Y-85540010D01*
X122040844Y-85454489D01*
X121997271Y-85418729D01*
X121900603Y-85339397D01*
X121785511Y-85199155D01*
X121699991Y-85039158D01*
X121687348Y-84997480D01*
X121647326Y-84865547D01*
X121634000Y-84730243D01*
X121634000Y-84179756D01*
X121647326Y-84044452D01*
X121699990Y-83870843D01*
X121785512Y-83710844D01*
X121834116Y-83651620D01*
X121900604Y-83570603D01*
X122026389Y-83467375D01*
X122040845Y-83455511D01*
X122200844Y-83369990D01*
X122374453Y-83317326D01*
X122555000Y-83299544D01*
X122735548Y-83317326D01*
G37*
G36*
X98605548Y-83317326D02*
G01*
X98779157Y-83369990D01*
X98939156Y-83455511D01*
X98953612Y-83467375D01*
X99079397Y-83570603D01*
X99145885Y-83651620D01*
X99194489Y-83710844D01*
X99280010Y-83870843D01*
X99332674Y-84044452D01*
X99346000Y-84179757D01*
X99346000Y-84730244D01*
X99332674Y-84865548D01*
X99280010Y-85039157D01*
X99194489Y-85199156D01*
X99158729Y-85242729D01*
X99079397Y-85339397D01*
X98939155Y-85454489D01*
X98779156Y-85540010D01*
X98605547Y-85592674D01*
X98425000Y-85610456D01*
X98244452Y-85592674D01*
X98070843Y-85540010D01*
X97910844Y-85454489D01*
X97867271Y-85418729D01*
X97770603Y-85339397D01*
X97655511Y-85199155D01*
X97569991Y-85039158D01*
X97557348Y-84997480D01*
X97517326Y-84865547D01*
X97504000Y-84730243D01*
X97504000Y-84179756D01*
X97517326Y-84044452D01*
X97569990Y-83870843D01*
X97655512Y-83710844D01*
X97704116Y-83651620D01*
X97770604Y-83570603D01*
X97896389Y-83467375D01*
X97910845Y-83455511D01*
X98070844Y-83369990D01*
X98244453Y-83317326D01*
X98425000Y-83299544D01*
X98605548Y-83317326D01*
G37*
G36*
X125874561Y-83307966D02*
G01*
X125907383Y-83317923D01*
X125937632Y-83334092D01*
X125964148Y-83355852D01*
X125985908Y-83382368D01*
X126002077Y-83412617D01*
X126012034Y-83445439D01*
X126016000Y-83485713D01*
X126016000Y-85424287D01*
X126012034Y-85464561D01*
X126002077Y-85497383D01*
X125985908Y-85527632D01*
X125964148Y-85554148D01*
X125937632Y-85575908D01*
X125907383Y-85592077D01*
X125874561Y-85602034D01*
X125834287Y-85606000D01*
X124355713Y-85606000D01*
X124315439Y-85602034D01*
X124282617Y-85592077D01*
X124252368Y-85575908D01*
X124225852Y-85554148D01*
X124204092Y-85527632D01*
X124187923Y-85497383D01*
X124177966Y-85464561D01*
X124174000Y-85424287D01*
X124174000Y-83485713D01*
X124177966Y-83445439D01*
X124187923Y-83412617D01*
X124204092Y-83382368D01*
X124225852Y-83355852D01*
X124252368Y-83334092D01*
X124282617Y-83317923D01*
X124315439Y-83307966D01*
X124355713Y-83304000D01*
X125834287Y-83304000D01*
X125874561Y-83307966D01*
G37*
G36*
X101744561Y-83307966D02*
G01*
X101777383Y-83317923D01*
X101807632Y-83334092D01*
X101834148Y-83355852D01*
X101855908Y-83382368D01*
X101872077Y-83412617D01*
X101882034Y-83445439D01*
X101886000Y-83485713D01*
X101886000Y-85424287D01*
X101882034Y-85464561D01*
X101872077Y-85497383D01*
X101855908Y-85527632D01*
X101834148Y-85554148D01*
X101807632Y-85575908D01*
X101777383Y-85592077D01*
X101744561Y-85602034D01*
X101704287Y-85606000D01*
X100225713Y-85606000D01*
X100185439Y-85602034D01*
X100152617Y-85592077D01*
X100122368Y-85575908D01*
X100095852Y-85554148D01*
X100074092Y-85527632D01*
X100057923Y-85497383D01*
X100047966Y-85464561D01*
X100044000Y-85424287D01*
X100044000Y-83485713D01*
X100047966Y-83445439D01*
X100057923Y-83412617D01*
X100074092Y-83382368D01*
X100095852Y-83355852D01*
X100122368Y-83334092D01*
X100152617Y-83317923D01*
X100185439Y-83307966D01*
X100225713Y-83304000D01*
X101704287Y-83304000D01*
X101744561Y-83307966D01*
G37*
G36*
X77614561Y-83307966D02*
G01*
X77647383Y-83317923D01*
X77677632Y-83334092D01*
X77704148Y-83355852D01*
X77725908Y-83382368D01*
X77742077Y-83412617D01*
X77752034Y-83445439D01*
X77756000Y-83485713D01*
X77756000Y-85424287D01*
X77752034Y-85464561D01*
X77742077Y-85497383D01*
X77725908Y-85527632D01*
X77704148Y-85554148D01*
X77677632Y-85575908D01*
X77647383Y-85592077D01*
X77614561Y-85602034D01*
X77574287Y-85606000D01*
X76095713Y-85606000D01*
X76055439Y-85602034D01*
X76022617Y-85592077D01*
X75992368Y-85575908D01*
X75965852Y-85554148D01*
X75944092Y-85527632D01*
X75927923Y-85497383D01*
X75917966Y-85464561D01*
X75914000Y-85424287D01*
X75914000Y-83485713D01*
X75917966Y-83445439D01*
X75927923Y-83412617D01*
X75944092Y-83382368D01*
X75965852Y-83355852D01*
X75992368Y-83334092D01*
X76022617Y-83317923D01*
X76055439Y-83307966D01*
X76095713Y-83304000D01*
X77574287Y-83304000D01*
X77614561Y-83307966D01*
G37*
G36*
X59429561Y-83537966D02*
G01*
X59462383Y-83547923D01*
X59492632Y-83564092D01*
X59519148Y-83585852D01*
X59540908Y-83612368D01*
X59557077Y-83642617D01*
X59567034Y-83675439D01*
X59571000Y-83715713D01*
X59571000Y-85194287D01*
X59567034Y-85234561D01*
X59557077Y-85267383D01*
X59540908Y-85297632D01*
X59519148Y-85324148D01*
X59492632Y-85345908D01*
X59462383Y-85362077D01*
X59429561Y-85372034D01*
X59389287Y-85376000D01*
X57450713Y-85376000D01*
X57410439Y-85372034D01*
X57377617Y-85362077D01*
X57347368Y-85345908D01*
X57320852Y-85324148D01*
X57299092Y-85297632D01*
X57282923Y-85267383D01*
X57272966Y-85234561D01*
X57269000Y-85194287D01*
X57269000Y-83715713D01*
X57272966Y-83675439D01*
X57282923Y-83642617D01*
X57299092Y-83612368D01*
X57320852Y-83585852D01*
X57347368Y-83564092D01*
X57377617Y-83547923D01*
X57410439Y-83537966D01*
X57450713Y-83534000D01*
X59389287Y-83534000D01*
X59429561Y-83537966D01*
G37*
G36*
X117723228Y-83636703D02*
G01*
X117878100Y-83700853D01*
X118017481Y-83793985D01*
X118136015Y-83912519D01*
X118229147Y-84051900D01*
X118293297Y-84206772D01*
X118326000Y-84371184D01*
X118326000Y-84538816D01*
X118293297Y-84703228D01*
X118229147Y-84858100D01*
X118136015Y-84997481D01*
X118017481Y-85116015D01*
X117878100Y-85209147D01*
X117723228Y-85273297D01*
X117558816Y-85306000D01*
X117391184Y-85306000D01*
X117226772Y-85273297D01*
X117071900Y-85209147D01*
X116932519Y-85116015D01*
X116813985Y-84997481D01*
X116720853Y-84858100D01*
X116656703Y-84703228D01*
X116624000Y-84538816D01*
X116624000Y-84371184D01*
X116656703Y-84206772D01*
X116720853Y-84051900D01*
X116813985Y-83912519D01*
X116932519Y-83793985D01*
X117071900Y-83700853D01*
X117226772Y-83636703D01*
X117391184Y-83604000D01*
X117558816Y-83604000D01*
X117723228Y-83636703D01*
G37*
G36*
X69463228Y-83636703D02*
G01*
X69618100Y-83700853D01*
X69757481Y-83793985D01*
X69876015Y-83912519D01*
X69969147Y-84051900D01*
X70033297Y-84206772D01*
X70066000Y-84371184D01*
X70066000Y-84538816D01*
X70033297Y-84703228D01*
X69969147Y-84858100D01*
X69876015Y-84997481D01*
X69757481Y-85116015D01*
X69618100Y-85209147D01*
X69463228Y-85273297D01*
X69298816Y-85306000D01*
X69131184Y-85306000D01*
X68966772Y-85273297D01*
X68811900Y-85209147D01*
X68672519Y-85116015D01*
X68553985Y-84997481D01*
X68460853Y-84858100D01*
X68396703Y-84703228D01*
X68364000Y-84538816D01*
X68364000Y-84371184D01*
X68396703Y-84206772D01*
X68460853Y-84051900D01*
X68553985Y-83912519D01*
X68672519Y-83793985D01*
X68811900Y-83700853D01*
X68966772Y-83636703D01*
X69131184Y-83604000D01*
X69298816Y-83604000D01*
X69463228Y-83636703D01*
G37*
G36*
X93593228Y-83636703D02*
G01*
X93748100Y-83700853D01*
X93887481Y-83793985D01*
X94006015Y-83912519D01*
X94099147Y-84051900D01*
X94163297Y-84206772D01*
X94196000Y-84371184D01*
X94196000Y-84538816D01*
X94163297Y-84703228D01*
X94099147Y-84858100D01*
X94006015Y-84997481D01*
X93887481Y-85116015D01*
X93748100Y-85209147D01*
X93593228Y-85273297D01*
X93428816Y-85306000D01*
X93261184Y-85306000D01*
X93096772Y-85273297D01*
X92941900Y-85209147D01*
X92802519Y-85116015D01*
X92683985Y-84997481D01*
X92590853Y-84858100D01*
X92526703Y-84703228D01*
X92494000Y-84538816D01*
X92494000Y-84371184D01*
X92526703Y-84206772D01*
X92590853Y-84051900D01*
X92683985Y-83912519D01*
X92802519Y-83793985D01*
X92941900Y-83700853D01*
X93096772Y-83636703D01*
X93261184Y-83604000D01*
X93428816Y-83604000D01*
X93593228Y-83636703D01*
G37*
G36*
X112643228Y-83636703D02*
G01*
X112798100Y-83700853D01*
X112937481Y-83793985D01*
X113056015Y-83912519D01*
X113149147Y-84051900D01*
X113213297Y-84206772D01*
X113246000Y-84371184D01*
X113246000Y-84538816D01*
X113213297Y-84703228D01*
X113149147Y-84858100D01*
X113056015Y-84997481D01*
X112937481Y-85116015D01*
X112798100Y-85209147D01*
X112643228Y-85273297D01*
X112478816Y-85306000D01*
X112311184Y-85306000D01*
X112146772Y-85273297D01*
X111991900Y-85209147D01*
X111852519Y-85116015D01*
X111733985Y-84997481D01*
X111640853Y-84858100D01*
X111576703Y-84703228D01*
X111544000Y-84538816D01*
X111544000Y-84371184D01*
X111576703Y-84206772D01*
X111640853Y-84051900D01*
X111733985Y-83912519D01*
X111852519Y-83793985D01*
X111991900Y-83700853D01*
X112146772Y-83636703D01*
X112311184Y-83604000D01*
X112478816Y-83604000D01*
X112643228Y-83636703D01*
G37*
G36*
X88513228Y-83636703D02*
G01*
X88668100Y-83700853D01*
X88807481Y-83793985D01*
X88926015Y-83912519D01*
X89019147Y-84051900D01*
X89083297Y-84206772D01*
X89116000Y-84371184D01*
X89116000Y-84538816D01*
X89083297Y-84703228D01*
X89019147Y-84858100D01*
X88926015Y-84997481D01*
X88807481Y-85116015D01*
X88668100Y-85209147D01*
X88513228Y-85273297D01*
X88348816Y-85306000D01*
X88181184Y-85306000D01*
X88016772Y-85273297D01*
X87861900Y-85209147D01*
X87722519Y-85116015D01*
X87603985Y-84997481D01*
X87510853Y-84858100D01*
X87446703Y-84703228D01*
X87414000Y-84538816D01*
X87414000Y-84371184D01*
X87446703Y-84206772D01*
X87510853Y-84051900D01*
X87603985Y-83912519D01*
X87722519Y-83793985D01*
X87861900Y-83700853D01*
X88016772Y-83636703D01*
X88181184Y-83604000D01*
X88348816Y-83604000D01*
X88513228Y-83636703D01*
G37*
G36*
X64383228Y-83636703D02*
G01*
X64538100Y-83700853D01*
X64677481Y-83793985D01*
X64796015Y-83912519D01*
X64889147Y-84051900D01*
X64953297Y-84206772D01*
X64986000Y-84371184D01*
X64986000Y-84538816D01*
X64953297Y-84703228D01*
X64889147Y-84858100D01*
X64796015Y-84997481D01*
X64677481Y-85116015D01*
X64538100Y-85209147D01*
X64383228Y-85273297D01*
X64218816Y-85306000D01*
X64051184Y-85306000D01*
X63886772Y-85273297D01*
X63731900Y-85209147D01*
X63592519Y-85116015D01*
X63473985Y-84997481D01*
X63380853Y-84858100D01*
X63316703Y-84703228D01*
X63284000Y-84538816D01*
X63284000Y-84371184D01*
X63316703Y-84206772D01*
X63380853Y-84051900D01*
X63473985Y-83912519D01*
X63592519Y-83793985D01*
X63731900Y-83700853D01*
X63886772Y-83636703D01*
X64051184Y-83604000D01*
X64218816Y-83604000D01*
X64383228Y-83636703D01*
G37*
M02*
