%FSLAX45Y45*%
G04 Gerber Fmt 4.5, Leading zero omitted, Abs format (unit mm)*
G04 Created by KiCad (PCBNEW 5.1.5+dfsg1-2build2) date 2021-05-06 12:51:50*
%MOMM*%
%LPD*%
G04 APERTURE LIST*
%TA.AperFunction,Profile*%
%ADD10C,0.050000*%
%TD*%
%ADD11C,0.200000*%
%ADD12C,0.300000*%
G04 APERTURE END LIST*
D10*
X5397500Y-8318500D02*
G75*
G02X5715000Y-8001000I317500J0D01*
G01*
X5715000Y-11557000D02*
G75*
G02X5397500Y-11239500I0J317500D01*
G01*
X12890500Y-11239500D02*
G75*
G02X12573000Y-11557000I-317500J0D01*
G01*
X12573000Y-8001000D02*
G75*
G02X12890500Y-8318500I0J-317500D01*
G01*
X12890500Y-8318500D02*
X12890500Y-11239500D01*
X5715000Y-8001000D02*
X12573000Y-8001000D01*
X5397500Y-11239500D02*
X5397500Y-8318500D01*
X12573000Y-11557000D02*
X5715000Y-11557000D01*
D11*
X10571500Y-8412500D02*
X10891500Y-8732500D01*
X10891500Y-8412500D02*
X10571500Y-8732500D01*
X8158500Y-8412500D02*
X8478500Y-8732500D01*
X8478500Y-8412500D02*
X8158500Y-8732500D01*
D12*
X5681428Y-12025214D02*
X5681428Y-11725214D01*
X5752857Y-11725214D01*
X5795714Y-11739500D01*
X5824286Y-11768071D01*
X5838571Y-11796643D01*
X5852857Y-11853786D01*
X5852857Y-11896643D01*
X5838571Y-11953786D01*
X5824286Y-11982357D01*
X5795714Y-12010929D01*
X5752857Y-12025214D01*
X5681428Y-12025214D01*
X5981428Y-12025214D02*
X5981428Y-11825214D01*
X5981428Y-11882357D02*
X5995714Y-11853786D01*
X6010000Y-11839500D01*
X6038571Y-11825214D01*
X6067143Y-11825214D01*
X6167143Y-12025214D02*
X6167143Y-11825214D01*
X6167143Y-11725214D02*
X6152857Y-11739500D01*
X6167143Y-11753786D01*
X6181428Y-11739500D01*
X6167143Y-11725214D01*
X6167143Y-11753786D01*
X6352857Y-12025214D02*
X6324286Y-12010929D01*
X6310000Y-11982357D01*
X6310000Y-11725214D01*
X6510000Y-12025214D02*
X6481428Y-12010929D01*
X6467143Y-11982357D01*
X6467143Y-11725214D01*
X6852857Y-12025214D02*
X6852857Y-11725214D01*
X6952857Y-11939500D01*
X7052857Y-11725214D01*
X7052857Y-12025214D01*
X7324286Y-12025214D02*
X7324286Y-11868071D01*
X7310000Y-11839500D01*
X7281428Y-11825214D01*
X7224286Y-11825214D01*
X7195714Y-11839500D01*
X7324286Y-12010929D02*
X7295714Y-12025214D01*
X7224286Y-12025214D01*
X7195714Y-12010929D01*
X7181428Y-11982357D01*
X7181428Y-11953786D01*
X7195714Y-11925214D01*
X7224286Y-11910929D01*
X7295714Y-11910929D01*
X7324286Y-11896643D01*
X7467143Y-11825214D02*
X7467143Y-12125214D01*
X7467143Y-11839500D02*
X7495714Y-11825214D01*
X7552857Y-11825214D01*
X7581428Y-11839500D01*
X7595714Y-11853786D01*
X7610000Y-11882357D01*
X7610000Y-11968071D01*
X7595714Y-11996643D01*
X7581428Y-12010929D01*
X7552857Y-12025214D01*
X7495714Y-12025214D01*
X7467143Y-12010929D01*
X7738571Y-11996643D02*
X7752857Y-12010929D01*
X7738571Y-12025214D01*
X7724286Y-12010929D01*
X7738571Y-11996643D01*
X7738571Y-12025214D01*
X7738571Y-11839500D02*
X7752857Y-11853786D01*
X7738571Y-11868071D01*
X7724286Y-11853786D01*
X7738571Y-11839500D01*
X7738571Y-11868071D01*
X5075000Y-12359500D02*
X5395000Y-12679500D01*
X5395000Y-12359500D02*
X5075000Y-12679500D01*
X5652857Y-12355214D02*
X5838571Y-12355214D01*
X5738571Y-12469500D01*
X5781428Y-12469500D01*
X5810000Y-12483786D01*
X5824286Y-12498071D01*
X5838571Y-12526643D01*
X5838571Y-12598071D01*
X5824286Y-12626643D01*
X5810000Y-12640929D01*
X5781428Y-12655214D01*
X5695714Y-12655214D01*
X5667143Y-12640929D01*
X5652857Y-12626643D01*
X5967143Y-12626643D02*
X5981428Y-12640929D01*
X5967143Y-12655214D01*
X5952857Y-12640929D01*
X5967143Y-12626643D01*
X5967143Y-12655214D01*
X6095714Y-12383786D02*
X6110000Y-12369500D01*
X6138571Y-12355214D01*
X6210000Y-12355214D01*
X6238571Y-12369500D01*
X6252857Y-12383786D01*
X6267143Y-12412357D01*
X6267143Y-12440929D01*
X6252857Y-12483786D01*
X6081428Y-12655214D01*
X6267143Y-12655214D01*
X6452857Y-12355214D02*
X6481428Y-12355214D01*
X6510000Y-12369500D01*
X6524286Y-12383786D01*
X6538571Y-12412357D01*
X6552857Y-12469500D01*
X6552857Y-12540929D01*
X6538571Y-12598071D01*
X6524286Y-12626643D01*
X6510000Y-12640929D01*
X6481428Y-12655214D01*
X6452857Y-12655214D01*
X6424286Y-12640929D01*
X6410000Y-12626643D01*
X6395714Y-12598071D01*
X6381428Y-12540929D01*
X6381428Y-12469500D01*
X6395714Y-12412357D01*
X6410000Y-12383786D01*
X6424286Y-12369500D01*
X6452857Y-12355214D01*
X6681428Y-12655214D02*
X6681428Y-12455214D01*
X6681428Y-12483786D02*
X6695714Y-12469500D01*
X6724286Y-12455214D01*
X6767143Y-12455214D01*
X6795714Y-12469500D01*
X6810000Y-12498071D01*
X6810000Y-12655214D01*
X6810000Y-12498071D02*
X6824286Y-12469500D01*
X6852857Y-12455214D01*
X6895714Y-12455214D01*
X6924286Y-12469500D01*
X6938571Y-12498071D01*
X6938571Y-12655214D01*
X7081428Y-12655214D02*
X7081428Y-12455214D01*
X7081428Y-12483786D02*
X7095714Y-12469500D01*
X7124286Y-12455214D01*
X7167143Y-12455214D01*
X7195714Y-12469500D01*
X7210000Y-12498071D01*
X7210000Y-12655214D01*
X7210000Y-12498071D02*
X7224286Y-12469500D01*
X7252857Y-12455214D01*
X7295714Y-12455214D01*
X7324286Y-12469500D01*
X7338571Y-12498071D01*
X7338571Y-12655214D01*
X7924286Y-12340929D02*
X7667143Y-12726643D01*
X8310000Y-12355214D02*
X8338571Y-12355214D01*
X8367143Y-12369500D01*
X8381428Y-12383786D01*
X8395714Y-12412357D01*
X8410000Y-12469500D01*
X8410000Y-12540929D01*
X8395714Y-12598071D01*
X8381428Y-12626643D01*
X8367143Y-12640929D01*
X8338571Y-12655214D01*
X8310000Y-12655214D01*
X8281428Y-12640929D01*
X8267143Y-12626643D01*
X8252857Y-12598071D01*
X8238571Y-12540929D01*
X8238571Y-12469500D01*
X8252857Y-12412357D01*
X8267143Y-12383786D01*
X8281428Y-12369500D01*
X8310000Y-12355214D01*
X8538571Y-12626643D02*
X8552857Y-12640929D01*
X8538571Y-12655214D01*
X8524286Y-12640929D01*
X8538571Y-12626643D01*
X8538571Y-12655214D01*
X8838571Y-12655214D02*
X8667143Y-12655214D01*
X8752857Y-12655214D02*
X8752857Y-12355214D01*
X8724286Y-12398071D01*
X8695714Y-12426643D01*
X8667143Y-12440929D01*
X8952857Y-12383786D02*
X8967143Y-12369500D01*
X8995714Y-12355214D01*
X9067143Y-12355214D01*
X9095714Y-12369500D01*
X9110000Y-12383786D01*
X9124286Y-12412357D01*
X9124286Y-12440929D01*
X9110000Y-12483786D01*
X8938571Y-12655214D01*
X9124286Y-12655214D01*
X9381428Y-12355214D02*
X9324286Y-12355214D01*
X9295714Y-12369500D01*
X9281428Y-12383786D01*
X9252857Y-12426643D01*
X9238571Y-12483786D01*
X9238571Y-12598071D01*
X9252857Y-12626643D01*
X9267143Y-12640929D01*
X9295714Y-12655214D01*
X9352857Y-12655214D01*
X9381428Y-12640929D01*
X9395714Y-12626643D01*
X9410000Y-12598071D01*
X9410000Y-12526643D01*
X9395714Y-12498071D01*
X9381428Y-12483786D01*
X9352857Y-12469500D01*
X9295714Y-12469500D01*
X9267143Y-12483786D01*
X9252857Y-12498071D01*
X9238571Y-12526643D01*
X9524286Y-12355214D02*
X9524286Y-12412357D01*
X9638571Y-12355214D02*
X9638571Y-12412357D01*
X10081428Y-12769500D02*
X10067143Y-12755214D01*
X10038571Y-12712357D01*
X10024286Y-12683786D01*
X10010000Y-12640929D01*
X9995714Y-12569500D01*
X9995714Y-12512357D01*
X10010000Y-12440929D01*
X10024286Y-12398071D01*
X10038571Y-12369500D01*
X10067143Y-12326643D01*
X10081428Y-12312357D01*
X10181428Y-12383786D02*
X10195714Y-12369500D01*
X10224286Y-12355214D01*
X10295714Y-12355214D01*
X10324286Y-12369500D01*
X10338571Y-12383786D01*
X10352857Y-12412357D01*
X10352857Y-12440929D01*
X10338571Y-12483786D01*
X10167143Y-12655214D01*
X10352857Y-12655214D01*
X10710000Y-12655214D02*
X10710000Y-12355214D01*
X10838571Y-12655214D02*
X10838571Y-12498071D01*
X10824286Y-12469500D01*
X10795714Y-12455214D01*
X10752857Y-12455214D01*
X10724286Y-12469500D01*
X10710000Y-12483786D01*
X11024286Y-12655214D02*
X10995714Y-12640929D01*
X10981428Y-12626643D01*
X10967143Y-12598071D01*
X10967143Y-12512357D01*
X10981428Y-12483786D01*
X10995714Y-12469500D01*
X11024286Y-12455214D01*
X11067143Y-12455214D01*
X11095714Y-12469500D01*
X11110000Y-12483786D01*
X11124286Y-12512357D01*
X11124286Y-12598071D01*
X11110000Y-12626643D01*
X11095714Y-12640929D01*
X11067143Y-12655214D01*
X11024286Y-12655214D01*
X11295714Y-12655214D02*
X11267143Y-12640929D01*
X11252857Y-12612357D01*
X11252857Y-12355214D01*
X11524286Y-12640929D02*
X11495714Y-12655214D01*
X11438571Y-12655214D01*
X11410000Y-12640929D01*
X11395714Y-12612357D01*
X11395714Y-12498071D01*
X11410000Y-12469500D01*
X11438571Y-12455214D01*
X11495714Y-12455214D01*
X11524286Y-12469500D01*
X11538571Y-12498071D01*
X11538571Y-12526643D01*
X11395714Y-12555214D01*
X11652857Y-12640929D02*
X11681428Y-12655214D01*
X11738571Y-12655214D01*
X11767143Y-12640929D01*
X11781428Y-12612357D01*
X11781428Y-12598071D01*
X11767143Y-12569500D01*
X11738571Y-12555214D01*
X11695714Y-12555214D01*
X11667143Y-12540929D01*
X11652857Y-12512357D01*
X11652857Y-12498071D01*
X11667143Y-12469500D01*
X11695714Y-12455214D01*
X11738571Y-12455214D01*
X11767143Y-12469500D01*
X11881428Y-12769500D02*
X11895714Y-12755214D01*
X11924286Y-12712357D01*
X11938571Y-12683786D01*
X11952857Y-12640929D01*
X11967143Y-12569500D01*
X11967143Y-12512357D01*
X11952857Y-12440929D01*
X11938571Y-12398071D01*
X11924286Y-12369500D01*
X11895714Y-12326643D01*
X11881428Y-12312357D01*
X12424286Y-12769500D02*
X12410000Y-12755214D01*
X12381428Y-12712357D01*
X12367143Y-12683786D01*
X12352857Y-12640929D01*
X12338571Y-12569500D01*
X12338571Y-12512357D01*
X12352857Y-12440929D01*
X12367143Y-12398071D01*
X12381428Y-12369500D01*
X12410000Y-12326643D01*
X12424286Y-12312357D01*
X12538571Y-12455214D02*
X12538571Y-12655214D01*
X12538571Y-12483786D02*
X12552857Y-12469500D01*
X12581428Y-12455214D01*
X12624286Y-12455214D01*
X12652857Y-12469500D01*
X12667143Y-12498071D01*
X12667143Y-12655214D01*
X12852857Y-12655214D02*
X12824286Y-12640929D01*
X12810000Y-12626643D01*
X12795714Y-12598071D01*
X12795714Y-12512357D01*
X12810000Y-12483786D01*
X12824286Y-12469500D01*
X12852857Y-12455214D01*
X12895714Y-12455214D01*
X12924286Y-12469500D01*
X12938571Y-12483786D01*
X12952857Y-12512357D01*
X12952857Y-12598071D01*
X12938571Y-12626643D01*
X12924286Y-12640929D01*
X12895714Y-12655214D01*
X12852857Y-12655214D01*
X13038571Y-12455214D02*
X13152857Y-12455214D01*
X13081428Y-12355214D02*
X13081428Y-12612357D01*
X13095714Y-12640929D01*
X13124286Y-12655214D01*
X13152857Y-12655214D01*
X13481428Y-12455214D02*
X13481428Y-12755214D01*
X13481428Y-12469500D02*
X13510000Y-12455214D01*
X13567143Y-12455214D01*
X13595714Y-12469500D01*
X13610000Y-12483786D01*
X13624286Y-12512357D01*
X13624286Y-12598071D01*
X13610000Y-12626643D01*
X13595714Y-12640929D01*
X13567143Y-12655214D01*
X13510000Y-12655214D01*
X13481428Y-12640929D01*
X13795714Y-12655214D02*
X13767143Y-12640929D01*
X13752857Y-12612357D01*
X13752857Y-12355214D01*
X14038571Y-12655214D02*
X14038571Y-12498071D01*
X14024286Y-12469500D01*
X13995714Y-12455214D01*
X13938571Y-12455214D01*
X13910000Y-12469500D01*
X14038571Y-12640929D02*
X14010000Y-12655214D01*
X13938571Y-12655214D01*
X13910000Y-12640929D01*
X13895714Y-12612357D01*
X13895714Y-12583786D01*
X13910000Y-12555214D01*
X13938571Y-12540929D01*
X14010000Y-12540929D01*
X14038571Y-12526643D01*
X14138571Y-12455214D02*
X14252857Y-12455214D01*
X14181428Y-12355214D02*
X14181428Y-12612357D01*
X14195714Y-12640929D01*
X14224286Y-12655214D01*
X14252857Y-12655214D01*
X14467143Y-12640929D02*
X14438571Y-12655214D01*
X14381428Y-12655214D01*
X14352857Y-12640929D01*
X14338571Y-12612357D01*
X14338571Y-12498071D01*
X14352857Y-12469500D01*
X14381428Y-12455214D01*
X14438571Y-12455214D01*
X14467143Y-12469500D01*
X14481428Y-12498071D01*
X14481428Y-12526643D01*
X14338571Y-12555214D01*
X14738571Y-12655214D02*
X14738571Y-12355214D01*
X14738571Y-12640929D02*
X14710000Y-12655214D01*
X14652857Y-12655214D01*
X14624286Y-12640929D01*
X14610000Y-12626643D01*
X14595714Y-12598071D01*
X14595714Y-12512357D01*
X14610000Y-12483786D01*
X14624286Y-12469500D01*
X14652857Y-12455214D01*
X14710000Y-12455214D01*
X14738571Y-12469500D01*
X14852857Y-12769500D02*
X14867143Y-12755214D01*
X14895714Y-12712357D01*
X14910000Y-12683786D01*
X14924286Y-12640929D01*
X14938571Y-12569500D01*
X14938571Y-12512357D01*
X14924286Y-12440929D01*
X14910000Y-12398071D01*
X14895714Y-12369500D01*
X14867143Y-12326643D01*
X14852857Y-12312357D01*
M02*
