M48
; DRILL file {KiCad 5.1.5+dfsg1-2build2} date jue 06 may 2021 12:51:48
; FORMAT={-:-/ absolute / metric / decimal}
; #@! TF.CreationDate,2021-05-06T12:51:48-03:00
; #@! TF.GenerationSoftware,Kicad,Pcbnew,5.1.5+dfsg1-2build2
; #@! TF.FileFunction,Plated,1,2,PTH
FMAT,2
METRIC
T1C0.800
T2C1.000
T3C1.100
T4C1.200
%
G90
G05
T1
X65.405Y-98.425
X65.405Y-100.965
X65.405Y-103.505
X65.405Y-106.045
X73.025Y-98.425
X73.025Y-100.965
X73.025Y-103.505
X73.025Y-106.045
X125.73Y-90.805
X125.73Y-100.965
X101.6Y-90.805
X101.6Y-100.965
X81.28Y-103.505
X81.28Y-111.125
X77.47Y-104.14
X77.47Y-106.64
X109.22Y-103.505
X109.22Y-108.585
X81.28Y-91.44
X81.28Y-99.06
X77.47Y-90.805
X77.47Y-100.965
X89.535Y-98.425
X89.535Y-100.965
X89.535Y-103.505
X89.535Y-106.045
X97.155Y-98.425
X97.155Y-100.965
X97.155Y-103.505
X97.155Y-106.045
X125.73Y-104.14
X125.73Y-106.64
X105.41Y-90.805
X105.41Y-98.425
X113.665Y-98.425
X113.665Y-100.965
X113.665Y-103.505
X113.665Y-106.045
X121.285Y-98.425
X121.285Y-100.965
X121.285Y-103.505
X121.285Y-106.045
X109.22Y-95.925
X109.22Y-98.425
X64.135Y-84.455
X69.215Y-84.455
X57.15Y-103.505
X57.15Y-111.125
X57.15Y-90.805
X57.15Y-98.425
X85.09Y-103.505
X85.09Y-108.585
X85.09Y-95.925
X85.09Y-98.425
X60.96Y-95.925
X60.96Y-98.425
X60.96Y-103.505
X60.96Y-108.585
X101.6Y-104.14
X101.6Y-106.64
X112.395Y-84.455
X117.475Y-84.455
X88.265Y-84.455
X93.345Y-84.455
X105.41Y-103.505
X105.41Y-111.125
T2
X90.805Y-112.395
X93.305Y-112.395
X95.805Y-112.395
X66.675Y-112.395
X69.175Y-112.395
X71.675Y-112.395
X114.935Y-112.395
X117.435Y-112.395
X119.935Y-112.395
T3
X66.675Y-90.805
X69.215Y-90.805
X71.755Y-90.805
X90.805Y-90.805
X93.345Y-90.805
X95.885Y-90.805
X114.935Y-90.805
X117.475Y-90.805
X120.015Y-90.805
T4
X122.555Y-84.455
X125.095Y-84.455
X74.295Y-84.455
X76.835Y-84.455
X58.42Y-84.455
X58.42Y-86.995
X98.425Y-84.455
X100.965Y-84.455
T0
M30
