G04 #@! TF.GenerationSoftware,KiCad,Pcbnew,5.1.5+dfsg1-2build2*
G04 #@! TF.CreationDate,2021-05-06T12:51:34-03:00*
G04 #@! TF.ProjectId,driver-rgb-pwm,64726976-6572-42d7-9267-622d70776d2e,rev?*
G04 #@! TF.SameCoordinates,Original*
G04 #@! TF.FileFunction,Copper,L1,Top*
G04 #@! TF.FilePolarity,Positive*
%FSLAX46Y46*%
G04 Gerber Fmt 4.6, Leading zero omitted, Abs format (unit mm)*
G04 Created by KiCad (PCBNEW 5.1.5+dfsg1-2build2) date 2021-05-06 12:51:34*
%MOMM*%
%LPD*%
G04 APERTURE LIST*
%ADD10C,1.800000*%
%ADD11C,1.600000*%
%ADD12O,1.600000X1.600000*%
%ADD13R,1.600000X1.600000*%
%ADD14O,1.740000X2.200000*%
%ADD15C,0.100000*%
%ADD16O,2.200000X1.740000*%
%ADD17R,1.905000X2.000000*%
%ADD18O,1.905000X2.000000*%
%ADD19O,2.400000X1.600000*%
%ADD20R,2.400000X1.600000*%
%ADD21C,1.000000*%
%ADD22C,0.254000*%
G04 APERTURE END LIST*
D10*
X114935000Y-112395000D03*
X117435000Y-112395000D03*
X119935000Y-112395000D03*
X90805000Y-112395000D03*
X93305000Y-112395000D03*
X95805000Y-112395000D03*
X66675000Y-112395000D03*
X69175000Y-112395000D03*
X71675000Y-112395000D03*
D11*
X77470000Y-104140000D03*
X77470000Y-106640000D03*
X101600000Y-104140000D03*
X101600000Y-106640000D03*
X60960000Y-95925000D03*
X60960000Y-98425000D03*
X85090000Y-95925000D03*
X85090000Y-98425000D03*
X125730000Y-104140000D03*
X125730000Y-106640000D03*
X109220000Y-95925000D03*
X109220000Y-98425000D03*
D12*
X57150000Y-111125000D03*
D13*
X57150000Y-103505000D03*
X81280000Y-103505000D03*
D12*
X81280000Y-111125000D03*
X57150000Y-98425000D03*
D13*
X57150000Y-90805000D03*
X81280000Y-91440000D03*
D12*
X81280000Y-99060000D03*
D13*
X105410000Y-103505000D03*
D12*
X105410000Y-111125000D03*
X105410000Y-98425000D03*
D13*
X105410000Y-90805000D03*
D14*
X74295000Y-84455000D03*
G04 #@! TA.AperFunction,ComponentPad*
D15*
G36*
X77479505Y-83356204D02*
G01*
X77503773Y-83359804D01*
X77527572Y-83365765D01*
X77550671Y-83374030D01*
X77572850Y-83384520D01*
X77593893Y-83397132D01*
X77613599Y-83411747D01*
X77631777Y-83428223D01*
X77648253Y-83446401D01*
X77662868Y-83466107D01*
X77675480Y-83487150D01*
X77685970Y-83509329D01*
X77694235Y-83532428D01*
X77700196Y-83556227D01*
X77703796Y-83580495D01*
X77705000Y-83604999D01*
X77705000Y-85305001D01*
X77703796Y-85329505D01*
X77700196Y-85353773D01*
X77694235Y-85377572D01*
X77685970Y-85400671D01*
X77675480Y-85422850D01*
X77662868Y-85443893D01*
X77648253Y-85463599D01*
X77631777Y-85481777D01*
X77613599Y-85498253D01*
X77593893Y-85512868D01*
X77572850Y-85525480D01*
X77550671Y-85535970D01*
X77527572Y-85544235D01*
X77503773Y-85550196D01*
X77479505Y-85553796D01*
X77455001Y-85555000D01*
X76214999Y-85555000D01*
X76190495Y-85553796D01*
X76166227Y-85550196D01*
X76142428Y-85544235D01*
X76119329Y-85535970D01*
X76097150Y-85525480D01*
X76076107Y-85512868D01*
X76056401Y-85498253D01*
X76038223Y-85481777D01*
X76021747Y-85463599D01*
X76007132Y-85443893D01*
X75994520Y-85422850D01*
X75984030Y-85400671D01*
X75975765Y-85377572D01*
X75969804Y-85353773D01*
X75966204Y-85329505D01*
X75965000Y-85305001D01*
X75965000Y-83604999D01*
X75966204Y-83580495D01*
X75969804Y-83556227D01*
X75975765Y-83532428D01*
X75984030Y-83509329D01*
X75994520Y-83487150D01*
X76007132Y-83466107D01*
X76021747Y-83446401D01*
X76038223Y-83428223D01*
X76056401Y-83411747D01*
X76076107Y-83397132D01*
X76097150Y-83384520D01*
X76119329Y-83374030D01*
X76142428Y-83365765D01*
X76166227Y-83359804D01*
X76190495Y-83356204D01*
X76214999Y-83355000D01*
X77455001Y-83355000D01*
X77479505Y-83356204D01*
G37*
G04 #@! TD.AperFunction*
D14*
X98425000Y-84455000D03*
G04 #@! TA.AperFunction,ComponentPad*
D15*
G36*
X101609505Y-83356204D02*
G01*
X101633773Y-83359804D01*
X101657572Y-83365765D01*
X101680671Y-83374030D01*
X101702850Y-83384520D01*
X101723893Y-83397132D01*
X101743599Y-83411747D01*
X101761777Y-83428223D01*
X101778253Y-83446401D01*
X101792868Y-83466107D01*
X101805480Y-83487150D01*
X101815970Y-83509329D01*
X101824235Y-83532428D01*
X101830196Y-83556227D01*
X101833796Y-83580495D01*
X101835000Y-83604999D01*
X101835000Y-85305001D01*
X101833796Y-85329505D01*
X101830196Y-85353773D01*
X101824235Y-85377572D01*
X101815970Y-85400671D01*
X101805480Y-85422850D01*
X101792868Y-85443893D01*
X101778253Y-85463599D01*
X101761777Y-85481777D01*
X101743599Y-85498253D01*
X101723893Y-85512868D01*
X101702850Y-85525480D01*
X101680671Y-85535970D01*
X101657572Y-85544235D01*
X101633773Y-85550196D01*
X101609505Y-85553796D01*
X101585001Y-85555000D01*
X100344999Y-85555000D01*
X100320495Y-85553796D01*
X100296227Y-85550196D01*
X100272428Y-85544235D01*
X100249329Y-85535970D01*
X100227150Y-85525480D01*
X100206107Y-85512868D01*
X100186401Y-85498253D01*
X100168223Y-85481777D01*
X100151747Y-85463599D01*
X100137132Y-85443893D01*
X100124520Y-85422850D01*
X100114030Y-85400671D01*
X100105765Y-85377572D01*
X100099804Y-85353773D01*
X100096204Y-85329505D01*
X100095000Y-85305001D01*
X100095000Y-83604999D01*
X100096204Y-83580495D01*
X100099804Y-83556227D01*
X100105765Y-83532428D01*
X100114030Y-83509329D01*
X100124520Y-83487150D01*
X100137132Y-83466107D01*
X100151747Y-83446401D01*
X100168223Y-83428223D01*
X100186401Y-83411747D01*
X100206107Y-83397132D01*
X100227150Y-83384520D01*
X100249329Y-83374030D01*
X100272428Y-83365765D01*
X100296227Y-83359804D01*
X100320495Y-83356204D01*
X100344999Y-83355000D01*
X101585001Y-83355000D01*
X101609505Y-83356204D01*
G37*
G04 #@! TD.AperFunction*
G04 #@! TA.AperFunction,ComponentPad*
G36*
X59294505Y-83586204D02*
G01*
X59318773Y-83589804D01*
X59342572Y-83595765D01*
X59365671Y-83604030D01*
X59387850Y-83614520D01*
X59408893Y-83627132D01*
X59428599Y-83641747D01*
X59446777Y-83658223D01*
X59463253Y-83676401D01*
X59477868Y-83696107D01*
X59490480Y-83717150D01*
X59500970Y-83739329D01*
X59509235Y-83762428D01*
X59515196Y-83786227D01*
X59518796Y-83810495D01*
X59520000Y-83834999D01*
X59520000Y-85075001D01*
X59518796Y-85099505D01*
X59515196Y-85123773D01*
X59509235Y-85147572D01*
X59500970Y-85170671D01*
X59490480Y-85192850D01*
X59477868Y-85213893D01*
X59463253Y-85233599D01*
X59446777Y-85251777D01*
X59428599Y-85268253D01*
X59408893Y-85282868D01*
X59387850Y-85295480D01*
X59365671Y-85305970D01*
X59342572Y-85314235D01*
X59318773Y-85320196D01*
X59294505Y-85323796D01*
X59270001Y-85325000D01*
X57569999Y-85325000D01*
X57545495Y-85323796D01*
X57521227Y-85320196D01*
X57497428Y-85314235D01*
X57474329Y-85305970D01*
X57452150Y-85295480D01*
X57431107Y-85282868D01*
X57411401Y-85268253D01*
X57393223Y-85251777D01*
X57376747Y-85233599D01*
X57362132Y-85213893D01*
X57349520Y-85192850D01*
X57339030Y-85170671D01*
X57330765Y-85147572D01*
X57324804Y-85123773D01*
X57321204Y-85099505D01*
X57320000Y-85075001D01*
X57320000Y-83834999D01*
X57321204Y-83810495D01*
X57324804Y-83786227D01*
X57330765Y-83762428D01*
X57339030Y-83739329D01*
X57349520Y-83717150D01*
X57362132Y-83696107D01*
X57376747Y-83676401D01*
X57393223Y-83658223D01*
X57411401Y-83641747D01*
X57431107Y-83627132D01*
X57452150Y-83614520D01*
X57474329Y-83604030D01*
X57497428Y-83595765D01*
X57521227Y-83589804D01*
X57545495Y-83586204D01*
X57569999Y-83585000D01*
X59270001Y-83585000D01*
X59294505Y-83586204D01*
G37*
G04 #@! TD.AperFunction*
D16*
X58420000Y-86995000D03*
G04 #@! TA.AperFunction,ComponentPad*
D15*
G36*
X125739505Y-83356204D02*
G01*
X125763773Y-83359804D01*
X125787572Y-83365765D01*
X125810671Y-83374030D01*
X125832850Y-83384520D01*
X125853893Y-83397132D01*
X125873599Y-83411747D01*
X125891777Y-83428223D01*
X125908253Y-83446401D01*
X125922868Y-83466107D01*
X125935480Y-83487150D01*
X125945970Y-83509329D01*
X125954235Y-83532428D01*
X125960196Y-83556227D01*
X125963796Y-83580495D01*
X125965000Y-83604999D01*
X125965000Y-85305001D01*
X125963796Y-85329505D01*
X125960196Y-85353773D01*
X125954235Y-85377572D01*
X125945970Y-85400671D01*
X125935480Y-85422850D01*
X125922868Y-85443893D01*
X125908253Y-85463599D01*
X125891777Y-85481777D01*
X125873599Y-85498253D01*
X125853893Y-85512868D01*
X125832850Y-85525480D01*
X125810671Y-85535970D01*
X125787572Y-85544235D01*
X125763773Y-85550196D01*
X125739505Y-85553796D01*
X125715001Y-85555000D01*
X124474999Y-85555000D01*
X124450495Y-85553796D01*
X124426227Y-85550196D01*
X124402428Y-85544235D01*
X124379329Y-85535970D01*
X124357150Y-85525480D01*
X124336107Y-85512868D01*
X124316401Y-85498253D01*
X124298223Y-85481777D01*
X124281747Y-85463599D01*
X124267132Y-85443893D01*
X124254520Y-85422850D01*
X124244030Y-85400671D01*
X124235765Y-85377572D01*
X124229804Y-85353773D01*
X124226204Y-85329505D01*
X124225000Y-85305001D01*
X124225000Y-83604999D01*
X124226204Y-83580495D01*
X124229804Y-83556227D01*
X124235765Y-83532428D01*
X124244030Y-83509329D01*
X124254520Y-83487150D01*
X124267132Y-83466107D01*
X124281747Y-83446401D01*
X124298223Y-83428223D01*
X124316401Y-83411747D01*
X124336107Y-83397132D01*
X124357150Y-83384520D01*
X124379329Y-83374030D01*
X124402428Y-83365765D01*
X124426227Y-83359804D01*
X124450495Y-83356204D01*
X124474999Y-83355000D01*
X125715001Y-83355000D01*
X125739505Y-83356204D01*
G37*
G04 #@! TD.AperFunction*
D14*
X122555000Y-84455000D03*
D17*
X71755000Y-90805000D03*
D18*
X69215000Y-90805000D03*
X66675000Y-90805000D03*
X90805000Y-90805000D03*
X93345000Y-90805000D03*
D17*
X95885000Y-90805000D03*
X120015000Y-90805000D03*
D18*
X117475000Y-90805000D03*
X114935000Y-90805000D03*
D12*
X60960000Y-103505000D03*
D11*
X60960000Y-108585000D03*
X85090000Y-108585000D03*
D12*
X85090000Y-103505000D03*
D11*
X77470000Y-90805000D03*
D12*
X77470000Y-100965000D03*
X101600000Y-100965000D03*
D11*
X101600000Y-90805000D03*
D12*
X64135000Y-84455000D03*
D11*
X69215000Y-84455000D03*
X93345000Y-84455000D03*
D12*
X88265000Y-84455000D03*
X109220000Y-103505000D03*
D11*
X109220000Y-108585000D03*
D12*
X125730000Y-100965000D03*
D11*
X125730000Y-90805000D03*
X117475000Y-84455000D03*
D12*
X112395000Y-84455000D03*
D19*
X65405000Y-106045000D03*
X73025000Y-98425000D03*
X65405000Y-103505000D03*
X73025000Y-100965000D03*
X65405000Y-100965000D03*
X73025000Y-103505000D03*
X65405000Y-98425000D03*
D20*
X73025000Y-106045000D03*
X97155000Y-106045000D03*
D19*
X89535000Y-98425000D03*
X97155000Y-103505000D03*
X89535000Y-100965000D03*
X97155000Y-100965000D03*
X89535000Y-103505000D03*
X97155000Y-98425000D03*
X89535000Y-106045000D03*
D20*
X121285000Y-106045000D03*
D19*
X113665000Y-98425000D03*
X121285000Y-103505000D03*
X113665000Y-100965000D03*
X121285000Y-100965000D03*
X113665000Y-103505000D03*
X121285000Y-98425000D03*
X113665000Y-106045000D03*
D21*
X77470000Y-106640000D02*
X79335000Y-104775000D01*
X79335000Y-104775000D02*
X79335000Y-98465000D01*
X79335000Y-98465000D02*
X79375000Y-98425000D01*
X79375000Y-98425000D02*
X79375000Y-97790000D01*
X79375000Y-97790000D02*
X81280000Y-95885000D01*
X81320000Y-95925000D02*
X85090000Y-95925000D01*
X81280000Y-95885000D02*
X81320000Y-95925000D01*
X101600000Y-106640000D02*
X103505000Y-104735000D01*
X103505000Y-104735000D02*
X103505000Y-97155000D01*
X103505000Y-97155000D02*
X104775000Y-95885000D01*
X104815000Y-95925000D02*
X109220000Y-95925000D01*
X104775000Y-95885000D02*
X104815000Y-95925000D01*
X71755000Y-111760000D02*
X71755000Y-112395000D01*
X69850000Y-109855000D02*
X71755000Y-111760000D01*
X65405000Y-109855000D02*
X69850000Y-109855000D01*
X64135000Y-111125000D02*
X65405000Y-109855000D01*
X57150000Y-111125000D02*
X64135000Y-111125000D01*
X81280000Y-111125000D02*
X88265000Y-111125000D01*
X88265000Y-111125000D02*
X89535000Y-109855000D01*
X89535000Y-109855000D02*
X93980000Y-109855000D01*
X93980000Y-109855000D02*
X95885000Y-111760000D01*
X95885000Y-111760000D02*
X95885000Y-112395000D01*
X120015000Y-111760000D02*
X120015000Y-112395000D01*
X118110000Y-109855000D02*
X120015000Y-111760000D01*
X114300000Y-109855000D02*
X118110000Y-109855000D01*
X113030000Y-111125000D02*
X114300000Y-109855000D01*
X105410000Y-111125000D02*
X113030000Y-111125000D01*
D22*
G36*
X128143000Y-82613500D02*
G01*
X128143000Y-112966500D01*
X125687667Y-114808000D01*
X56567606Y-114808000D01*
X54737000Y-112977394D01*
X54737000Y-110983665D01*
X55715000Y-110983665D01*
X55715000Y-111266335D01*
X55770147Y-111543574D01*
X55878320Y-111804727D01*
X56035363Y-112039759D01*
X56235241Y-112239637D01*
X56470273Y-112396680D01*
X56731426Y-112504853D01*
X57008665Y-112560000D01*
X57291335Y-112560000D01*
X57568574Y-112504853D01*
X57829727Y-112396680D01*
X58034284Y-112260000D01*
X64079249Y-112260000D01*
X64135000Y-112265491D01*
X64190751Y-112260000D01*
X64190752Y-112260000D01*
X64357499Y-112243577D01*
X64571447Y-112178676D01*
X64768623Y-112073284D01*
X64941449Y-111931449D01*
X64976996Y-111888135D01*
X65875132Y-110990000D01*
X66055822Y-110990000D01*
X65947905Y-111034701D01*
X65696495Y-111202688D01*
X65482688Y-111416495D01*
X65314701Y-111667905D01*
X65198989Y-111947257D01*
X65140000Y-112243816D01*
X65140000Y-112546184D01*
X65198989Y-112842743D01*
X65314701Y-113122095D01*
X65482688Y-113373505D01*
X65696495Y-113587312D01*
X65947905Y-113755299D01*
X66227257Y-113871011D01*
X66523816Y-113930000D01*
X66826184Y-113930000D01*
X67122743Y-113871011D01*
X67402095Y-113755299D01*
X67653505Y-113587312D01*
X67867312Y-113373505D01*
X67925000Y-113287169D01*
X67982688Y-113373505D01*
X68196495Y-113587312D01*
X68447905Y-113755299D01*
X68727257Y-113871011D01*
X69023816Y-113930000D01*
X69326184Y-113930000D01*
X69622743Y-113871011D01*
X69902095Y-113755299D01*
X70153505Y-113587312D01*
X70367312Y-113373505D01*
X70425000Y-113287169D01*
X70482688Y-113373505D01*
X70696495Y-113587312D01*
X70947905Y-113755299D01*
X71227257Y-113871011D01*
X71523816Y-113930000D01*
X71826184Y-113930000D01*
X72122743Y-113871011D01*
X72402095Y-113755299D01*
X72653505Y-113587312D01*
X72867312Y-113373505D01*
X73035299Y-113122095D01*
X73151011Y-112842743D01*
X73210000Y-112546184D01*
X73210000Y-112243816D01*
X73151011Y-111947257D01*
X73035299Y-111667905D01*
X72867312Y-111416495D01*
X72823614Y-111372797D01*
X72808676Y-111323553D01*
X72703284Y-111126377D01*
X72628047Y-111034701D01*
X72586163Y-110983665D01*
X79845000Y-110983665D01*
X79845000Y-111266335D01*
X79900147Y-111543574D01*
X80008320Y-111804727D01*
X80165363Y-112039759D01*
X80365241Y-112239637D01*
X80600273Y-112396680D01*
X80861426Y-112504853D01*
X81138665Y-112560000D01*
X81421335Y-112560000D01*
X81698574Y-112504853D01*
X81959727Y-112396680D01*
X82164284Y-112260000D01*
X88209249Y-112260000D01*
X88265000Y-112265491D01*
X88320751Y-112260000D01*
X88320752Y-112260000D01*
X88487499Y-112243577D01*
X88701447Y-112178676D01*
X88898623Y-112073284D01*
X89071449Y-111931449D01*
X89106996Y-111888135D01*
X90005132Y-110990000D01*
X90185822Y-110990000D01*
X90077905Y-111034701D01*
X89826495Y-111202688D01*
X89612688Y-111416495D01*
X89444701Y-111667905D01*
X89328989Y-111947257D01*
X89270000Y-112243816D01*
X89270000Y-112546184D01*
X89328989Y-112842743D01*
X89444701Y-113122095D01*
X89612688Y-113373505D01*
X89826495Y-113587312D01*
X90077905Y-113755299D01*
X90357257Y-113871011D01*
X90653816Y-113930000D01*
X90956184Y-113930000D01*
X91252743Y-113871011D01*
X91532095Y-113755299D01*
X91783505Y-113587312D01*
X91997312Y-113373505D01*
X92055000Y-113287169D01*
X92112688Y-113373505D01*
X92326495Y-113587312D01*
X92577905Y-113755299D01*
X92857257Y-113871011D01*
X93153816Y-113930000D01*
X93456184Y-113930000D01*
X93752743Y-113871011D01*
X94032095Y-113755299D01*
X94283505Y-113587312D01*
X94497312Y-113373505D01*
X94555000Y-113287169D01*
X94612688Y-113373505D01*
X94826495Y-113587312D01*
X95077905Y-113755299D01*
X95357257Y-113871011D01*
X95653816Y-113930000D01*
X95956184Y-113930000D01*
X96252743Y-113871011D01*
X96532095Y-113755299D01*
X96783505Y-113587312D01*
X96997312Y-113373505D01*
X97165299Y-113122095D01*
X97281011Y-112842743D01*
X97340000Y-112546184D01*
X97340000Y-112243816D01*
X97281011Y-111947257D01*
X97165299Y-111667905D01*
X96997312Y-111416495D01*
X96953614Y-111372797D01*
X96938676Y-111323553D01*
X96833284Y-111126377D01*
X96758047Y-111034701D01*
X96716163Y-110983665D01*
X103975000Y-110983665D01*
X103975000Y-111266335D01*
X104030147Y-111543574D01*
X104138320Y-111804727D01*
X104295363Y-112039759D01*
X104495241Y-112239637D01*
X104730273Y-112396680D01*
X104991426Y-112504853D01*
X105268665Y-112560000D01*
X105551335Y-112560000D01*
X105828574Y-112504853D01*
X106089727Y-112396680D01*
X106294284Y-112260000D01*
X112974249Y-112260000D01*
X113030000Y-112265491D01*
X113085751Y-112260000D01*
X113085752Y-112260000D01*
X113252499Y-112243577D01*
X113409522Y-112195944D01*
X113400000Y-112243816D01*
X113400000Y-112546184D01*
X113458989Y-112842743D01*
X113574701Y-113122095D01*
X113742688Y-113373505D01*
X113956495Y-113587312D01*
X114207905Y-113755299D01*
X114487257Y-113871011D01*
X114783816Y-113930000D01*
X115086184Y-113930000D01*
X115382743Y-113871011D01*
X115662095Y-113755299D01*
X115913505Y-113587312D01*
X116127312Y-113373505D01*
X116185000Y-113287169D01*
X116242688Y-113373505D01*
X116456495Y-113587312D01*
X116707905Y-113755299D01*
X116987257Y-113871011D01*
X117283816Y-113930000D01*
X117586184Y-113930000D01*
X117882743Y-113871011D01*
X118162095Y-113755299D01*
X118413505Y-113587312D01*
X118627312Y-113373505D01*
X118685000Y-113287169D01*
X118742688Y-113373505D01*
X118956495Y-113587312D01*
X119207905Y-113755299D01*
X119487257Y-113871011D01*
X119783816Y-113930000D01*
X120086184Y-113930000D01*
X120382743Y-113871011D01*
X120662095Y-113755299D01*
X120913505Y-113587312D01*
X121127312Y-113373505D01*
X121295299Y-113122095D01*
X121411011Y-112842743D01*
X121470000Y-112546184D01*
X121470000Y-112243816D01*
X121411011Y-111947257D01*
X121295299Y-111667905D01*
X121127312Y-111416495D01*
X121083614Y-111372797D01*
X121068676Y-111323553D01*
X120963284Y-111126377D01*
X120888047Y-111034701D01*
X120821449Y-110953551D01*
X120778141Y-110918009D01*
X118951996Y-109091865D01*
X118916449Y-109048551D01*
X118743623Y-108906716D01*
X118546447Y-108801324D01*
X118332499Y-108736423D01*
X118165752Y-108720000D01*
X118165751Y-108720000D01*
X118110000Y-108714509D01*
X118054249Y-108720000D01*
X114355743Y-108720000D01*
X114299999Y-108714510D01*
X114244255Y-108720000D01*
X114244248Y-108720000D01*
X114098493Y-108734356D01*
X114077500Y-108736423D01*
X114027705Y-108751529D01*
X113863553Y-108801324D01*
X113666377Y-108906716D01*
X113493551Y-109048551D01*
X113458008Y-109091860D01*
X112559869Y-109990000D01*
X109528197Y-109990000D01*
X109570130Y-109983787D01*
X109836292Y-109888603D01*
X109961514Y-109821671D01*
X110033097Y-109577702D01*
X109220000Y-108764605D01*
X108406903Y-109577702D01*
X108478486Y-109821671D01*
X108733996Y-109942571D01*
X108923210Y-109990000D01*
X106294284Y-109990000D01*
X106089727Y-109853320D01*
X105828574Y-109745147D01*
X105551335Y-109690000D01*
X105268665Y-109690000D01*
X104991426Y-109745147D01*
X104730273Y-109853320D01*
X104495241Y-110010363D01*
X104295363Y-110210241D01*
X104138320Y-110445273D01*
X104030147Y-110706426D01*
X103975000Y-110983665D01*
X96716163Y-110983665D01*
X96691449Y-110953551D01*
X96648141Y-110918009D01*
X94821996Y-109091865D01*
X94786449Y-109048551D01*
X94613623Y-108906716D01*
X94416447Y-108801324D01*
X94202499Y-108736423D01*
X94035752Y-108720000D01*
X94035751Y-108720000D01*
X93980000Y-108714509D01*
X93924249Y-108720000D01*
X89590743Y-108720000D01*
X89534999Y-108714510D01*
X89479255Y-108720000D01*
X89479248Y-108720000D01*
X89333493Y-108734356D01*
X89312500Y-108736423D01*
X89262705Y-108751529D01*
X89098553Y-108801324D01*
X88901377Y-108906716D01*
X88728551Y-109048551D01*
X88693008Y-109091860D01*
X87794869Y-109990000D01*
X85398197Y-109990000D01*
X85440130Y-109983787D01*
X85706292Y-109888603D01*
X85831514Y-109821671D01*
X85903097Y-109577702D01*
X85090000Y-108764605D01*
X84276903Y-109577702D01*
X84348486Y-109821671D01*
X84603996Y-109942571D01*
X84793210Y-109990000D01*
X82164284Y-109990000D01*
X81959727Y-109853320D01*
X81698574Y-109745147D01*
X81421335Y-109690000D01*
X81138665Y-109690000D01*
X80861426Y-109745147D01*
X80600273Y-109853320D01*
X80365241Y-110010363D01*
X80165363Y-110210241D01*
X80008320Y-110445273D01*
X79900147Y-110706426D01*
X79845000Y-110983665D01*
X72586163Y-110983665D01*
X72561449Y-110953551D01*
X72518141Y-110918009D01*
X70691996Y-109091865D01*
X70656449Y-109048551D01*
X70483623Y-108906716D01*
X70286447Y-108801324D01*
X70072499Y-108736423D01*
X69905752Y-108720000D01*
X69905751Y-108720000D01*
X69850000Y-108714509D01*
X69794249Y-108720000D01*
X65460743Y-108720000D01*
X65404999Y-108714510D01*
X65349255Y-108720000D01*
X65349248Y-108720000D01*
X65203493Y-108734356D01*
X65182500Y-108736423D01*
X65132705Y-108751529D01*
X64968553Y-108801324D01*
X64771377Y-108906716D01*
X64598551Y-109048551D01*
X64563008Y-109091860D01*
X63664869Y-109990000D01*
X61268197Y-109990000D01*
X61310130Y-109983787D01*
X61576292Y-109888603D01*
X61701514Y-109821671D01*
X61773097Y-109577702D01*
X60960000Y-108764605D01*
X60146903Y-109577702D01*
X60218486Y-109821671D01*
X60473996Y-109942571D01*
X60663210Y-109990000D01*
X58034284Y-109990000D01*
X57829727Y-109853320D01*
X57568574Y-109745147D01*
X57291335Y-109690000D01*
X57008665Y-109690000D01*
X56731426Y-109745147D01*
X56470273Y-109853320D01*
X56235241Y-110010363D01*
X56035363Y-110210241D01*
X55878320Y-110445273D01*
X55770147Y-110706426D01*
X55715000Y-110983665D01*
X54737000Y-110983665D01*
X54737000Y-108655512D01*
X59519783Y-108655512D01*
X59561213Y-108935130D01*
X59656397Y-109201292D01*
X59723329Y-109326514D01*
X59967298Y-109398097D01*
X60780395Y-108585000D01*
X61139605Y-108585000D01*
X61952702Y-109398097D01*
X62196671Y-109326514D01*
X62317571Y-109071004D01*
X62386300Y-108796816D01*
X62393265Y-108655512D01*
X83649783Y-108655512D01*
X83691213Y-108935130D01*
X83786397Y-109201292D01*
X83853329Y-109326514D01*
X84097298Y-109398097D01*
X84910395Y-108585000D01*
X85269605Y-108585000D01*
X86082702Y-109398097D01*
X86326671Y-109326514D01*
X86447571Y-109071004D01*
X86516300Y-108796816D01*
X86523265Y-108655512D01*
X107779783Y-108655512D01*
X107821213Y-108935130D01*
X107916397Y-109201292D01*
X107983329Y-109326514D01*
X108227298Y-109398097D01*
X109040395Y-108585000D01*
X109399605Y-108585000D01*
X110212702Y-109398097D01*
X110456671Y-109326514D01*
X110577571Y-109071004D01*
X110646300Y-108796816D01*
X110660217Y-108514488D01*
X110618787Y-108234870D01*
X110523603Y-107968708D01*
X110456671Y-107843486D01*
X110212702Y-107771903D01*
X109399605Y-108585000D01*
X109040395Y-108585000D01*
X108227298Y-107771903D01*
X107983329Y-107843486D01*
X107862429Y-108098996D01*
X107793700Y-108373184D01*
X107779783Y-108655512D01*
X86523265Y-108655512D01*
X86530217Y-108514488D01*
X86488787Y-108234870D01*
X86393603Y-107968708D01*
X86326671Y-107843486D01*
X86082702Y-107771903D01*
X85269605Y-108585000D01*
X84910395Y-108585000D01*
X84097298Y-107771903D01*
X83853329Y-107843486D01*
X83732429Y-108098996D01*
X83663700Y-108373184D01*
X83649783Y-108655512D01*
X62393265Y-108655512D01*
X62400217Y-108514488D01*
X62358787Y-108234870D01*
X62263603Y-107968708D01*
X62196671Y-107843486D01*
X61952702Y-107771903D01*
X61139605Y-108585000D01*
X60780395Y-108585000D01*
X59967298Y-107771903D01*
X59723329Y-107843486D01*
X59602429Y-108098996D01*
X59533700Y-108373184D01*
X59519783Y-108655512D01*
X54737000Y-108655512D01*
X54737000Y-107592298D01*
X60146903Y-107592298D01*
X60960000Y-108405395D01*
X61773097Y-107592298D01*
X61701514Y-107348329D01*
X61446004Y-107227429D01*
X61171816Y-107158700D01*
X60889488Y-107144783D01*
X60609870Y-107186213D01*
X60343708Y-107281397D01*
X60218486Y-107348329D01*
X60146903Y-107592298D01*
X54737000Y-107592298D01*
X54737000Y-106394039D01*
X63613096Y-106394039D01*
X63630633Y-106476818D01*
X63741285Y-106736646D01*
X63900500Y-106969895D01*
X64102161Y-107167601D01*
X64338517Y-107322166D01*
X64600486Y-107427650D01*
X64878000Y-107480000D01*
X65278000Y-107480000D01*
X65278000Y-106172000D01*
X65532000Y-106172000D01*
X65532000Y-107480000D01*
X65932000Y-107480000D01*
X66209514Y-107427650D01*
X66471483Y-107322166D01*
X66707839Y-107167601D01*
X66909500Y-106969895D01*
X67068715Y-106736646D01*
X67179367Y-106476818D01*
X67196904Y-106394039D01*
X67074915Y-106172000D01*
X65532000Y-106172000D01*
X65278000Y-106172000D01*
X63735085Y-106172000D01*
X63613096Y-106394039D01*
X54737000Y-106394039D01*
X54737000Y-102705000D01*
X55711928Y-102705000D01*
X55711928Y-104305000D01*
X55724188Y-104429482D01*
X55760498Y-104549180D01*
X55819463Y-104659494D01*
X55898815Y-104756185D01*
X55995506Y-104835537D01*
X56105820Y-104894502D01*
X56225518Y-104930812D01*
X56350000Y-104943072D01*
X57950000Y-104943072D01*
X58074482Y-104930812D01*
X58194180Y-104894502D01*
X58304494Y-104835537D01*
X58401185Y-104756185D01*
X58480537Y-104659494D01*
X58539502Y-104549180D01*
X58575812Y-104429482D01*
X58588072Y-104305000D01*
X58588072Y-103363665D01*
X59525000Y-103363665D01*
X59525000Y-103646335D01*
X59580147Y-103923574D01*
X59688320Y-104184727D01*
X59845363Y-104419759D01*
X60045241Y-104619637D01*
X60280273Y-104776680D01*
X60541426Y-104884853D01*
X60818665Y-104940000D01*
X61101335Y-104940000D01*
X61378574Y-104884853D01*
X61639727Y-104776680D01*
X61874759Y-104619637D01*
X62074637Y-104419759D01*
X62231680Y-104184727D01*
X62339853Y-103923574D01*
X62395000Y-103646335D01*
X62395000Y-103363665D01*
X62339853Y-103086426D01*
X62231680Y-102825273D01*
X62074637Y-102590241D01*
X61874759Y-102390363D01*
X61639727Y-102233320D01*
X61378574Y-102125147D01*
X61101335Y-102070000D01*
X60818665Y-102070000D01*
X60541426Y-102125147D01*
X60280273Y-102233320D01*
X60045241Y-102390363D01*
X59845363Y-102590241D01*
X59688320Y-102825273D01*
X59580147Y-103086426D01*
X59525000Y-103363665D01*
X58588072Y-103363665D01*
X58588072Y-102705000D01*
X58575812Y-102580518D01*
X58539502Y-102460820D01*
X58480537Y-102350506D01*
X58401185Y-102253815D01*
X58304494Y-102174463D01*
X58194180Y-102115498D01*
X58074482Y-102079188D01*
X57950000Y-102066928D01*
X56350000Y-102066928D01*
X56225518Y-102079188D01*
X56105820Y-102115498D01*
X55995506Y-102174463D01*
X55898815Y-102253815D01*
X55819463Y-102350506D01*
X55760498Y-102460820D01*
X55724188Y-102580518D01*
X55711928Y-102705000D01*
X54737000Y-102705000D01*
X54737000Y-98283665D01*
X55715000Y-98283665D01*
X55715000Y-98566335D01*
X55770147Y-98843574D01*
X55878320Y-99104727D01*
X56035363Y-99339759D01*
X56235241Y-99539637D01*
X56470273Y-99696680D01*
X56731426Y-99804853D01*
X57008665Y-99860000D01*
X57291335Y-99860000D01*
X57568574Y-99804853D01*
X57829727Y-99696680D01*
X58064759Y-99539637D01*
X58264637Y-99339759D01*
X58421680Y-99104727D01*
X58529853Y-98843574D01*
X58585000Y-98566335D01*
X58585000Y-98283665D01*
X58529853Y-98006426D01*
X58421680Y-97745273D01*
X58264637Y-97510241D01*
X58064759Y-97310363D01*
X57829727Y-97153320D01*
X57568574Y-97045147D01*
X57291335Y-96990000D01*
X57008665Y-96990000D01*
X56731426Y-97045147D01*
X56470273Y-97153320D01*
X56235241Y-97310363D01*
X56035363Y-97510241D01*
X55878320Y-97745273D01*
X55770147Y-98006426D01*
X55715000Y-98283665D01*
X54737000Y-98283665D01*
X54737000Y-95783665D01*
X59525000Y-95783665D01*
X59525000Y-96066335D01*
X59580147Y-96343574D01*
X59688320Y-96604727D01*
X59845363Y-96839759D01*
X60045241Y-97039637D01*
X60247827Y-97175000D01*
X60045241Y-97310363D01*
X59845363Y-97510241D01*
X59688320Y-97745273D01*
X59580147Y-98006426D01*
X59525000Y-98283665D01*
X59525000Y-98566335D01*
X59580147Y-98843574D01*
X59688320Y-99104727D01*
X59845363Y-99339759D01*
X60045241Y-99539637D01*
X60280273Y-99696680D01*
X60541426Y-99804853D01*
X60818665Y-99860000D01*
X61101335Y-99860000D01*
X61378574Y-99804853D01*
X61639727Y-99696680D01*
X61874759Y-99539637D01*
X62074637Y-99339759D01*
X62231680Y-99104727D01*
X62339853Y-98843574D01*
X62395000Y-98566335D01*
X62395000Y-98425000D01*
X63563057Y-98425000D01*
X63590764Y-98706309D01*
X63672818Y-98976808D01*
X63806068Y-99226101D01*
X63985392Y-99444608D01*
X64203899Y-99623932D01*
X64336858Y-99695000D01*
X64203899Y-99766068D01*
X63985392Y-99945392D01*
X63806068Y-100163899D01*
X63672818Y-100413192D01*
X63590764Y-100683691D01*
X63563057Y-100965000D01*
X63590764Y-101246309D01*
X63672818Y-101516808D01*
X63806068Y-101766101D01*
X63985392Y-101984608D01*
X64203899Y-102163932D01*
X64336858Y-102235000D01*
X64203899Y-102306068D01*
X63985392Y-102485392D01*
X63806068Y-102703899D01*
X63672818Y-102953192D01*
X63590764Y-103223691D01*
X63563057Y-103505000D01*
X63590764Y-103786309D01*
X63672818Y-104056808D01*
X63806068Y-104306101D01*
X63985392Y-104524608D01*
X64203899Y-104703932D01*
X64331741Y-104772265D01*
X64102161Y-104922399D01*
X63900500Y-105120105D01*
X63741285Y-105353354D01*
X63630633Y-105613182D01*
X63613096Y-105695961D01*
X63735085Y-105918000D01*
X65278000Y-105918000D01*
X65278000Y-105898000D01*
X65532000Y-105898000D01*
X65532000Y-105918000D01*
X67074915Y-105918000D01*
X67196904Y-105695961D01*
X67179367Y-105613182D01*
X67068715Y-105353354D01*
X66909500Y-105120105D01*
X66707839Y-104922399D01*
X66478259Y-104772265D01*
X66606101Y-104703932D01*
X66824608Y-104524608D01*
X67003932Y-104306101D01*
X67137182Y-104056808D01*
X67219236Y-103786309D01*
X67246943Y-103505000D01*
X67219236Y-103223691D01*
X67137182Y-102953192D01*
X67003932Y-102703899D01*
X66824608Y-102485392D01*
X66606101Y-102306068D01*
X66473142Y-102235000D01*
X66606101Y-102163932D01*
X66824608Y-101984608D01*
X67003932Y-101766101D01*
X67137182Y-101516808D01*
X67219236Y-101246309D01*
X67246943Y-100965000D01*
X71183057Y-100965000D01*
X71210764Y-101246309D01*
X71292818Y-101516808D01*
X71426068Y-101766101D01*
X71605392Y-101984608D01*
X71823899Y-102163932D01*
X71956858Y-102235000D01*
X71823899Y-102306068D01*
X71605392Y-102485392D01*
X71426068Y-102703899D01*
X71292818Y-102953192D01*
X71210764Y-103223691D01*
X71183057Y-103505000D01*
X71210764Y-103786309D01*
X71292818Y-104056808D01*
X71426068Y-104306101D01*
X71605392Y-104524608D01*
X71718482Y-104617419D01*
X71700518Y-104619188D01*
X71580820Y-104655498D01*
X71470506Y-104714463D01*
X71373815Y-104793815D01*
X71294463Y-104890506D01*
X71235498Y-105000820D01*
X71199188Y-105120518D01*
X71186928Y-105245000D01*
X71186928Y-106845000D01*
X71199188Y-106969482D01*
X71235498Y-107089180D01*
X71294463Y-107199494D01*
X71373815Y-107296185D01*
X71470506Y-107375537D01*
X71580820Y-107434502D01*
X71700518Y-107470812D01*
X71825000Y-107483072D01*
X74225000Y-107483072D01*
X74349482Y-107470812D01*
X74469180Y-107434502D01*
X74579494Y-107375537D01*
X74676185Y-107296185D01*
X74755537Y-107199494D01*
X74814502Y-107089180D01*
X74850812Y-106969482D01*
X74863072Y-106845000D01*
X74863072Y-105245000D01*
X74850812Y-105120518D01*
X74814502Y-105000820D01*
X74755537Y-104890506D01*
X74676185Y-104793815D01*
X74579494Y-104714463D01*
X74469180Y-104655498D01*
X74349482Y-104619188D01*
X74331518Y-104617419D01*
X74444608Y-104524608D01*
X74623932Y-104306101D01*
X74757182Y-104056808D01*
X74839236Y-103786309D01*
X74866943Y-103505000D01*
X74839236Y-103223691D01*
X74757182Y-102953192D01*
X74623932Y-102703899D01*
X74444608Y-102485392D01*
X74226101Y-102306068D01*
X74093142Y-102235000D01*
X74226101Y-102163932D01*
X74444608Y-101984608D01*
X74623932Y-101766101D01*
X74757182Y-101516808D01*
X74839236Y-101246309D01*
X74866943Y-100965000D01*
X74853023Y-100823665D01*
X76035000Y-100823665D01*
X76035000Y-101106335D01*
X76090147Y-101383574D01*
X76198320Y-101644727D01*
X76355363Y-101879759D01*
X76555241Y-102079637D01*
X76790273Y-102236680D01*
X77051426Y-102344853D01*
X77328665Y-102400000D01*
X77611335Y-102400000D01*
X77888574Y-102344853D01*
X78149727Y-102236680D01*
X78200000Y-102203088D01*
X78200000Y-102901911D01*
X78149727Y-102868320D01*
X77888574Y-102760147D01*
X77611335Y-102705000D01*
X77328665Y-102705000D01*
X77051426Y-102760147D01*
X76790273Y-102868320D01*
X76555241Y-103025363D01*
X76355363Y-103225241D01*
X76198320Y-103460273D01*
X76090147Y-103721426D01*
X76035000Y-103998665D01*
X76035000Y-104281335D01*
X76090147Y-104558574D01*
X76198320Y-104819727D01*
X76355363Y-105054759D01*
X76555241Y-105254637D01*
X76757827Y-105390000D01*
X76555241Y-105525363D01*
X76355363Y-105725241D01*
X76198320Y-105960273D01*
X76090147Y-106221426D01*
X76035000Y-106498665D01*
X76035000Y-106781335D01*
X76090147Y-107058574D01*
X76198320Y-107319727D01*
X76355363Y-107554759D01*
X76555241Y-107754637D01*
X76790273Y-107911680D01*
X77051426Y-108019853D01*
X77328665Y-108075000D01*
X77611335Y-108075000D01*
X77888574Y-108019853D01*
X78149727Y-107911680D01*
X78384759Y-107754637D01*
X78547098Y-107592298D01*
X84276903Y-107592298D01*
X85090000Y-108405395D01*
X85903097Y-107592298D01*
X85831514Y-107348329D01*
X85576004Y-107227429D01*
X85301816Y-107158700D01*
X85019488Y-107144783D01*
X84739870Y-107186213D01*
X84473708Y-107281397D01*
X84348486Y-107348329D01*
X84276903Y-107592298D01*
X78547098Y-107592298D01*
X78584637Y-107554759D01*
X78741680Y-107319727D01*
X78849853Y-107058574D01*
X78897850Y-106817282D01*
X79321092Y-106394039D01*
X87743096Y-106394039D01*
X87760633Y-106476818D01*
X87871285Y-106736646D01*
X88030500Y-106969895D01*
X88232161Y-107167601D01*
X88468517Y-107322166D01*
X88730486Y-107427650D01*
X89008000Y-107480000D01*
X89408000Y-107480000D01*
X89408000Y-106172000D01*
X89662000Y-106172000D01*
X89662000Y-107480000D01*
X90062000Y-107480000D01*
X90339514Y-107427650D01*
X90601483Y-107322166D01*
X90837839Y-107167601D01*
X91039500Y-106969895D01*
X91198715Y-106736646D01*
X91309367Y-106476818D01*
X91326904Y-106394039D01*
X91204915Y-106172000D01*
X89662000Y-106172000D01*
X89408000Y-106172000D01*
X87865085Y-106172000D01*
X87743096Y-106394039D01*
X79321092Y-106394039D01*
X80098140Y-105616991D01*
X80141449Y-105581449D01*
X80283284Y-105408623D01*
X80388676Y-105211447D01*
X80453577Y-104997499D01*
X80459140Y-104941018D01*
X80480000Y-104943072D01*
X82080000Y-104943072D01*
X82204482Y-104930812D01*
X82324180Y-104894502D01*
X82434494Y-104835537D01*
X82531185Y-104756185D01*
X82610537Y-104659494D01*
X82669502Y-104549180D01*
X82705812Y-104429482D01*
X82718072Y-104305000D01*
X82718072Y-103363665D01*
X83655000Y-103363665D01*
X83655000Y-103646335D01*
X83710147Y-103923574D01*
X83818320Y-104184727D01*
X83975363Y-104419759D01*
X84175241Y-104619637D01*
X84410273Y-104776680D01*
X84671426Y-104884853D01*
X84948665Y-104940000D01*
X85231335Y-104940000D01*
X85508574Y-104884853D01*
X85769727Y-104776680D01*
X86004759Y-104619637D01*
X86204637Y-104419759D01*
X86361680Y-104184727D01*
X86469853Y-103923574D01*
X86525000Y-103646335D01*
X86525000Y-103363665D01*
X86469853Y-103086426D01*
X86361680Y-102825273D01*
X86204637Y-102590241D01*
X86004759Y-102390363D01*
X85769727Y-102233320D01*
X85508574Y-102125147D01*
X85231335Y-102070000D01*
X84948665Y-102070000D01*
X84671426Y-102125147D01*
X84410273Y-102233320D01*
X84175241Y-102390363D01*
X83975363Y-102590241D01*
X83818320Y-102825273D01*
X83710147Y-103086426D01*
X83655000Y-103363665D01*
X82718072Y-103363665D01*
X82718072Y-102705000D01*
X82705812Y-102580518D01*
X82669502Y-102460820D01*
X82610537Y-102350506D01*
X82531185Y-102253815D01*
X82434494Y-102174463D01*
X82324180Y-102115498D01*
X82204482Y-102079188D01*
X82080000Y-102066928D01*
X80480000Y-102066928D01*
X80470000Y-102067913D01*
X80470000Y-100244635D01*
X80600273Y-100331680D01*
X80861426Y-100439853D01*
X81138665Y-100495000D01*
X81421335Y-100495000D01*
X81698574Y-100439853D01*
X81959727Y-100331680D01*
X82194759Y-100174637D01*
X82394637Y-99974759D01*
X82551680Y-99739727D01*
X82659853Y-99478574D01*
X82715000Y-99201335D01*
X82715000Y-98918665D01*
X82659853Y-98641426D01*
X82551680Y-98380273D01*
X82394637Y-98145241D01*
X82194759Y-97945363D01*
X81959727Y-97788320D01*
X81698574Y-97680147D01*
X81421335Y-97625000D01*
X81145132Y-97625000D01*
X81710132Y-97060000D01*
X84205716Y-97060000D01*
X84377827Y-97175000D01*
X84175241Y-97310363D01*
X83975363Y-97510241D01*
X83818320Y-97745273D01*
X83710147Y-98006426D01*
X83655000Y-98283665D01*
X83655000Y-98566335D01*
X83710147Y-98843574D01*
X83818320Y-99104727D01*
X83975363Y-99339759D01*
X84175241Y-99539637D01*
X84410273Y-99696680D01*
X84671426Y-99804853D01*
X84948665Y-99860000D01*
X85231335Y-99860000D01*
X85508574Y-99804853D01*
X85769727Y-99696680D01*
X86004759Y-99539637D01*
X86204637Y-99339759D01*
X86361680Y-99104727D01*
X86469853Y-98843574D01*
X86525000Y-98566335D01*
X86525000Y-98425000D01*
X87693057Y-98425000D01*
X87720764Y-98706309D01*
X87802818Y-98976808D01*
X87936068Y-99226101D01*
X88115392Y-99444608D01*
X88333899Y-99623932D01*
X88466858Y-99695000D01*
X88333899Y-99766068D01*
X88115392Y-99945392D01*
X87936068Y-100163899D01*
X87802818Y-100413192D01*
X87720764Y-100683691D01*
X87693057Y-100965000D01*
X87720764Y-101246309D01*
X87802818Y-101516808D01*
X87936068Y-101766101D01*
X88115392Y-101984608D01*
X88333899Y-102163932D01*
X88466858Y-102235000D01*
X88333899Y-102306068D01*
X88115392Y-102485392D01*
X87936068Y-102703899D01*
X87802818Y-102953192D01*
X87720764Y-103223691D01*
X87693057Y-103505000D01*
X87720764Y-103786309D01*
X87802818Y-104056808D01*
X87936068Y-104306101D01*
X88115392Y-104524608D01*
X88333899Y-104703932D01*
X88461741Y-104772265D01*
X88232161Y-104922399D01*
X88030500Y-105120105D01*
X87871285Y-105353354D01*
X87760633Y-105613182D01*
X87743096Y-105695961D01*
X87865085Y-105918000D01*
X89408000Y-105918000D01*
X89408000Y-105898000D01*
X89662000Y-105898000D01*
X89662000Y-105918000D01*
X91204915Y-105918000D01*
X91326904Y-105695961D01*
X91309367Y-105613182D01*
X91198715Y-105353354D01*
X91039500Y-105120105D01*
X90837839Y-104922399D01*
X90608259Y-104772265D01*
X90736101Y-104703932D01*
X90954608Y-104524608D01*
X91133932Y-104306101D01*
X91267182Y-104056808D01*
X91349236Y-103786309D01*
X91376943Y-103505000D01*
X91349236Y-103223691D01*
X91267182Y-102953192D01*
X91133932Y-102703899D01*
X90954608Y-102485392D01*
X90736101Y-102306068D01*
X90603142Y-102235000D01*
X90736101Y-102163932D01*
X90954608Y-101984608D01*
X91133932Y-101766101D01*
X91267182Y-101516808D01*
X91349236Y-101246309D01*
X91376943Y-100965000D01*
X95313057Y-100965000D01*
X95340764Y-101246309D01*
X95422818Y-101516808D01*
X95556068Y-101766101D01*
X95735392Y-101984608D01*
X95953899Y-102163932D01*
X96086858Y-102235000D01*
X95953899Y-102306068D01*
X95735392Y-102485392D01*
X95556068Y-102703899D01*
X95422818Y-102953192D01*
X95340764Y-103223691D01*
X95313057Y-103505000D01*
X95340764Y-103786309D01*
X95422818Y-104056808D01*
X95556068Y-104306101D01*
X95735392Y-104524608D01*
X95848482Y-104617419D01*
X95830518Y-104619188D01*
X95710820Y-104655498D01*
X95600506Y-104714463D01*
X95503815Y-104793815D01*
X95424463Y-104890506D01*
X95365498Y-105000820D01*
X95329188Y-105120518D01*
X95316928Y-105245000D01*
X95316928Y-106845000D01*
X95329188Y-106969482D01*
X95365498Y-107089180D01*
X95424463Y-107199494D01*
X95503815Y-107296185D01*
X95600506Y-107375537D01*
X95710820Y-107434502D01*
X95830518Y-107470812D01*
X95955000Y-107483072D01*
X98355000Y-107483072D01*
X98479482Y-107470812D01*
X98599180Y-107434502D01*
X98709494Y-107375537D01*
X98806185Y-107296185D01*
X98885537Y-107199494D01*
X98944502Y-107089180D01*
X98980812Y-106969482D01*
X98993072Y-106845000D01*
X98993072Y-105245000D01*
X98980812Y-105120518D01*
X98944502Y-105000820D01*
X98885537Y-104890506D01*
X98806185Y-104793815D01*
X98709494Y-104714463D01*
X98599180Y-104655498D01*
X98479482Y-104619188D01*
X98461518Y-104617419D01*
X98574608Y-104524608D01*
X98753932Y-104306101D01*
X98887182Y-104056808D01*
X98969236Y-103786309D01*
X98996943Y-103505000D01*
X98969236Y-103223691D01*
X98887182Y-102953192D01*
X98753932Y-102703899D01*
X98574608Y-102485392D01*
X98356101Y-102306068D01*
X98223142Y-102235000D01*
X98356101Y-102163932D01*
X98574608Y-101984608D01*
X98753932Y-101766101D01*
X98887182Y-101516808D01*
X98969236Y-101246309D01*
X98996943Y-100965000D01*
X98983023Y-100823665D01*
X100165000Y-100823665D01*
X100165000Y-101106335D01*
X100220147Y-101383574D01*
X100328320Y-101644727D01*
X100485363Y-101879759D01*
X100685241Y-102079637D01*
X100920273Y-102236680D01*
X101181426Y-102344853D01*
X101458665Y-102400000D01*
X101741335Y-102400000D01*
X102018574Y-102344853D01*
X102279727Y-102236680D01*
X102370000Y-102176361D01*
X102370000Y-102928639D01*
X102279727Y-102868320D01*
X102018574Y-102760147D01*
X101741335Y-102705000D01*
X101458665Y-102705000D01*
X101181426Y-102760147D01*
X100920273Y-102868320D01*
X100685241Y-103025363D01*
X100485363Y-103225241D01*
X100328320Y-103460273D01*
X100220147Y-103721426D01*
X100165000Y-103998665D01*
X100165000Y-104281335D01*
X100220147Y-104558574D01*
X100328320Y-104819727D01*
X100485363Y-105054759D01*
X100685241Y-105254637D01*
X100887827Y-105390000D01*
X100685241Y-105525363D01*
X100485363Y-105725241D01*
X100328320Y-105960273D01*
X100220147Y-106221426D01*
X100165000Y-106498665D01*
X100165000Y-106781335D01*
X100220147Y-107058574D01*
X100328320Y-107319727D01*
X100485363Y-107554759D01*
X100685241Y-107754637D01*
X100920273Y-107911680D01*
X101181426Y-108019853D01*
X101458665Y-108075000D01*
X101741335Y-108075000D01*
X102018574Y-108019853D01*
X102279727Y-107911680D01*
X102514759Y-107754637D01*
X102677098Y-107592298D01*
X108406903Y-107592298D01*
X109220000Y-108405395D01*
X110033097Y-107592298D01*
X109961514Y-107348329D01*
X109706004Y-107227429D01*
X109431816Y-107158700D01*
X109149488Y-107144783D01*
X108869870Y-107186213D01*
X108603708Y-107281397D01*
X108478486Y-107348329D01*
X108406903Y-107592298D01*
X102677098Y-107592298D01*
X102714637Y-107554759D01*
X102871680Y-107319727D01*
X102979853Y-107058574D01*
X103027850Y-106817282D01*
X103451093Y-106394039D01*
X111873096Y-106394039D01*
X111890633Y-106476818D01*
X112001285Y-106736646D01*
X112160500Y-106969895D01*
X112362161Y-107167601D01*
X112598517Y-107322166D01*
X112860486Y-107427650D01*
X113138000Y-107480000D01*
X113538000Y-107480000D01*
X113538000Y-106172000D01*
X113792000Y-106172000D01*
X113792000Y-107480000D01*
X114192000Y-107480000D01*
X114469514Y-107427650D01*
X114731483Y-107322166D01*
X114967839Y-107167601D01*
X115169500Y-106969895D01*
X115328715Y-106736646D01*
X115439367Y-106476818D01*
X115456904Y-106394039D01*
X115334915Y-106172000D01*
X113792000Y-106172000D01*
X113538000Y-106172000D01*
X111995085Y-106172000D01*
X111873096Y-106394039D01*
X103451093Y-106394039D01*
X104268141Y-105576991D01*
X104311449Y-105541449D01*
X104453284Y-105368623D01*
X104558676Y-105171447D01*
X104623577Y-104957499D01*
X104624998Y-104943072D01*
X106210000Y-104943072D01*
X106334482Y-104930812D01*
X106454180Y-104894502D01*
X106564494Y-104835537D01*
X106661185Y-104756185D01*
X106740537Y-104659494D01*
X106799502Y-104549180D01*
X106835812Y-104429482D01*
X106848072Y-104305000D01*
X106848072Y-103363665D01*
X107785000Y-103363665D01*
X107785000Y-103646335D01*
X107840147Y-103923574D01*
X107948320Y-104184727D01*
X108105363Y-104419759D01*
X108305241Y-104619637D01*
X108540273Y-104776680D01*
X108801426Y-104884853D01*
X109078665Y-104940000D01*
X109361335Y-104940000D01*
X109638574Y-104884853D01*
X109899727Y-104776680D01*
X110134759Y-104619637D01*
X110334637Y-104419759D01*
X110491680Y-104184727D01*
X110599853Y-103923574D01*
X110655000Y-103646335D01*
X110655000Y-103363665D01*
X110599853Y-103086426D01*
X110491680Y-102825273D01*
X110334637Y-102590241D01*
X110134759Y-102390363D01*
X109899727Y-102233320D01*
X109638574Y-102125147D01*
X109361335Y-102070000D01*
X109078665Y-102070000D01*
X108801426Y-102125147D01*
X108540273Y-102233320D01*
X108305241Y-102390363D01*
X108105363Y-102590241D01*
X107948320Y-102825273D01*
X107840147Y-103086426D01*
X107785000Y-103363665D01*
X106848072Y-103363665D01*
X106848072Y-102705000D01*
X106835812Y-102580518D01*
X106799502Y-102460820D01*
X106740537Y-102350506D01*
X106661185Y-102253815D01*
X106564494Y-102174463D01*
X106454180Y-102115498D01*
X106334482Y-102079188D01*
X106210000Y-102066928D01*
X104640000Y-102066928D01*
X104640000Y-99636362D01*
X104730273Y-99696680D01*
X104991426Y-99804853D01*
X105268665Y-99860000D01*
X105551335Y-99860000D01*
X105828574Y-99804853D01*
X106089727Y-99696680D01*
X106324759Y-99539637D01*
X106524637Y-99339759D01*
X106681680Y-99104727D01*
X106789853Y-98843574D01*
X106845000Y-98566335D01*
X106845000Y-98283665D01*
X106789853Y-98006426D01*
X106681680Y-97745273D01*
X106524637Y-97510241D01*
X106324759Y-97310363D01*
X106089727Y-97153320D01*
X105864432Y-97060000D01*
X108335716Y-97060000D01*
X108507827Y-97175000D01*
X108305241Y-97310363D01*
X108105363Y-97510241D01*
X107948320Y-97745273D01*
X107840147Y-98006426D01*
X107785000Y-98283665D01*
X107785000Y-98566335D01*
X107840147Y-98843574D01*
X107948320Y-99104727D01*
X108105363Y-99339759D01*
X108305241Y-99539637D01*
X108540273Y-99696680D01*
X108801426Y-99804853D01*
X109078665Y-99860000D01*
X109361335Y-99860000D01*
X109638574Y-99804853D01*
X109899727Y-99696680D01*
X110134759Y-99539637D01*
X110334637Y-99339759D01*
X110491680Y-99104727D01*
X110599853Y-98843574D01*
X110655000Y-98566335D01*
X110655000Y-98425000D01*
X111823057Y-98425000D01*
X111850764Y-98706309D01*
X111932818Y-98976808D01*
X112066068Y-99226101D01*
X112245392Y-99444608D01*
X112463899Y-99623932D01*
X112596858Y-99695000D01*
X112463899Y-99766068D01*
X112245392Y-99945392D01*
X112066068Y-100163899D01*
X111932818Y-100413192D01*
X111850764Y-100683691D01*
X111823057Y-100965000D01*
X111850764Y-101246309D01*
X111932818Y-101516808D01*
X112066068Y-101766101D01*
X112245392Y-101984608D01*
X112463899Y-102163932D01*
X112596858Y-102235000D01*
X112463899Y-102306068D01*
X112245392Y-102485392D01*
X112066068Y-102703899D01*
X111932818Y-102953192D01*
X111850764Y-103223691D01*
X111823057Y-103505000D01*
X111850764Y-103786309D01*
X111932818Y-104056808D01*
X112066068Y-104306101D01*
X112245392Y-104524608D01*
X112463899Y-104703932D01*
X112591741Y-104772265D01*
X112362161Y-104922399D01*
X112160500Y-105120105D01*
X112001285Y-105353354D01*
X111890633Y-105613182D01*
X111873096Y-105695961D01*
X111995085Y-105918000D01*
X113538000Y-105918000D01*
X113538000Y-105898000D01*
X113792000Y-105898000D01*
X113792000Y-105918000D01*
X115334915Y-105918000D01*
X115456904Y-105695961D01*
X115439367Y-105613182D01*
X115328715Y-105353354D01*
X115169500Y-105120105D01*
X114967839Y-104922399D01*
X114738259Y-104772265D01*
X114866101Y-104703932D01*
X115084608Y-104524608D01*
X115263932Y-104306101D01*
X115397182Y-104056808D01*
X115479236Y-103786309D01*
X115506943Y-103505000D01*
X115479236Y-103223691D01*
X115397182Y-102953192D01*
X115263932Y-102703899D01*
X115084608Y-102485392D01*
X114866101Y-102306068D01*
X114733142Y-102235000D01*
X114866101Y-102163932D01*
X115084608Y-101984608D01*
X115263932Y-101766101D01*
X115397182Y-101516808D01*
X115479236Y-101246309D01*
X115506943Y-100965000D01*
X119443057Y-100965000D01*
X119470764Y-101246309D01*
X119552818Y-101516808D01*
X119686068Y-101766101D01*
X119865392Y-101984608D01*
X120083899Y-102163932D01*
X120216858Y-102235000D01*
X120083899Y-102306068D01*
X119865392Y-102485392D01*
X119686068Y-102703899D01*
X119552818Y-102953192D01*
X119470764Y-103223691D01*
X119443057Y-103505000D01*
X119470764Y-103786309D01*
X119552818Y-104056808D01*
X119686068Y-104306101D01*
X119865392Y-104524608D01*
X119978482Y-104617419D01*
X119960518Y-104619188D01*
X119840820Y-104655498D01*
X119730506Y-104714463D01*
X119633815Y-104793815D01*
X119554463Y-104890506D01*
X119495498Y-105000820D01*
X119459188Y-105120518D01*
X119446928Y-105245000D01*
X119446928Y-106845000D01*
X119459188Y-106969482D01*
X119495498Y-107089180D01*
X119554463Y-107199494D01*
X119633815Y-107296185D01*
X119730506Y-107375537D01*
X119840820Y-107434502D01*
X119960518Y-107470812D01*
X120085000Y-107483072D01*
X122485000Y-107483072D01*
X122609482Y-107470812D01*
X122729180Y-107434502D01*
X122839494Y-107375537D01*
X122936185Y-107296185D01*
X123015537Y-107199494D01*
X123074502Y-107089180D01*
X123110812Y-106969482D01*
X123123072Y-106845000D01*
X123123072Y-105245000D01*
X123110812Y-105120518D01*
X123074502Y-105000820D01*
X123015537Y-104890506D01*
X122936185Y-104793815D01*
X122839494Y-104714463D01*
X122729180Y-104655498D01*
X122609482Y-104619188D01*
X122591518Y-104617419D01*
X122704608Y-104524608D01*
X122883932Y-104306101D01*
X123017182Y-104056808D01*
X123034819Y-103998665D01*
X124295000Y-103998665D01*
X124295000Y-104281335D01*
X124350147Y-104558574D01*
X124458320Y-104819727D01*
X124615363Y-105054759D01*
X124815241Y-105254637D01*
X125017827Y-105390000D01*
X124815241Y-105525363D01*
X124615363Y-105725241D01*
X124458320Y-105960273D01*
X124350147Y-106221426D01*
X124295000Y-106498665D01*
X124295000Y-106781335D01*
X124350147Y-107058574D01*
X124458320Y-107319727D01*
X124615363Y-107554759D01*
X124815241Y-107754637D01*
X125050273Y-107911680D01*
X125311426Y-108019853D01*
X125588665Y-108075000D01*
X125871335Y-108075000D01*
X126148574Y-108019853D01*
X126409727Y-107911680D01*
X126644759Y-107754637D01*
X126844637Y-107554759D01*
X127001680Y-107319727D01*
X127109853Y-107058574D01*
X127165000Y-106781335D01*
X127165000Y-106498665D01*
X127109853Y-106221426D01*
X127001680Y-105960273D01*
X126844637Y-105725241D01*
X126644759Y-105525363D01*
X126442173Y-105390000D01*
X126644759Y-105254637D01*
X126844637Y-105054759D01*
X127001680Y-104819727D01*
X127109853Y-104558574D01*
X127165000Y-104281335D01*
X127165000Y-103998665D01*
X127109853Y-103721426D01*
X127001680Y-103460273D01*
X126844637Y-103225241D01*
X126644759Y-103025363D01*
X126409727Y-102868320D01*
X126148574Y-102760147D01*
X125871335Y-102705000D01*
X125588665Y-102705000D01*
X125311426Y-102760147D01*
X125050273Y-102868320D01*
X124815241Y-103025363D01*
X124615363Y-103225241D01*
X124458320Y-103460273D01*
X124350147Y-103721426D01*
X124295000Y-103998665D01*
X123034819Y-103998665D01*
X123099236Y-103786309D01*
X123126943Y-103505000D01*
X123099236Y-103223691D01*
X123017182Y-102953192D01*
X122883932Y-102703899D01*
X122704608Y-102485392D01*
X122486101Y-102306068D01*
X122353142Y-102235000D01*
X122486101Y-102163932D01*
X122704608Y-101984608D01*
X122883932Y-101766101D01*
X123017182Y-101516808D01*
X123099236Y-101246309D01*
X123126943Y-100965000D01*
X123113023Y-100823665D01*
X124295000Y-100823665D01*
X124295000Y-101106335D01*
X124350147Y-101383574D01*
X124458320Y-101644727D01*
X124615363Y-101879759D01*
X124815241Y-102079637D01*
X125050273Y-102236680D01*
X125311426Y-102344853D01*
X125588665Y-102400000D01*
X125871335Y-102400000D01*
X126148574Y-102344853D01*
X126409727Y-102236680D01*
X126644759Y-102079637D01*
X126844637Y-101879759D01*
X127001680Y-101644727D01*
X127109853Y-101383574D01*
X127165000Y-101106335D01*
X127165000Y-100823665D01*
X127109853Y-100546426D01*
X127001680Y-100285273D01*
X126844637Y-100050241D01*
X126644759Y-99850363D01*
X126409727Y-99693320D01*
X126148574Y-99585147D01*
X125871335Y-99530000D01*
X125588665Y-99530000D01*
X125311426Y-99585147D01*
X125050273Y-99693320D01*
X124815241Y-99850363D01*
X124615363Y-100050241D01*
X124458320Y-100285273D01*
X124350147Y-100546426D01*
X124295000Y-100823665D01*
X123113023Y-100823665D01*
X123099236Y-100683691D01*
X123017182Y-100413192D01*
X122883932Y-100163899D01*
X122704608Y-99945392D01*
X122486101Y-99766068D01*
X122358259Y-99697735D01*
X122587839Y-99547601D01*
X122789500Y-99349895D01*
X122948715Y-99116646D01*
X123059367Y-98856818D01*
X123076904Y-98774039D01*
X122954915Y-98552000D01*
X121412000Y-98552000D01*
X121412000Y-98572000D01*
X121158000Y-98572000D01*
X121158000Y-98552000D01*
X119615085Y-98552000D01*
X119493096Y-98774039D01*
X119510633Y-98856818D01*
X119621285Y-99116646D01*
X119780500Y-99349895D01*
X119982161Y-99547601D01*
X120211741Y-99697735D01*
X120083899Y-99766068D01*
X119865392Y-99945392D01*
X119686068Y-100163899D01*
X119552818Y-100413192D01*
X119470764Y-100683691D01*
X119443057Y-100965000D01*
X115506943Y-100965000D01*
X115479236Y-100683691D01*
X115397182Y-100413192D01*
X115263932Y-100163899D01*
X115084608Y-99945392D01*
X114866101Y-99766068D01*
X114733142Y-99695000D01*
X114866101Y-99623932D01*
X115084608Y-99444608D01*
X115263932Y-99226101D01*
X115397182Y-98976808D01*
X115479236Y-98706309D01*
X115506943Y-98425000D01*
X115479236Y-98143691D01*
X115458691Y-98075961D01*
X119493096Y-98075961D01*
X119615085Y-98298000D01*
X121158000Y-98298000D01*
X121158000Y-96990000D01*
X121412000Y-96990000D01*
X121412000Y-98298000D01*
X122954915Y-98298000D01*
X123076904Y-98075961D01*
X123059367Y-97993182D01*
X122948715Y-97733354D01*
X122789500Y-97500105D01*
X122587839Y-97302399D01*
X122351483Y-97147834D01*
X122089514Y-97042350D01*
X121812000Y-96990000D01*
X121412000Y-96990000D01*
X121158000Y-96990000D01*
X120758000Y-96990000D01*
X120480486Y-97042350D01*
X120218517Y-97147834D01*
X119982161Y-97302399D01*
X119780500Y-97500105D01*
X119621285Y-97733354D01*
X119510633Y-97993182D01*
X119493096Y-98075961D01*
X115458691Y-98075961D01*
X115397182Y-97873192D01*
X115263932Y-97623899D01*
X115084608Y-97405392D01*
X114866101Y-97226068D01*
X114616808Y-97092818D01*
X114346309Y-97010764D01*
X114135492Y-96990000D01*
X113194508Y-96990000D01*
X112983691Y-97010764D01*
X112713192Y-97092818D01*
X112463899Y-97226068D01*
X112245392Y-97405392D01*
X112066068Y-97623899D01*
X111932818Y-97873192D01*
X111850764Y-98143691D01*
X111823057Y-98425000D01*
X110655000Y-98425000D01*
X110655000Y-98283665D01*
X110599853Y-98006426D01*
X110491680Y-97745273D01*
X110334637Y-97510241D01*
X110134759Y-97310363D01*
X109932173Y-97175000D01*
X110134759Y-97039637D01*
X110334637Y-96839759D01*
X110491680Y-96604727D01*
X110599853Y-96343574D01*
X110655000Y-96066335D01*
X110655000Y-95783665D01*
X110599853Y-95506426D01*
X110491680Y-95245273D01*
X110334637Y-95010241D01*
X110134759Y-94810363D01*
X109899727Y-94653320D01*
X109638574Y-94545147D01*
X109361335Y-94490000D01*
X109078665Y-94490000D01*
X108801426Y-94545147D01*
X108540273Y-94653320D01*
X108335716Y-94790000D01*
X105075220Y-94790000D01*
X104997498Y-94766423D01*
X104775000Y-94744509D01*
X104592399Y-94762494D01*
X104552500Y-94766423D01*
X104452909Y-94796634D01*
X104338554Y-94831324D01*
X104246770Y-94880384D01*
X104141377Y-94936717D01*
X104011856Y-95043012D01*
X104011849Y-95043019D01*
X103968552Y-95078552D01*
X103933019Y-95121849D01*
X102741860Y-96313009D01*
X102698552Y-96348551D01*
X102556717Y-96521377D01*
X102536809Y-96558623D01*
X102451324Y-96718554D01*
X102386423Y-96932502D01*
X102364509Y-97155000D01*
X102370001Y-97210761D01*
X102370001Y-99753639D01*
X102279727Y-99693320D01*
X102018574Y-99585147D01*
X101741335Y-99530000D01*
X101458665Y-99530000D01*
X101181426Y-99585147D01*
X100920273Y-99693320D01*
X100685241Y-99850363D01*
X100485363Y-100050241D01*
X100328320Y-100285273D01*
X100220147Y-100546426D01*
X100165000Y-100823665D01*
X98983023Y-100823665D01*
X98969236Y-100683691D01*
X98887182Y-100413192D01*
X98753932Y-100163899D01*
X98574608Y-99945392D01*
X98356101Y-99766068D01*
X98228259Y-99697735D01*
X98457839Y-99547601D01*
X98659500Y-99349895D01*
X98818715Y-99116646D01*
X98929367Y-98856818D01*
X98946904Y-98774039D01*
X98824915Y-98552000D01*
X97282000Y-98552000D01*
X97282000Y-98572000D01*
X97028000Y-98572000D01*
X97028000Y-98552000D01*
X95485085Y-98552000D01*
X95363096Y-98774039D01*
X95380633Y-98856818D01*
X95491285Y-99116646D01*
X95650500Y-99349895D01*
X95852161Y-99547601D01*
X96081741Y-99697735D01*
X95953899Y-99766068D01*
X95735392Y-99945392D01*
X95556068Y-100163899D01*
X95422818Y-100413192D01*
X95340764Y-100683691D01*
X95313057Y-100965000D01*
X91376943Y-100965000D01*
X91349236Y-100683691D01*
X91267182Y-100413192D01*
X91133932Y-100163899D01*
X90954608Y-99945392D01*
X90736101Y-99766068D01*
X90603142Y-99695000D01*
X90736101Y-99623932D01*
X90954608Y-99444608D01*
X91133932Y-99226101D01*
X91267182Y-98976808D01*
X91349236Y-98706309D01*
X91376943Y-98425000D01*
X91349236Y-98143691D01*
X91328691Y-98075961D01*
X95363096Y-98075961D01*
X95485085Y-98298000D01*
X97028000Y-98298000D01*
X97028000Y-96990000D01*
X97282000Y-96990000D01*
X97282000Y-98298000D01*
X98824915Y-98298000D01*
X98946904Y-98075961D01*
X98929367Y-97993182D01*
X98818715Y-97733354D01*
X98659500Y-97500105D01*
X98457839Y-97302399D01*
X98221483Y-97147834D01*
X97959514Y-97042350D01*
X97682000Y-96990000D01*
X97282000Y-96990000D01*
X97028000Y-96990000D01*
X96628000Y-96990000D01*
X96350486Y-97042350D01*
X96088517Y-97147834D01*
X95852161Y-97302399D01*
X95650500Y-97500105D01*
X95491285Y-97733354D01*
X95380633Y-97993182D01*
X95363096Y-98075961D01*
X91328691Y-98075961D01*
X91267182Y-97873192D01*
X91133932Y-97623899D01*
X90954608Y-97405392D01*
X90736101Y-97226068D01*
X90486808Y-97092818D01*
X90216309Y-97010764D01*
X90005492Y-96990000D01*
X89064508Y-96990000D01*
X88853691Y-97010764D01*
X88583192Y-97092818D01*
X88333899Y-97226068D01*
X88115392Y-97405392D01*
X87936068Y-97623899D01*
X87802818Y-97873192D01*
X87720764Y-98143691D01*
X87693057Y-98425000D01*
X86525000Y-98425000D01*
X86525000Y-98283665D01*
X86469853Y-98006426D01*
X86361680Y-97745273D01*
X86204637Y-97510241D01*
X86004759Y-97310363D01*
X85802173Y-97175000D01*
X86004759Y-97039637D01*
X86204637Y-96839759D01*
X86361680Y-96604727D01*
X86469853Y-96343574D01*
X86525000Y-96066335D01*
X86525000Y-95783665D01*
X86469853Y-95506426D01*
X86361680Y-95245273D01*
X86204637Y-95010241D01*
X86004759Y-94810363D01*
X85769727Y-94653320D01*
X85508574Y-94545147D01*
X85231335Y-94490000D01*
X84948665Y-94490000D01*
X84671426Y-94545147D01*
X84410273Y-94653320D01*
X84205716Y-94790000D01*
X81580221Y-94790000D01*
X81502499Y-94766423D01*
X81280000Y-94744509D01*
X81057501Y-94766423D01*
X80843553Y-94831324D01*
X80646377Y-94936716D01*
X80516856Y-95043012D01*
X80516849Y-95043019D01*
X80473552Y-95078552D01*
X80438019Y-95121849D01*
X78611860Y-96948009D01*
X78568552Y-96983551D01*
X78426717Y-97156377D01*
X78321324Y-97353553D01*
X78256423Y-97567501D01*
X78243190Y-97701857D01*
X78234509Y-97790000D01*
X78240000Y-97845751D01*
X78240000Y-98164780D01*
X78216423Y-98242502D01*
X78194509Y-98465000D01*
X78200001Y-98520761D01*
X78200001Y-99726912D01*
X78149727Y-99693320D01*
X77888574Y-99585147D01*
X77611335Y-99530000D01*
X77328665Y-99530000D01*
X77051426Y-99585147D01*
X76790273Y-99693320D01*
X76555241Y-99850363D01*
X76355363Y-100050241D01*
X76198320Y-100285273D01*
X76090147Y-100546426D01*
X76035000Y-100823665D01*
X74853023Y-100823665D01*
X74839236Y-100683691D01*
X74757182Y-100413192D01*
X74623932Y-100163899D01*
X74444608Y-99945392D01*
X74226101Y-99766068D01*
X74098259Y-99697735D01*
X74327839Y-99547601D01*
X74529500Y-99349895D01*
X74688715Y-99116646D01*
X74799367Y-98856818D01*
X74816904Y-98774039D01*
X74694915Y-98552000D01*
X73152000Y-98552000D01*
X73152000Y-98572000D01*
X72898000Y-98572000D01*
X72898000Y-98552000D01*
X71355085Y-98552000D01*
X71233096Y-98774039D01*
X71250633Y-98856818D01*
X71361285Y-99116646D01*
X71520500Y-99349895D01*
X71722161Y-99547601D01*
X71951741Y-99697735D01*
X71823899Y-99766068D01*
X71605392Y-99945392D01*
X71426068Y-100163899D01*
X71292818Y-100413192D01*
X71210764Y-100683691D01*
X71183057Y-100965000D01*
X67246943Y-100965000D01*
X67219236Y-100683691D01*
X67137182Y-100413192D01*
X67003932Y-100163899D01*
X66824608Y-99945392D01*
X66606101Y-99766068D01*
X66473142Y-99695000D01*
X66606101Y-99623932D01*
X66824608Y-99444608D01*
X67003932Y-99226101D01*
X67137182Y-98976808D01*
X67219236Y-98706309D01*
X67246943Y-98425000D01*
X67219236Y-98143691D01*
X67198691Y-98075961D01*
X71233096Y-98075961D01*
X71355085Y-98298000D01*
X72898000Y-98298000D01*
X72898000Y-96990000D01*
X73152000Y-96990000D01*
X73152000Y-98298000D01*
X74694915Y-98298000D01*
X74816904Y-98075961D01*
X74799367Y-97993182D01*
X74688715Y-97733354D01*
X74529500Y-97500105D01*
X74327839Y-97302399D01*
X74091483Y-97147834D01*
X73829514Y-97042350D01*
X73552000Y-96990000D01*
X73152000Y-96990000D01*
X72898000Y-96990000D01*
X72498000Y-96990000D01*
X72220486Y-97042350D01*
X71958517Y-97147834D01*
X71722161Y-97302399D01*
X71520500Y-97500105D01*
X71361285Y-97733354D01*
X71250633Y-97993182D01*
X71233096Y-98075961D01*
X67198691Y-98075961D01*
X67137182Y-97873192D01*
X67003932Y-97623899D01*
X66824608Y-97405392D01*
X66606101Y-97226068D01*
X66356808Y-97092818D01*
X66086309Y-97010764D01*
X65875492Y-96990000D01*
X64934508Y-96990000D01*
X64723691Y-97010764D01*
X64453192Y-97092818D01*
X64203899Y-97226068D01*
X63985392Y-97405392D01*
X63806068Y-97623899D01*
X63672818Y-97873192D01*
X63590764Y-98143691D01*
X63563057Y-98425000D01*
X62395000Y-98425000D01*
X62395000Y-98283665D01*
X62339853Y-98006426D01*
X62231680Y-97745273D01*
X62074637Y-97510241D01*
X61874759Y-97310363D01*
X61672173Y-97175000D01*
X61874759Y-97039637D01*
X62074637Y-96839759D01*
X62231680Y-96604727D01*
X62339853Y-96343574D01*
X62395000Y-96066335D01*
X62395000Y-95783665D01*
X62339853Y-95506426D01*
X62231680Y-95245273D01*
X62074637Y-95010241D01*
X61874759Y-94810363D01*
X61639727Y-94653320D01*
X61378574Y-94545147D01*
X61101335Y-94490000D01*
X60818665Y-94490000D01*
X60541426Y-94545147D01*
X60280273Y-94653320D01*
X60045241Y-94810363D01*
X59845363Y-95010241D01*
X59688320Y-95245273D01*
X59580147Y-95506426D01*
X59525000Y-95783665D01*
X54737000Y-95783665D01*
X54737000Y-90005000D01*
X55711928Y-90005000D01*
X55711928Y-91605000D01*
X55724188Y-91729482D01*
X55760498Y-91849180D01*
X55819463Y-91959494D01*
X55898815Y-92056185D01*
X55995506Y-92135537D01*
X56105820Y-92194502D01*
X56225518Y-92230812D01*
X56350000Y-92243072D01*
X57950000Y-92243072D01*
X58074482Y-92230812D01*
X58194180Y-92194502D01*
X58304494Y-92135537D01*
X58401185Y-92056185D01*
X58480537Y-91959494D01*
X58539502Y-91849180D01*
X58575812Y-91729482D01*
X58588072Y-91605000D01*
X58588072Y-90679514D01*
X65087500Y-90679514D01*
X65087500Y-90930485D01*
X65110470Y-91163703D01*
X65201245Y-91462948D01*
X65348655Y-91738734D01*
X65547037Y-91980463D01*
X65788765Y-92178845D01*
X66064551Y-92326255D01*
X66363796Y-92417030D01*
X66675000Y-92447681D01*
X66986203Y-92417030D01*
X67285448Y-92326255D01*
X67561234Y-92178845D01*
X67802963Y-91980463D01*
X67945000Y-91807391D01*
X68087037Y-91980463D01*
X68328765Y-92178845D01*
X68604551Y-92326255D01*
X68903796Y-92417030D01*
X69215000Y-92447681D01*
X69526203Y-92417030D01*
X69825448Y-92326255D01*
X70101234Y-92178845D01*
X70227095Y-92075553D01*
X70271963Y-92159494D01*
X70351315Y-92256185D01*
X70448006Y-92335537D01*
X70558320Y-92394502D01*
X70678018Y-92430812D01*
X70802500Y-92443072D01*
X72707500Y-92443072D01*
X72831982Y-92430812D01*
X72951680Y-92394502D01*
X73061994Y-92335537D01*
X73158685Y-92256185D01*
X73238037Y-92159494D01*
X73297002Y-92049180D01*
X73333312Y-91929482D01*
X73345572Y-91805000D01*
X73345572Y-90663665D01*
X76035000Y-90663665D01*
X76035000Y-90946335D01*
X76090147Y-91223574D01*
X76198320Y-91484727D01*
X76355363Y-91719759D01*
X76555241Y-91919637D01*
X76790273Y-92076680D01*
X77051426Y-92184853D01*
X77328665Y-92240000D01*
X77611335Y-92240000D01*
X77888574Y-92184853D01*
X78149727Y-92076680D01*
X78384759Y-91919637D01*
X78584637Y-91719759D01*
X78741680Y-91484727D01*
X78849853Y-91223574D01*
X78905000Y-90946335D01*
X78905000Y-90663665D01*
X78900293Y-90640000D01*
X79841928Y-90640000D01*
X79841928Y-92240000D01*
X79854188Y-92364482D01*
X79890498Y-92484180D01*
X79949463Y-92594494D01*
X80028815Y-92691185D01*
X80125506Y-92770537D01*
X80235820Y-92829502D01*
X80355518Y-92865812D01*
X80480000Y-92878072D01*
X82080000Y-92878072D01*
X82204482Y-92865812D01*
X82324180Y-92829502D01*
X82434494Y-92770537D01*
X82531185Y-92691185D01*
X82610537Y-92594494D01*
X82669502Y-92484180D01*
X82705812Y-92364482D01*
X82718072Y-92240000D01*
X82718072Y-90679514D01*
X89217500Y-90679514D01*
X89217500Y-90930485D01*
X89240470Y-91163703D01*
X89331245Y-91462948D01*
X89478655Y-91738734D01*
X89677037Y-91980463D01*
X89918765Y-92178845D01*
X90194551Y-92326255D01*
X90493796Y-92417030D01*
X90805000Y-92447681D01*
X91116203Y-92417030D01*
X91415448Y-92326255D01*
X91691234Y-92178845D01*
X91932963Y-91980463D01*
X92075000Y-91807391D01*
X92217037Y-91980463D01*
X92458765Y-92178845D01*
X92734551Y-92326255D01*
X93033796Y-92417030D01*
X93345000Y-92447681D01*
X93656203Y-92417030D01*
X93955448Y-92326255D01*
X94231234Y-92178845D01*
X94357095Y-92075553D01*
X94401963Y-92159494D01*
X94481315Y-92256185D01*
X94578006Y-92335537D01*
X94688320Y-92394502D01*
X94808018Y-92430812D01*
X94932500Y-92443072D01*
X96837500Y-92443072D01*
X96961982Y-92430812D01*
X97081680Y-92394502D01*
X97191994Y-92335537D01*
X97288685Y-92256185D01*
X97368037Y-92159494D01*
X97427002Y-92049180D01*
X97463312Y-91929482D01*
X97475572Y-91805000D01*
X97475572Y-90663665D01*
X100165000Y-90663665D01*
X100165000Y-90946335D01*
X100220147Y-91223574D01*
X100328320Y-91484727D01*
X100485363Y-91719759D01*
X100685241Y-91919637D01*
X100920273Y-92076680D01*
X101181426Y-92184853D01*
X101458665Y-92240000D01*
X101741335Y-92240000D01*
X102018574Y-92184853D01*
X102279727Y-92076680D01*
X102514759Y-91919637D01*
X102714637Y-91719759D01*
X102871680Y-91484727D01*
X102979853Y-91223574D01*
X103035000Y-90946335D01*
X103035000Y-90663665D01*
X102979853Y-90386426D01*
X102871680Y-90125273D01*
X102791317Y-90005000D01*
X103971928Y-90005000D01*
X103971928Y-91605000D01*
X103984188Y-91729482D01*
X104020498Y-91849180D01*
X104079463Y-91959494D01*
X104158815Y-92056185D01*
X104255506Y-92135537D01*
X104365820Y-92194502D01*
X104485518Y-92230812D01*
X104610000Y-92243072D01*
X106210000Y-92243072D01*
X106334482Y-92230812D01*
X106454180Y-92194502D01*
X106564494Y-92135537D01*
X106661185Y-92056185D01*
X106740537Y-91959494D01*
X106799502Y-91849180D01*
X106835812Y-91729482D01*
X106848072Y-91605000D01*
X106848072Y-90679514D01*
X113347500Y-90679514D01*
X113347500Y-90930485D01*
X113370470Y-91163703D01*
X113461245Y-91462948D01*
X113608655Y-91738734D01*
X113807037Y-91980463D01*
X114048765Y-92178845D01*
X114324551Y-92326255D01*
X114623796Y-92417030D01*
X114935000Y-92447681D01*
X115246203Y-92417030D01*
X115545448Y-92326255D01*
X115821234Y-92178845D01*
X116062963Y-91980463D01*
X116205000Y-91807391D01*
X116347037Y-91980463D01*
X116588765Y-92178845D01*
X116864551Y-92326255D01*
X117163796Y-92417030D01*
X117475000Y-92447681D01*
X117786203Y-92417030D01*
X118085448Y-92326255D01*
X118361234Y-92178845D01*
X118487095Y-92075553D01*
X118531963Y-92159494D01*
X118611315Y-92256185D01*
X118708006Y-92335537D01*
X118818320Y-92394502D01*
X118938018Y-92430812D01*
X119062500Y-92443072D01*
X120967500Y-92443072D01*
X121091982Y-92430812D01*
X121211680Y-92394502D01*
X121321994Y-92335537D01*
X121418685Y-92256185D01*
X121498037Y-92159494D01*
X121557002Y-92049180D01*
X121593312Y-91929482D01*
X121605572Y-91805000D01*
X121605572Y-90663665D01*
X124295000Y-90663665D01*
X124295000Y-90946335D01*
X124350147Y-91223574D01*
X124458320Y-91484727D01*
X124615363Y-91719759D01*
X124815241Y-91919637D01*
X125050273Y-92076680D01*
X125311426Y-92184853D01*
X125588665Y-92240000D01*
X125871335Y-92240000D01*
X126148574Y-92184853D01*
X126409727Y-92076680D01*
X126644759Y-91919637D01*
X126844637Y-91719759D01*
X127001680Y-91484727D01*
X127109853Y-91223574D01*
X127165000Y-90946335D01*
X127165000Y-90663665D01*
X127109853Y-90386426D01*
X127001680Y-90125273D01*
X126844637Y-89890241D01*
X126644759Y-89690363D01*
X126409727Y-89533320D01*
X126148574Y-89425147D01*
X125871335Y-89370000D01*
X125588665Y-89370000D01*
X125311426Y-89425147D01*
X125050273Y-89533320D01*
X124815241Y-89690363D01*
X124615363Y-89890241D01*
X124458320Y-90125273D01*
X124350147Y-90386426D01*
X124295000Y-90663665D01*
X121605572Y-90663665D01*
X121605572Y-89805000D01*
X121593312Y-89680518D01*
X121557002Y-89560820D01*
X121498037Y-89450506D01*
X121418685Y-89353815D01*
X121321994Y-89274463D01*
X121211680Y-89215498D01*
X121091982Y-89179188D01*
X120967500Y-89166928D01*
X119062500Y-89166928D01*
X118938018Y-89179188D01*
X118818320Y-89215498D01*
X118708006Y-89274463D01*
X118611315Y-89353815D01*
X118531963Y-89450506D01*
X118487095Y-89534446D01*
X118361235Y-89431155D01*
X118085449Y-89283745D01*
X117786204Y-89192970D01*
X117475000Y-89162319D01*
X117163797Y-89192970D01*
X116864552Y-89283745D01*
X116588766Y-89431155D01*
X116347037Y-89629537D01*
X116205000Y-89802609D01*
X116062963Y-89629537D01*
X115821235Y-89431155D01*
X115545449Y-89283745D01*
X115246204Y-89192970D01*
X114935000Y-89162319D01*
X114623797Y-89192970D01*
X114324552Y-89283745D01*
X114048766Y-89431155D01*
X113807037Y-89629537D01*
X113608655Y-89871265D01*
X113461245Y-90147051D01*
X113370470Y-90446296D01*
X113347500Y-90679514D01*
X106848072Y-90679514D01*
X106848072Y-90005000D01*
X106835812Y-89880518D01*
X106799502Y-89760820D01*
X106740537Y-89650506D01*
X106661185Y-89553815D01*
X106564494Y-89474463D01*
X106454180Y-89415498D01*
X106334482Y-89379188D01*
X106210000Y-89366928D01*
X104610000Y-89366928D01*
X104485518Y-89379188D01*
X104365820Y-89415498D01*
X104255506Y-89474463D01*
X104158815Y-89553815D01*
X104079463Y-89650506D01*
X104020498Y-89760820D01*
X103984188Y-89880518D01*
X103971928Y-90005000D01*
X102791317Y-90005000D01*
X102714637Y-89890241D01*
X102514759Y-89690363D01*
X102279727Y-89533320D01*
X102018574Y-89425147D01*
X101741335Y-89370000D01*
X101458665Y-89370000D01*
X101181426Y-89425147D01*
X100920273Y-89533320D01*
X100685241Y-89690363D01*
X100485363Y-89890241D01*
X100328320Y-90125273D01*
X100220147Y-90386426D01*
X100165000Y-90663665D01*
X97475572Y-90663665D01*
X97475572Y-89805000D01*
X97463312Y-89680518D01*
X97427002Y-89560820D01*
X97368037Y-89450506D01*
X97288685Y-89353815D01*
X97191994Y-89274463D01*
X97081680Y-89215498D01*
X96961982Y-89179188D01*
X96837500Y-89166928D01*
X94932500Y-89166928D01*
X94808018Y-89179188D01*
X94688320Y-89215498D01*
X94578006Y-89274463D01*
X94481315Y-89353815D01*
X94401963Y-89450506D01*
X94357095Y-89534446D01*
X94231235Y-89431155D01*
X93955449Y-89283745D01*
X93656204Y-89192970D01*
X93345000Y-89162319D01*
X93033797Y-89192970D01*
X92734552Y-89283745D01*
X92458766Y-89431155D01*
X92217037Y-89629537D01*
X92075000Y-89802609D01*
X91932963Y-89629537D01*
X91691235Y-89431155D01*
X91415449Y-89283745D01*
X91116204Y-89192970D01*
X90805000Y-89162319D01*
X90493797Y-89192970D01*
X90194552Y-89283745D01*
X89918766Y-89431155D01*
X89677037Y-89629537D01*
X89478655Y-89871265D01*
X89331245Y-90147051D01*
X89240470Y-90446296D01*
X89217500Y-90679514D01*
X82718072Y-90679514D01*
X82718072Y-90640000D01*
X82705812Y-90515518D01*
X82669502Y-90395820D01*
X82610537Y-90285506D01*
X82531185Y-90188815D01*
X82434494Y-90109463D01*
X82324180Y-90050498D01*
X82204482Y-90014188D01*
X82080000Y-90001928D01*
X80480000Y-90001928D01*
X80355518Y-90014188D01*
X80235820Y-90050498D01*
X80125506Y-90109463D01*
X80028815Y-90188815D01*
X79949463Y-90285506D01*
X79890498Y-90395820D01*
X79854188Y-90515518D01*
X79841928Y-90640000D01*
X78900293Y-90640000D01*
X78849853Y-90386426D01*
X78741680Y-90125273D01*
X78584637Y-89890241D01*
X78384759Y-89690363D01*
X78149727Y-89533320D01*
X77888574Y-89425147D01*
X77611335Y-89370000D01*
X77328665Y-89370000D01*
X77051426Y-89425147D01*
X76790273Y-89533320D01*
X76555241Y-89690363D01*
X76355363Y-89890241D01*
X76198320Y-90125273D01*
X76090147Y-90386426D01*
X76035000Y-90663665D01*
X73345572Y-90663665D01*
X73345572Y-89805000D01*
X73333312Y-89680518D01*
X73297002Y-89560820D01*
X73238037Y-89450506D01*
X73158685Y-89353815D01*
X73061994Y-89274463D01*
X72951680Y-89215498D01*
X72831982Y-89179188D01*
X72707500Y-89166928D01*
X70802500Y-89166928D01*
X70678018Y-89179188D01*
X70558320Y-89215498D01*
X70448006Y-89274463D01*
X70351315Y-89353815D01*
X70271963Y-89450506D01*
X70227095Y-89534446D01*
X70101235Y-89431155D01*
X69825449Y-89283745D01*
X69526204Y-89192970D01*
X69215000Y-89162319D01*
X68903797Y-89192970D01*
X68604552Y-89283745D01*
X68328766Y-89431155D01*
X68087037Y-89629537D01*
X67945000Y-89802609D01*
X67802963Y-89629537D01*
X67561235Y-89431155D01*
X67285449Y-89283745D01*
X66986204Y-89192970D01*
X66675000Y-89162319D01*
X66363797Y-89192970D01*
X66064552Y-89283745D01*
X65788766Y-89431155D01*
X65547037Y-89629537D01*
X65348655Y-89871265D01*
X65201245Y-90147051D01*
X65110470Y-90446296D01*
X65087500Y-90679514D01*
X58588072Y-90679514D01*
X58588072Y-90005000D01*
X58575812Y-89880518D01*
X58539502Y-89760820D01*
X58480537Y-89650506D01*
X58401185Y-89553815D01*
X58304494Y-89474463D01*
X58194180Y-89415498D01*
X58074482Y-89379188D01*
X57950000Y-89366928D01*
X56350000Y-89366928D01*
X56225518Y-89379188D01*
X56105820Y-89415498D01*
X55995506Y-89474463D01*
X55898815Y-89553815D01*
X55819463Y-89650506D01*
X55760498Y-89760820D01*
X55724188Y-89880518D01*
X55711928Y-90005000D01*
X54737000Y-90005000D01*
X54737000Y-86995000D01*
X56677718Y-86995000D01*
X56706776Y-87290032D01*
X56792834Y-87573725D01*
X56932583Y-87835179D01*
X57120655Y-88064345D01*
X57349821Y-88252417D01*
X57611275Y-88392166D01*
X57894968Y-88478224D01*
X58116064Y-88500000D01*
X58723936Y-88500000D01*
X58945032Y-88478224D01*
X59228725Y-88392166D01*
X59490179Y-88252417D01*
X59719345Y-88064345D01*
X59907417Y-87835179D01*
X60047166Y-87573725D01*
X60133224Y-87290032D01*
X60162282Y-86995000D01*
X60133224Y-86699968D01*
X60047166Y-86416275D01*
X59907417Y-86154821D01*
X59720953Y-85927615D01*
X59764180Y-85914502D01*
X59874494Y-85855537D01*
X59971185Y-85776185D01*
X60050537Y-85679494D01*
X60109502Y-85569180D01*
X60145812Y-85449482D01*
X60158072Y-85325000D01*
X60155000Y-84740750D01*
X59996250Y-84582000D01*
X58547000Y-84582000D01*
X58547000Y-84602000D01*
X58293000Y-84602000D01*
X58293000Y-84582000D01*
X56843750Y-84582000D01*
X56685000Y-84740750D01*
X56681928Y-85325000D01*
X56694188Y-85449482D01*
X56730498Y-85569180D01*
X56789463Y-85679494D01*
X56868815Y-85776185D01*
X56965506Y-85855537D01*
X57075820Y-85914502D01*
X57119047Y-85927615D01*
X56932583Y-86154821D01*
X56792834Y-86416275D01*
X56706776Y-86699968D01*
X56677718Y-86995000D01*
X54737000Y-86995000D01*
X54737000Y-83585000D01*
X56681928Y-83585000D01*
X56685000Y-84169250D01*
X56843750Y-84328000D01*
X58293000Y-84328000D01*
X58293000Y-83108750D01*
X58547000Y-83108750D01*
X58547000Y-84328000D01*
X59996250Y-84328000D01*
X60010585Y-84313665D01*
X62700000Y-84313665D01*
X62700000Y-84596335D01*
X62755147Y-84873574D01*
X62863320Y-85134727D01*
X63020363Y-85369759D01*
X63220241Y-85569637D01*
X63455273Y-85726680D01*
X63716426Y-85834853D01*
X63993665Y-85890000D01*
X64276335Y-85890000D01*
X64553574Y-85834853D01*
X64814727Y-85726680D01*
X65049759Y-85569637D01*
X65249637Y-85369759D01*
X65406680Y-85134727D01*
X65514853Y-84873574D01*
X65570000Y-84596335D01*
X65570000Y-84313665D01*
X67780000Y-84313665D01*
X67780000Y-84596335D01*
X67835147Y-84873574D01*
X67943320Y-85134727D01*
X68100363Y-85369759D01*
X68300241Y-85569637D01*
X68535273Y-85726680D01*
X68796426Y-85834853D01*
X69073665Y-85890000D01*
X69356335Y-85890000D01*
X69633574Y-85834853D01*
X69894727Y-85726680D01*
X70129759Y-85569637D01*
X70329637Y-85369759D01*
X70486680Y-85134727D01*
X70594853Y-84873574D01*
X70650000Y-84596335D01*
X70650000Y-84313665D01*
X70617657Y-84151064D01*
X72790000Y-84151064D01*
X72790000Y-84758935D01*
X72811776Y-84980031D01*
X72897834Y-85263724D01*
X73037583Y-85525178D01*
X73225655Y-85754345D01*
X73454821Y-85942417D01*
X73716275Y-86082166D01*
X73999968Y-86168224D01*
X74295000Y-86197282D01*
X74590031Y-86168224D01*
X74873724Y-86082166D01*
X75135178Y-85942417D01*
X75362385Y-85755953D01*
X75375498Y-85799180D01*
X75434463Y-85909494D01*
X75513815Y-86006185D01*
X75610506Y-86085537D01*
X75720820Y-86144502D01*
X75840518Y-86180812D01*
X75965000Y-86193072D01*
X76549250Y-86190000D01*
X76708000Y-86031250D01*
X76708000Y-84582000D01*
X76962000Y-84582000D01*
X76962000Y-86031250D01*
X77120750Y-86190000D01*
X77705000Y-86193072D01*
X77829482Y-86180812D01*
X77949180Y-86144502D01*
X78059494Y-86085537D01*
X78156185Y-86006185D01*
X78235537Y-85909494D01*
X78294502Y-85799180D01*
X78330812Y-85679482D01*
X78343072Y-85555000D01*
X78342883Y-85504872D01*
X80950000Y-85504872D01*
X80950000Y-85945128D01*
X81035890Y-86376925D01*
X81204369Y-86783669D01*
X81448962Y-87149729D01*
X81760271Y-87461038D01*
X82126331Y-87705631D01*
X82533075Y-87874110D01*
X82964872Y-87960000D01*
X83405128Y-87960000D01*
X83836925Y-87874110D01*
X84243669Y-87705631D01*
X84609729Y-87461038D01*
X84921038Y-87149729D01*
X85165631Y-86783669D01*
X85334110Y-86376925D01*
X85420000Y-85945128D01*
X85420000Y-85504872D01*
X85334110Y-85073075D01*
X85165631Y-84666331D01*
X84929988Y-84313665D01*
X86830000Y-84313665D01*
X86830000Y-84596335D01*
X86885147Y-84873574D01*
X86993320Y-85134727D01*
X87150363Y-85369759D01*
X87350241Y-85569637D01*
X87585273Y-85726680D01*
X87846426Y-85834853D01*
X88123665Y-85890000D01*
X88406335Y-85890000D01*
X88683574Y-85834853D01*
X88944727Y-85726680D01*
X89179759Y-85569637D01*
X89379637Y-85369759D01*
X89536680Y-85134727D01*
X89644853Y-84873574D01*
X89700000Y-84596335D01*
X89700000Y-84313665D01*
X91910000Y-84313665D01*
X91910000Y-84596335D01*
X91965147Y-84873574D01*
X92073320Y-85134727D01*
X92230363Y-85369759D01*
X92430241Y-85569637D01*
X92665273Y-85726680D01*
X92926426Y-85834853D01*
X93203665Y-85890000D01*
X93486335Y-85890000D01*
X93763574Y-85834853D01*
X94024727Y-85726680D01*
X94259759Y-85569637D01*
X94459637Y-85369759D01*
X94616680Y-85134727D01*
X94724853Y-84873574D01*
X94780000Y-84596335D01*
X94780000Y-84313665D01*
X94747657Y-84151064D01*
X96920000Y-84151064D01*
X96920000Y-84758935D01*
X96941776Y-84980031D01*
X97027834Y-85263724D01*
X97167583Y-85525178D01*
X97355655Y-85754345D01*
X97584821Y-85942417D01*
X97846275Y-86082166D01*
X98129968Y-86168224D01*
X98425000Y-86197282D01*
X98720031Y-86168224D01*
X99003724Y-86082166D01*
X99265178Y-85942417D01*
X99492385Y-85755953D01*
X99505498Y-85799180D01*
X99564463Y-85909494D01*
X99643815Y-86006185D01*
X99740506Y-86085537D01*
X99850820Y-86144502D01*
X99970518Y-86180812D01*
X100095000Y-86193072D01*
X100679250Y-86190000D01*
X100838000Y-86031250D01*
X100838000Y-84582000D01*
X101092000Y-84582000D01*
X101092000Y-86031250D01*
X101250750Y-86190000D01*
X101835000Y-86193072D01*
X101959482Y-86180812D01*
X102079180Y-86144502D01*
X102189494Y-86085537D01*
X102286185Y-86006185D01*
X102365537Y-85909494D01*
X102424502Y-85799180D01*
X102460812Y-85679482D01*
X102473072Y-85555000D01*
X102472883Y-85504872D01*
X105080000Y-85504872D01*
X105080000Y-85945128D01*
X105165890Y-86376925D01*
X105334369Y-86783669D01*
X105578962Y-87149729D01*
X105890271Y-87461038D01*
X106256331Y-87705631D01*
X106663075Y-87874110D01*
X107094872Y-87960000D01*
X107535128Y-87960000D01*
X107966925Y-87874110D01*
X108373669Y-87705631D01*
X108739729Y-87461038D01*
X109051038Y-87149729D01*
X109295631Y-86783669D01*
X109464110Y-86376925D01*
X109550000Y-85945128D01*
X109550000Y-85504872D01*
X109464110Y-85073075D01*
X109295631Y-84666331D01*
X109059988Y-84313665D01*
X110960000Y-84313665D01*
X110960000Y-84596335D01*
X111015147Y-84873574D01*
X111123320Y-85134727D01*
X111280363Y-85369759D01*
X111480241Y-85569637D01*
X111715273Y-85726680D01*
X111976426Y-85834853D01*
X112253665Y-85890000D01*
X112536335Y-85890000D01*
X112813574Y-85834853D01*
X113074727Y-85726680D01*
X113309759Y-85569637D01*
X113509637Y-85369759D01*
X113666680Y-85134727D01*
X113774853Y-84873574D01*
X113830000Y-84596335D01*
X113830000Y-84313665D01*
X116040000Y-84313665D01*
X116040000Y-84596335D01*
X116095147Y-84873574D01*
X116203320Y-85134727D01*
X116360363Y-85369759D01*
X116560241Y-85569637D01*
X116795273Y-85726680D01*
X117056426Y-85834853D01*
X117333665Y-85890000D01*
X117616335Y-85890000D01*
X117893574Y-85834853D01*
X118154727Y-85726680D01*
X118389759Y-85569637D01*
X118589637Y-85369759D01*
X118746680Y-85134727D01*
X118854853Y-84873574D01*
X118910000Y-84596335D01*
X118910000Y-84313665D01*
X118877657Y-84151064D01*
X121050000Y-84151064D01*
X121050000Y-84758935D01*
X121071776Y-84980031D01*
X121157834Y-85263724D01*
X121297583Y-85525178D01*
X121485655Y-85754345D01*
X121714821Y-85942417D01*
X121976275Y-86082166D01*
X122259968Y-86168224D01*
X122555000Y-86197282D01*
X122850031Y-86168224D01*
X123133724Y-86082166D01*
X123395178Y-85942417D01*
X123622385Y-85755953D01*
X123635498Y-85799180D01*
X123694463Y-85909494D01*
X123773815Y-86006185D01*
X123870506Y-86085537D01*
X123980820Y-86144502D01*
X124100518Y-86180812D01*
X124225000Y-86193072D01*
X124809250Y-86190000D01*
X124968000Y-86031250D01*
X124968000Y-84582000D01*
X125222000Y-84582000D01*
X125222000Y-86031250D01*
X125380750Y-86190000D01*
X125965000Y-86193072D01*
X126089482Y-86180812D01*
X126209180Y-86144502D01*
X126319494Y-86085537D01*
X126416185Y-86006185D01*
X126495537Y-85909494D01*
X126554502Y-85799180D01*
X126590812Y-85679482D01*
X126603072Y-85555000D01*
X126600000Y-84740750D01*
X126441250Y-84582000D01*
X125222000Y-84582000D01*
X124968000Y-84582000D01*
X124948000Y-84582000D01*
X124948000Y-84328000D01*
X124968000Y-84328000D01*
X124968000Y-82878750D01*
X125222000Y-82878750D01*
X125222000Y-84328000D01*
X126441250Y-84328000D01*
X126600000Y-84169250D01*
X126603072Y-83355000D01*
X126590812Y-83230518D01*
X126554502Y-83110820D01*
X126495537Y-83000506D01*
X126416185Y-82903815D01*
X126319494Y-82824463D01*
X126209180Y-82765498D01*
X126089482Y-82729188D01*
X125965000Y-82716928D01*
X125380750Y-82720000D01*
X125222000Y-82878750D01*
X124968000Y-82878750D01*
X124809250Y-82720000D01*
X124225000Y-82716928D01*
X124100518Y-82729188D01*
X123980820Y-82765498D01*
X123870506Y-82824463D01*
X123773815Y-82903815D01*
X123694463Y-83000506D01*
X123635498Y-83110820D01*
X123622385Y-83154047D01*
X123395179Y-82967583D01*
X123133725Y-82827834D01*
X122850032Y-82741776D01*
X122555000Y-82712718D01*
X122259969Y-82741776D01*
X121976276Y-82827834D01*
X121714822Y-82967583D01*
X121485655Y-83155655D01*
X121297583Y-83384821D01*
X121157834Y-83646275D01*
X121071776Y-83929968D01*
X121050000Y-84151064D01*
X118877657Y-84151064D01*
X118854853Y-84036426D01*
X118746680Y-83775273D01*
X118589637Y-83540241D01*
X118389759Y-83340363D01*
X118154727Y-83183320D01*
X117893574Y-83075147D01*
X117616335Y-83020000D01*
X117333665Y-83020000D01*
X117056426Y-83075147D01*
X116795273Y-83183320D01*
X116560241Y-83340363D01*
X116360363Y-83540241D01*
X116203320Y-83775273D01*
X116095147Y-84036426D01*
X116040000Y-84313665D01*
X113830000Y-84313665D01*
X113774853Y-84036426D01*
X113666680Y-83775273D01*
X113509637Y-83540241D01*
X113309759Y-83340363D01*
X113074727Y-83183320D01*
X112813574Y-83075147D01*
X112536335Y-83020000D01*
X112253665Y-83020000D01*
X111976426Y-83075147D01*
X111715273Y-83183320D01*
X111480241Y-83340363D01*
X111280363Y-83540241D01*
X111123320Y-83775273D01*
X111015147Y-84036426D01*
X110960000Y-84313665D01*
X109059988Y-84313665D01*
X109051038Y-84300271D01*
X108739729Y-83988962D01*
X108373669Y-83744369D01*
X107966925Y-83575890D01*
X107535128Y-83490000D01*
X107094872Y-83490000D01*
X106663075Y-83575890D01*
X106256331Y-83744369D01*
X105890271Y-83988962D01*
X105578962Y-84300271D01*
X105334369Y-84666331D01*
X105165890Y-85073075D01*
X105080000Y-85504872D01*
X102472883Y-85504872D01*
X102470000Y-84740750D01*
X102311250Y-84582000D01*
X101092000Y-84582000D01*
X100838000Y-84582000D01*
X100818000Y-84582000D01*
X100818000Y-84328000D01*
X100838000Y-84328000D01*
X100838000Y-82878750D01*
X101092000Y-82878750D01*
X101092000Y-84328000D01*
X102311250Y-84328000D01*
X102470000Y-84169250D01*
X102473072Y-83355000D01*
X102460812Y-83230518D01*
X102424502Y-83110820D01*
X102365537Y-83000506D01*
X102286185Y-82903815D01*
X102189494Y-82824463D01*
X102079180Y-82765498D01*
X101959482Y-82729188D01*
X101835000Y-82716928D01*
X101250750Y-82720000D01*
X101092000Y-82878750D01*
X100838000Y-82878750D01*
X100679250Y-82720000D01*
X100095000Y-82716928D01*
X99970518Y-82729188D01*
X99850820Y-82765498D01*
X99740506Y-82824463D01*
X99643815Y-82903815D01*
X99564463Y-83000506D01*
X99505498Y-83110820D01*
X99492385Y-83154047D01*
X99265179Y-82967583D01*
X99003725Y-82827834D01*
X98720032Y-82741776D01*
X98425000Y-82712718D01*
X98129969Y-82741776D01*
X97846276Y-82827834D01*
X97584822Y-82967583D01*
X97355655Y-83155655D01*
X97167583Y-83384821D01*
X97027834Y-83646275D01*
X96941776Y-83929968D01*
X96920000Y-84151064D01*
X94747657Y-84151064D01*
X94724853Y-84036426D01*
X94616680Y-83775273D01*
X94459637Y-83540241D01*
X94259759Y-83340363D01*
X94024727Y-83183320D01*
X93763574Y-83075147D01*
X93486335Y-83020000D01*
X93203665Y-83020000D01*
X92926426Y-83075147D01*
X92665273Y-83183320D01*
X92430241Y-83340363D01*
X92230363Y-83540241D01*
X92073320Y-83775273D01*
X91965147Y-84036426D01*
X91910000Y-84313665D01*
X89700000Y-84313665D01*
X89644853Y-84036426D01*
X89536680Y-83775273D01*
X89379637Y-83540241D01*
X89179759Y-83340363D01*
X88944727Y-83183320D01*
X88683574Y-83075147D01*
X88406335Y-83020000D01*
X88123665Y-83020000D01*
X87846426Y-83075147D01*
X87585273Y-83183320D01*
X87350241Y-83340363D01*
X87150363Y-83540241D01*
X86993320Y-83775273D01*
X86885147Y-84036426D01*
X86830000Y-84313665D01*
X84929988Y-84313665D01*
X84921038Y-84300271D01*
X84609729Y-83988962D01*
X84243669Y-83744369D01*
X83836925Y-83575890D01*
X83405128Y-83490000D01*
X82964872Y-83490000D01*
X82533075Y-83575890D01*
X82126331Y-83744369D01*
X81760271Y-83988962D01*
X81448962Y-84300271D01*
X81204369Y-84666331D01*
X81035890Y-85073075D01*
X80950000Y-85504872D01*
X78342883Y-85504872D01*
X78340000Y-84740750D01*
X78181250Y-84582000D01*
X76962000Y-84582000D01*
X76708000Y-84582000D01*
X76688000Y-84582000D01*
X76688000Y-84328000D01*
X76708000Y-84328000D01*
X76708000Y-82878750D01*
X76962000Y-82878750D01*
X76962000Y-84328000D01*
X78181250Y-84328000D01*
X78340000Y-84169250D01*
X78343072Y-83355000D01*
X78330812Y-83230518D01*
X78294502Y-83110820D01*
X78235537Y-83000506D01*
X78156185Y-82903815D01*
X78059494Y-82824463D01*
X77949180Y-82765498D01*
X77829482Y-82729188D01*
X77705000Y-82716928D01*
X77120750Y-82720000D01*
X76962000Y-82878750D01*
X76708000Y-82878750D01*
X76549250Y-82720000D01*
X75965000Y-82716928D01*
X75840518Y-82729188D01*
X75720820Y-82765498D01*
X75610506Y-82824463D01*
X75513815Y-82903815D01*
X75434463Y-83000506D01*
X75375498Y-83110820D01*
X75362385Y-83154047D01*
X75135179Y-82967583D01*
X74873725Y-82827834D01*
X74590032Y-82741776D01*
X74295000Y-82712718D01*
X73999969Y-82741776D01*
X73716276Y-82827834D01*
X73454822Y-82967583D01*
X73225655Y-83155655D01*
X73037583Y-83384821D01*
X72897834Y-83646275D01*
X72811776Y-83929968D01*
X72790000Y-84151064D01*
X70617657Y-84151064D01*
X70594853Y-84036426D01*
X70486680Y-83775273D01*
X70329637Y-83540241D01*
X70129759Y-83340363D01*
X69894727Y-83183320D01*
X69633574Y-83075147D01*
X69356335Y-83020000D01*
X69073665Y-83020000D01*
X68796426Y-83075147D01*
X68535273Y-83183320D01*
X68300241Y-83340363D01*
X68100363Y-83540241D01*
X67943320Y-83775273D01*
X67835147Y-84036426D01*
X67780000Y-84313665D01*
X65570000Y-84313665D01*
X65514853Y-84036426D01*
X65406680Y-83775273D01*
X65249637Y-83540241D01*
X65049759Y-83340363D01*
X64814727Y-83183320D01*
X64553574Y-83075147D01*
X64276335Y-83020000D01*
X63993665Y-83020000D01*
X63716426Y-83075147D01*
X63455273Y-83183320D01*
X63220241Y-83340363D01*
X63020363Y-83540241D01*
X62863320Y-83775273D01*
X62755147Y-84036426D01*
X62700000Y-84313665D01*
X60010585Y-84313665D01*
X60155000Y-84169250D01*
X60158072Y-83585000D01*
X60145812Y-83460518D01*
X60109502Y-83340820D01*
X60050537Y-83230506D01*
X59971185Y-83133815D01*
X59874494Y-83054463D01*
X59764180Y-82995498D01*
X59644482Y-82959188D01*
X59520000Y-82946928D01*
X58705750Y-82950000D01*
X58547000Y-83108750D01*
X58293000Y-83108750D01*
X58134250Y-82950000D01*
X57320000Y-82946928D01*
X57195518Y-82959188D01*
X57075820Y-82995498D01*
X56965506Y-83054463D01*
X56868815Y-83133815D01*
X56789463Y-83230506D01*
X56730498Y-83340820D01*
X56694188Y-83460518D01*
X56681928Y-83585000D01*
X54737000Y-83585000D01*
X54737000Y-82602606D01*
X56567606Y-80772000D01*
X125687667Y-80772000D01*
X128143000Y-82613500D01*
G37*
X128143000Y-82613500D02*
X128143000Y-112966500D01*
X125687667Y-114808000D01*
X56567606Y-114808000D01*
X54737000Y-112977394D01*
X54737000Y-110983665D01*
X55715000Y-110983665D01*
X55715000Y-111266335D01*
X55770147Y-111543574D01*
X55878320Y-111804727D01*
X56035363Y-112039759D01*
X56235241Y-112239637D01*
X56470273Y-112396680D01*
X56731426Y-112504853D01*
X57008665Y-112560000D01*
X57291335Y-112560000D01*
X57568574Y-112504853D01*
X57829727Y-112396680D01*
X58034284Y-112260000D01*
X64079249Y-112260000D01*
X64135000Y-112265491D01*
X64190751Y-112260000D01*
X64190752Y-112260000D01*
X64357499Y-112243577D01*
X64571447Y-112178676D01*
X64768623Y-112073284D01*
X64941449Y-111931449D01*
X64976996Y-111888135D01*
X65875132Y-110990000D01*
X66055822Y-110990000D01*
X65947905Y-111034701D01*
X65696495Y-111202688D01*
X65482688Y-111416495D01*
X65314701Y-111667905D01*
X65198989Y-111947257D01*
X65140000Y-112243816D01*
X65140000Y-112546184D01*
X65198989Y-112842743D01*
X65314701Y-113122095D01*
X65482688Y-113373505D01*
X65696495Y-113587312D01*
X65947905Y-113755299D01*
X66227257Y-113871011D01*
X66523816Y-113930000D01*
X66826184Y-113930000D01*
X67122743Y-113871011D01*
X67402095Y-113755299D01*
X67653505Y-113587312D01*
X67867312Y-113373505D01*
X67925000Y-113287169D01*
X67982688Y-113373505D01*
X68196495Y-113587312D01*
X68447905Y-113755299D01*
X68727257Y-113871011D01*
X69023816Y-113930000D01*
X69326184Y-113930000D01*
X69622743Y-113871011D01*
X69902095Y-113755299D01*
X70153505Y-113587312D01*
X70367312Y-113373505D01*
X70425000Y-113287169D01*
X70482688Y-113373505D01*
X70696495Y-113587312D01*
X70947905Y-113755299D01*
X71227257Y-113871011D01*
X71523816Y-113930000D01*
X71826184Y-113930000D01*
X72122743Y-113871011D01*
X72402095Y-113755299D01*
X72653505Y-113587312D01*
X72867312Y-113373505D01*
X73035299Y-113122095D01*
X73151011Y-112842743D01*
X73210000Y-112546184D01*
X73210000Y-112243816D01*
X73151011Y-111947257D01*
X73035299Y-111667905D01*
X72867312Y-111416495D01*
X72823614Y-111372797D01*
X72808676Y-111323553D01*
X72703284Y-111126377D01*
X72628047Y-111034701D01*
X72586163Y-110983665D01*
X79845000Y-110983665D01*
X79845000Y-111266335D01*
X79900147Y-111543574D01*
X80008320Y-111804727D01*
X80165363Y-112039759D01*
X80365241Y-112239637D01*
X80600273Y-112396680D01*
X80861426Y-112504853D01*
X81138665Y-112560000D01*
X81421335Y-112560000D01*
X81698574Y-112504853D01*
X81959727Y-112396680D01*
X82164284Y-112260000D01*
X88209249Y-112260000D01*
X88265000Y-112265491D01*
X88320751Y-112260000D01*
X88320752Y-112260000D01*
X88487499Y-112243577D01*
X88701447Y-112178676D01*
X88898623Y-112073284D01*
X89071449Y-111931449D01*
X89106996Y-111888135D01*
X90005132Y-110990000D01*
X90185822Y-110990000D01*
X90077905Y-111034701D01*
X89826495Y-111202688D01*
X89612688Y-111416495D01*
X89444701Y-111667905D01*
X89328989Y-111947257D01*
X89270000Y-112243816D01*
X89270000Y-112546184D01*
X89328989Y-112842743D01*
X89444701Y-113122095D01*
X89612688Y-113373505D01*
X89826495Y-113587312D01*
X90077905Y-113755299D01*
X90357257Y-113871011D01*
X90653816Y-113930000D01*
X90956184Y-113930000D01*
X91252743Y-113871011D01*
X91532095Y-113755299D01*
X91783505Y-113587312D01*
X91997312Y-113373505D01*
X92055000Y-113287169D01*
X92112688Y-113373505D01*
X92326495Y-113587312D01*
X92577905Y-113755299D01*
X92857257Y-113871011D01*
X93153816Y-113930000D01*
X93456184Y-113930000D01*
X93752743Y-113871011D01*
X94032095Y-113755299D01*
X94283505Y-113587312D01*
X94497312Y-113373505D01*
X94555000Y-113287169D01*
X94612688Y-113373505D01*
X94826495Y-113587312D01*
X95077905Y-113755299D01*
X95357257Y-113871011D01*
X95653816Y-113930000D01*
X95956184Y-113930000D01*
X96252743Y-113871011D01*
X96532095Y-113755299D01*
X96783505Y-113587312D01*
X96997312Y-113373505D01*
X97165299Y-113122095D01*
X97281011Y-112842743D01*
X97340000Y-112546184D01*
X97340000Y-112243816D01*
X97281011Y-111947257D01*
X97165299Y-111667905D01*
X96997312Y-111416495D01*
X96953614Y-111372797D01*
X96938676Y-111323553D01*
X96833284Y-111126377D01*
X96758047Y-111034701D01*
X96716163Y-110983665D01*
X103975000Y-110983665D01*
X103975000Y-111266335D01*
X104030147Y-111543574D01*
X104138320Y-111804727D01*
X104295363Y-112039759D01*
X104495241Y-112239637D01*
X104730273Y-112396680D01*
X104991426Y-112504853D01*
X105268665Y-112560000D01*
X105551335Y-112560000D01*
X105828574Y-112504853D01*
X106089727Y-112396680D01*
X106294284Y-112260000D01*
X112974249Y-112260000D01*
X113030000Y-112265491D01*
X113085751Y-112260000D01*
X113085752Y-112260000D01*
X113252499Y-112243577D01*
X113409522Y-112195944D01*
X113400000Y-112243816D01*
X113400000Y-112546184D01*
X113458989Y-112842743D01*
X113574701Y-113122095D01*
X113742688Y-113373505D01*
X113956495Y-113587312D01*
X114207905Y-113755299D01*
X114487257Y-113871011D01*
X114783816Y-113930000D01*
X115086184Y-113930000D01*
X115382743Y-113871011D01*
X115662095Y-113755299D01*
X115913505Y-113587312D01*
X116127312Y-113373505D01*
X116185000Y-113287169D01*
X116242688Y-113373505D01*
X116456495Y-113587312D01*
X116707905Y-113755299D01*
X116987257Y-113871011D01*
X117283816Y-113930000D01*
X117586184Y-113930000D01*
X117882743Y-113871011D01*
X118162095Y-113755299D01*
X118413505Y-113587312D01*
X118627312Y-113373505D01*
X118685000Y-113287169D01*
X118742688Y-113373505D01*
X118956495Y-113587312D01*
X119207905Y-113755299D01*
X119487257Y-113871011D01*
X119783816Y-113930000D01*
X120086184Y-113930000D01*
X120382743Y-113871011D01*
X120662095Y-113755299D01*
X120913505Y-113587312D01*
X121127312Y-113373505D01*
X121295299Y-113122095D01*
X121411011Y-112842743D01*
X121470000Y-112546184D01*
X121470000Y-112243816D01*
X121411011Y-111947257D01*
X121295299Y-111667905D01*
X121127312Y-111416495D01*
X121083614Y-111372797D01*
X121068676Y-111323553D01*
X120963284Y-111126377D01*
X120888047Y-111034701D01*
X120821449Y-110953551D01*
X120778141Y-110918009D01*
X118951996Y-109091865D01*
X118916449Y-109048551D01*
X118743623Y-108906716D01*
X118546447Y-108801324D01*
X118332499Y-108736423D01*
X118165752Y-108720000D01*
X118165751Y-108720000D01*
X118110000Y-108714509D01*
X118054249Y-108720000D01*
X114355743Y-108720000D01*
X114299999Y-108714510D01*
X114244255Y-108720000D01*
X114244248Y-108720000D01*
X114098493Y-108734356D01*
X114077500Y-108736423D01*
X114027705Y-108751529D01*
X113863553Y-108801324D01*
X113666377Y-108906716D01*
X113493551Y-109048551D01*
X113458008Y-109091860D01*
X112559869Y-109990000D01*
X109528197Y-109990000D01*
X109570130Y-109983787D01*
X109836292Y-109888603D01*
X109961514Y-109821671D01*
X110033097Y-109577702D01*
X109220000Y-108764605D01*
X108406903Y-109577702D01*
X108478486Y-109821671D01*
X108733996Y-109942571D01*
X108923210Y-109990000D01*
X106294284Y-109990000D01*
X106089727Y-109853320D01*
X105828574Y-109745147D01*
X105551335Y-109690000D01*
X105268665Y-109690000D01*
X104991426Y-109745147D01*
X104730273Y-109853320D01*
X104495241Y-110010363D01*
X104295363Y-110210241D01*
X104138320Y-110445273D01*
X104030147Y-110706426D01*
X103975000Y-110983665D01*
X96716163Y-110983665D01*
X96691449Y-110953551D01*
X96648141Y-110918009D01*
X94821996Y-109091865D01*
X94786449Y-109048551D01*
X94613623Y-108906716D01*
X94416447Y-108801324D01*
X94202499Y-108736423D01*
X94035752Y-108720000D01*
X94035751Y-108720000D01*
X93980000Y-108714509D01*
X93924249Y-108720000D01*
X89590743Y-108720000D01*
X89534999Y-108714510D01*
X89479255Y-108720000D01*
X89479248Y-108720000D01*
X89333493Y-108734356D01*
X89312500Y-108736423D01*
X89262705Y-108751529D01*
X89098553Y-108801324D01*
X88901377Y-108906716D01*
X88728551Y-109048551D01*
X88693008Y-109091860D01*
X87794869Y-109990000D01*
X85398197Y-109990000D01*
X85440130Y-109983787D01*
X85706292Y-109888603D01*
X85831514Y-109821671D01*
X85903097Y-109577702D01*
X85090000Y-108764605D01*
X84276903Y-109577702D01*
X84348486Y-109821671D01*
X84603996Y-109942571D01*
X84793210Y-109990000D01*
X82164284Y-109990000D01*
X81959727Y-109853320D01*
X81698574Y-109745147D01*
X81421335Y-109690000D01*
X81138665Y-109690000D01*
X80861426Y-109745147D01*
X80600273Y-109853320D01*
X80365241Y-110010363D01*
X80165363Y-110210241D01*
X80008320Y-110445273D01*
X79900147Y-110706426D01*
X79845000Y-110983665D01*
X72586163Y-110983665D01*
X72561449Y-110953551D01*
X72518141Y-110918009D01*
X70691996Y-109091865D01*
X70656449Y-109048551D01*
X70483623Y-108906716D01*
X70286447Y-108801324D01*
X70072499Y-108736423D01*
X69905752Y-108720000D01*
X69905751Y-108720000D01*
X69850000Y-108714509D01*
X69794249Y-108720000D01*
X65460743Y-108720000D01*
X65404999Y-108714510D01*
X65349255Y-108720000D01*
X65349248Y-108720000D01*
X65203493Y-108734356D01*
X65182500Y-108736423D01*
X65132705Y-108751529D01*
X64968553Y-108801324D01*
X64771377Y-108906716D01*
X64598551Y-109048551D01*
X64563008Y-109091860D01*
X63664869Y-109990000D01*
X61268197Y-109990000D01*
X61310130Y-109983787D01*
X61576292Y-109888603D01*
X61701514Y-109821671D01*
X61773097Y-109577702D01*
X60960000Y-108764605D01*
X60146903Y-109577702D01*
X60218486Y-109821671D01*
X60473996Y-109942571D01*
X60663210Y-109990000D01*
X58034284Y-109990000D01*
X57829727Y-109853320D01*
X57568574Y-109745147D01*
X57291335Y-109690000D01*
X57008665Y-109690000D01*
X56731426Y-109745147D01*
X56470273Y-109853320D01*
X56235241Y-110010363D01*
X56035363Y-110210241D01*
X55878320Y-110445273D01*
X55770147Y-110706426D01*
X55715000Y-110983665D01*
X54737000Y-110983665D01*
X54737000Y-108655512D01*
X59519783Y-108655512D01*
X59561213Y-108935130D01*
X59656397Y-109201292D01*
X59723329Y-109326514D01*
X59967298Y-109398097D01*
X60780395Y-108585000D01*
X61139605Y-108585000D01*
X61952702Y-109398097D01*
X62196671Y-109326514D01*
X62317571Y-109071004D01*
X62386300Y-108796816D01*
X62393265Y-108655512D01*
X83649783Y-108655512D01*
X83691213Y-108935130D01*
X83786397Y-109201292D01*
X83853329Y-109326514D01*
X84097298Y-109398097D01*
X84910395Y-108585000D01*
X85269605Y-108585000D01*
X86082702Y-109398097D01*
X86326671Y-109326514D01*
X86447571Y-109071004D01*
X86516300Y-108796816D01*
X86523265Y-108655512D01*
X107779783Y-108655512D01*
X107821213Y-108935130D01*
X107916397Y-109201292D01*
X107983329Y-109326514D01*
X108227298Y-109398097D01*
X109040395Y-108585000D01*
X109399605Y-108585000D01*
X110212702Y-109398097D01*
X110456671Y-109326514D01*
X110577571Y-109071004D01*
X110646300Y-108796816D01*
X110660217Y-108514488D01*
X110618787Y-108234870D01*
X110523603Y-107968708D01*
X110456671Y-107843486D01*
X110212702Y-107771903D01*
X109399605Y-108585000D01*
X109040395Y-108585000D01*
X108227298Y-107771903D01*
X107983329Y-107843486D01*
X107862429Y-108098996D01*
X107793700Y-108373184D01*
X107779783Y-108655512D01*
X86523265Y-108655512D01*
X86530217Y-108514488D01*
X86488787Y-108234870D01*
X86393603Y-107968708D01*
X86326671Y-107843486D01*
X86082702Y-107771903D01*
X85269605Y-108585000D01*
X84910395Y-108585000D01*
X84097298Y-107771903D01*
X83853329Y-107843486D01*
X83732429Y-108098996D01*
X83663700Y-108373184D01*
X83649783Y-108655512D01*
X62393265Y-108655512D01*
X62400217Y-108514488D01*
X62358787Y-108234870D01*
X62263603Y-107968708D01*
X62196671Y-107843486D01*
X61952702Y-107771903D01*
X61139605Y-108585000D01*
X60780395Y-108585000D01*
X59967298Y-107771903D01*
X59723329Y-107843486D01*
X59602429Y-108098996D01*
X59533700Y-108373184D01*
X59519783Y-108655512D01*
X54737000Y-108655512D01*
X54737000Y-107592298D01*
X60146903Y-107592298D01*
X60960000Y-108405395D01*
X61773097Y-107592298D01*
X61701514Y-107348329D01*
X61446004Y-107227429D01*
X61171816Y-107158700D01*
X60889488Y-107144783D01*
X60609870Y-107186213D01*
X60343708Y-107281397D01*
X60218486Y-107348329D01*
X60146903Y-107592298D01*
X54737000Y-107592298D01*
X54737000Y-106394039D01*
X63613096Y-106394039D01*
X63630633Y-106476818D01*
X63741285Y-106736646D01*
X63900500Y-106969895D01*
X64102161Y-107167601D01*
X64338517Y-107322166D01*
X64600486Y-107427650D01*
X64878000Y-107480000D01*
X65278000Y-107480000D01*
X65278000Y-106172000D01*
X65532000Y-106172000D01*
X65532000Y-107480000D01*
X65932000Y-107480000D01*
X66209514Y-107427650D01*
X66471483Y-107322166D01*
X66707839Y-107167601D01*
X66909500Y-106969895D01*
X67068715Y-106736646D01*
X67179367Y-106476818D01*
X67196904Y-106394039D01*
X67074915Y-106172000D01*
X65532000Y-106172000D01*
X65278000Y-106172000D01*
X63735085Y-106172000D01*
X63613096Y-106394039D01*
X54737000Y-106394039D01*
X54737000Y-102705000D01*
X55711928Y-102705000D01*
X55711928Y-104305000D01*
X55724188Y-104429482D01*
X55760498Y-104549180D01*
X55819463Y-104659494D01*
X55898815Y-104756185D01*
X55995506Y-104835537D01*
X56105820Y-104894502D01*
X56225518Y-104930812D01*
X56350000Y-104943072D01*
X57950000Y-104943072D01*
X58074482Y-104930812D01*
X58194180Y-104894502D01*
X58304494Y-104835537D01*
X58401185Y-104756185D01*
X58480537Y-104659494D01*
X58539502Y-104549180D01*
X58575812Y-104429482D01*
X58588072Y-104305000D01*
X58588072Y-103363665D01*
X59525000Y-103363665D01*
X59525000Y-103646335D01*
X59580147Y-103923574D01*
X59688320Y-104184727D01*
X59845363Y-104419759D01*
X60045241Y-104619637D01*
X60280273Y-104776680D01*
X60541426Y-104884853D01*
X60818665Y-104940000D01*
X61101335Y-104940000D01*
X61378574Y-104884853D01*
X61639727Y-104776680D01*
X61874759Y-104619637D01*
X62074637Y-104419759D01*
X62231680Y-104184727D01*
X62339853Y-103923574D01*
X62395000Y-103646335D01*
X62395000Y-103363665D01*
X62339853Y-103086426D01*
X62231680Y-102825273D01*
X62074637Y-102590241D01*
X61874759Y-102390363D01*
X61639727Y-102233320D01*
X61378574Y-102125147D01*
X61101335Y-102070000D01*
X60818665Y-102070000D01*
X60541426Y-102125147D01*
X60280273Y-102233320D01*
X60045241Y-102390363D01*
X59845363Y-102590241D01*
X59688320Y-102825273D01*
X59580147Y-103086426D01*
X59525000Y-103363665D01*
X58588072Y-103363665D01*
X58588072Y-102705000D01*
X58575812Y-102580518D01*
X58539502Y-102460820D01*
X58480537Y-102350506D01*
X58401185Y-102253815D01*
X58304494Y-102174463D01*
X58194180Y-102115498D01*
X58074482Y-102079188D01*
X57950000Y-102066928D01*
X56350000Y-102066928D01*
X56225518Y-102079188D01*
X56105820Y-102115498D01*
X55995506Y-102174463D01*
X55898815Y-102253815D01*
X55819463Y-102350506D01*
X55760498Y-102460820D01*
X55724188Y-102580518D01*
X55711928Y-102705000D01*
X54737000Y-102705000D01*
X54737000Y-98283665D01*
X55715000Y-98283665D01*
X55715000Y-98566335D01*
X55770147Y-98843574D01*
X55878320Y-99104727D01*
X56035363Y-99339759D01*
X56235241Y-99539637D01*
X56470273Y-99696680D01*
X56731426Y-99804853D01*
X57008665Y-99860000D01*
X57291335Y-99860000D01*
X57568574Y-99804853D01*
X57829727Y-99696680D01*
X58064759Y-99539637D01*
X58264637Y-99339759D01*
X58421680Y-99104727D01*
X58529853Y-98843574D01*
X58585000Y-98566335D01*
X58585000Y-98283665D01*
X58529853Y-98006426D01*
X58421680Y-97745273D01*
X58264637Y-97510241D01*
X58064759Y-97310363D01*
X57829727Y-97153320D01*
X57568574Y-97045147D01*
X57291335Y-96990000D01*
X57008665Y-96990000D01*
X56731426Y-97045147D01*
X56470273Y-97153320D01*
X56235241Y-97310363D01*
X56035363Y-97510241D01*
X55878320Y-97745273D01*
X55770147Y-98006426D01*
X55715000Y-98283665D01*
X54737000Y-98283665D01*
X54737000Y-95783665D01*
X59525000Y-95783665D01*
X59525000Y-96066335D01*
X59580147Y-96343574D01*
X59688320Y-96604727D01*
X59845363Y-96839759D01*
X60045241Y-97039637D01*
X60247827Y-97175000D01*
X60045241Y-97310363D01*
X59845363Y-97510241D01*
X59688320Y-97745273D01*
X59580147Y-98006426D01*
X59525000Y-98283665D01*
X59525000Y-98566335D01*
X59580147Y-98843574D01*
X59688320Y-99104727D01*
X59845363Y-99339759D01*
X60045241Y-99539637D01*
X60280273Y-99696680D01*
X60541426Y-99804853D01*
X60818665Y-99860000D01*
X61101335Y-99860000D01*
X61378574Y-99804853D01*
X61639727Y-99696680D01*
X61874759Y-99539637D01*
X62074637Y-99339759D01*
X62231680Y-99104727D01*
X62339853Y-98843574D01*
X62395000Y-98566335D01*
X62395000Y-98425000D01*
X63563057Y-98425000D01*
X63590764Y-98706309D01*
X63672818Y-98976808D01*
X63806068Y-99226101D01*
X63985392Y-99444608D01*
X64203899Y-99623932D01*
X64336858Y-99695000D01*
X64203899Y-99766068D01*
X63985392Y-99945392D01*
X63806068Y-100163899D01*
X63672818Y-100413192D01*
X63590764Y-100683691D01*
X63563057Y-100965000D01*
X63590764Y-101246309D01*
X63672818Y-101516808D01*
X63806068Y-101766101D01*
X63985392Y-101984608D01*
X64203899Y-102163932D01*
X64336858Y-102235000D01*
X64203899Y-102306068D01*
X63985392Y-102485392D01*
X63806068Y-102703899D01*
X63672818Y-102953192D01*
X63590764Y-103223691D01*
X63563057Y-103505000D01*
X63590764Y-103786309D01*
X63672818Y-104056808D01*
X63806068Y-104306101D01*
X63985392Y-104524608D01*
X64203899Y-104703932D01*
X64331741Y-104772265D01*
X64102161Y-104922399D01*
X63900500Y-105120105D01*
X63741285Y-105353354D01*
X63630633Y-105613182D01*
X63613096Y-105695961D01*
X63735085Y-105918000D01*
X65278000Y-105918000D01*
X65278000Y-105898000D01*
X65532000Y-105898000D01*
X65532000Y-105918000D01*
X67074915Y-105918000D01*
X67196904Y-105695961D01*
X67179367Y-105613182D01*
X67068715Y-105353354D01*
X66909500Y-105120105D01*
X66707839Y-104922399D01*
X66478259Y-104772265D01*
X66606101Y-104703932D01*
X66824608Y-104524608D01*
X67003932Y-104306101D01*
X67137182Y-104056808D01*
X67219236Y-103786309D01*
X67246943Y-103505000D01*
X67219236Y-103223691D01*
X67137182Y-102953192D01*
X67003932Y-102703899D01*
X66824608Y-102485392D01*
X66606101Y-102306068D01*
X66473142Y-102235000D01*
X66606101Y-102163932D01*
X66824608Y-101984608D01*
X67003932Y-101766101D01*
X67137182Y-101516808D01*
X67219236Y-101246309D01*
X67246943Y-100965000D01*
X71183057Y-100965000D01*
X71210764Y-101246309D01*
X71292818Y-101516808D01*
X71426068Y-101766101D01*
X71605392Y-101984608D01*
X71823899Y-102163932D01*
X71956858Y-102235000D01*
X71823899Y-102306068D01*
X71605392Y-102485392D01*
X71426068Y-102703899D01*
X71292818Y-102953192D01*
X71210764Y-103223691D01*
X71183057Y-103505000D01*
X71210764Y-103786309D01*
X71292818Y-104056808D01*
X71426068Y-104306101D01*
X71605392Y-104524608D01*
X71718482Y-104617419D01*
X71700518Y-104619188D01*
X71580820Y-104655498D01*
X71470506Y-104714463D01*
X71373815Y-104793815D01*
X71294463Y-104890506D01*
X71235498Y-105000820D01*
X71199188Y-105120518D01*
X71186928Y-105245000D01*
X71186928Y-106845000D01*
X71199188Y-106969482D01*
X71235498Y-107089180D01*
X71294463Y-107199494D01*
X71373815Y-107296185D01*
X71470506Y-107375537D01*
X71580820Y-107434502D01*
X71700518Y-107470812D01*
X71825000Y-107483072D01*
X74225000Y-107483072D01*
X74349482Y-107470812D01*
X74469180Y-107434502D01*
X74579494Y-107375537D01*
X74676185Y-107296185D01*
X74755537Y-107199494D01*
X74814502Y-107089180D01*
X74850812Y-106969482D01*
X74863072Y-106845000D01*
X74863072Y-105245000D01*
X74850812Y-105120518D01*
X74814502Y-105000820D01*
X74755537Y-104890506D01*
X74676185Y-104793815D01*
X74579494Y-104714463D01*
X74469180Y-104655498D01*
X74349482Y-104619188D01*
X74331518Y-104617419D01*
X74444608Y-104524608D01*
X74623932Y-104306101D01*
X74757182Y-104056808D01*
X74839236Y-103786309D01*
X74866943Y-103505000D01*
X74839236Y-103223691D01*
X74757182Y-102953192D01*
X74623932Y-102703899D01*
X74444608Y-102485392D01*
X74226101Y-102306068D01*
X74093142Y-102235000D01*
X74226101Y-102163932D01*
X74444608Y-101984608D01*
X74623932Y-101766101D01*
X74757182Y-101516808D01*
X74839236Y-101246309D01*
X74866943Y-100965000D01*
X74853023Y-100823665D01*
X76035000Y-100823665D01*
X76035000Y-101106335D01*
X76090147Y-101383574D01*
X76198320Y-101644727D01*
X76355363Y-101879759D01*
X76555241Y-102079637D01*
X76790273Y-102236680D01*
X77051426Y-102344853D01*
X77328665Y-102400000D01*
X77611335Y-102400000D01*
X77888574Y-102344853D01*
X78149727Y-102236680D01*
X78200000Y-102203088D01*
X78200000Y-102901911D01*
X78149727Y-102868320D01*
X77888574Y-102760147D01*
X77611335Y-102705000D01*
X77328665Y-102705000D01*
X77051426Y-102760147D01*
X76790273Y-102868320D01*
X76555241Y-103025363D01*
X76355363Y-103225241D01*
X76198320Y-103460273D01*
X76090147Y-103721426D01*
X76035000Y-103998665D01*
X76035000Y-104281335D01*
X76090147Y-104558574D01*
X76198320Y-104819727D01*
X76355363Y-105054759D01*
X76555241Y-105254637D01*
X76757827Y-105390000D01*
X76555241Y-105525363D01*
X76355363Y-105725241D01*
X76198320Y-105960273D01*
X76090147Y-106221426D01*
X76035000Y-106498665D01*
X76035000Y-106781335D01*
X76090147Y-107058574D01*
X76198320Y-107319727D01*
X76355363Y-107554759D01*
X76555241Y-107754637D01*
X76790273Y-107911680D01*
X77051426Y-108019853D01*
X77328665Y-108075000D01*
X77611335Y-108075000D01*
X77888574Y-108019853D01*
X78149727Y-107911680D01*
X78384759Y-107754637D01*
X78547098Y-107592298D01*
X84276903Y-107592298D01*
X85090000Y-108405395D01*
X85903097Y-107592298D01*
X85831514Y-107348329D01*
X85576004Y-107227429D01*
X85301816Y-107158700D01*
X85019488Y-107144783D01*
X84739870Y-107186213D01*
X84473708Y-107281397D01*
X84348486Y-107348329D01*
X84276903Y-107592298D01*
X78547098Y-107592298D01*
X78584637Y-107554759D01*
X78741680Y-107319727D01*
X78849853Y-107058574D01*
X78897850Y-106817282D01*
X79321092Y-106394039D01*
X87743096Y-106394039D01*
X87760633Y-106476818D01*
X87871285Y-106736646D01*
X88030500Y-106969895D01*
X88232161Y-107167601D01*
X88468517Y-107322166D01*
X88730486Y-107427650D01*
X89008000Y-107480000D01*
X89408000Y-107480000D01*
X89408000Y-106172000D01*
X89662000Y-106172000D01*
X89662000Y-107480000D01*
X90062000Y-107480000D01*
X90339514Y-107427650D01*
X90601483Y-107322166D01*
X90837839Y-107167601D01*
X91039500Y-106969895D01*
X91198715Y-106736646D01*
X91309367Y-106476818D01*
X91326904Y-106394039D01*
X91204915Y-106172000D01*
X89662000Y-106172000D01*
X89408000Y-106172000D01*
X87865085Y-106172000D01*
X87743096Y-106394039D01*
X79321092Y-106394039D01*
X80098140Y-105616991D01*
X80141449Y-105581449D01*
X80283284Y-105408623D01*
X80388676Y-105211447D01*
X80453577Y-104997499D01*
X80459140Y-104941018D01*
X80480000Y-104943072D01*
X82080000Y-104943072D01*
X82204482Y-104930812D01*
X82324180Y-104894502D01*
X82434494Y-104835537D01*
X82531185Y-104756185D01*
X82610537Y-104659494D01*
X82669502Y-104549180D01*
X82705812Y-104429482D01*
X82718072Y-104305000D01*
X82718072Y-103363665D01*
X83655000Y-103363665D01*
X83655000Y-103646335D01*
X83710147Y-103923574D01*
X83818320Y-104184727D01*
X83975363Y-104419759D01*
X84175241Y-104619637D01*
X84410273Y-104776680D01*
X84671426Y-104884853D01*
X84948665Y-104940000D01*
X85231335Y-104940000D01*
X85508574Y-104884853D01*
X85769727Y-104776680D01*
X86004759Y-104619637D01*
X86204637Y-104419759D01*
X86361680Y-104184727D01*
X86469853Y-103923574D01*
X86525000Y-103646335D01*
X86525000Y-103363665D01*
X86469853Y-103086426D01*
X86361680Y-102825273D01*
X86204637Y-102590241D01*
X86004759Y-102390363D01*
X85769727Y-102233320D01*
X85508574Y-102125147D01*
X85231335Y-102070000D01*
X84948665Y-102070000D01*
X84671426Y-102125147D01*
X84410273Y-102233320D01*
X84175241Y-102390363D01*
X83975363Y-102590241D01*
X83818320Y-102825273D01*
X83710147Y-103086426D01*
X83655000Y-103363665D01*
X82718072Y-103363665D01*
X82718072Y-102705000D01*
X82705812Y-102580518D01*
X82669502Y-102460820D01*
X82610537Y-102350506D01*
X82531185Y-102253815D01*
X82434494Y-102174463D01*
X82324180Y-102115498D01*
X82204482Y-102079188D01*
X82080000Y-102066928D01*
X80480000Y-102066928D01*
X80470000Y-102067913D01*
X80470000Y-100244635D01*
X80600273Y-100331680D01*
X80861426Y-100439853D01*
X81138665Y-100495000D01*
X81421335Y-100495000D01*
X81698574Y-100439853D01*
X81959727Y-100331680D01*
X82194759Y-100174637D01*
X82394637Y-99974759D01*
X82551680Y-99739727D01*
X82659853Y-99478574D01*
X82715000Y-99201335D01*
X82715000Y-98918665D01*
X82659853Y-98641426D01*
X82551680Y-98380273D01*
X82394637Y-98145241D01*
X82194759Y-97945363D01*
X81959727Y-97788320D01*
X81698574Y-97680147D01*
X81421335Y-97625000D01*
X81145132Y-97625000D01*
X81710132Y-97060000D01*
X84205716Y-97060000D01*
X84377827Y-97175000D01*
X84175241Y-97310363D01*
X83975363Y-97510241D01*
X83818320Y-97745273D01*
X83710147Y-98006426D01*
X83655000Y-98283665D01*
X83655000Y-98566335D01*
X83710147Y-98843574D01*
X83818320Y-99104727D01*
X83975363Y-99339759D01*
X84175241Y-99539637D01*
X84410273Y-99696680D01*
X84671426Y-99804853D01*
X84948665Y-99860000D01*
X85231335Y-99860000D01*
X85508574Y-99804853D01*
X85769727Y-99696680D01*
X86004759Y-99539637D01*
X86204637Y-99339759D01*
X86361680Y-99104727D01*
X86469853Y-98843574D01*
X86525000Y-98566335D01*
X86525000Y-98425000D01*
X87693057Y-98425000D01*
X87720764Y-98706309D01*
X87802818Y-98976808D01*
X87936068Y-99226101D01*
X88115392Y-99444608D01*
X88333899Y-99623932D01*
X88466858Y-99695000D01*
X88333899Y-99766068D01*
X88115392Y-99945392D01*
X87936068Y-100163899D01*
X87802818Y-100413192D01*
X87720764Y-100683691D01*
X87693057Y-100965000D01*
X87720764Y-101246309D01*
X87802818Y-101516808D01*
X87936068Y-101766101D01*
X88115392Y-101984608D01*
X88333899Y-102163932D01*
X88466858Y-102235000D01*
X88333899Y-102306068D01*
X88115392Y-102485392D01*
X87936068Y-102703899D01*
X87802818Y-102953192D01*
X87720764Y-103223691D01*
X87693057Y-103505000D01*
X87720764Y-103786309D01*
X87802818Y-104056808D01*
X87936068Y-104306101D01*
X88115392Y-104524608D01*
X88333899Y-104703932D01*
X88461741Y-104772265D01*
X88232161Y-104922399D01*
X88030500Y-105120105D01*
X87871285Y-105353354D01*
X87760633Y-105613182D01*
X87743096Y-105695961D01*
X87865085Y-105918000D01*
X89408000Y-105918000D01*
X89408000Y-105898000D01*
X89662000Y-105898000D01*
X89662000Y-105918000D01*
X91204915Y-105918000D01*
X91326904Y-105695961D01*
X91309367Y-105613182D01*
X91198715Y-105353354D01*
X91039500Y-105120105D01*
X90837839Y-104922399D01*
X90608259Y-104772265D01*
X90736101Y-104703932D01*
X90954608Y-104524608D01*
X91133932Y-104306101D01*
X91267182Y-104056808D01*
X91349236Y-103786309D01*
X91376943Y-103505000D01*
X91349236Y-103223691D01*
X91267182Y-102953192D01*
X91133932Y-102703899D01*
X90954608Y-102485392D01*
X90736101Y-102306068D01*
X90603142Y-102235000D01*
X90736101Y-102163932D01*
X90954608Y-101984608D01*
X91133932Y-101766101D01*
X91267182Y-101516808D01*
X91349236Y-101246309D01*
X91376943Y-100965000D01*
X95313057Y-100965000D01*
X95340764Y-101246309D01*
X95422818Y-101516808D01*
X95556068Y-101766101D01*
X95735392Y-101984608D01*
X95953899Y-102163932D01*
X96086858Y-102235000D01*
X95953899Y-102306068D01*
X95735392Y-102485392D01*
X95556068Y-102703899D01*
X95422818Y-102953192D01*
X95340764Y-103223691D01*
X95313057Y-103505000D01*
X95340764Y-103786309D01*
X95422818Y-104056808D01*
X95556068Y-104306101D01*
X95735392Y-104524608D01*
X95848482Y-104617419D01*
X95830518Y-104619188D01*
X95710820Y-104655498D01*
X95600506Y-104714463D01*
X95503815Y-104793815D01*
X95424463Y-104890506D01*
X95365498Y-105000820D01*
X95329188Y-105120518D01*
X95316928Y-105245000D01*
X95316928Y-106845000D01*
X95329188Y-106969482D01*
X95365498Y-107089180D01*
X95424463Y-107199494D01*
X95503815Y-107296185D01*
X95600506Y-107375537D01*
X95710820Y-107434502D01*
X95830518Y-107470812D01*
X95955000Y-107483072D01*
X98355000Y-107483072D01*
X98479482Y-107470812D01*
X98599180Y-107434502D01*
X98709494Y-107375537D01*
X98806185Y-107296185D01*
X98885537Y-107199494D01*
X98944502Y-107089180D01*
X98980812Y-106969482D01*
X98993072Y-106845000D01*
X98993072Y-105245000D01*
X98980812Y-105120518D01*
X98944502Y-105000820D01*
X98885537Y-104890506D01*
X98806185Y-104793815D01*
X98709494Y-104714463D01*
X98599180Y-104655498D01*
X98479482Y-104619188D01*
X98461518Y-104617419D01*
X98574608Y-104524608D01*
X98753932Y-104306101D01*
X98887182Y-104056808D01*
X98969236Y-103786309D01*
X98996943Y-103505000D01*
X98969236Y-103223691D01*
X98887182Y-102953192D01*
X98753932Y-102703899D01*
X98574608Y-102485392D01*
X98356101Y-102306068D01*
X98223142Y-102235000D01*
X98356101Y-102163932D01*
X98574608Y-101984608D01*
X98753932Y-101766101D01*
X98887182Y-101516808D01*
X98969236Y-101246309D01*
X98996943Y-100965000D01*
X98983023Y-100823665D01*
X100165000Y-100823665D01*
X100165000Y-101106335D01*
X100220147Y-101383574D01*
X100328320Y-101644727D01*
X100485363Y-101879759D01*
X100685241Y-102079637D01*
X100920273Y-102236680D01*
X101181426Y-102344853D01*
X101458665Y-102400000D01*
X101741335Y-102400000D01*
X102018574Y-102344853D01*
X102279727Y-102236680D01*
X102370000Y-102176361D01*
X102370000Y-102928639D01*
X102279727Y-102868320D01*
X102018574Y-102760147D01*
X101741335Y-102705000D01*
X101458665Y-102705000D01*
X101181426Y-102760147D01*
X100920273Y-102868320D01*
X100685241Y-103025363D01*
X100485363Y-103225241D01*
X100328320Y-103460273D01*
X100220147Y-103721426D01*
X100165000Y-103998665D01*
X100165000Y-104281335D01*
X100220147Y-104558574D01*
X100328320Y-104819727D01*
X100485363Y-105054759D01*
X100685241Y-105254637D01*
X100887827Y-105390000D01*
X100685241Y-105525363D01*
X100485363Y-105725241D01*
X100328320Y-105960273D01*
X100220147Y-106221426D01*
X100165000Y-106498665D01*
X100165000Y-106781335D01*
X100220147Y-107058574D01*
X100328320Y-107319727D01*
X100485363Y-107554759D01*
X100685241Y-107754637D01*
X100920273Y-107911680D01*
X101181426Y-108019853D01*
X101458665Y-108075000D01*
X101741335Y-108075000D01*
X102018574Y-108019853D01*
X102279727Y-107911680D01*
X102514759Y-107754637D01*
X102677098Y-107592298D01*
X108406903Y-107592298D01*
X109220000Y-108405395D01*
X110033097Y-107592298D01*
X109961514Y-107348329D01*
X109706004Y-107227429D01*
X109431816Y-107158700D01*
X109149488Y-107144783D01*
X108869870Y-107186213D01*
X108603708Y-107281397D01*
X108478486Y-107348329D01*
X108406903Y-107592298D01*
X102677098Y-107592298D01*
X102714637Y-107554759D01*
X102871680Y-107319727D01*
X102979853Y-107058574D01*
X103027850Y-106817282D01*
X103451093Y-106394039D01*
X111873096Y-106394039D01*
X111890633Y-106476818D01*
X112001285Y-106736646D01*
X112160500Y-106969895D01*
X112362161Y-107167601D01*
X112598517Y-107322166D01*
X112860486Y-107427650D01*
X113138000Y-107480000D01*
X113538000Y-107480000D01*
X113538000Y-106172000D01*
X113792000Y-106172000D01*
X113792000Y-107480000D01*
X114192000Y-107480000D01*
X114469514Y-107427650D01*
X114731483Y-107322166D01*
X114967839Y-107167601D01*
X115169500Y-106969895D01*
X115328715Y-106736646D01*
X115439367Y-106476818D01*
X115456904Y-106394039D01*
X115334915Y-106172000D01*
X113792000Y-106172000D01*
X113538000Y-106172000D01*
X111995085Y-106172000D01*
X111873096Y-106394039D01*
X103451093Y-106394039D01*
X104268141Y-105576991D01*
X104311449Y-105541449D01*
X104453284Y-105368623D01*
X104558676Y-105171447D01*
X104623577Y-104957499D01*
X104624998Y-104943072D01*
X106210000Y-104943072D01*
X106334482Y-104930812D01*
X106454180Y-104894502D01*
X106564494Y-104835537D01*
X106661185Y-104756185D01*
X106740537Y-104659494D01*
X106799502Y-104549180D01*
X106835812Y-104429482D01*
X106848072Y-104305000D01*
X106848072Y-103363665D01*
X107785000Y-103363665D01*
X107785000Y-103646335D01*
X107840147Y-103923574D01*
X107948320Y-104184727D01*
X108105363Y-104419759D01*
X108305241Y-104619637D01*
X108540273Y-104776680D01*
X108801426Y-104884853D01*
X109078665Y-104940000D01*
X109361335Y-104940000D01*
X109638574Y-104884853D01*
X109899727Y-104776680D01*
X110134759Y-104619637D01*
X110334637Y-104419759D01*
X110491680Y-104184727D01*
X110599853Y-103923574D01*
X110655000Y-103646335D01*
X110655000Y-103363665D01*
X110599853Y-103086426D01*
X110491680Y-102825273D01*
X110334637Y-102590241D01*
X110134759Y-102390363D01*
X109899727Y-102233320D01*
X109638574Y-102125147D01*
X109361335Y-102070000D01*
X109078665Y-102070000D01*
X108801426Y-102125147D01*
X108540273Y-102233320D01*
X108305241Y-102390363D01*
X108105363Y-102590241D01*
X107948320Y-102825273D01*
X107840147Y-103086426D01*
X107785000Y-103363665D01*
X106848072Y-103363665D01*
X106848072Y-102705000D01*
X106835812Y-102580518D01*
X106799502Y-102460820D01*
X106740537Y-102350506D01*
X106661185Y-102253815D01*
X106564494Y-102174463D01*
X106454180Y-102115498D01*
X106334482Y-102079188D01*
X106210000Y-102066928D01*
X104640000Y-102066928D01*
X104640000Y-99636362D01*
X104730273Y-99696680D01*
X104991426Y-99804853D01*
X105268665Y-99860000D01*
X105551335Y-99860000D01*
X105828574Y-99804853D01*
X106089727Y-99696680D01*
X106324759Y-99539637D01*
X106524637Y-99339759D01*
X106681680Y-99104727D01*
X106789853Y-98843574D01*
X106845000Y-98566335D01*
X106845000Y-98283665D01*
X106789853Y-98006426D01*
X106681680Y-97745273D01*
X106524637Y-97510241D01*
X106324759Y-97310363D01*
X106089727Y-97153320D01*
X105864432Y-97060000D01*
X108335716Y-97060000D01*
X108507827Y-97175000D01*
X108305241Y-97310363D01*
X108105363Y-97510241D01*
X107948320Y-97745273D01*
X107840147Y-98006426D01*
X107785000Y-98283665D01*
X107785000Y-98566335D01*
X107840147Y-98843574D01*
X107948320Y-99104727D01*
X108105363Y-99339759D01*
X108305241Y-99539637D01*
X108540273Y-99696680D01*
X108801426Y-99804853D01*
X109078665Y-99860000D01*
X109361335Y-99860000D01*
X109638574Y-99804853D01*
X109899727Y-99696680D01*
X110134759Y-99539637D01*
X110334637Y-99339759D01*
X110491680Y-99104727D01*
X110599853Y-98843574D01*
X110655000Y-98566335D01*
X110655000Y-98425000D01*
X111823057Y-98425000D01*
X111850764Y-98706309D01*
X111932818Y-98976808D01*
X112066068Y-99226101D01*
X112245392Y-99444608D01*
X112463899Y-99623932D01*
X112596858Y-99695000D01*
X112463899Y-99766068D01*
X112245392Y-99945392D01*
X112066068Y-100163899D01*
X111932818Y-100413192D01*
X111850764Y-100683691D01*
X111823057Y-100965000D01*
X111850764Y-101246309D01*
X111932818Y-101516808D01*
X112066068Y-101766101D01*
X112245392Y-101984608D01*
X112463899Y-102163932D01*
X112596858Y-102235000D01*
X112463899Y-102306068D01*
X112245392Y-102485392D01*
X112066068Y-102703899D01*
X111932818Y-102953192D01*
X111850764Y-103223691D01*
X111823057Y-103505000D01*
X111850764Y-103786309D01*
X111932818Y-104056808D01*
X112066068Y-104306101D01*
X112245392Y-104524608D01*
X112463899Y-104703932D01*
X112591741Y-104772265D01*
X112362161Y-104922399D01*
X112160500Y-105120105D01*
X112001285Y-105353354D01*
X111890633Y-105613182D01*
X111873096Y-105695961D01*
X111995085Y-105918000D01*
X113538000Y-105918000D01*
X113538000Y-105898000D01*
X113792000Y-105898000D01*
X113792000Y-105918000D01*
X115334915Y-105918000D01*
X115456904Y-105695961D01*
X115439367Y-105613182D01*
X115328715Y-105353354D01*
X115169500Y-105120105D01*
X114967839Y-104922399D01*
X114738259Y-104772265D01*
X114866101Y-104703932D01*
X115084608Y-104524608D01*
X115263932Y-104306101D01*
X115397182Y-104056808D01*
X115479236Y-103786309D01*
X115506943Y-103505000D01*
X115479236Y-103223691D01*
X115397182Y-102953192D01*
X115263932Y-102703899D01*
X115084608Y-102485392D01*
X114866101Y-102306068D01*
X114733142Y-102235000D01*
X114866101Y-102163932D01*
X115084608Y-101984608D01*
X115263932Y-101766101D01*
X115397182Y-101516808D01*
X115479236Y-101246309D01*
X115506943Y-100965000D01*
X119443057Y-100965000D01*
X119470764Y-101246309D01*
X119552818Y-101516808D01*
X119686068Y-101766101D01*
X119865392Y-101984608D01*
X120083899Y-102163932D01*
X120216858Y-102235000D01*
X120083899Y-102306068D01*
X119865392Y-102485392D01*
X119686068Y-102703899D01*
X119552818Y-102953192D01*
X119470764Y-103223691D01*
X119443057Y-103505000D01*
X119470764Y-103786309D01*
X119552818Y-104056808D01*
X119686068Y-104306101D01*
X119865392Y-104524608D01*
X119978482Y-104617419D01*
X119960518Y-104619188D01*
X119840820Y-104655498D01*
X119730506Y-104714463D01*
X119633815Y-104793815D01*
X119554463Y-104890506D01*
X119495498Y-105000820D01*
X119459188Y-105120518D01*
X119446928Y-105245000D01*
X119446928Y-106845000D01*
X119459188Y-106969482D01*
X119495498Y-107089180D01*
X119554463Y-107199494D01*
X119633815Y-107296185D01*
X119730506Y-107375537D01*
X119840820Y-107434502D01*
X119960518Y-107470812D01*
X120085000Y-107483072D01*
X122485000Y-107483072D01*
X122609482Y-107470812D01*
X122729180Y-107434502D01*
X122839494Y-107375537D01*
X122936185Y-107296185D01*
X123015537Y-107199494D01*
X123074502Y-107089180D01*
X123110812Y-106969482D01*
X123123072Y-106845000D01*
X123123072Y-105245000D01*
X123110812Y-105120518D01*
X123074502Y-105000820D01*
X123015537Y-104890506D01*
X122936185Y-104793815D01*
X122839494Y-104714463D01*
X122729180Y-104655498D01*
X122609482Y-104619188D01*
X122591518Y-104617419D01*
X122704608Y-104524608D01*
X122883932Y-104306101D01*
X123017182Y-104056808D01*
X123034819Y-103998665D01*
X124295000Y-103998665D01*
X124295000Y-104281335D01*
X124350147Y-104558574D01*
X124458320Y-104819727D01*
X124615363Y-105054759D01*
X124815241Y-105254637D01*
X125017827Y-105390000D01*
X124815241Y-105525363D01*
X124615363Y-105725241D01*
X124458320Y-105960273D01*
X124350147Y-106221426D01*
X124295000Y-106498665D01*
X124295000Y-106781335D01*
X124350147Y-107058574D01*
X124458320Y-107319727D01*
X124615363Y-107554759D01*
X124815241Y-107754637D01*
X125050273Y-107911680D01*
X125311426Y-108019853D01*
X125588665Y-108075000D01*
X125871335Y-108075000D01*
X126148574Y-108019853D01*
X126409727Y-107911680D01*
X126644759Y-107754637D01*
X126844637Y-107554759D01*
X127001680Y-107319727D01*
X127109853Y-107058574D01*
X127165000Y-106781335D01*
X127165000Y-106498665D01*
X127109853Y-106221426D01*
X127001680Y-105960273D01*
X126844637Y-105725241D01*
X126644759Y-105525363D01*
X126442173Y-105390000D01*
X126644759Y-105254637D01*
X126844637Y-105054759D01*
X127001680Y-104819727D01*
X127109853Y-104558574D01*
X127165000Y-104281335D01*
X127165000Y-103998665D01*
X127109853Y-103721426D01*
X127001680Y-103460273D01*
X126844637Y-103225241D01*
X126644759Y-103025363D01*
X126409727Y-102868320D01*
X126148574Y-102760147D01*
X125871335Y-102705000D01*
X125588665Y-102705000D01*
X125311426Y-102760147D01*
X125050273Y-102868320D01*
X124815241Y-103025363D01*
X124615363Y-103225241D01*
X124458320Y-103460273D01*
X124350147Y-103721426D01*
X124295000Y-103998665D01*
X123034819Y-103998665D01*
X123099236Y-103786309D01*
X123126943Y-103505000D01*
X123099236Y-103223691D01*
X123017182Y-102953192D01*
X122883932Y-102703899D01*
X122704608Y-102485392D01*
X122486101Y-102306068D01*
X122353142Y-102235000D01*
X122486101Y-102163932D01*
X122704608Y-101984608D01*
X122883932Y-101766101D01*
X123017182Y-101516808D01*
X123099236Y-101246309D01*
X123126943Y-100965000D01*
X123113023Y-100823665D01*
X124295000Y-100823665D01*
X124295000Y-101106335D01*
X124350147Y-101383574D01*
X124458320Y-101644727D01*
X124615363Y-101879759D01*
X124815241Y-102079637D01*
X125050273Y-102236680D01*
X125311426Y-102344853D01*
X125588665Y-102400000D01*
X125871335Y-102400000D01*
X126148574Y-102344853D01*
X126409727Y-102236680D01*
X126644759Y-102079637D01*
X126844637Y-101879759D01*
X127001680Y-101644727D01*
X127109853Y-101383574D01*
X127165000Y-101106335D01*
X127165000Y-100823665D01*
X127109853Y-100546426D01*
X127001680Y-100285273D01*
X126844637Y-100050241D01*
X126644759Y-99850363D01*
X126409727Y-99693320D01*
X126148574Y-99585147D01*
X125871335Y-99530000D01*
X125588665Y-99530000D01*
X125311426Y-99585147D01*
X125050273Y-99693320D01*
X124815241Y-99850363D01*
X124615363Y-100050241D01*
X124458320Y-100285273D01*
X124350147Y-100546426D01*
X124295000Y-100823665D01*
X123113023Y-100823665D01*
X123099236Y-100683691D01*
X123017182Y-100413192D01*
X122883932Y-100163899D01*
X122704608Y-99945392D01*
X122486101Y-99766068D01*
X122358259Y-99697735D01*
X122587839Y-99547601D01*
X122789500Y-99349895D01*
X122948715Y-99116646D01*
X123059367Y-98856818D01*
X123076904Y-98774039D01*
X122954915Y-98552000D01*
X121412000Y-98552000D01*
X121412000Y-98572000D01*
X121158000Y-98572000D01*
X121158000Y-98552000D01*
X119615085Y-98552000D01*
X119493096Y-98774039D01*
X119510633Y-98856818D01*
X119621285Y-99116646D01*
X119780500Y-99349895D01*
X119982161Y-99547601D01*
X120211741Y-99697735D01*
X120083899Y-99766068D01*
X119865392Y-99945392D01*
X119686068Y-100163899D01*
X119552818Y-100413192D01*
X119470764Y-100683691D01*
X119443057Y-100965000D01*
X115506943Y-100965000D01*
X115479236Y-100683691D01*
X115397182Y-100413192D01*
X115263932Y-100163899D01*
X115084608Y-99945392D01*
X114866101Y-99766068D01*
X114733142Y-99695000D01*
X114866101Y-99623932D01*
X115084608Y-99444608D01*
X115263932Y-99226101D01*
X115397182Y-98976808D01*
X115479236Y-98706309D01*
X115506943Y-98425000D01*
X115479236Y-98143691D01*
X115458691Y-98075961D01*
X119493096Y-98075961D01*
X119615085Y-98298000D01*
X121158000Y-98298000D01*
X121158000Y-96990000D01*
X121412000Y-96990000D01*
X121412000Y-98298000D01*
X122954915Y-98298000D01*
X123076904Y-98075961D01*
X123059367Y-97993182D01*
X122948715Y-97733354D01*
X122789500Y-97500105D01*
X122587839Y-97302399D01*
X122351483Y-97147834D01*
X122089514Y-97042350D01*
X121812000Y-96990000D01*
X121412000Y-96990000D01*
X121158000Y-96990000D01*
X120758000Y-96990000D01*
X120480486Y-97042350D01*
X120218517Y-97147834D01*
X119982161Y-97302399D01*
X119780500Y-97500105D01*
X119621285Y-97733354D01*
X119510633Y-97993182D01*
X119493096Y-98075961D01*
X115458691Y-98075961D01*
X115397182Y-97873192D01*
X115263932Y-97623899D01*
X115084608Y-97405392D01*
X114866101Y-97226068D01*
X114616808Y-97092818D01*
X114346309Y-97010764D01*
X114135492Y-96990000D01*
X113194508Y-96990000D01*
X112983691Y-97010764D01*
X112713192Y-97092818D01*
X112463899Y-97226068D01*
X112245392Y-97405392D01*
X112066068Y-97623899D01*
X111932818Y-97873192D01*
X111850764Y-98143691D01*
X111823057Y-98425000D01*
X110655000Y-98425000D01*
X110655000Y-98283665D01*
X110599853Y-98006426D01*
X110491680Y-97745273D01*
X110334637Y-97510241D01*
X110134759Y-97310363D01*
X109932173Y-97175000D01*
X110134759Y-97039637D01*
X110334637Y-96839759D01*
X110491680Y-96604727D01*
X110599853Y-96343574D01*
X110655000Y-96066335D01*
X110655000Y-95783665D01*
X110599853Y-95506426D01*
X110491680Y-95245273D01*
X110334637Y-95010241D01*
X110134759Y-94810363D01*
X109899727Y-94653320D01*
X109638574Y-94545147D01*
X109361335Y-94490000D01*
X109078665Y-94490000D01*
X108801426Y-94545147D01*
X108540273Y-94653320D01*
X108335716Y-94790000D01*
X105075220Y-94790000D01*
X104997498Y-94766423D01*
X104775000Y-94744509D01*
X104592399Y-94762494D01*
X104552500Y-94766423D01*
X104452909Y-94796634D01*
X104338554Y-94831324D01*
X104246770Y-94880384D01*
X104141377Y-94936717D01*
X104011856Y-95043012D01*
X104011849Y-95043019D01*
X103968552Y-95078552D01*
X103933019Y-95121849D01*
X102741860Y-96313009D01*
X102698552Y-96348551D01*
X102556717Y-96521377D01*
X102536809Y-96558623D01*
X102451324Y-96718554D01*
X102386423Y-96932502D01*
X102364509Y-97155000D01*
X102370001Y-97210761D01*
X102370001Y-99753639D01*
X102279727Y-99693320D01*
X102018574Y-99585147D01*
X101741335Y-99530000D01*
X101458665Y-99530000D01*
X101181426Y-99585147D01*
X100920273Y-99693320D01*
X100685241Y-99850363D01*
X100485363Y-100050241D01*
X100328320Y-100285273D01*
X100220147Y-100546426D01*
X100165000Y-100823665D01*
X98983023Y-100823665D01*
X98969236Y-100683691D01*
X98887182Y-100413192D01*
X98753932Y-100163899D01*
X98574608Y-99945392D01*
X98356101Y-99766068D01*
X98228259Y-99697735D01*
X98457839Y-99547601D01*
X98659500Y-99349895D01*
X98818715Y-99116646D01*
X98929367Y-98856818D01*
X98946904Y-98774039D01*
X98824915Y-98552000D01*
X97282000Y-98552000D01*
X97282000Y-98572000D01*
X97028000Y-98572000D01*
X97028000Y-98552000D01*
X95485085Y-98552000D01*
X95363096Y-98774039D01*
X95380633Y-98856818D01*
X95491285Y-99116646D01*
X95650500Y-99349895D01*
X95852161Y-99547601D01*
X96081741Y-99697735D01*
X95953899Y-99766068D01*
X95735392Y-99945392D01*
X95556068Y-100163899D01*
X95422818Y-100413192D01*
X95340764Y-100683691D01*
X95313057Y-100965000D01*
X91376943Y-100965000D01*
X91349236Y-100683691D01*
X91267182Y-100413192D01*
X91133932Y-100163899D01*
X90954608Y-99945392D01*
X90736101Y-99766068D01*
X90603142Y-99695000D01*
X90736101Y-99623932D01*
X90954608Y-99444608D01*
X91133932Y-99226101D01*
X91267182Y-98976808D01*
X91349236Y-98706309D01*
X91376943Y-98425000D01*
X91349236Y-98143691D01*
X91328691Y-98075961D01*
X95363096Y-98075961D01*
X95485085Y-98298000D01*
X97028000Y-98298000D01*
X97028000Y-96990000D01*
X97282000Y-96990000D01*
X97282000Y-98298000D01*
X98824915Y-98298000D01*
X98946904Y-98075961D01*
X98929367Y-97993182D01*
X98818715Y-97733354D01*
X98659500Y-97500105D01*
X98457839Y-97302399D01*
X98221483Y-97147834D01*
X97959514Y-97042350D01*
X97682000Y-96990000D01*
X97282000Y-96990000D01*
X97028000Y-96990000D01*
X96628000Y-96990000D01*
X96350486Y-97042350D01*
X96088517Y-97147834D01*
X95852161Y-97302399D01*
X95650500Y-97500105D01*
X95491285Y-97733354D01*
X95380633Y-97993182D01*
X95363096Y-98075961D01*
X91328691Y-98075961D01*
X91267182Y-97873192D01*
X91133932Y-97623899D01*
X90954608Y-97405392D01*
X90736101Y-97226068D01*
X90486808Y-97092818D01*
X90216309Y-97010764D01*
X90005492Y-96990000D01*
X89064508Y-96990000D01*
X88853691Y-97010764D01*
X88583192Y-97092818D01*
X88333899Y-97226068D01*
X88115392Y-97405392D01*
X87936068Y-97623899D01*
X87802818Y-97873192D01*
X87720764Y-98143691D01*
X87693057Y-98425000D01*
X86525000Y-98425000D01*
X86525000Y-98283665D01*
X86469853Y-98006426D01*
X86361680Y-97745273D01*
X86204637Y-97510241D01*
X86004759Y-97310363D01*
X85802173Y-97175000D01*
X86004759Y-97039637D01*
X86204637Y-96839759D01*
X86361680Y-96604727D01*
X86469853Y-96343574D01*
X86525000Y-96066335D01*
X86525000Y-95783665D01*
X86469853Y-95506426D01*
X86361680Y-95245273D01*
X86204637Y-95010241D01*
X86004759Y-94810363D01*
X85769727Y-94653320D01*
X85508574Y-94545147D01*
X85231335Y-94490000D01*
X84948665Y-94490000D01*
X84671426Y-94545147D01*
X84410273Y-94653320D01*
X84205716Y-94790000D01*
X81580221Y-94790000D01*
X81502499Y-94766423D01*
X81280000Y-94744509D01*
X81057501Y-94766423D01*
X80843553Y-94831324D01*
X80646377Y-94936716D01*
X80516856Y-95043012D01*
X80516849Y-95043019D01*
X80473552Y-95078552D01*
X80438019Y-95121849D01*
X78611860Y-96948009D01*
X78568552Y-96983551D01*
X78426717Y-97156377D01*
X78321324Y-97353553D01*
X78256423Y-97567501D01*
X78243190Y-97701857D01*
X78234509Y-97790000D01*
X78240000Y-97845751D01*
X78240000Y-98164780D01*
X78216423Y-98242502D01*
X78194509Y-98465000D01*
X78200001Y-98520761D01*
X78200001Y-99726912D01*
X78149727Y-99693320D01*
X77888574Y-99585147D01*
X77611335Y-99530000D01*
X77328665Y-99530000D01*
X77051426Y-99585147D01*
X76790273Y-99693320D01*
X76555241Y-99850363D01*
X76355363Y-100050241D01*
X76198320Y-100285273D01*
X76090147Y-100546426D01*
X76035000Y-100823665D01*
X74853023Y-100823665D01*
X74839236Y-100683691D01*
X74757182Y-100413192D01*
X74623932Y-100163899D01*
X74444608Y-99945392D01*
X74226101Y-99766068D01*
X74098259Y-99697735D01*
X74327839Y-99547601D01*
X74529500Y-99349895D01*
X74688715Y-99116646D01*
X74799367Y-98856818D01*
X74816904Y-98774039D01*
X74694915Y-98552000D01*
X73152000Y-98552000D01*
X73152000Y-98572000D01*
X72898000Y-98572000D01*
X72898000Y-98552000D01*
X71355085Y-98552000D01*
X71233096Y-98774039D01*
X71250633Y-98856818D01*
X71361285Y-99116646D01*
X71520500Y-99349895D01*
X71722161Y-99547601D01*
X71951741Y-99697735D01*
X71823899Y-99766068D01*
X71605392Y-99945392D01*
X71426068Y-100163899D01*
X71292818Y-100413192D01*
X71210764Y-100683691D01*
X71183057Y-100965000D01*
X67246943Y-100965000D01*
X67219236Y-100683691D01*
X67137182Y-100413192D01*
X67003932Y-100163899D01*
X66824608Y-99945392D01*
X66606101Y-99766068D01*
X66473142Y-99695000D01*
X66606101Y-99623932D01*
X66824608Y-99444608D01*
X67003932Y-99226101D01*
X67137182Y-98976808D01*
X67219236Y-98706309D01*
X67246943Y-98425000D01*
X67219236Y-98143691D01*
X67198691Y-98075961D01*
X71233096Y-98075961D01*
X71355085Y-98298000D01*
X72898000Y-98298000D01*
X72898000Y-96990000D01*
X73152000Y-96990000D01*
X73152000Y-98298000D01*
X74694915Y-98298000D01*
X74816904Y-98075961D01*
X74799367Y-97993182D01*
X74688715Y-97733354D01*
X74529500Y-97500105D01*
X74327839Y-97302399D01*
X74091483Y-97147834D01*
X73829514Y-97042350D01*
X73552000Y-96990000D01*
X73152000Y-96990000D01*
X72898000Y-96990000D01*
X72498000Y-96990000D01*
X72220486Y-97042350D01*
X71958517Y-97147834D01*
X71722161Y-97302399D01*
X71520500Y-97500105D01*
X71361285Y-97733354D01*
X71250633Y-97993182D01*
X71233096Y-98075961D01*
X67198691Y-98075961D01*
X67137182Y-97873192D01*
X67003932Y-97623899D01*
X66824608Y-97405392D01*
X66606101Y-97226068D01*
X66356808Y-97092818D01*
X66086309Y-97010764D01*
X65875492Y-96990000D01*
X64934508Y-96990000D01*
X64723691Y-97010764D01*
X64453192Y-97092818D01*
X64203899Y-97226068D01*
X63985392Y-97405392D01*
X63806068Y-97623899D01*
X63672818Y-97873192D01*
X63590764Y-98143691D01*
X63563057Y-98425000D01*
X62395000Y-98425000D01*
X62395000Y-98283665D01*
X62339853Y-98006426D01*
X62231680Y-97745273D01*
X62074637Y-97510241D01*
X61874759Y-97310363D01*
X61672173Y-97175000D01*
X61874759Y-97039637D01*
X62074637Y-96839759D01*
X62231680Y-96604727D01*
X62339853Y-96343574D01*
X62395000Y-96066335D01*
X62395000Y-95783665D01*
X62339853Y-95506426D01*
X62231680Y-95245273D01*
X62074637Y-95010241D01*
X61874759Y-94810363D01*
X61639727Y-94653320D01*
X61378574Y-94545147D01*
X61101335Y-94490000D01*
X60818665Y-94490000D01*
X60541426Y-94545147D01*
X60280273Y-94653320D01*
X60045241Y-94810363D01*
X59845363Y-95010241D01*
X59688320Y-95245273D01*
X59580147Y-95506426D01*
X59525000Y-95783665D01*
X54737000Y-95783665D01*
X54737000Y-90005000D01*
X55711928Y-90005000D01*
X55711928Y-91605000D01*
X55724188Y-91729482D01*
X55760498Y-91849180D01*
X55819463Y-91959494D01*
X55898815Y-92056185D01*
X55995506Y-92135537D01*
X56105820Y-92194502D01*
X56225518Y-92230812D01*
X56350000Y-92243072D01*
X57950000Y-92243072D01*
X58074482Y-92230812D01*
X58194180Y-92194502D01*
X58304494Y-92135537D01*
X58401185Y-92056185D01*
X58480537Y-91959494D01*
X58539502Y-91849180D01*
X58575812Y-91729482D01*
X58588072Y-91605000D01*
X58588072Y-90679514D01*
X65087500Y-90679514D01*
X65087500Y-90930485D01*
X65110470Y-91163703D01*
X65201245Y-91462948D01*
X65348655Y-91738734D01*
X65547037Y-91980463D01*
X65788765Y-92178845D01*
X66064551Y-92326255D01*
X66363796Y-92417030D01*
X66675000Y-92447681D01*
X66986203Y-92417030D01*
X67285448Y-92326255D01*
X67561234Y-92178845D01*
X67802963Y-91980463D01*
X67945000Y-91807391D01*
X68087037Y-91980463D01*
X68328765Y-92178845D01*
X68604551Y-92326255D01*
X68903796Y-92417030D01*
X69215000Y-92447681D01*
X69526203Y-92417030D01*
X69825448Y-92326255D01*
X70101234Y-92178845D01*
X70227095Y-92075553D01*
X70271963Y-92159494D01*
X70351315Y-92256185D01*
X70448006Y-92335537D01*
X70558320Y-92394502D01*
X70678018Y-92430812D01*
X70802500Y-92443072D01*
X72707500Y-92443072D01*
X72831982Y-92430812D01*
X72951680Y-92394502D01*
X73061994Y-92335537D01*
X73158685Y-92256185D01*
X73238037Y-92159494D01*
X73297002Y-92049180D01*
X73333312Y-91929482D01*
X73345572Y-91805000D01*
X73345572Y-90663665D01*
X76035000Y-90663665D01*
X76035000Y-90946335D01*
X76090147Y-91223574D01*
X76198320Y-91484727D01*
X76355363Y-91719759D01*
X76555241Y-91919637D01*
X76790273Y-92076680D01*
X77051426Y-92184853D01*
X77328665Y-92240000D01*
X77611335Y-92240000D01*
X77888574Y-92184853D01*
X78149727Y-92076680D01*
X78384759Y-91919637D01*
X78584637Y-91719759D01*
X78741680Y-91484727D01*
X78849853Y-91223574D01*
X78905000Y-90946335D01*
X78905000Y-90663665D01*
X78900293Y-90640000D01*
X79841928Y-90640000D01*
X79841928Y-92240000D01*
X79854188Y-92364482D01*
X79890498Y-92484180D01*
X79949463Y-92594494D01*
X80028815Y-92691185D01*
X80125506Y-92770537D01*
X80235820Y-92829502D01*
X80355518Y-92865812D01*
X80480000Y-92878072D01*
X82080000Y-92878072D01*
X82204482Y-92865812D01*
X82324180Y-92829502D01*
X82434494Y-92770537D01*
X82531185Y-92691185D01*
X82610537Y-92594494D01*
X82669502Y-92484180D01*
X82705812Y-92364482D01*
X82718072Y-92240000D01*
X82718072Y-90679514D01*
X89217500Y-90679514D01*
X89217500Y-90930485D01*
X89240470Y-91163703D01*
X89331245Y-91462948D01*
X89478655Y-91738734D01*
X89677037Y-91980463D01*
X89918765Y-92178845D01*
X90194551Y-92326255D01*
X90493796Y-92417030D01*
X90805000Y-92447681D01*
X91116203Y-92417030D01*
X91415448Y-92326255D01*
X91691234Y-92178845D01*
X91932963Y-91980463D01*
X92075000Y-91807391D01*
X92217037Y-91980463D01*
X92458765Y-92178845D01*
X92734551Y-92326255D01*
X93033796Y-92417030D01*
X93345000Y-92447681D01*
X93656203Y-92417030D01*
X93955448Y-92326255D01*
X94231234Y-92178845D01*
X94357095Y-92075553D01*
X94401963Y-92159494D01*
X94481315Y-92256185D01*
X94578006Y-92335537D01*
X94688320Y-92394502D01*
X94808018Y-92430812D01*
X94932500Y-92443072D01*
X96837500Y-92443072D01*
X96961982Y-92430812D01*
X97081680Y-92394502D01*
X97191994Y-92335537D01*
X97288685Y-92256185D01*
X97368037Y-92159494D01*
X97427002Y-92049180D01*
X97463312Y-91929482D01*
X97475572Y-91805000D01*
X97475572Y-90663665D01*
X100165000Y-90663665D01*
X100165000Y-90946335D01*
X100220147Y-91223574D01*
X100328320Y-91484727D01*
X100485363Y-91719759D01*
X100685241Y-91919637D01*
X100920273Y-92076680D01*
X101181426Y-92184853D01*
X101458665Y-92240000D01*
X101741335Y-92240000D01*
X102018574Y-92184853D01*
X102279727Y-92076680D01*
X102514759Y-91919637D01*
X102714637Y-91719759D01*
X102871680Y-91484727D01*
X102979853Y-91223574D01*
X103035000Y-90946335D01*
X103035000Y-90663665D01*
X102979853Y-90386426D01*
X102871680Y-90125273D01*
X102791317Y-90005000D01*
X103971928Y-90005000D01*
X103971928Y-91605000D01*
X103984188Y-91729482D01*
X104020498Y-91849180D01*
X104079463Y-91959494D01*
X104158815Y-92056185D01*
X104255506Y-92135537D01*
X104365820Y-92194502D01*
X104485518Y-92230812D01*
X104610000Y-92243072D01*
X106210000Y-92243072D01*
X106334482Y-92230812D01*
X106454180Y-92194502D01*
X106564494Y-92135537D01*
X106661185Y-92056185D01*
X106740537Y-91959494D01*
X106799502Y-91849180D01*
X106835812Y-91729482D01*
X106848072Y-91605000D01*
X106848072Y-90679514D01*
X113347500Y-90679514D01*
X113347500Y-90930485D01*
X113370470Y-91163703D01*
X113461245Y-91462948D01*
X113608655Y-91738734D01*
X113807037Y-91980463D01*
X114048765Y-92178845D01*
X114324551Y-92326255D01*
X114623796Y-92417030D01*
X114935000Y-92447681D01*
X115246203Y-92417030D01*
X115545448Y-92326255D01*
X115821234Y-92178845D01*
X116062963Y-91980463D01*
X116205000Y-91807391D01*
X116347037Y-91980463D01*
X116588765Y-92178845D01*
X116864551Y-92326255D01*
X117163796Y-92417030D01*
X117475000Y-92447681D01*
X117786203Y-92417030D01*
X118085448Y-92326255D01*
X118361234Y-92178845D01*
X118487095Y-92075553D01*
X118531963Y-92159494D01*
X118611315Y-92256185D01*
X118708006Y-92335537D01*
X118818320Y-92394502D01*
X118938018Y-92430812D01*
X119062500Y-92443072D01*
X120967500Y-92443072D01*
X121091982Y-92430812D01*
X121211680Y-92394502D01*
X121321994Y-92335537D01*
X121418685Y-92256185D01*
X121498037Y-92159494D01*
X121557002Y-92049180D01*
X121593312Y-91929482D01*
X121605572Y-91805000D01*
X121605572Y-90663665D01*
X124295000Y-90663665D01*
X124295000Y-90946335D01*
X124350147Y-91223574D01*
X124458320Y-91484727D01*
X124615363Y-91719759D01*
X124815241Y-91919637D01*
X125050273Y-92076680D01*
X125311426Y-92184853D01*
X125588665Y-92240000D01*
X125871335Y-92240000D01*
X126148574Y-92184853D01*
X126409727Y-92076680D01*
X126644759Y-91919637D01*
X126844637Y-91719759D01*
X127001680Y-91484727D01*
X127109853Y-91223574D01*
X127165000Y-90946335D01*
X127165000Y-90663665D01*
X127109853Y-90386426D01*
X127001680Y-90125273D01*
X126844637Y-89890241D01*
X126644759Y-89690363D01*
X126409727Y-89533320D01*
X126148574Y-89425147D01*
X125871335Y-89370000D01*
X125588665Y-89370000D01*
X125311426Y-89425147D01*
X125050273Y-89533320D01*
X124815241Y-89690363D01*
X124615363Y-89890241D01*
X124458320Y-90125273D01*
X124350147Y-90386426D01*
X124295000Y-90663665D01*
X121605572Y-90663665D01*
X121605572Y-89805000D01*
X121593312Y-89680518D01*
X121557002Y-89560820D01*
X121498037Y-89450506D01*
X121418685Y-89353815D01*
X121321994Y-89274463D01*
X121211680Y-89215498D01*
X121091982Y-89179188D01*
X120967500Y-89166928D01*
X119062500Y-89166928D01*
X118938018Y-89179188D01*
X118818320Y-89215498D01*
X118708006Y-89274463D01*
X118611315Y-89353815D01*
X118531963Y-89450506D01*
X118487095Y-89534446D01*
X118361235Y-89431155D01*
X118085449Y-89283745D01*
X117786204Y-89192970D01*
X117475000Y-89162319D01*
X117163797Y-89192970D01*
X116864552Y-89283745D01*
X116588766Y-89431155D01*
X116347037Y-89629537D01*
X116205000Y-89802609D01*
X116062963Y-89629537D01*
X115821235Y-89431155D01*
X115545449Y-89283745D01*
X115246204Y-89192970D01*
X114935000Y-89162319D01*
X114623797Y-89192970D01*
X114324552Y-89283745D01*
X114048766Y-89431155D01*
X113807037Y-89629537D01*
X113608655Y-89871265D01*
X113461245Y-90147051D01*
X113370470Y-90446296D01*
X113347500Y-90679514D01*
X106848072Y-90679514D01*
X106848072Y-90005000D01*
X106835812Y-89880518D01*
X106799502Y-89760820D01*
X106740537Y-89650506D01*
X106661185Y-89553815D01*
X106564494Y-89474463D01*
X106454180Y-89415498D01*
X106334482Y-89379188D01*
X106210000Y-89366928D01*
X104610000Y-89366928D01*
X104485518Y-89379188D01*
X104365820Y-89415498D01*
X104255506Y-89474463D01*
X104158815Y-89553815D01*
X104079463Y-89650506D01*
X104020498Y-89760820D01*
X103984188Y-89880518D01*
X103971928Y-90005000D01*
X102791317Y-90005000D01*
X102714637Y-89890241D01*
X102514759Y-89690363D01*
X102279727Y-89533320D01*
X102018574Y-89425147D01*
X101741335Y-89370000D01*
X101458665Y-89370000D01*
X101181426Y-89425147D01*
X100920273Y-89533320D01*
X100685241Y-89690363D01*
X100485363Y-89890241D01*
X100328320Y-90125273D01*
X100220147Y-90386426D01*
X100165000Y-90663665D01*
X97475572Y-90663665D01*
X97475572Y-89805000D01*
X97463312Y-89680518D01*
X97427002Y-89560820D01*
X97368037Y-89450506D01*
X97288685Y-89353815D01*
X97191994Y-89274463D01*
X97081680Y-89215498D01*
X96961982Y-89179188D01*
X96837500Y-89166928D01*
X94932500Y-89166928D01*
X94808018Y-89179188D01*
X94688320Y-89215498D01*
X94578006Y-89274463D01*
X94481315Y-89353815D01*
X94401963Y-89450506D01*
X94357095Y-89534446D01*
X94231235Y-89431155D01*
X93955449Y-89283745D01*
X93656204Y-89192970D01*
X93345000Y-89162319D01*
X93033797Y-89192970D01*
X92734552Y-89283745D01*
X92458766Y-89431155D01*
X92217037Y-89629537D01*
X92075000Y-89802609D01*
X91932963Y-89629537D01*
X91691235Y-89431155D01*
X91415449Y-89283745D01*
X91116204Y-89192970D01*
X90805000Y-89162319D01*
X90493797Y-89192970D01*
X90194552Y-89283745D01*
X89918766Y-89431155D01*
X89677037Y-89629537D01*
X89478655Y-89871265D01*
X89331245Y-90147051D01*
X89240470Y-90446296D01*
X89217500Y-90679514D01*
X82718072Y-90679514D01*
X82718072Y-90640000D01*
X82705812Y-90515518D01*
X82669502Y-90395820D01*
X82610537Y-90285506D01*
X82531185Y-90188815D01*
X82434494Y-90109463D01*
X82324180Y-90050498D01*
X82204482Y-90014188D01*
X82080000Y-90001928D01*
X80480000Y-90001928D01*
X80355518Y-90014188D01*
X80235820Y-90050498D01*
X80125506Y-90109463D01*
X80028815Y-90188815D01*
X79949463Y-90285506D01*
X79890498Y-90395820D01*
X79854188Y-90515518D01*
X79841928Y-90640000D01*
X78900293Y-90640000D01*
X78849853Y-90386426D01*
X78741680Y-90125273D01*
X78584637Y-89890241D01*
X78384759Y-89690363D01*
X78149727Y-89533320D01*
X77888574Y-89425147D01*
X77611335Y-89370000D01*
X77328665Y-89370000D01*
X77051426Y-89425147D01*
X76790273Y-89533320D01*
X76555241Y-89690363D01*
X76355363Y-89890241D01*
X76198320Y-90125273D01*
X76090147Y-90386426D01*
X76035000Y-90663665D01*
X73345572Y-90663665D01*
X73345572Y-89805000D01*
X73333312Y-89680518D01*
X73297002Y-89560820D01*
X73238037Y-89450506D01*
X73158685Y-89353815D01*
X73061994Y-89274463D01*
X72951680Y-89215498D01*
X72831982Y-89179188D01*
X72707500Y-89166928D01*
X70802500Y-89166928D01*
X70678018Y-89179188D01*
X70558320Y-89215498D01*
X70448006Y-89274463D01*
X70351315Y-89353815D01*
X70271963Y-89450506D01*
X70227095Y-89534446D01*
X70101235Y-89431155D01*
X69825449Y-89283745D01*
X69526204Y-89192970D01*
X69215000Y-89162319D01*
X68903797Y-89192970D01*
X68604552Y-89283745D01*
X68328766Y-89431155D01*
X68087037Y-89629537D01*
X67945000Y-89802609D01*
X67802963Y-89629537D01*
X67561235Y-89431155D01*
X67285449Y-89283745D01*
X66986204Y-89192970D01*
X66675000Y-89162319D01*
X66363797Y-89192970D01*
X66064552Y-89283745D01*
X65788766Y-89431155D01*
X65547037Y-89629537D01*
X65348655Y-89871265D01*
X65201245Y-90147051D01*
X65110470Y-90446296D01*
X65087500Y-90679514D01*
X58588072Y-90679514D01*
X58588072Y-90005000D01*
X58575812Y-89880518D01*
X58539502Y-89760820D01*
X58480537Y-89650506D01*
X58401185Y-89553815D01*
X58304494Y-89474463D01*
X58194180Y-89415498D01*
X58074482Y-89379188D01*
X57950000Y-89366928D01*
X56350000Y-89366928D01*
X56225518Y-89379188D01*
X56105820Y-89415498D01*
X55995506Y-89474463D01*
X55898815Y-89553815D01*
X55819463Y-89650506D01*
X55760498Y-89760820D01*
X55724188Y-89880518D01*
X55711928Y-90005000D01*
X54737000Y-90005000D01*
X54737000Y-86995000D01*
X56677718Y-86995000D01*
X56706776Y-87290032D01*
X56792834Y-87573725D01*
X56932583Y-87835179D01*
X57120655Y-88064345D01*
X57349821Y-88252417D01*
X57611275Y-88392166D01*
X57894968Y-88478224D01*
X58116064Y-88500000D01*
X58723936Y-88500000D01*
X58945032Y-88478224D01*
X59228725Y-88392166D01*
X59490179Y-88252417D01*
X59719345Y-88064345D01*
X59907417Y-87835179D01*
X60047166Y-87573725D01*
X60133224Y-87290032D01*
X60162282Y-86995000D01*
X60133224Y-86699968D01*
X60047166Y-86416275D01*
X59907417Y-86154821D01*
X59720953Y-85927615D01*
X59764180Y-85914502D01*
X59874494Y-85855537D01*
X59971185Y-85776185D01*
X60050537Y-85679494D01*
X60109502Y-85569180D01*
X60145812Y-85449482D01*
X60158072Y-85325000D01*
X60155000Y-84740750D01*
X59996250Y-84582000D01*
X58547000Y-84582000D01*
X58547000Y-84602000D01*
X58293000Y-84602000D01*
X58293000Y-84582000D01*
X56843750Y-84582000D01*
X56685000Y-84740750D01*
X56681928Y-85325000D01*
X56694188Y-85449482D01*
X56730498Y-85569180D01*
X56789463Y-85679494D01*
X56868815Y-85776185D01*
X56965506Y-85855537D01*
X57075820Y-85914502D01*
X57119047Y-85927615D01*
X56932583Y-86154821D01*
X56792834Y-86416275D01*
X56706776Y-86699968D01*
X56677718Y-86995000D01*
X54737000Y-86995000D01*
X54737000Y-83585000D01*
X56681928Y-83585000D01*
X56685000Y-84169250D01*
X56843750Y-84328000D01*
X58293000Y-84328000D01*
X58293000Y-83108750D01*
X58547000Y-83108750D01*
X58547000Y-84328000D01*
X59996250Y-84328000D01*
X60010585Y-84313665D01*
X62700000Y-84313665D01*
X62700000Y-84596335D01*
X62755147Y-84873574D01*
X62863320Y-85134727D01*
X63020363Y-85369759D01*
X63220241Y-85569637D01*
X63455273Y-85726680D01*
X63716426Y-85834853D01*
X63993665Y-85890000D01*
X64276335Y-85890000D01*
X64553574Y-85834853D01*
X64814727Y-85726680D01*
X65049759Y-85569637D01*
X65249637Y-85369759D01*
X65406680Y-85134727D01*
X65514853Y-84873574D01*
X65570000Y-84596335D01*
X65570000Y-84313665D01*
X67780000Y-84313665D01*
X67780000Y-84596335D01*
X67835147Y-84873574D01*
X67943320Y-85134727D01*
X68100363Y-85369759D01*
X68300241Y-85569637D01*
X68535273Y-85726680D01*
X68796426Y-85834853D01*
X69073665Y-85890000D01*
X69356335Y-85890000D01*
X69633574Y-85834853D01*
X69894727Y-85726680D01*
X70129759Y-85569637D01*
X70329637Y-85369759D01*
X70486680Y-85134727D01*
X70594853Y-84873574D01*
X70650000Y-84596335D01*
X70650000Y-84313665D01*
X70617657Y-84151064D01*
X72790000Y-84151064D01*
X72790000Y-84758935D01*
X72811776Y-84980031D01*
X72897834Y-85263724D01*
X73037583Y-85525178D01*
X73225655Y-85754345D01*
X73454821Y-85942417D01*
X73716275Y-86082166D01*
X73999968Y-86168224D01*
X74295000Y-86197282D01*
X74590031Y-86168224D01*
X74873724Y-86082166D01*
X75135178Y-85942417D01*
X75362385Y-85755953D01*
X75375498Y-85799180D01*
X75434463Y-85909494D01*
X75513815Y-86006185D01*
X75610506Y-86085537D01*
X75720820Y-86144502D01*
X75840518Y-86180812D01*
X75965000Y-86193072D01*
X76549250Y-86190000D01*
X76708000Y-86031250D01*
X76708000Y-84582000D01*
X76962000Y-84582000D01*
X76962000Y-86031250D01*
X77120750Y-86190000D01*
X77705000Y-86193072D01*
X77829482Y-86180812D01*
X77949180Y-86144502D01*
X78059494Y-86085537D01*
X78156185Y-86006185D01*
X78235537Y-85909494D01*
X78294502Y-85799180D01*
X78330812Y-85679482D01*
X78343072Y-85555000D01*
X78342883Y-85504872D01*
X80950000Y-85504872D01*
X80950000Y-85945128D01*
X81035890Y-86376925D01*
X81204369Y-86783669D01*
X81448962Y-87149729D01*
X81760271Y-87461038D01*
X82126331Y-87705631D01*
X82533075Y-87874110D01*
X82964872Y-87960000D01*
X83405128Y-87960000D01*
X83836925Y-87874110D01*
X84243669Y-87705631D01*
X84609729Y-87461038D01*
X84921038Y-87149729D01*
X85165631Y-86783669D01*
X85334110Y-86376925D01*
X85420000Y-85945128D01*
X85420000Y-85504872D01*
X85334110Y-85073075D01*
X85165631Y-84666331D01*
X84929988Y-84313665D01*
X86830000Y-84313665D01*
X86830000Y-84596335D01*
X86885147Y-84873574D01*
X86993320Y-85134727D01*
X87150363Y-85369759D01*
X87350241Y-85569637D01*
X87585273Y-85726680D01*
X87846426Y-85834853D01*
X88123665Y-85890000D01*
X88406335Y-85890000D01*
X88683574Y-85834853D01*
X88944727Y-85726680D01*
X89179759Y-85569637D01*
X89379637Y-85369759D01*
X89536680Y-85134727D01*
X89644853Y-84873574D01*
X89700000Y-84596335D01*
X89700000Y-84313665D01*
X91910000Y-84313665D01*
X91910000Y-84596335D01*
X91965147Y-84873574D01*
X92073320Y-85134727D01*
X92230363Y-85369759D01*
X92430241Y-85569637D01*
X92665273Y-85726680D01*
X92926426Y-85834853D01*
X93203665Y-85890000D01*
X93486335Y-85890000D01*
X93763574Y-85834853D01*
X94024727Y-85726680D01*
X94259759Y-85569637D01*
X94459637Y-85369759D01*
X94616680Y-85134727D01*
X94724853Y-84873574D01*
X94780000Y-84596335D01*
X94780000Y-84313665D01*
X94747657Y-84151064D01*
X96920000Y-84151064D01*
X96920000Y-84758935D01*
X96941776Y-84980031D01*
X97027834Y-85263724D01*
X97167583Y-85525178D01*
X97355655Y-85754345D01*
X97584821Y-85942417D01*
X97846275Y-86082166D01*
X98129968Y-86168224D01*
X98425000Y-86197282D01*
X98720031Y-86168224D01*
X99003724Y-86082166D01*
X99265178Y-85942417D01*
X99492385Y-85755953D01*
X99505498Y-85799180D01*
X99564463Y-85909494D01*
X99643815Y-86006185D01*
X99740506Y-86085537D01*
X99850820Y-86144502D01*
X99970518Y-86180812D01*
X100095000Y-86193072D01*
X100679250Y-86190000D01*
X100838000Y-86031250D01*
X100838000Y-84582000D01*
X101092000Y-84582000D01*
X101092000Y-86031250D01*
X101250750Y-86190000D01*
X101835000Y-86193072D01*
X101959482Y-86180812D01*
X102079180Y-86144502D01*
X102189494Y-86085537D01*
X102286185Y-86006185D01*
X102365537Y-85909494D01*
X102424502Y-85799180D01*
X102460812Y-85679482D01*
X102473072Y-85555000D01*
X102472883Y-85504872D01*
X105080000Y-85504872D01*
X105080000Y-85945128D01*
X105165890Y-86376925D01*
X105334369Y-86783669D01*
X105578962Y-87149729D01*
X105890271Y-87461038D01*
X106256331Y-87705631D01*
X106663075Y-87874110D01*
X107094872Y-87960000D01*
X107535128Y-87960000D01*
X107966925Y-87874110D01*
X108373669Y-87705631D01*
X108739729Y-87461038D01*
X109051038Y-87149729D01*
X109295631Y-86783669D01*
X109464110Y-86376925D01*
X109550000Y-85945128D01*
X109550000Y-85504872D01*
X109464110Y-85073075D01*
X109295631Y-84666331D01*
X109059988Y-84313665D01*
X110960000Y-84313665D01*
X110960000Y-84596335D01*
X111015147Y-84873574D01*
X111123320Y-85134727D01*
X111280363Y-85369759D01*
X111480241Y-85569637D01*
X111715273Y-85726680D01*
X111976426Y-85834853D01*
X112253665Y-85890000D01*
X112536335Y-85890000D01*
X112813574Y-85834853D01*
X113074727Y-85726680D01*
X113309759Y-85569637D01*
X113509637Y-85369759D01*
X113666680Y-85134727D01*
X113774853Y-84873574D01*
X113830000Y-84596335D01*
X113830000Y-84313665D01*
X116040000Y-84313665D01*
X116040000Y-84596335D01*
X116095147Y-84873574D01*
X116203320Y-85134727D01*
X116360363Y-85369759D01*
X116560241Y-85569637D01*
X116795273Y-85726680D01*
X117056426Y-85834853D01*
X117333665Y-85890000D01*
X117616335Y-85890000D01*
X117893574Y-85834853D01*
X118154727Y-85726680D01*
X118389759Y-85569637D01*
X118589637Y-85369759D01*
X118746680Y-85134727D01*
X118854853Y-84873574D01*
X118910000Y-84596335D01*
X118910000Y-84313665D01*
X118877657Y-84151064D01*
X121050000Y-84151064D01*
X121050000Y-84758935D01*
X121071776Y-84980031D01*
X121157834Y-85263724D01*
X121297583Y-85525178D01*
X121485655Y-85754345D01*
X121714821Y-85942417D01*
X121976275Y-86082166D01*
X122259968Y-86168224D01*
X122555000Y-86197282D01*
X122850031Y-86168224D01*
X123133724Y-86082166D01*
X123395178Y-85942417D01*
X123622385Y-85755953D01*
X123635498Y-85799180D01*
X123694463Y-85909494D01*
X123773815Y-86006185D01*
X123870506Y-86085537D01*
X123980820Y-86144502D01*
X124100518Y-86180812D01*
X124225000Y-86193072D01*
X124809250Y-86190000D01*
X124968000Y-86031250D01*
X124968000Y-84582000D01*
X125222000Y-84582000D01*
X125222000Y-86031250D01*
X125380750Y-86190000D01*
X125965000Y-86193072D01*
X126089482Y-86180812D01*
X126209180Y-86144502D01*
X126319494Y-86085537D01*
X126416185Y-86006185D01*
X126495537Y-85909494D01*
X126554502Y-85799180D01*
X126590812Y-85679482D01*
X126603072Y-85555000D01*
X126600000Y-84740750D01*
X126441250Y-84582000D01*
X125222000Y-84582000D01*
X124968000Y-84582000D01*
X124948000Y-84582000D01*
X124948000Y-84328000D01*
X124968000Y-84328000D01*
X124968000Y-82878750D01*
X125222000Y-82878750D01*
X125222000Y-84328000D01*
X126441250Y-84328000D01*
X126600000Y-84169250D01*
X126603072Y-83355000D01*
X126590812Y-83230518D01*
X126554502Y-83110820D01*
X126495537Y-83000506D01*
X126416185Y-82903815D01*
X126319494Y-82824463D01*
X126209180Y-82765498D01*
X126089482Y-82729188D01*
X125965000Y-82716928D01*
X125380750Y-82720000D01*
X125222000Y-82878750D01*
X124968000Y-82878750D01*
X124809250Y-82720000D01*
X124225000Y-82716928D01*
X124100518Y-82729188D01*
X123980820Y-82765498D01*
X123870506Y-82824463D01*
X123773815Y-82903815D01*
X123694463Y-83000506D01*
X123635498Y-83110820D01*
X123622385Y-83154047D01*
X123395179Y-82967583D01*
X123133725Y-82827834D01*
X122850032Y-82741776D01*
X122555000Y-82712718D01*
X122259969Y-82741776D01*
X121976276Y-82827834D01*
X121714822Y-82967583D01*
X121485655Y-83155655D01*
X121297583Y-83384821D01*
X121157834Y-83646275D01*
X121071776Y-83929968D01*
X121050000Y-84151064D01*
X118877657Y-84151064D01*
X118854853Y-84036426D01*
X118746680Y-83775273D01*
X118589637Y-83540241D01*
X118389759Y-83340363D01*
X118154727Y-83183320D01*
X117893574Y-83075147D01*
X117616335Y-83020000D01*
X117333665Y-83020000D01*
X117056426Y-83075147D01*
X116795273Y-83183320D01*
X116560241Y-83340363D01*
X116360363Y-83540241D01*
X116203320Y-83775273D01*
X116095147Y-84036426D01*
X116040000Y-84313665D01*
X113830000Y-84313665D01*
X113774853Y-84036426D01*
X113666680Y-83775273D01*
X113509637Y-83540241D01*
X113309759Y-83340363D01*
X113074727Y-83183320D01*
X112813574Y-83075147D01*
X112536335Y-83020000D01*
X112253665Y-83020000D01*
X111976426Y-83075147D01*
X111715273Y-83183320D01*
X111480241Y-83340363D01*
X111280363Y-83540241D01*
X111123320Y-83775273D01*
X111015147Y-84036426D01*
X110960000Y-84313665D01*
X109059988Y-84313665D01*
X109051038Y-84300271D01*
X108739729Y-83988962D01*
X108373669Y-83744369D01*
X107966925Y-83575890D01*
X107535128Y-83490000D01*
X107094872Y-83490000D01*
X106663075Y-83575890D01*
X106256331Y-83744369D01*
X105890271Y-83988962D01*
X105578962Y-84300271D01*
X105334369Y-84666331D01*
X105165890Y-85073075D01*
X105080000Y-85504872D01*
X102472883Y-85504872D01*
X102470000Y-84740750D01*
X102311250Y-84582000D01*
X101092000Y-84582000D01*
X100838000Y-84582000D01*
X100818000Y-84582000D01*
X100818000Y-84328000D01*
X100838000Y-84328000D01*
X100838000Y-82878750D01*
X101092000Y-82878750D01*
X101092000Y-84328000D01*
X102311250Y-84328000D01*
X102470000Y-84169250D01*
X102473072Y-83355000D01*
X102460812Y-83230518D01*
X102424502Y-83110820D01*
X102365537Y-83000506D01*
X102286185Y-82903815D01*
X102189494Y-82824463D01*
X102079180Y-82765498D01*
X101959482Y-82729188D01*
X101835000Y-82716928D01*
X101250750Y-82720000D01*
X101092000Y-82878750D01*
X100838000Y-82878750D01*
X100679250Y-82720000D01*
X100095000Y-82716928D01*
X99970518Y-82729188D01*
X99850820Y-82765498D01*
X99740506Y-82824463D01*
X99643815Y-82903815D01*
X99564463Y-83000506D01*
X99505498Y-83110820D01*
X99492385Y-83154047D01*
X99265179Y-82967583D01*
X99003725Y-82827834D01*
X98720032Y-82741776D01*
X98425000Y-82712718D01*
X98129969Y-82741776D01*
X97846276Y-82827834D01*
X97584822Y-82967583D01*
X97355655Y-83155655D01*
X97167583Y-83384821D01*
X97027834Y-83646275D01*
X96941776Y-83929968D01*
X96920000Y-84151064D01*
X94747657Y-84151064D01*
X94724853Y-84036426D01*
X94616680Y-83775273D01*
X94459637Y-83540241D01*
X94259759Y-83340363D01*
X94024727Y-83183320D01*
X93763574Y-83075147D01*
X93486335Y-83020000D01*
X93203665Y-83020000D01*
X92926426Y-83075147D01*
X92665273Y-83183320D01*
X92430241Y-83340363D01*
X92230363Y-83540241D01*
X92073320Y-83775273D01*
X91965147Y-84036426D01*
X91910000Y-84313665D01*
X89700000Y-84313665D01*
X89644853Y-84036426D01*
X89536680Y-83775273D01*
X89379637Y-83540241D01*
X89179759Y-83340363D01*
X88944727Y-83183320D01*
X88683574Y-83075147D01*
X88406335Y-83020000D01*
X88123665Y-83020000D01*
X87846426Y-83075147D01*
X87585273Y-83183320D01*
X87350241Y-83340363D01*
X87150363Y-83540241D01*
X86993320Y-83775273D01*
X86885147Y-84036426D01*
X86830000Y-84313665D01*
X84929988Y-84313665D01*
X84921038Y-84300271D01*
X84609729Y-83988962D01*
X84243669Y-83744369D01*
X83836925Y-83575890D01*
X83405128Y-83490000D01*
X82964872Y-83490000D01*
X82533075Y-83575890D01*
X82126331Y-83744369D01*
X81760271Y-83988962D01*
X81448962Y-84300271D01*
X81204369Y-84666331D01*
X81035890Y-85073075D01*
X80950000Y-85504872D01*
X78342883Y-85504872D01*
X78340000Y-84740750D01*
X78181250Y-84582000D01*
X76962000Y-84582000D01*
X76708000Y-84582000D01*
X76688000Y-84582000D01*
X76688000Y-84328000D01*
X76708000Y-84328000D01*
X76708000Y-82878750D01*
X76962000Y-82878750D01*
X76962000Y-84328000D01*
X78181250Y-84328000D01*
X78340000Y-84169250D01*
X78343072Y-83355000D01*
X78330812Y-83230518D01*
X78294502Y-83110820D01*
X78235537Y-83000506D01*
X78156185Y-82903815D01*
X78059494Y-82824463D01*
X77949180Y-82765498D01*
X77829482Y-82729188D01*
X77705000Y-82716928D01*
X77120750Y-82720000D01*
X76962000Y-82878750D01*
X76708000Y-82878750D01*
X76549250Y-82720000D01*
X75965000Y-82716928D01*
X75840518Y-82729188D01*
X75720820Y-82765498D01*
X75610506Y-82824463D01*
X75513815Y-82903815D01*
X75434463Y-83000506D01*
X75375498Y-83110820D01*
X75362385Y-83154047D01*
X75135179Y-82967583D01*
X74873725Y-82827834D01*
X74590032Y-82741776D01*
X74295000Y-82712718D01*
X73999969Y-82741776D01*
X73716276Y-82827834D01*
X73454822Y-82967583D01*
X73225655Y-83155655D01*
X73037583Y-83384821D01*
X72897834Y-83646275D01*
X72811776Y-83929968D01*
X72790000Y-84151064D01*
X70617657Y-84151064D01*
X70594853Y-84036426D01*
X70486680Y-83775273D01*
X70329637Y-83540241D01*
X70129759Y-83340363D01*
X69894727Y-83183320D01*
X69633574Y-83075147D01*
X69356335Y-83020000D01*
X69073665Y-83020000D01*
X68796426Y-83075147D01*
X68535273Y-83183320D01*
X68300241Y-83340363D01*
X68100363Y-83540241D01*
X67943320Y-83775273D01*
X67835147Y-84036426D01*
X67780000Y-84313665D01*
X65570000Y-84313665D01*
X65514853Y-84036426D01*
X65406680Y-83775273D01*
X65249637Y-83540241D01*
X65049759Y-83340363D01*
X64814727Y-83183320D01*
X64553574Y-83075147D01*
X64276335Y-83020000D01*
X63993665Y-83020000D01*
X63716426Y-83075147D01*
X63455273Y-83183320D01*
X63220241Y-83340363D01*
X63020363Y-83540241D01*
X62863320Y-83775273D01*
X62755147Y-84036426D01*
X62700000Y-84313665D01*
X60010585Y-84313665D01*
X60155000Y-84169250D01*
X60158072Y-83585000D01*
X60145812Y-83460518D01*
X60109502Y-83340820D01*
X60050537Y-83230506D01*
X59971185Y-83133815D01*
X59874494Y-83054463D01*
X59764180Y-82995498D01*
X59644482Y-82959188D01*
X59520000Y-82946928D01*
X58705750Y-82950000D01*
X58547000Y-83108750D01*
X58293000Y-83108750D01*
X58134250Y-82950000D01*
X57320000Y-82946928D01*
X57195518Y-82959188D01*
X57075820Y-82995498D01*
X56965506Y-83054463D01*
X56868815Y-83133815D01*
X56789463Y-83230506D01*
X56730498Y-83340820D01*
X56694188Y-83460518D01*
X56681928Y-83585000D01*
X54737000Y-83585000D01*
X54737000Y-82602606D01*
X56567606Y-80772000D01*
X125687667Y-80772000D01*
X128143000Y-82613500D01*
M02*
