G04 #@! TF.GenerationSoftware,KiCad,Pcbnew,5.1.5+dfsg1-2build2*
G04 #@! TF.CreationDate,2021-05-06T12:51:34-03:00*
G04 #@! TF.ProjectId,driver-rgb-pwm,64726976-6572-42d7-9267-622d70776d2e,rev?*
G04 #@! TF.SameCoordinates,Original*
G04 #@! TF.FileFunction,Other,ECO1*
%FSLAX46Y46*%
G04 Gerber Fmt 4.6, Leading zero omitted, Abs format (unit mm)*
G04 Created by KiCad (PCBNEW 5.1.5+dfsg1-2build2) date 2021-05-06 12:51:34*
%MOMM*%
%LPD*%
G04 APERTURE LIST*
%ADD10C,0.150000*%
G04 APERTURE END LIST*
D10*
X48142619Y-93599523D02*
X48142619Y-94218571D01*
X47761666Y-93885238D01*
X47761666Y-94028095D01*
X47714047Y-94123333D01*
X47666428Y-94170952D01*
X47571190Y-94218571D01*
X47333095Y-94218571D01*
X47237857Y-94170952D01*
X47190238Y-94123333D01*
X47142619Y-94028095D01*
X47142619Y-93742380D01*
X47190238Y-93647142D01*
X47237857Y-93599523D01*
X48142619Y-95123333D02*
X48142619Y-94647142D01*
X47666428Y-94599523D01*
X47714047Y-94647142D01*
X47761666Y-94742380D01*
X47761666Y-94980476D01*
X47714047Y-95075714D01*
X47666428Y-95123333D01*
X47571190Y-95170952D01*
X47333095Y-95170952D01*
X47237857Y-95123333D01*
X47190238Y-95075714D01*
X47142619Y-94980476D01*
X47142619Y-94742380D01*
X47190238Y-94647142D01*
X47237857Y-94599523D01*
X47190238Y-95647142D02*
X47142619Y-95647142D01*
X47047380Y-95599523D01*
X46999761Y-95551904D01*
X48142619Y-96551904D02*
X48142619Y-96075714D01*
X47666428Y-96028095D01*
X47714047Y-96075714D01*
X47761666Y-96170952D01*
X47761666Y-96409047D01*
X47714047Y-96504285D01*
X47666428Y-96551904D01*
X47571190Y-96599523D01*
X47333095Y-96599523D01*
X47237857Y-96551904D01*
X47190238Y-96504285D01*
X47142619Y-96409047D01*
X47142619Y-96170952D01*
X47190238Y-96075714D01*
X47237857Y-96028095D01*
X48142619Y-97456666D02*
X48142619Y-97266190D01*
X48095000Y-97170952D01*
X48047380Y-97123333D01*
X47904523Y-97028095D01*
X47714047Y-96980476D01*
X47333095Y-96980476D01*
X47237857Y-97028095D01*
X47190238Y-97075714D01*
X47142619Y-97170952D01*
X47142619Y-97361428D01*
X47190238Y-97456666D01*
X47237857Y-97504285D01*
X47333095Y-97551904D01*
X47571190Y-97551904D01*
X47666428Y-97504285D01*
X47714047Y-97456666D01*
X47761666Y-97361428D01*
X47761666Y-97170952D01*
X47714047Y-97075714D01*
X47666428Y-97028095D01*
X47571190Y-96980476D01*
X48142619Y-98170952D02*
X48142619Y-98266190D01*
X48095000Y-98361428D01*
X48047380Y-98409047D01*
X47952142Y-98456666D01*
X47761666Y-98504285D01*
X47523571Y-98504285D01*
X47333095Y-98456666D01*
X47237857Y-98409047D01*
X47190238Y-98361428D01*
X47142619Y-98266190D01*
X47142619Y-98170952D01*
X47190238Y-98075714D01*
X47237857Y-98028095D01*
X47333095Y-97980476D01*
X47523571Y-97932857D01*
X47761666Y-97932857D01*
X47952142Y-97980476D01*
X48047380Y-98028095D01*
X48095000Y-98075714D01*
X48142619Y-98170952D01*
X47142619Y-99694761D02*
X47809285Y-99694761D01*
X47714047Y-99694761D02*
X47761666Y-99742380D01*
X47809285Y-99837619D01*
X47809285Y-99980476D01*
X47761666Y-100075714D01*
X47666428Y-100123333D01*
X47142619Y-100123333D01*
X47666428Y-100123333D02*
X47761666Y-100170952D01*
X47809285Y-100266190D01*
X47809285Y-100409047D01*
X47761666Y-100504285D01*
X47666428Y-100551904D01*
X47142619Y-100551904D01*
X47142619Y-101028095D02*
X47809285Y-101028095D01*
X47714047Y-101028095D02*
X47761666Y-101075714D01*
X47809285Y-101170952D01*
X47809285Y-101313809D01*
X47761666Y-101409047D01*
X47666428Y-101456666D01*
X47142619Y-101456666D01*
X47666428Y-101456666D02*
X47761666Y-101504285D01*
X47809285Y-101599523D01*
X47809285Y-101742380D01*
X47761666Y-101837619D01*
X47666428Y-101885238D01*
X47142619Y-101885238D01*
X48895000Y-80010000D02*
X48895000Y-115570000D01*
X52705000Y-80010000D02*
X48308579Y-80010000D01*
X52705000Y-115570000D02*
X48308579Y-115570000D01*
X48895000Y-115570000D02*
X48308579Y-114443496D01*
X48895000Y-115570000D02*
X49481421Y-114443496D01*
X48895000Y-80010000D02*
X48308579Y-81136504D01*
X48895000Y-80010000D02*
X49481421Y-81136504D01*
X87249523Y-73082380D02*
X87916190Y-73082380D01*
X87487619Y-74082380D01*
X88725714Y-73415714D02*
X88725714Y-74082380D01*
X88487619Y-73034761D02*
X88249523Y-73749047D01*
X88868571Y-73749047D01*
X89297142Y-74034761D02*
X89297142Y-74082380D01*
X89249523Y-74177619D01*
X89201904Y-74225238D01*
X89773333Y-74082380D02*
X89963809Y-74082380D01*
X90059047Y-74034761D01*
X90106666Y-73987142D01*
X90201904Y-73844285D01*
X90249523Y-73653809D01*
X90249523Y-73272857D01*
X90201904Y-73177619D01*
X90154285Y-73130000D01*
X90059047Y-73082380D01*
X89868571Y-73082380D01*
X89773333Y-73130000D01*
X89725714Y-73177619D01*
X89678095Y-73272857D01*
X89678095Y-73510952D01*
X89725714Y-73606190D01*
X89773333Y-73653809D01*
X89868571Y-73701428D01*
X90059047Y-73701428D01*
X90154285Y-73653809D01*
X90201904Y-73606190D01*
X90249523Y-73510952D01*
X90582857Y-73082380D02*
X91201904Y-73082380D01*
X90868571Y-73463333D01*
X91011428Y-73463333D01*
X91106666Y-73510952D01*
X91154285Y-73558571D01*
X91201904Y-73653809D01*
X91201904Y-73891904D01*
X91154285Y-73987142D01*
X91106666Y-74034761D01*
X91011428Y-74082380D01*
X90725714Y-74082380D01*
X90630476Y-74034761D01*
X90582857Y-73987142D01*
X91820952Y-73082380D02*
X91916190Y-73082380D01*
X92011428Y-73130000D01*
X92059047Y-73177619D01*
X92106666Y-73272857D01*
X92154285Y-73463333D01*
X92154285Y-73701428D01*
X92106666Y-73891904D01*
X92059047Y-73987142D01*
X92011428Y-74034761D01*
X91916190Y-74082380D01*
X91820952Y-74082380D01*
X91725714Y-74034761D01*
X91678095Y-73987142D01*
X91630476Y-73891904D01*
X91582857Y-73701428D01*
X91582857Y-73463333D01*
X91630476Y-73272857D01*
X91678095Y-73177619D01*
X91725714Y-73130000D01*
X91820952Y-73082380D01*
X93344761Y-74082380D02*
X93344761Y-73415714D01*
X93344761Y-73510952D02*
X93392380Y-73463333D01*
X93487619Y-73415714D01*
X93630476Y-73415714D01*
X93725714Y-73463333D01*
X93773333Y-73558571D01*
X93773333Y-74082380D01*
X93773333Y-73558571D02*
X93820952Y-73463333D01*
X93916190Y-73415714D01*
X94059047Y-73415714D01*
X94154285Y-73463333D01*
X94201904Y-73558571D01*
X94201904Y-74082380D01*
X94678095Y-74082380D02*
X94678095Y-73415714D01*
X94678095Y-73510952D02*
X94725714Y-73463333D01*
X94820952Y-73415714D01*
X94963809Y-73415714D01*
X95059047Y-73463333D01*
X95106666Y-73558571D01*
X95106666Y-74082380D01*
X95106666Y-73558571D02*
X95154285Y-73463333D01*
X95249523Y-73415714D01*
X95392380Y-73415714D01*
X95487619Y-73463333D01*
X95535238Y-73558571D01*
X95535238Y-74082380D01*
X53975000Y-74930000D02*
X128905000Y-74930000D01*
X53975000Y-78740000D02*
X53975000Y-74343579D01*
X128905000Y-78740000D02*
X128905000Y-74343579D01*
X128905000Y-74930000D02*
X127778496Y-75516421D01*
X128905000Y-74930000D02*
X127778496Y-74343579D01*
X53975000Y-74930000D02*
X55101504Y-75516421D01*
X53975000Y-74930000D02*
X55101504Y-74343579D01*
M02*
