%FSLAX45Y45*%
G04 Gerber Fmt 4.5, Leading zero omitted, Abs format (unit mm)*
G04 Created by KiCad (PCBNEW 5.1.5+dfsg1-2build2) date 2021-05-06 12:51:50*
%MOMM*%
%LPD*%
G04 APERTURE LIST*
%TA.AperFunction,Profile*%
%ADD10C,0.050000*%
%TD*%
%ADD11C,0.200000*%
%ADD12C,0.300000*%
G04 APERTURE END LIST*
D10*
X5397500Y-8318500D02*
G75*
G02X5715000Y-8001000I317500J0D01*
G01*
X5715000Y-11557000D02*
G75*
G02X5397500Y-11239500I0J317500D01*
G01*
X12890500Y-11239500D02*
G75*
G02X12573000Y-11557000I-317500J0D01*
G01*
X12573000Y-8001000D02*
G75*
G02X12890500Y-8318500I0J-317500D01*
G01*
X12890500Y-8318500D02*
X12890500Y-11239500D01*
X5715000Y-8001000D02*
X12573000Y-8001000D01*
X5397500Y-11239500D02*
X5397500Y-8318500D01*
X12573000Y-11557000D02*
X5715000Y-11557000D01*
D11*
X6500500Y-9802500D02*
X6580500Y-9882500D01*
X6580500Y-9802500D02*
X6500500Y-9882500D01*
X6500500Y-10056500D02*
X6580500Y-10136500D01*
X6580500Y-10056500D02*
X6500500Y-10136500D01*
X6500500Y-10310500D02*
X6580500Y-10390500D01*
X6580500Y-10310500D02*
X6500500Y-10390500D01*
X6500500Y-10564500D02*
X6580500Y-10644500D01*
X6580500Y-10564500D02*
X6500500Y-10644500D01*
X7262500Y-9802500D02*
X7342500Y-9882500D01*
X7342500Y-9802500D02*
X7262500Y-9882500D01*
X7262500Y-10056500D02*
X7342500Y-10136500D01*
X7342500Y-10056500D02*
X7262500Y-10136500D01*
X7262500Y-10310500D02*
X7342500Y-10390500D01*
X7342500Y-10310500D02*
X7262500Y-10390500D01*
X7262500Y-10564500D02*
X7342500Y-10644500D01*
X7342500Y-10564500D02*
X7262500Y-10644500D01*
X12533000Y-9040500D02*
X12613000Y-9120500D01*
X12613000Y-9040500D02*
X12533000Y-9120500D01*
X12533000Y-10056500D02*
X12613000Y-10136500D01*
X12613000Y-10056500D02*
X12533000Y-10136500D01*
X10120000Y-9040500D02*
X10200000Y-9120500D01*
X10200000Y-9040500D02*
X10120000Y-9120500D01*
X10120000Y-10056500D02*
X10200000Y-10136500D01*
X10200000Y-10056500D02*
X10120000Y-10136500D01*
X8088000Y-10310500D02*
X8168000Y-10390500D01*
X8168000Y-10310500D02*
X8088000Y-10390500D01*
X8088000Y-11072500D02*
X8168000Y-11152500D01*
X8168000Y-11072500D02*
X8088000Y-11152500D01*
X7707000Y-10374000D02*
X7787000Y-10454000D01*
X7787000Y-10374000D02*
X7707000Y-10454000D01*
X7707000Y-10624000D02*
X7787000Y-10704000D01*
X7787000Y-10624000D02*
X7707000Y-10704000D01*
X10882000Y-10310500D02*
X10962000Y-10390500D01*
X10962000Y-10310500D02*
X10882000Y-10390500D01*
X10882000Y-10818500D02*
X10962000Y-10898500D01*
X10962000Y-10818500D02*
X10882000Y-10898500D01*
X8088000Y-9104000D02*
X8168000Y-9184000D01*
X8168000Y-9104000D02*
X8088000Y-9184000D01*
X8088000Y-9866000D02*
X8168000Y-9946000D01*
X8168000Y-9866000D02*
X8088000Y-9946000D01*
X7707000Y-9040500D02*
X7787000Y-9120500D01*
X7787000Y-9040500D02*
X7707000Y-9120500D01*
X7707000Y-10056500D02*
X7787000Y-10136500D01*
X7787000Y-10056500D02*
X7707000Y-10136500D01*
X8913500Y-9802500D02*
X8993500Y-9882500D01*
X8993500Y-9802500D02*
X8913500Y-9882500D01*
X8913500Y-10056500D02*
X8993500Y-10136500D01*
X8993500Y-10056500D02*
X8913500Y-10136500D01*
X8913500Y-10310500D02*
X8993500Y-10390500D01*
X8993500Y-10310500D02*
X8913500Y-10390500D01*
X8913500Y-10564500D02*
X8993500Y-10644500D01*
X8993500Y-10564500D02*
X8913500Y-10644500D01*
X9675500Y-9802500D02*
X9755500Y-9882500D01*
X9755500Y-9802500D02*
X9675500Y-9882500D01*
X9675500Y-10056500D02*
X9755500Y-10136500D01*
X9755500Y-10056500D02*
X9675500Y-10136500D01*
X9675500Y-10310500D02*
X9755500Y-10390500D01*
X9755500Y-10310500D02*
X9675500Y-10390500D01*
X9675500Y-10564500D02*
X9755500Y-10644500D01*
X9755500Y-10564500D02*
X9675500Y-10644500D01*
X12533000Y-10374000D02*
X12613000Y-10454000D01*
X12613000Y-10374000D02*
X12533000Y-10454000D01*
X12533000Y-10624000D02*
X12613000Y-10704000D01*
X12613000Y-10624000D02*
X12533000Y-10704000D01*
X10501000Y-9040500D02*
X10581000Y-9120500D01*
X10581000Y-9040500D02*
X10501000Y-9120500D01*
X10501000Y-9802500D02*
X10581000Y-9882500D01*
X10581000Y-9802500D02*
X10501000Y-9882500D01*
X11326500Y-9802500D02*
X11406500Y-9882500D01*
X11406500Y-9802500D02*
X11326500Y-9882500D01*
X11326500Y-10056500D02*
X11406500Y-10136500D01*
X11406500Y-10056500D02*
X11326500Y-10136500D01*
X11326500Y-10310500D02*
X11406500Y-10390500D01*
X11406500Y-10310500D02*
X11326500Y-10390500D01*
X11326500Y-10564500D02*
X11406500Y-10644500D01*
X11406500Y-10564500D02*
X11326500Y-10644500D01*
X12088500Y-9802500D02*
X12168500Y-9882500D01*
X12168500Y-9802500D02*
X12088500Y-9882500D01*
X12088500Y-10056500D02*
X12168500Y-10136500D01*
X12168500Y-10056500D02*
X12088500Y-10136500D01*
X12088500Y-10310500D02*
X12168500Y-10390500D01*
X12168500Y-10310500D02*
X12088500Y-10390500D01*
X12088500Y-10564500D02*
X12168500Y-10644500D01*
X12168500Y-10564500D02*
X12088500Y-10644500D01*
X10882000Y-9552500D02*
X10962000Y-9632500D01*
X10962000Y-9552500D02*
X10882000Y-9632500D01*
X10882000Y-9802500D02*
X10962000Y-9882500D01*
X10962000Y-9802500D02*
X10882000Y-9882500D01*
X6373500Y-8405500D02*
X6453500Y-8485500D01*
X6453500Y-8405500D02*
X6373500Y-8485500D01*
X6881500Y-8405500D02*
X6961500Y-8485500D01*
X6961500Y-8405500D02*
X6881500Y-8485500D01*
X5675000Y-10310500D02*
X5755000Y-10390500D01*
X5755000Y-10310500D02*
X5675000Y-10390500D01*
X5675000Y-11072500D02*
X5755000Y-11152500D01*
X5755000Y-11072500D02*
X5675000Y-11152500D01*
X5675000Y-9040500D02*
X5755000Y-9120500D01*
X5755000Y-9040500D02*
X5675000Y-9120500D01*
X5675000Y-9802500D02*
X5755000Y-9882500D01*
X5755000Y-9802500D02*
X5675000Y-9882500D01*
X8469000Y-10310500D02*
X8549000Y-10390500D01*
X8549000Y-10310500D02*
X8469000Y-10390500D01*
X8469000Y-10818500D02*
X8549000Y-10898500D01*
X8549000Y-10818500D02*
X8469000Y-10898500D01*
X8469000Y-9552500D02*
X8549000Y-9632500D01*
X8549000Y-9552500D02*
X8469000Y-9632500D01*
X8469000Y-9802500D02*
X8549000Y-9882500D01*
X8549000Y-9802500D02*
X8469000Y-9882500D01*
X6056000Y-9552500D02*
X6136000Y-9632500D01*
X6136000Y-9552500D02*
X6056000Y-9632500D01*
X6056000Y-9802500D02*
X6136000Y-9882500D01*
X6136000Y-9802500D02*
X6056000Y-9882500D01*
X6056000Y-10310500D02*
X6136000Y-10390500D01*
X6136000Y-10310500D02*
X6056000Y-10390500D01*
X6056000Y-10818500D02*
X6136000Y-10898500D01*
X6136000Y-10818500D02*
X6056000Y-10898500D01*
X10120000Y-10374000D02*
X10200000Y-10454000D01*
X10200000Y-10374000D02*
X10120000Y-10454000D01*
X10120000Y-10624000D02*
X10200000Y-10704000D01*
X10200000Y-10624000D02*
X10120000Y-10704000D01*
X11199500Y-8405500D02*
X11279500Y-8485500D01*
X11279500Y-8405500D02*
X11199500Y-8485500D01*
X11707500Y-8405500D02*
X11787500Y-8485500D01*
X11787500Y-8405500D02*
X11707500Y-8485500D01*
X8786500Y-8405500D02*
X8866500Y-8485500D01*
X8866500Y-8405500D02*
X8786500Y-8485500D01*
X9294500Y-8405500D02*
X9374500Y-8485500D01*
X9374500Y-8405500D02*
X9294500Y-8485500D01*
X10501000Y-10310500D02*
X10581000Y-10390500D01*
X10581000Y-10310500D02*
X10501000Y-10390500D01*
X10501000Y-11072500D02*
X10581000Y-11152500D01*
X10581000Y-11072500D02*
X10501000Y-11152500D01*
X9130500Y-11239500D02*
G75*
G03X9130500Y-11239500I-50000J0D01*
G01*
X9380500Y-11239500D02*
G75*
G03X9380500Y-11239500I-50000J0D01*
G01*
X9630500Y-11239500D02*
G75*
G03X9630500Y-11239500I-50000J0D01*
G01*
X6717500Y-11239500D02*
G75*
G03X6717500Y-11239500I-50000J0D01*
G01*
X6967500Y-11239500D02*
G75*
G03X6967500Y-11239500I-50000J0D01*
G01*
X7217500Y-11239500D02*
G75*
G03X7217500Y-11239500I-50000J0D01*
G01*
X11543500Y-11239500D02*
G75*
G03X11543500Y-11239500I-50000J0D01*
G01*
X11793500Y-11239500D02*
G75*
G03X11793500Y-11239500I-50000J0D01*
G01*
X12043500Y-11239500D02*
G75*
G03X12043500Y-11239500I-50000J0D01*
G01*
X6667500Y-9025500D02*
X6667500Y-9135500D01*
X6612500Y-9080500D02*
X6722500Y-9080500D01*
X6921500Y-9025500D02*
X6921500Y-9135500D01*
X6866500Y-9080500D02*
X6976500Y-9080500D01*
X7175500Y-9025500D02*
X7175500Y-9135500D01*
X7120500Y-9080500D02*
X7230500Y-9080500D01*
X9080500Y-9025500D02*
X9080500Y-9135500D01*
X9025500Y-9080500D02*
X9135500Y-9080500D01*
X9334500Y-9025500D02*
X9334500Y-9135500D01*
X9279500Y-9080500D02*
X9389500Y-9080500D01*
X9588500Y-9025500D02*
X9588500Y-9135500D01*
X9533500Y-9080500D02*
X9643500Y-9080500D01*
X11493500Y-9025500D02*
X11493500Y-9135500D01*
X11438500Y-9080500D02*
X11548500Y-9080500D01*
X11747500Y-9025500D02*
X11747500Y-9135500D01*
X11692500Y-9080500D02*
X11802500Y-9080500D01*
X12001500Y-9025500D02*
X12001500Y-9135500D01*
X11946500Y-9080500D02*
X12056500Y-9080500D01*
X12297927Y-8487927D02*
X12297927Y-8403073D01*
X12213073Y-8403073D01*
X12213073Y-8487927D01*
X12297927Y-8487927D01*
X12551927Y-8487927D02*
X12551927Y-8403073D01*
X12467073Y-8403073D01*
X12467073Y-8487927D01*
X12551927Y-8487927D01*
X7471927Y-8487927D02*
X7471927Y-8403073D01*
X7387073Y-8403073D01*
X7387073Y-8487927D01*
X7471927Y-8487927D01*
X7725927Y-8487927D02*
X7725927Y-8403073D01*
X7641073Y-8403073D01*
X7641073Y-8487927D01*
X7725927Y-8487927D01*
X5884427Y-8487927D02*
X5884427Y-8403073D01*
X5799573Y-8403073D01*
X5799573Y-8487927D01*
X5884427Y-8487927D01*
X5884427Y-8741927D02*
X5884427Y-8657073D01*
X5799573Y-8657073D01*
X5799573Y-8741927D01*
X5884427Y-8741927D01*
X9884927Y-8487927D02*
X9884927Y-8403073D01*
X9800073Y-8403073D01*
X9800073Y-8487927D01*
X9884927Y-8487927D01*
X10138927Y-8487927D02*
X10138927Y-8403073D01*
X10054073Y-8403073D01*
X10054073Y-8487927D01*
X10138927Y-8487927D01*
D12*
X5681428Y-12025214D02*
X5681428Y-11725214D01*
X5752857Y-11725214D01*
X5795714Y-11739500D01*
X5824286Y-11768071D01*
X5838571Y-11796643D01*
X5852857Y-11853786D01*
X5852857Y-11896643D01*
X5838571Y-11953786D01*
X5824286Y-11982357D01*
X5795714Y-12010929D01*
X5752857Y-12025214D01*
X5681428Y-12025214D01*
X5981428Y-12025214D02*
X5981428Y-11825214D01*
X5981428Y-11882357D02*
X5995714Y-11853786D01*
X6010000Y-11839500D01*
X6038571Y-11825214D01*
X6067143Y-11825214D01*
X6167143Y-12025214D02*
X6167143Y-11825214D01*
X6167143Y-11725214D02*
X6152857Y-11739500D01*
X6167143Y-11753786D01*
X6181428Y-11739500D01*
X6167143Y-11725214D01*
X6167143Y-11753786D01*
X6352857Y-12025214D02*
X6324286Y-12010929D01*
X6310000Y-11982357D01*
X6310000Y-11725214D01*
X6510000Y-12025214D02*
X6481428Y-12010929D01*
X6467143Y-11982357D01*
X6467143Y-11725214D01*
X6852857Y-12025214D02*
X6852857Y-11725214D01*
X6952857Y-11939500D01*
X7052857Y-11725214D01*
X7052857Y-12025214D01*
X7324286Y-12025214D02*
X7324286Y-11868071D01*
X7310000Y-11839500D01*
X7281428Y-11825214D01*
X7224286Y-11825214D01*
X7195714Y-11839500D01*
X7324286Y-12010929D02*
X7295714Y-12025214D01*
X7224286Y-12025214D01*
X7195714Y-12010929D01*
X7181428Y-11982357D01*
X7181428Y-11953786D01*
X7195714Y-11925214D01*
X7224286Y-11910929D01*
X7295714Y-11910929D01*
X7324286Y-11896643D01*
X7467143Y-11825214D02*
X7467143Y-12125214D01*
X7467143Y-11839500D02*
X7495714Y-11825214D01*
X7552857Y-11825214D01*
X7581428Y-11839500D01*
X7595714Y-11853786D01*
X7610000Y-11882357D01*
X7610000Y-11968071D01*
X7595714Y-11996643D01*
X7581428Y-12010929D01*
X7552857Y-12025214D01*
X7495714Y-12025214D01*
X7467143Y-12010929D01*
X7738571Y-11996643D02*
X7752857Y-12010929D01*
X7738571Y-12025214D01*
X7724286Y-12010929D01*
X7738571Y-11996643D01*
X7738571Y-12025214D01*
X7738571Y-11839500D02*
X7752857Y-11853786D01*
X7738571Y-11868071D01*
X7724286Y-11853786D01*
X7738571Y-11839500D01*
X7738571Y-11868071D01*
X5315000Y-12479500D02*
X5395000Y-12559500D01*
X5395000Y-12479500D02*
X5315000Y-12559500D01*
X5738571Y-12355214D02*
X5767143Y-12355214D01*
X5795714Y-12369500D01*
X5810000Y-12383786D01*
X5824286Y-12412357D01*
X5838571Y-12469500D01*
X5838571Y-12540929D01*
X5824286Y-12598071D01*
X5810000Y-12626643D01*
X5795714Y-12640929D01*
X5767143Y-12655214D01*
X5738571Y-12655214D01*
X5710000Y-12640929D01*
X5695714Y-12626643D01*
X5681428Y-12598071D01*
X5667143Y-12540929D01*
X5667143Y-12469500D01*
X5681428Y-12412357D01*
X5695714Y-12383786D01*
X5710000Y-12369500D01*
X5738571Y-12355214D01*
X5967143Y-12626643D02*
X5981428Y-12640929D01*
X5967143Y-12655214D01*
X5952857Y-12640929D01*
X5967143Y-12626643D01*
X5967143Y-12655214D01*
X6152857Y-12483786D02*
X6124286Y-12469500D01*
X6110000Y-12455214D01*
X6095714Y-12426643D01*
X6095714Y-12412357D01*
X6110000Y-12383786D01*
X6124286Y-12369500D01*
X6152857Y-12355214D01*
X6210000Y-12355214D01*
X6238571Y-12369500D01*
X6252857Y-12383786D01*
X6267143Y-12412357D01*
X6267143Y-12426643D01*
X6252857Y-12455214D01*
X6238571Y-12469500D01*
X6210000Y-12483786D01*
X6152857Y-12483786D01*
X6124286Y-12498071D01*
X6110000Y-12512357D01*
X6095714Y-12540929D01*
X6095714Y-12598071D01*
X6110000Y-12626643D01*
X6124286Y-12640929D01*
X6152857Y-12655214D01*
X6210000Y-12655214D01*
X6238571Y-12640929D01*
X6252857Y-12626643D01*
X6267143Y-12598071D01*
X6267143Y-12540929D01*
X6252857Y-12512357D01*
X6238571Y-12498071D01*
X6210000Y-12483786D01*
X6452857Y-12355214D02*
X6481428Y-12355214D01*
X6510000Y-12369500D01*
X6524286Y-12383786D01*
X6538571Y-12412357D01*
X6552857Y-12469500D01*
X6552857Y-12540929D01*
X6538571Y-12598071D01*
X6524286Y-12626643D01*
X6510000Y-12640929D01*
X6481428Y-12655214D01*
X6452857Y-12655214D01*
X6424286Y-12640929D01*
X6410000Y-12626643D01*
X6395714Y-12598071D01*
X6381428Y-12540929D01*
X6381428Y-12469500D01*
X6395714Y-12412357D01*
X6410000Y-12383786D01*
X6424286Y-12369500D01*
X6452857Y-12355214D01*
X6681428Y-12655214D02*
X6681428Y-12455214D01*
X6681428Y-12483786D02*
X6695714Y-12469500D01*
X6724286Y-12455214D01*
X6767143Y-12455214D01*
X6795714Y-12469500D01*
X6810000Y-12498071D01*
X6810000Y-12655214D01*
X6810000Y-12498071D02*
X6824286Y-12469500D01*
X6852857Y-12455214D01*
X6895714Y-12455214D01*
X6924286Y-12469500D01*
X6938571Y-12498071D01*
X6938571Y-12655214D01*
X7081428Y-12655214D02*
X7081428Y-12455214D01*
X7081428Y-12483786D02*
X7095714Y-12469500D01*
X7124286Y-12455214D01*
X7167143Y-12455214D01*
X7195714Y-12469500D01*
X7210000Y-12498071D01*
X7210000Y-12655214D01*
X7210000Y-12498071D02*
X7224286Y-12469500D01*
X7252857Y-12455214D01*
X7295714Y-12455214D01*
X7324286Y-12469500D01*
X7338571Y-12498071D01*
X7338571Y-12655214D01*
X7924286Y-12340929D02*
X7667143Y-12726643D01*
X8310000Y-12355214D02*
X8338571Y-12355214D01*
X8367143Y-12369500D01*
X8381428Y-12383786D01*
X8395714Y-12412357D01*
X8410000Y-12469500D01*
X8410000Y-12540929D01*
X8395714Y-12598071D01*
X8381428Y-12626643D01*
X8367143Y-12640929D01*
X8338571Y-12655214D01*
X8310000Y-12655214D01*
X8281428Y-12640929D01*
X8267143Y-12626643D01*
X8252857Y-12598071D01*
X8238571Y-12540929D01*
X8238571Y-12469500D01*
X8252857Y-12412357D01*
X8267143Y-12383786D01*
X8281428Y-12369500D01*
X8310000Y-12355214D01*
X8538571Y-12626643D02*
X8552857Y-12640929D01*
X8538571Y-12655214D01*
X8524286Y-12640929D01*
X8538571Y-12626643D01*
X8538571Y-12655214D01*
X8738571Y-12355214D02*
X8767143Y-12355214D01*
X8795714Y-12369500D01*
X8810000Y-12383786D01*
X8824286Y-12412357D01*
X8838571Y-12469500D01*
X8838571Y-12540929D01*
X8824286Y-12598071D01*
X8810000Y-12626643D01*
X8795714Y-12640929D01*
X8767143Y-12655214D01*
X8738571Y-12655214D01*
X8710000Y-12640929D01*
X8695714Y-12626643D01*
X8681428Y-12598071D01*
X8667143Y-12540929D01*
X8667143Y-12469500D01*
X8681428Y-12412357D01*
X8695714Y-12383786D01*
X8710000Y-12369500D01*
X8738571Y-12355214D01*
X8938571Y-12355214D02*
X9124286Y-12355214D01*
X9024286Y-12469500D01*
X9067143Y-12469500D01*
X9095714Y-12483786D01*
X9110000Y-12498071D01*
X9124286Y-12526643D01*
X9124286Y-12598071D01*
X9110000Y-12626643D01*
X9095714Y-12640929D01*
X9067143Y-12655214D01*
X8981428Y-12655214D01*
X8952857Y-12640929D01*
X8938571Y-12626643D01*
X9410000Y-12655214D02*
X9238571Y-12655214D01*
X9324286Y-12655214D02*
X9324286Y-12355214D01*
X9295714Y-12398071D01*
X9267143Y-12426643D01*
X9238571Y-12440929D01*
X9524286Y-12355214D02*
X9524286Y-12412357D01*
X9638571Y-12355214D02*
X9638571Y-12412357D01*
X10081428Y-12769500D02*
X10067143Y-12755214D01*
X10038571Y-12712357D01*
X10024286Y-12683786D01*
X10010000Y-12640929D01*
X9995714Y-12569500D01*
X9995714Y-12512357D01*
X10010000Y-12440929D01*
X10024286Y-12398071D01*
X10038571Y-12369500D01*
X10067143Y-12326643D01*
X10081428Y-12312357D01*
X10324286Y-12355214D02*
X10267143Y-12355214D01*
X10238571Y-12369500D01*
X10224286Y-12383786D01*
X10195714Y-12426643D01*
X10181428Y-12483786D01*
X10181428Y-12598071D01*
X10195714Y-12626643D01*
X10210000Y-12640929D01*
X10238571Y-12655214D01*
X10295714Y-12655214D01*
X10324286Y-12640929D01*
X10338571Y-12626643D01*
X10352857Y-12598071D01*
X10352857Y-12526643D01*
X10338571Y-12498071D01*
X10324286Y-12483786D01*
X10295714Y-12469500D01*
X10238571Y-12469500D01*
X10210000Y-12483786D01*
X10195714Y-12498071D01*
X10181428Y-12526643D01*
X10610000Y-12355214D02*
X10552857Y-12355214D01*
X10524286Y-12369500D01*
X10510000Y-12383786D01*
X10481428Y-12426643D01*
X10467143Y-12483786D01*
X10467143Y-12598071D01*
X10481428Y-12626643D01*
X10495714Y-12640929D01*
X10524286Y-12655214D01*
X10581428Y-12655214D01*
X10610000Y-12640929D01*
X10624286Y-12626643D01*
X10638571Y-12598071D01*
X10638571Y-12526643D01*
X10624286Y-12498071D01*
X10610000Y-12483786D01*
X10581428Y-12469500D01*
X10524286Y-12469500D01*
X10495714Y-12483786D01*
X10481428Y-12498071D01*
X10467143Y-12526643D01*
X10995714Y-12655214D02*
X10995714Y-12355214D01*
X11124286Y-12655214D02*
X11124286Y-12498071D01*
X11110000Y-12469500D01*
X11081428Y-12455214D01*
X11038571Y-12455214D01*
X11010000Y-12469500D01*
X10995714Y-12483786D01*
X11310000Y-12655214D02*
X11281428Y-12640929D01*
X11267143Y-12626643D01*
X11252857Y-12598071D01*
X11252857Y-12512357D01*
X11267143Y-12483786D01*
X11281428Y-12469500D01*
X11310000Y-12455214D01*
X11352857Y-12455214D01*
X11381428Y-12469500D01*
X11395714Y-12483786D01*
X11410000Y-12512357D01*
X11410000Y-12598071D01*
X11395714Y-12626643D01*
X11381428Y-12640929D01*
X11352857Y-12655214D01*
X11310000Y-12655214D01*
X11581428Y-12655214D02*
X11552857Y-12640929D01*
X11538571Y-12612357D01*
X11538571Y-12355214D01*
X11810000Y-12640929D02*
X11781428Y-12655214D01*
X11724286Y-12655214D01*
X11695714Y-12640929D01*
X11681428Y-12612357D01*
X11681428Y-12498071D01*
X11695714Y-12469500D01*
X11724286Y-12455214D01*
X11781428Y-12455214D01*
X11810000Y-12469500D01*
X11824286Y-12498071D01*
X11824286Y-12526643D01*
X11681428Y-12555214D01*
X11938571Y-12640929D02*
X11967143Y-12655214D01*
X12024286Y-12655214D01*
X12052857Y-12640929D01*
X12067143Y-12612357D01*
X12067143Y-12598071D01*
X12052857Y-12569500D01*
X12024286Y-12555214D01*
X11981428Y-12555214D01*
X11952857Y-12540929D01*
X11938571Y-12512357D01*
X11938571Y-12498071D01*
X11952857Y-12469500D01*
X11981428Y-12455214D01*
X12024286Y-12455214D01*
X12052857Y-12469500D01*
X12167143Y-12769500D02*
X12181428Y-12755214D01*
X12210000Y-12712357D01*
X12224286Y-12683786D01*
X12238571Y-12640929D01*
X12252857Y-12569500D01*
X12252857Y-12512357D01*
X12238571Y-12440929D01*
X12224286Y-12398071D01*
X12210000Y-12369500D01*
X12181428Y-12326643D01*
X12167143Y-12312357D01*
X5395000Y-12915500D02*
G75*
G03X5395000Y-12915500I-50000J0D01*
G01*
X5838571Y-13051214D02*
X5667143Y-13051214D01*
X5752857Y-13051214D02*
X5752857Y-12751214D01*
X5724286Y-12794071D01*
X5695714Y-12822643D01*
X5667143Y-12836929D01*
X5967143Y-13022643D02*
X5981428Y-13036929D01*
X5967143Y-13051214D01*
X5952857Y-13036929D01*
X5967143Y-13022643D01*
X5967143Y-13051214D01*
X6167143Y-12751214D02*
X6195714Y-12751214D01*
X6224286Y-12765500D01*
X6238571Y-12779786D01*
X6252857Y-12808357D01*
X6267143Y-12865500D01*
X6267143Y-12936929D01*
X6252857Y-12994071D01*
X6238571Y-13022643D01*
X6224286Y-13036929D01*
X6195714Y-13051214D01*
X6167143Y-13051214D01*
X6138571Y-13036929D01*
X6124286Y-13022643D01*
X6110000Y-12994071D01*
X6095714Y-12936929D01*
X6095714Y-12865500D01*
X6110000Y-12808357D01*
X6124286Y-12779786D01*
X6138571Y-12765500D01*
X6167143Y-12751214D01*
X6452857Y-12751214D02*
X6481428Y-12751214D01*
X6510000Y-12765500D01*
X6524286Y-12779786D01*
X6538571Y-12808357D01*
X6552857Y-12865500D01*
X6552857Y-12936929D01*
X6538571Y-12994071D01*
X6524286Y-13022643D01*
X6510000Y-13036929D01*
X6481428Y-13051214D01*
X6452857Y-13051214D01*
X6424286Y-13036929D01*
X6410000Y-13022643D01*
X6395714Y-12994071D01*
X6381428Y-12936929D01*
X6381428Y-12865500D01*
X6395714Y-12808357D01*
X6410000Y-12779786D01*
X6424286Y-12765500D01*
X6452857Y-12751214D01*
X6681428Y-13051214D02*
X6681428Y-12851214D01*
X6681428Y-12879786D02*
X6695714Y-12865500D01*
X6724286Y-12851214D01*
X6767143Y-12851214D01*
X6795714Y-12865500D01*
X6810000Y-12894071D01*
X6810000Y-13051214D01*
X6810000Y-12894071D02*
X6824286Y-12865500D01*
X6852857Y-12851214D01*
X6895714Y-12851214D01*
X6924286Y-12865500D01*
X6938571Y-12894071D01*
X6938571Y-13051214D01*
X7081428Y-13051214D02*
X7081428Y-12851214D01*
X7081428Y-12879786D02*
X7095714Y-12865500D01*
X7124286Y-12851214D01*
X7167143Y-12851214D01*
X7195714Y-12865500D01*
X7210000Y-12894071D01*
X7210000Y-13051214D01*
X7210000Y-12894071D02*
X7224286Y-12865500D01*
X7252857Y-12851214D01*
X7295714Y-12851214D01*
X7324286Y-12865500D01*
X7338571Y-12894071D01*
X7338571Y-13051214D01*
X7924286Y-12736929D02*
X7667143Y-13122643D01*
X8310000Y-12751214D02*
X8338571Y-12751214D01*
X8367143Y-12765500D01*
X8381428Y-12779786D01*
X8395714Y-12808357D01*
X8410000Y-12865500D01*
X8410000Y-12936929D01*
X8395714Y-12994071D01*
X8381428Y-13022643D01*
X8367143Y-13036929D01*
X8338571Y-13051214D01*
X8310000Y-13051214D01*
X8281428Y-13036929D01*
X8267143Y-13022643D01*
X8252857Y-12994071D01*
X8238571Y-12936929D01*
X8238571Y-12865500D01*
X8252857Y-12808357D01*
X8267143Y-12779786D01*
X8281428Y-12765500D01*
X8310000Y-12751214D01*
X8538571Y-13022643D02*
X8552857Y-13036929D01*
X8538571Y-13051214D01*
X8524286Y-13036929D01*
X8538571Y-13022643D01*
X8538571Y-13051214D01*
X8738571Y-12751214D02*
X8767143Y-12751214D01*
X8795714Y-12765500D01*
X8810000Y-12779786D01*
X8824286Y-12808357D01*
X8838571Y-12865500D01*
X8838571Y-12936929D01*
X8824286Y-12994071D01*
X8810000Y-13022643D01*
X8795714Y-13036929D01*
X8767143Y-13051214D01*
X8738571Y-13051214D01*
X8710000Y-13036929D01*
X8695714Y-13022643D01*
X8681428Y-12994071D01*
X8667143Y-12936929D01*
X8667143Y-12865500D01*
X8681428Y-12808357D01*
X8695714Y-12779786D01*
X8710000Y-12765500D01*
X8738571Y-12751214D01*
X8938571Y-12751214D02*
X9124286Y-12751214D01*
X9024286Y-12865500D01*
X9067143Y-12865500D01*
X9095714Y-12879786D01*
X9110000Y-12894071D01*
X9124286Y-12922643D01*
X9124286Y-12994071D01*
X9110000Y-13022643D01*
X9095714Y-13036929D01*
X9067143Y-13051214D01*
X8981428Y-13051214D01*
X8952857Y-13036929D01*
X8938571Y-13022643D01*
X9267143Y-13051214D02*
X9324286Y-13051214D01*
X9352857Y-13036929D01*
X9367143Y-13022643D01*
X9395714Y-12979786D01*
X9410000Y-12922643D01*
X9410000Y-12808357D01*
X9395714Y-12779786D01*
X9381428Y-12765500D01*
X9352857Y-12751214D01*
X9295714Y-12751214D01*
X9267143Y-12765500D01*
X9252857Y-12779786D01*
X9238571Y-12808357D01*
X9238571Y-12879786D01*
X9252857Y-12908357D01*
X9267143Y-12922643D01*
X9295714Y-12936929D01*
X9352857Y-12936929D01*
X9381428Y-12922643D01*
X9395714Y-12908357D01*
X9410000Y-12879786D01*
X9524286Y-12751214D02*
X9524286Y-12808357D01*
X9638571Y-12751214D02*
X9638571Y-12808357D01*
X10081428Y-13165500D02*
X10067143Y-13151214D01*
X10038571Y-13108357D01*
X10024286Y-13079786D01*
X10010000Y-13036929D01*
X9995714Y-12965500D01*
X9995714Y-12908357D01*
X10010000Y-12836929D01*
X10024286Y-12794071D01*
X10038571Y-12765500D01*
X10067143Y-12722643D01*
X10081428Y-12708357D01*
X10210000Y-13051214D02*
X10267143Y-13051214D01*
X10295714Y-13036929D01*
X10310000Y-13022643D01*
X10338571Y-12979786D01*
X10352857Y-12922643D01*
X10352857Y-12808357D01*
X10338571Y-12779786D01*
X10324286Y-12765500D01*
X10295714Y-12751214D01*
X10238571Y-12751214D01*
X10210000Y-12765500D01*
X10195714Y-12779786D01*
X10181428Y-12808357D01*
X10181428Y-12879786D01*
X10195714Y-12908357D01*
X10210000Y-12922643D01*
X10238571Y-12936929D01*
X10295714Y-12936929D01*
X10324286Y-12922643D01*
X10338571Y-12908357D01*
X10352857Y-12879786D01*
X10710000Y-13051214D02*
X10710000Y-12751214D01*
X10838571Y-13051214D02*
X10838571Y-12894071D01*
X10824286Y-12865500D01*
X10795714Y-12851214D01*
X10752857Y-12851214D01*
X10724286Y-12865500D01*
X10710000Y-12879786D01*
X11024286Y-13051214D02*
X10995714Y-13036929D01*
X10981428Y-13022643D01*
X10967143Y-12994071D01*
X10967143Y-12908357D01*
X10981428Y-12879786D01*
X10995714Y-12865500D01*
X11024286Y-12851214D01*
X11067143Y-12851214D01*
X11095714Y-12865500D01*
X11110000Y-12879786D01*
X11124286Y-12908357D01*
X11124286Y-12994071D01*
X11110000Y-13022643D01*
X11095714Y-13036929D01*
X11067143Y-13051214D01*
X11024286Y-13051214D01*
X11295714Y-13051214D02*
X11267143Y-13036929D01*
X11252857Y-13008357D01*
X11252857Y-12751214D01*
X11524286Y-13036929D02*
X11495714Y-13051214D01*
X11438571Y-13051214D01*
X11410000Y-13036929D01*
X11395714Y-13008357D01*
X11395714Y-12894071D01*
X11410000Y-12865500D01*
X11438571Y-12851214D01*
X11495714Y-12851214D01*
X11524286Y-12865500D01*
X11538571Y-12894071D01*
X11538571Y-12922643D01*
X11395714Y-12951214D01*
X11652857Y-13036929D02*
X11681428Y-13051214D01*
X11738571Y-13051214D01*
X11767143Y-13036929D01*
X11781428Y-13008357D01*
X11781428Y-12994071D01*
X11767143Y-12965500D01*
X11738571Y-12951214D01*
X11695714Y-12951214D01*
X11667143Y-12936929D01*
X11652857Y-12908357D01*
X11652857Y-12894071D01*
X11667143Y-12865500D01*
X11695714Y-12851214D01*
X11738571Y-12851214D01*
X11767143Y-12865500D01*
X11881428Y-13165500D02*
X11895714Y-13151214D01*
X11924286Y-13108357D01*
X11938571Y-13079786D01*
X11952857Y-13036929D01*
X11967143Y-12965500D01*
X11967143Y-12908357D01*
X11952857Y-12836929D01*
X11938571Y-12794071D01*
X11924286Y-12765500D01*
X11895714Y-12722643D01*
X11881428Y-12708357D01*
X5340000Y-13256500D02*
X5340000Y-13366500D01*
X5285000Y-13311500D02*
X5395000Y-13311500D01*
X5838571Y-13447214D02*
X5667143Y-13447214D01*
X5752857Y-13447214D02*
X5752857Y-13147214D01*
X5724286Y-13190071D01*
X5695714Y-13218643D01*
X5667143Y-13232929D01*
X5967143Y-13418643D02*
X5981428Y-13432929D01*
X5967143Y-13447214D01*
X5952857Y-13432929D01*
X5967143Y-13418643D01*
X5967143Y-13447214D01*
X6267143Y-13447214D02*
X6095714Y-13447214D01*
X6181428Y-13447214D02*
X6181428Y-13147214D01*
X6152857Y-13190071D01*
X6124286Y-13218643D01*
X6095714Y-13232929D01*
X6452857Y-13147214D02*
X6481428Y-13147214D01*
X6510000Y-13161500D01*
X6524286Y-13175786D01*
X6538571Y-13204357D01*
X6552857Y-13261500D01*
X6552857Y-13332929D01*
X6538571Y-13390071D01*
X6524286Y-13418643D01*
X6510000Y-13432929D01*
X6481428Y-13447214D01*
X6452857Y-13447214D01*
X6424286Y-13432929D01*
X6410000Y-13418643D01*
X6395714Y-13390071D01*
X6381428Y-13332929D01*
X6381428Y-13261500D01*
X6395714Y-13204357D01*
X6410000Y-13175786D01*
X6424286Y-13161500D01*
X6452857Y-13147214D01*
X6681428Y-13447214D02*
X6681428Y-13247214D01*
X6681428Y-13275786D02*
X6695714Y-13261500D01*
X6724286Y-13247214D01*
X6767143Y-13247214D01*
X6795714Y-13261500D01*
X6810000Y-13290071D01*
X6810000Y-13447214D01*
X6810000Y-13290071D02*
X6824286Y-13261500D01*
X6852857Y-13247214D01*
X6895714Y-13247214D01*
X6924286Y-13261500D01*
X6938571Y-13290071D01*
X6938571Y-13447214D01*
X7081428Y-13447214D02*
X7081428Y-13247214D01*
X7081428Y-13275786D02*
X7095714Y-13261500D01*
X7124286Y-13247214D01*
X7167143Y-13247214D01*
X7195714Y-13261500D01*
X7210000Y-13290071D01*
X7210000Y-13447214D01*
X7210000Y-13290071D02*
X7224286Y-13261500D01*
X7252857Y-13247214D01*
X7295714Y-13247214D01*
X7324286Y-13261500D01*
X7338571Y-13290071D01*
X7338571Y-13447214D01*
X7924286Y-13132929D02*
X7667143Y-13518643D01*
X8310000Y-13147214D02*
X8338571Y-13147214D01*
X8367143Y-13161500D01*
X8381428Y-13175786D01*
X8395714Y-13204357D01*
X8410000Y-13261500D01*
X8410000Y-13332929D01*
X8395714Y-13390071D01*
X8381428Y-13418643D01*
X8367143Y-13432929D01*
X8338571Y-13447214D01*
X8310000Y-13447214D01*
X8281428Y-13432929D01*
X8267143Y-13418643D01*
X8252857Y-13390071D01*
X8238571Y-13332929D01*
X8238571Y-13261500D01*
X8252857Y-13204357D01*
X8267143Y-13175786D01*
X8281428Y-13161500D01*
X8310000Y-13147214D01*
X8538571Y-13418643D02*
X8552857Y-13432929D01*
X8538571Y-13447214D01*
X8524286Y-13432929D01*
X8538571Y-13418643D01*
X8538571Y-13447214D01*
X8738571Y-13147214D02*
X8767143Y-13147214D01*
X8795714Y-13161500D01*
X8810000Y-13175786D01*
X8824286Y-13204357D01*
X8838571Y-13261500D01*
X8838571Y-13332929D01*
X8824286Y-13390071D01*
X8810000Y-13418643D01*
X8795714Y-13432929D01*
X8767143Y-13447214D01*
X8738571Y-13447214D01*
X8710000Y-13432929D01*
X8695714Y-13418643D01*
X8681428Y-13390071D01*
X8667143Y-13332929D01*
X8667143Y-13261500D01*
X8681428Y-13204357D01*
X8695714Y-13175786D01*
X8710000Y-13161500D01*
X8738571Y-13147214D01*
X9095714Y-13247214D02*
X9095714Y-13447214D01*
X9024286Y-13132929D02*
X8952857Y-13347214D01*
X9138571Y-13347214D01*
X9224286Y-13147214D02*
X9410000Y-13147214D01*
X9310000Y-13261500D01*
X9352857Y-13261500D01*
X9381428Y-13275786D01*
X9395714Y-13290071D01*
X9410000Y-13318643D01*
X9410000Y-13390071D01*
X9395714Y-13418643D01*
X9381428Y-13432929D01*
X9352857Y-13447214D01*
X9267143Y-13447214D01*
X9238571Y-13432929D01*
X9224286Y-13418643D01*
X9524286Y-13147214D02*
X9524286Y-13204357D01*
X9638571Y-13147214D02*
X9638571Y-13204357D01*
X10081428Y-13561500D02*
X10067143Y-13547214D01*
X10038571Y-13504357D01*
X10024286Y-13475786D01*
X10010000Y-13432929D01*
X9995714Y-13361500D01*
X9995714Y-13304357D01*
X10010000Y-13232929D01*
X10024286Y-13190071D01*
X10038571Y-13161500D01*
X10067143Y-13118643D01*
X10081428Y-13104357D01*
X10210000Y-13447214D02*
X10267143Y-13447214D01*
X10295714Y-13432929D01*
X10310000Y-13418643D01*
X10338571Y-13375786D01*
X10352857Y-13318643D01*
X10352857Y-13204357D01*
X10338571Y-13175786D01*
X10324286Y-13161500D01*
X10295714Y-13147214D01*
X10238571Y-13147214D01*
X10210000Y-13161500D01*
X10195714Y-13175786D01*
X10181428Y-13204357D01*
X10181428Y-13275786D01*
X10195714Y-13304357D01*
X10210000Y-13318643D01*
X10238571Y-13332929D01*
X10295714Y-13332929D01*
X10324286Y-13318643D01*
X10338571Y-13304357D01*
X10352857Y-13275786D01*
X10710000Y-13447214D02*
X10710000Y-13147214D01*
X10838571Y-13447214D02*
X10838571Y-13290071D01*
X10824286Y-13261500D01*
X10795714Y-13247214D01*
X10752857Y-13247214D01*
X10724286Y-13261500D01*
X10710000Y-13275786D01*
X11024286Y-13447214D02*
X10995714Y-13432929D01*
X10981428Y-13418643D01*
X10967143Y-13390071D01*
X10967143Y-13304357D01*
X10981428Y-13275786D01*
X10995714Y-13261500D01*
X11024286Y-13247214D01*
X11067143Y-13247214D01*
X11095714Y-13261500D01*
X11110000Y-13275786D01*
X11124286Y-13304357D01*
X11124286Y-13390071D01*
X11110000Y-13418643D01*
X11095714Y-13432929D01*
X11067143Y-13447214D01*
X11024286Y-13447214D01*
X11295714Y-13447214D02*
X11267143Y-13432929D01*
X11252857Y-13404357D01*
X11252857Y-13147214D01*
X11524286Y-13432929D02*
X11495714Y-13447214D01*
X11438571Y-13447214D01*
X11410000Y-13432929D01*
X11395714Y-13404357D01*
X11395714Y-13290071D01*
X11410000Y-13261500D01*
X11438571Y-13247214D01*
X11495714Y-13247214D01*
X11524286Y-13261500D01*
X11538571Y-13290071D01*
X11538571Y-13318643D01*
X11395714Y-13347214D01*
X11652857Y-13432929D02*
X11681428Y-13447214D01*
X11738571Y-13447214D01*
X11767143Y-13432929D01*
X11781428Y-13404357D01*
X11781428Y-13390071D01*
X11767143Y-13361500D01*
X11738571Y-13347214D01*
X11695714Y-13347214D01*
X11667143Y-13332929D01*
X11652857Y-13304357D01*
X11652857Y-13290071D01*
X11667143Y-13261500D01*
X11695714Y-13247214D01*
X11738571Y-13247214D01*
X11767143Y-13261500D01*
X11881428Y-13561500D02*
X11895714Y-13547214D01*
X11924286Y-13504357D01*
X11938571Y-13475786D01*
X11952857Y-13432929D01*
X11967143Y-13361500D01*
X11967143Y-13304357D01*
X11952857Y-13232929D01*
X11938571Y-13190071D01*
X11924286Y-13161500D01*
X11895714Y-13118643D01*
X11881428Y-13104357D01*
X5377427Y-13749927D02*
X5377427Y-13665073D01*
X5292573Y-13665073D01*
X5292573Y-13749927D01*
X5377427Y-13749927D01*
X5838571Y-13843214D02*
X5667143Y-13843214D01*
X5752857Y-13843214D02*
X5752857Y-13543214D01*
X5724286Y-13586071D01*
X5695714Y-13614643D01*
X5667143Y-13628929D01*
X5967143Y-13814643D02*
X5981428Y-13828929D01*
X5967143Y-13843214D01*
X5952857Y-13828929D01*
X5967143Y-13814643D01*
X5967143Y-13843214D01*
X6095714Y-13571786D02*
X6110000Y-13557500D01*
X6138571Y-13543214D01*
X6210000Y-13543214D01*
X6238571Y-13557500D01*
X6252857Y-13571786D01*
X6267143Y-13600357D01*
X6267143Y-13628929D01*
X6252857Y-13671786D01*
X6081428Y-13843214D01*
X6267143Y-13843214D01*
X6452857Y-13543214D02*
X6481428Y-13543214D01*
X6510000Y-13557500D01*
X6524286Y-13571786D01*
X6538571Y-13600357D01*
X6552857Y-13657500D01*
X6552857Y-13728929D01*
X6538571Y-13786071D01*
X6524286Y-13814643D01*
X6510000Y-13828929D01*
X6481428Y-13843214D01*
X6452857Y-13843214D01*
X6424286Y-13828929D01*
X6410000Y-13814643D01*
X6395714Y-13786071D01*
X6381428Y-13728929D01*
X6381428Y-13657500D01*
X6395714Y-13600357D01*
X6410000Y-13571786D01*
X6424286Y-13557500D01*
X6452857Y-13543214D01*
X6681428Y-13843214D02*
X6681428Y-13643214D01*
X6681428Y-13671786D02*
X6695714Y-13657500D01*
X6724286Y-13643214D01*
X6767143Y-13643214D01*
X6795714Y-13657500D01*
X6810000Y-13686071D01*
X6810000Y-13843214D01*
X6810000Y-13686071D02*
X6824286Y-13657500D01*
X6852857Y-13643214D01*
X6895714Y-13643214D01*
X6924286Y-13657500D01*
X6938571Y-13686071D01*
X6938571Y-13843214D01*
X7081428Y-13843214D02*
X7081428Y-13643214D01*
X7081428Y-13671786D02*
X7095714Y-13657500D01*
X7124286Y-13643214D01*
X7167143Y-13643214D01*
X7195714Y-13657500D01*
X7210000Y-13686071D01*
X7210000Y-13843214D01*
X7210000Y-13686071D02*
X7224286Y-13657500D01*
X7252857Y-13643214D01*
X7295714Y-13643214D01*
X7324286Y-13657500D01*
X7338571Y-13686071D01*
X7338571Y-13843214D01*
X7924286Y-13528929D02*
X7667143Y-13914643D01*
X8310000Y-13543214D02*
X8338571Y-13543214D01*
X8367143Y-13557500D01*
X8381428Y-13571786D01*
X8395714Y-13600357D01*
X8410000Y-13657500D01*
X8410000Y-13728929D01*
X8395714Y-13786071D01*
X8381428Y-13814643D01*
X8367143Y-13828929D01*
X8338571Y-13843214D01*
X8310000Y-13843214D01*
X8281428Y-13828929D01*
X8267143Y-13814643D01*
X8252857Y-13786071D01*
X8238571Y-13728929D01*
X8238571Y-13657500D01*
X8252857Y-13600357D01*
X8267143Y-13571786D01*
X8281428Y-13557500D01*
X8310000Y-13543214D01*
X8538571Y-13814643D02*
X8552857Y-13828929D01*
X8538571Y-13843214D01*
X8524286Y-13828929D01*
X8538571Y-13814643D01*
X8538571Y-13843214D01*
X8738571Y-13543214D02*
X8767143Y-13543214D01*
X8795714Y-13557500D01*
X8810000Y-13571786D01*
X8824286Y-13600357D01*
X8838571Y-13657500D01*
X8838571Y-13728929D01*
X8824286Y-13786071D01*
X8810000Y-13814643D01*
X8795714Y-13828929D01*
X8767143Y-13843214D01*
X8738571Y-13843214D01*
X8710000Y-13828929D01*
X8695714Y-13814643D01*
X8681428Y-13786071D01*
X8667143Y-13728929D01*
X8667143Y-13657500D01*
X8681428Y-13600357D01*
X8695714Y-13571786D01*
X8710000Y-13557500D01*
X8738571Y-13543214D01*
X9095714Y-13643214D02*
X9095714Y-13843214D01*
X9024286Y-13528929D02*
X8952857Y-13743214D01*
X9138571Y-13743214D01*
X9224286Y-13543214D02*
X9424286Y-13543214D01*
X9295714Y-13843214D01*
X9524286Y-13543214D02*
X9524286Y-13600357D01*
X9638571Y-13543214D02*
X9638571Y-13600357D01*
X10081428Y-13957500D02*
X10067143Y-13943214D01*
X10038571Y-13900357D01*
X10024286Y-13871786D01*
X10010000Y-13828929D01*
X9995714Y-13757500D01*
X9995714Y-13700357D01*
X10010000Y-13628929D01*
X10024286Y-13586071D01*
X10038571Y-13557500D01*
X10067143Y-13514643D01*
X10081428Y-13500357D01*
X10238571Y-13671786D02*
X10210000Y-13657500D01*
X10195714Y-13643214D01*
X10181428Y-13614643D01*
X10181428Y-13600357D01*
X10195714Y-13571786D01*
X10210000Y-13557500D01*
X10238571Y-13543214D01*
X10295714Y-13543214D01*
X10324286Y-13557500D01*
X10338571Y-13571786D01*
X10352857Y-13600357D01*
X10352857Y-13614643D01*
X10338571Y-13643214D01*
X10324286Y-13657500D01*
X10295714Y-13671786D01*
X10238571Y-13671786D01*
X10210000Y-13686071D01*
X10195714Y-13700357D01*
X10181428Y-13728929D01*
X10181428Y-13786071D01*
X10195714Y-13814643D01*
X10210000Y-13828929D01*
X10238571Y-13843214D01*
X10295714Y-13843214D01*
X10324286Y-13828929D01*
X10338571Y-13814643D01*
X10352857Y-13786071D01*
X10352857Y-13728929D01*
X10338571Y-13700357D01*
X10324286Y-13686071D01*
X10295714Y-13671786D01*
X10710000Y-13843214D02*
X10710000Y-13543214D01*
X10838571Y-13843214D02*
X10838571Y-13686071D01*
X10824286Y-13657500D01*
X10795714Y-13643214D01*
X10752857Y-13643214D01*
X10724286Y-13657500D01*
X10710000Y-13671786D01*
X11024286Y-13843214D02*
X10995714Y-13828929D01*
X10981428Y-13814643D01*
X10967143Y-13786071D01*
X10967143Y-13700357D01*
X10981428Y-13671786D01*
X10995714Y-13657500D01*
X11024286Y-13643214D01*
X11067143Y-13643214D01*
X11095714Y-13657500D01*
X11110000Y-13671786D01*
X11124286Y-13700357D01*
X11124286Y-13786071D01*
X11110000Y-13814643D01*
X11095714Y-13828929D01*
X11067143Y-13843214D01*
X11024286Y-13843214D01*
X11295714Y-13843214D02*
X11267143Y-13828929D01*
X11252857Y-13800357D01*
X11252857Y-13543214D01*
X11524286Y-13828929D02*
X11495714Y-13843214D01*
X11438571Y-13843214D01*
X11410000Y-13828929D01*
X11395714Y-13800357D01*
X11395714Y-13686071D01*
X11410000Y-13657500D01*
X11438571Y-13643214D01*
X11495714Y-13643214D01*
X11524286Y-13657500D01*
X11538571Y-13686071D01*
X11538571Y-13714643D01*
X11395714Y-13743214D01*
X11652857Y-13828929D02*
X11681428Y-13843214D01*
X11738571Y-13843214D01*
X11767143Y-13828929D01*
X11781428Y-13800357D01*
X11781428Y-13786071D01*
X11767143Y-13757500D01*
X11738571Y-13743214D01*
X11695714Y-13743214D01*
X11667143Y-13728929D01*
X11652857Y-13700357D01*
X11652857Y-13686071D01*
X11667143Y-13657500D01*
X11695714Y-13643214D01*
X11738571Y-13643214D01*
X11767143Y-13657500D01*
X11881428Y-13957500D02*
X11895714Y-13943214D01*
X11924286Y-13900357D01*
X11938571Y-13871786D01*
X11952857Y-13828929D01*
X11967143Y-13757500D01*
X11967143Y-13700357D01*
X11952857Y-13628929D01*
X11938571Y-13586071D01*
X11924286Y-13557500D01*
X11895714Y-13514643D01*
X11881428Y-13500357D01*
M02*
